G04 EasyPC Gerber Version 21.0.3 Build 4286 *
G04 #@! TF.Part,Single*
G04 #@! TF.FileFunction,Copper,L1,Top *
G04 #@! TF.FilePolarity,Positive *
%FSLAX35Y35*%
%MOIN*%
G04 #@! TA.AperFunction,ComponentPad*
%AMT15*0 Octagon Pad at angle 0*4,1,8,-0.01243,-0.03000,0.01243,-0.03000,0.03000,-0.01243,0.03000,0.01243,0.01243,0.03000,-0.01243,0.03000,-0.03000,0.01243,-0.03000,-0.01243,-0.01243,-0.03000,0*%
%ADD15T15*%
G04 #@! TA.AperFunction,SMDPad*
%ADD128R,0.02126X0.03701*%
%ADD121R,0.02165X0.11811*%
%ADD123R,0.02559X0.07283*%
%ADD129R,0.03150X0.03937*%
%ADD126R,0.03150X0.14567*%
%ADD20R,0.03543X0.03937*%
%ADD127R,0.03937X0.11811*%
%ADD74R,0.04331X0.07874*%
%ADD29R,0.31496X0.40354*%
%ADD75R,0.03150X0.03150*%
G04 #@! TA.AperFunction,ComponentPad*
%ADD18R,0.06496X0.06496*%
%ADD70R,0.06575X0.06575*%
%ADD16R,0.07382X0.07382*%
%ADD25R,0.07559X0.07559*%
G04 #@! TD.AperFunction*
%ADD13C,0.00394*%
%ADD14C,0.01181*%
%ADD132C,0.01200*%
%ADD79C,0.01575*%
%ADD130C,0.02362*%
G04 #@! TA.AperFunction,ViaPad*
%ADD80C,0.04000*%
G04 #@! TA.AperFunction,ComponentPad*
%ADD22C,0.04449*%
G04 #@! TD.AperFunction*
%ADD78C,0.04724*%
G04 #@! TA.AperFunction,ComponentPad*
%ADD28C,0.05118*%
%ADD27C,0.05748*%
%ADD19C,0.06496*%
%ADD71C,0.06575*%
%ADD77C,0.07087*%
%ADD17C,0.07382*%
G04 #@! TA.AperFunction,SMDPad*
%ADD122R,0.03701X0.02126*%
%ADD120R,0.11811X0.02165*%
%ADD76R,0.05787X0.02441*%
%ADD124R,0.06102X0.02756*%
%ADD125R,0.14567X0.03150*%
%ADD21R,0.03937X0.03543*%
G04 #@! TA.AperFunction,ComponentPad*
%ADD26C,0.07559*%
G04 #@! TA.AperFunction,SMDPad*
%ADD73R,0.40354X0.31496*%
G04 #@! TD.AperFunction*
%ADD131C,0.10236*%
%ADD81C,0.11811*%
X0Y0D02*
D02*
D13*
X6090Y210303D02*
Y2397D01*
X339910*
Y6988*
X329984*
Y13759*
X339910*
Y210303*
X6090*
X336298Y36977D02*
X339325Y33950D01*
Y29673*
X336298Y26646*
X332021*
X329159Y29508*
X326298Y26646*
X322021*
X318994Y29673*
Y33950*
X320564Y35520*
G75*
G02X319041Y34896I-1521J1541*
G01*
X317308*
G75*
G02X313968Y26228I-4265J-3335*
G01*
X314291*
G75*
G02X315825Y25593I2J-2166*
G01*
X321291Y20126*
X322947*
Y21110*
X329640*
Y20127*
X330772*
Y20846*
X339315*
Y15649*
X330772*
Y15796*
X329640*
Y8511*
X322947*
Y9339*
X317878*
X315972Y7434*
X312347*
X309781Y9999*
Y13624*
X312347Y16190*
X315972*
X318177Y13985*
X322947*
Y15795*
X320396*
G75*
G02X318862Y16430I-2J2166*
G01*
X313396Y21897*
X310543*
G75*
G02X309011Y22533J2165*
G01*
X304403Y27140*
G75*
G02X299837Y34896I-1360J4422*
G01*
X297669*
Y26937*
X288417*
Y34896*
X286122*
Y34602*
X271555*
Y34896*
X271437*
G75*
G02X269904Y35531I-2J2165*
G01*
X260404Y45031*
G75*
G02X259770Y46562I1531J1531*
G01*
Y76668*
G75*
G02X260404Y78199I2165*
G01*
X260567Y78362*
X256758*
Y92929*
X257053*
Y94009*
X255972Y92929*
X256679*
Y78362*
X251758*
Y92146*
X251679*
Y78362*
X247959*
Y70477*
X251041*
G75*
G02X252574Y69843I2J-2165*
G01*
X254324Y68093*
G75*
G02X254959Y66562I-1531J-1531*
G01*
Y44209*
X264940Y34227*
X271555*
Y34523*
X286122*
Y29602*
X271555*
Y29896*
X264046*
G75*
G02X262512Y30531I-2J2165*
G01*
X251262Y41781*
G75*
G02X250628Y43312I1531J1531*
G01*
Y56084*
X250074Y55531*
G75*
G02X248541Y54896I-1531J1531*
G01*
X248327*
Y54602*
X233760*
Y59523*
X247628*
Y59602*
X233760*
Y64523*
X235539*
G75*
G02X235163Y65232I1692J1352*
G01*
X232801*
Y69444*
X232014*
Y74163*
X230531Y72681*
G75*
G02X230533Y72562I-3742J-121*
G01*
Y65162*
G75*
G02X229435Y62515I-3740*
G01*
X225091Y58170*
G75*
G02X222443Y57072I-2648J2642*
G01*
X209093*
X200872Y48851*
Y44184*
G75*
G02X201276Y43682I-3739J-3421*
G01*
Y46618*
X212988*
Y34905*
X201276*
Y37843*
G75*
G02X192132Y39930I-4144J2920*
G01*
G75*
G02X182132I-5000J833*
G01*
G75*
G02X172132I-5000J833*
G01*
G75*
G02X162132I-5000J833*
G01*
G75*
G02X152132I-5000J833*
G01*
G75*
G02X142063Y40763I-5000J833*
G01*
G75*
G02X152132Y41596I5069*
G01*
G75*
G02X162132I5000J-833*
G01*
G75*
G02X172132I5000J-833*
G01*
G75*
G02X182132I5000J-833*
G01*
G75*
G02X192132I5000J-833*
G01*
G75*
G02X193392Y44184I5000J-833*
G01*
Y50400*
G75*
G02X194490Y53048I3740*
G01*
X204896Y63454*
G75*
G02X207543Y64552I2648J-2642*
G01*
X220894*
X223053Y66711*
Y72562*
G75*
G02X223055Y72681I3744J-2*
G01*
X222880Y72856*
Y68812*
G75*
G02X222243Y67278I-2165J0*
G01*
X221424Y66459*
G75*
G02X220203Y65844I-1534J1529*
G01*
Y65232*
X211344*
Y70822*
X210951*
Y68480*
X204258*
Y69778*
X203827*
G75*
G02X202294Y70413I-2J2165*
G01*
X198470Y74236*
Y59130*
X171300*
X166236Y54066*
G75*
G02X163589Y52967I-2648J2642*
G01*
X149626*
X139051Y42393*
G75*
G02X136404Y41294I-2648J2642*
G01*
X131531*
G75*
G02X130394Y40566I-3198J3740*
G01*
X133730*
G75*
G02X135263Y39931I2J-2165*
G01*
X149392Y25803*
X157329*
Y19110*
X156482*
Y15680*
X158537Y13624*
Y9999*
X155972Y7434*
X152347*
X149781Y9999*
Y13624*
X151837Y15680*
Y19110*
X144730*
Y24340*
X132835Y36235*
X131123*
G75*
G02X128333Y25546I-2790J-4980*
G01*
G75*
G02X125543Y36235J5709*
G01*
X111438*
G75*
G02X108648Y25546I-2790J-4980*
G01*
G75*
G02X105857Y36235J5709*
G01*
X101307*
G75*
G02X99774Y36869I-2J2165*
G01*
X95286Y41357*
G75*
G02X94652Y42889I1531J1531*
G01*
Y62779*
X87652Y69778*
X77624*
Y67279*
X68293*
Y75211*
X65739*
X59759Y69231*
X64404Y64587*
G75*
G02X66541Y59432I-5145J-5155*
G01*
Y47613*
G75*
G02X64406Y42461I-7284*
G01*
X58468Y36524*
G75*
G02X53317Y34389I-5151J5150*
G01*
X44004*
G75*
G02X43852Y34388I-152J7297*
G01*
G75*
G02X42730Y48869J7284*
G01*
G75*
G02X43852Y48956I1122J-7196*
G01*
X50300*
X51974Y50630*
Y56415*
X46442Y61948*
X46031*
G75*
G02X41674I-2179J7283*
G01*
X24274*
G75*
G02X24167Y61947I-107J7295*
G01*
G75*
G02Y76515J7284*
G01*
G75*
G02X24274Y76515J-7296*
G01*
X41674*
G75*
G02X46031I2179J-7283*
G01*
X46442*
X56943Y87015*
G75*
G02X65056Y88519I5150J-5150*
G01*
X72959*
G75*
G02X78407Y85684J-6654*
G01*
X79047*
X83156Y89792*
Y100522*
G75*
G02Y100525I1461J2*
G01*
G75*
G02Y100526I1504J1*
G01*
G75*
G02X84251Y103171I3741J0*
G01*
X87250Y106170*
Y113598*
X88037*
Y116573*
G75*
G02X87289Y116172I-1378J1670*
G01*
Y115133*
X81778*
Y114346*
X73904*
Y122614*
X81778*
Y121826*
X86896*
Y127378*
X72801*
Y126590*
X65321*
Y145488*
X71896*
Y150763*
G75*
G02X72530Y152294I2165*
G01*
X73833Y153597*
X36822*
X33628Y150458*
Y148833*
G75*
G02X39722Y146826I2717J-2008*
G01*
G75*
G02X38970Y144700I-3378*
G01*
X48988*
G75*
G02X49663Y146185I2317J-158*
G01*
X51946Y148468*
G75*
G02X53589Y149148I1643J-1643*
G01*
X59494*
G75*
G02X61163Y148441J-2323*
G01*
X63680Y145846*
G75*
G02X64337Y144227I-1667J-1619*
G01*
Y121826*
X64376*
Y122614*
X72250*
Y114346*
X64376*
Y115133*
X60006*
Y113572*
X67204Y106374*
X71246*
Y97961*
X72585Y99300*
G75*
G02X76581Y106373I3996J2407*
G01*
G75*
G02X80321Y98919J-4665*
G01*
Y98011*
G75*
G02Y98008I-1461J-2*
G01*
G75*
G02Y98007I-1504J0*
G01*
G75*
G02X79226Y95362I-3741J0*
G01*
X75367Y91504*
G75*
G02X72718Y90408I-2644J2645*
G01*
X38470*
G75*
G02X35823Y91507J3740*
G01*
X30632Y96698*
G75*
G02X29533Y99345I2642J2648*
G01*
Y104815*
G75*
G02X26506Y107335I1536J4924*
G01*
G75*
G02X15124Y109739I-5437J2404*
G01*
G75*
G02X21633Y115657I5945*
G01*
X14637Y122653*
X11069*
Y126770*
G75*
G02Y129165I3543J1197*
G01*
Y131708*
X10872*
Y139189*
X18352*
Y131708*
X18156*
Y129713*
X33685Y114183*
G75*
G02X35911Y111514I-2617J-4444*
G01*
Y114897*
X46226*
Y104582*
X37014*
Y100894*
X40020Y97889*
X61915*
Y101083*
X53624Y109375*
G75*
G02X52526Y112022I2642J2648*
G01*
Y120547*
X46738*
Y125338*
X44017Y122618*
G75*
G02X42483Y121984I-1531J1531*
G01*
X41935*
Y120964*
X36423*
Y120177*
X28549*
Y126590*
X22565*
Y145488*
X28982*
Y151432*
G75*
G02X29677Y153089I2323J0*
G01*
X33961Y157299*
X19750*
Y191551*
X105616*
Y160800*
X111502Y166685*
Y187219*
G75*
G02X112182Y188862I2323*
G01*
X116837Y193516*
Y197944*
X114781Y199999*
Y203624*
X117347Y206190*
X120972*
X123537Y203624*
Y199999*
X121482Y197944*
Y192624*
X129781Y200922*
Y203624*
X132347Y206190*
X135972*
X138537Y203624*
Y200669*
X139781Y201913*
Y203624*
X142347Y206190*
X145972*
X148537Y203624*
Y199999*
X145972Y197434*
X142347*
X141887Y197894*
X138431Y194439*
Y165841*
G75*
G02X137797Y164310I-2165*
G01*
X133116Y159630*
Y137919*
X146065Y124971*
G75*
G02X146699Y123440I-1531J-1531*
G01*
Y103437*
X146738Y103398*
Y117181*
X147925*
G75*
G02X148554Y118552I2159J-160*
G01*
X152847Y122845*
G75*
G02X154380Y123479I1531J-1531*
G01*
X195841*
X200212Y127850*
X187683*
Y127063*
X180793*
Y127850*
X176581*
Y130704*
X174083*
G75*
G02X172550Y131338I-2J2165*
G01*
X167849Y136038*
X139811*
G75*
G02X138278Y136672I-2J2165*
G01*
X134735Y140216*
G75*
G02X134100Y141747I1531J1531*
G01*
Y157692*
G75*
G02X134735Y159223I2165*
G01*
X140404Y164892*
G75*
G02X141937Y165526I1531J-1531*
G01*
X142109*
G75*
G02X144813Y174560I2704J4112*
G01*
G75*
G02X149085Y167195I0J-4921*
G01*
X160197Y178307*
Y186862*
X161994*
Y197787*
X159781Y199999*
Y203624*
X162347Y206190*
X165972*
X168537Y203624*
Y199999*
X166325Y197787*
Y186862*
X166890*
Y174975*
X168294*
X171065Y177746*
Y180354*
X177522*
Y180078*
X186767*
G75*
G02X193550Y173794I3276J-3266*
G01*
X194396*
X195733Y175131*
G75*
G02X200043Y181438I4310J1681*
G01*
G75*
G02Y172186J-4626*
G01*
G75*
G02X199026Y172299I1J4626*
G01*
X197686Y170959*
X201646*
X205757Y175070*
G75*
G02X210043Y181438I4286J1741*
G01*
G75*
G02X213534Y173776J-4626*
G01*
X215535Y175777*
G75*
G02X215622Y178171I4509J1035*
G01*
X211747Y182046*
X177522*
Y181771*
X171065*
Y186653*
X177522*
Y186377*
X212641*
G75*
G02X214175Y185743I2J-2165*
G01*
X218684Y181233*
G75*
G02X219853Y181434I1360J-4422*
G01*
X228012Y189593*
G75*
G02X229546Y190227I1531J-1531*
G01*
X266316*
X263012Y193531*
G75*
G02X262381Y194941I1531J1531*
G01*
X262233Y197548*
X259781Y199999*
Y203624*
X262347Y206190*
X265972*
X268537Y203624*
Y199999*
X266545Y198007*
X266658Y196009*
X269690Y192977*
X274316*
X273012Y194281*
G75*
G02X272382Y195676I1531J1531*
G01*
X272265Y197516*
X269781Y199999*
Y203624*
X272347Y206190*
X275972*
X278537Y203624*
Y199999*
X276571Y198033*
X276652Y196765*
X277440Y195977*
X312791*
G75*
G02X314324Y195343I2J-2165*
G01*
X319074Y190593*
G75*
G02X319709Y189062I-1531J-1531*
G01*
Y142562*
G75*
G02X319074Y141031I-2165*
G01*
X316521Y138477*
X320041*
G75*
G02X321641Y137773I2J-2165*
G01*
X323089Y136190*
X325972*
X328537Y133624*
Y129999*
X325972Y127434*
X322347*
X319781Y129999*
Y133390*
X319089Y134146*
X309361*
G75*
G02X306376Y125812I-3818J-3335*
G01*
G75*
G02Y115812I-833J-5000*
G01*
G75*
G02Y105812I-833J-5000*
G01*
G75*
G02Y95812I-833J-5000*
G01*
G75*
G02Y85812I-833J-5000*
G01*
G75*
G02Y75812I-833J-5000*
G01*
G75*
G02X307737Y66242I-833J-5000*
G01*
G75*
G02X308704Y55881I-2193J-5430*
G01*
X310612*
Y48443*
X320975Y58806*
X319781Y59999*
Y63624*
X322347Y66190*
X325972*
X328537Y63624*
Y59999*
X325972Y57434*
X325728*
X324483Y56190*
X325972*
X328537Y53624*
Y49999*
X327515Y48977*
X328896*
X329850Y49931*
X329781Y49999*
Y53624*
X332347Y56190*
X335972*
X338537Y53624*
Y49999*
X335972Y47434*
X333478*
X331324Y45281*
G75*
G02X329791Y44646I-1531J1531*
G01*
X327515*
X328537Y43624*
Y39999*
X325972Y37434*
X322478*
X322021Y36977*
X326298*
X329159Y34116*
X332021Y36977*
X336298*
X139892Y183418D02*
G75*
G02X149734I4921D01*
G01*
G75*
G02X139892I-4921*
G01*
X325972Y76190D02*
X328537Y73624D01*
Y69999*
X325972Y67434*
X322347*
X319781Y69999*
Y73624*
X322347Y76190*
X325972*
Y86190D02*
X328537Y83624D01*
Y79999*
X325972Y77434*
X322347*
X319781Y79999*
Y83624*
X322347Y86190*
X325972*
Y96190D02*
X328537Y93624D01*
Y89999*
X325972Y87434*
X322347*
X319781Y89999*
Y93624*
X322347Y96190*
X325972*
Y106190D02*
X328537Y103624D01*
Y99999*
X325972Y97434*
X322347*
X319781Y99999*
Y103624*
X322347Y106190*
X325972*
Y116190D02*
X328537Y113624D01*
Y109999*
X325972Y107434*
X322347*
X319781Y109999*
Y113624*
X322347Y116190*
X325972*
Y126190D02*
X328537Y123624D01*
Y119999*
X325972Y117434*
X322347*
X319781Y119999*
Y123624*
X322347Y126190*
X325972*
X335972Y46190D02*
X338537Y43624D01*
Y39999*
X335972Y37434*
X332347*
X329781Y39999*
Y43624*
X332347Y46190*
X335972*
X305972Y16190D02*
X308537Y13624D01*
Y9999*
X305972Y7434*
X302347*
X299781Y9999*
Y13624*
X302347Y16190*
X305972*
X295972D02*
X298537Y13624D01*
Y9999*
X295972Y7434*
X292347*
X289781Y9999*
Y13624*
X292347Y16190*
X295972*
X275972D02*
X278537Y13624D01*
Y9999*
X275972Y7434*
X272347*
X269781Y9999*
Y13624*
X272347Y16190*
X275972*
X271555Y24523D02*
X286122D01*
Y19602*
X271555*
Y24523*
X285972Y16190D02*
X288537Y13624D01*
Y9999*
X285972Y7434*
X282347*
X279781Y9999*
Y13624*
X282347Y16190*
X285972*
X271555Y29523D02*
X286122D01*
Y24602*
X271555*
Y29523*
X265972Y16190D02*
X268537Y13624D01*
Y9999*
X265972Y7434*
X262347*
X259781Y9999*
Y13624*
X262347Y16190*
X265972*
X255972D02*
X258537Y13624D01*
Y9999*
X255972Y7434*
X252347*
X249781Y9999*
Y13624*
X252347Y16190*
X255972*
X233760Y44523D02*
X248327D01*
Y39602*
X233760*
Y44523*
Y49523D02*
X248327D01*
Y44602*
X233760*
Y49523*
Y54523D02*
X248327D01*
Y49602*
X233760*
Y54523*
X225972Y16190D02*
X228537Y13624D01*
Y9999*
X225972Y7434*
X222347*
X219781Y9999*
Y13624*
X222347Y16190*
X225972*
X248327Y25311D02*
X249114D01*
Y18815*
X232972*
Y24896*
X228939*
G75*
G02X227406Y25531I-2J2165*
G01*
X224798Y28139*
G75*
G02X220691Y31706I-505J3567*
G01*
G75*
G02X227896I3602*
G01*
G75*
G02X227860Y31201I-3604J-1*
G01*
X229834Y29227*
X233760*
Y29523*
X248327*
Y25311*
X245972Y16190D02*
X248537Y13624D01*
Y9999*
X245972Y7434*
X242347*
X239781Y9999*
Y13624*
X242347Y16190*
X245972*
X233760Y39523D02*
X248327D01*
Y34602*
X234815*
X234894Y34523*
X248327*
Y29602*
X233760*
Y29963*
G75*
G02X232762Y30531I533J2098*
G01*
X222762Y40531*
G75*
G02X222128Y42062I1531J1531*
G01*
Y48039*
G75*
G02X220691Y50918I2165J2879*
G01*
G75*
G02X227896I3602*
G01*
G75*
G02X226459Y48039I-3602*
G01*
Y42959*
X233760Y35657*
Y39523*
X215972Y16190D02*
X218537Y13624D01*
Y9999*
X215972Y7434*
X212347*
X209781Y9999*
Y13624*
X212347Y16190*
X215972*
X205972D02*
X208537Y13624D01*
Y9999*
X205972Y7434*
X202347*
X199781Y9999*
Y13624*
X202347Y16190*
X205972*
X195972D02*
X198537Y13624D01*
Y9999*
X195972Y7434*
X192347*
X189781Y9999*
Y13624*
X192347Y16190*
X195972*
X185972D02*
X188537Y13624D01*
Y9999*
X185972Y7434*
X182347*
X179781Y9999*
Y13624*
X182347Y16190*
X185972*
X175972D02*
X178537Y13624D01*
Y9999*
X175972Y7434*
X172347*
X169781Y9999*
Y13624*
X172347Y16190*
X175972*
X165972D02*
X168537Y13624D01*
Y9999*
X165972Y7434*
X162347*
X159781Y9999*
Y13624*
X162347Y16190*
X165972*
X135972D02*
X138537Y13624D01*
Y9999*
X135972Y7434*
X132347*
X129781Y9999*
Y13624*
X132347Y16190*
X135972*
X126298Y16977D02*
X129325Y13950D01*
Y9673*
X126298Y6646*
X122021*
X119159Y9508*
X116298Y6646*
X112021*
X108994Y9673*
Y13950*
X112021Y16977*
X116298*
X119159Y14116*
X122021Y16977*
X126298*
X105972Y16190D02*
X108537Y13624D01*
Y9999*
X105972Y7434*
X102347*
X99781Y9999*
Y13624*
X102347Y16190*
X105972*
X91974Y31527D02*
G75*
G02Y29132I-3543J-1197D01*
G01*
Y25015*
X91480*
G75*
G02X91384Y20554I-3049J-2166*
G01*
Y19897*
X90728*
G75*
G02X88431Y19109I-2296J2952*
G01*
X74035*
X70518Y15591*
Y14385*
X69040*
G75*
G02X65696I-1672J3346*
G01*
X62741*
G75*
G02X61069Y13991I-1672J3346*
G01*
X54014*
G75*
G02X51366Y15089J3740*
G01*
X43469Y22986*
G75*
G02X40654Y24152I383J4906*
G01*
X27366*
G75*
G02X19246Y27893I-3198J3740*
G01*
G75*
G02X27366Y31633I4921*
G01*
X40654*
G75*
G02X48759Y28276I3198J-3740*
G01*
X55563Y21471*
X61069*
G75*
G02X62738Y21078J-3741*
G01*
X65426*
X69839Y25491*
G75*
G02X72486Y26589I2648J-2642*
G01*
X84888*
Y28583*
X84244Y29227*
X77407*
Y27811*
X67093*
Y38126*
X68800*
G75*
G02X69846Y48404I3450J4842*
G01*
G75*
G02X67093Y52967I2404J4563*
G01*
G75*
G02X77407I5157*
G01*
G75*
G02X74654Y48404I-5157*
G01*
G75*
G02X78195Y42967I-2404J-5437*
G01*
G75*
G02X78189Y42700I-5943J-3*
G01*
X80360Y44871*
Y45291*
X79573*
Y53165*
X87841*
Y45291*
X87053*
Y44598*
G75*
G02Y41257I-3347J-1670*
G01*
Y39779*
X85847*
X82776Y36707*
X85789*
G75*
G02X88404Y35645I5J-3740*
G01*
X91974*
Y31527*
X95972Y16190D02*
X98537Y13624D01*
Y9999*
X95972Y7434*
X92347*
X89781Y9999*
Y13624*
X92347Y16190*
X95972*
X85972D02*
X88537Y13624D01*
Y9999*
X85972Y7434*
X82347*
X79781Y9999*
Y13624*
X82347Y16190*
X85972*
X75972D02*
X78537Y13624D01*
Y9999*
X75972Y7434*
X72347*
X69781Y9999*
Y13624*
X72347Y16190*
X75972*
X38931Y14113D02*
G75*
G02X48774I4921D01*
G01*
G75*
G02X38931I-4921*
G01*
Y55452D02*
G75*
G02X48774I4921D01*
G01*
G75*
G02X38931I-4921*
G01*
X19246Y14113D02*
G75*
G02X29089I4921D01*
G01*
G75*
G02X19246I-4921*
G01*
Y41672D02*
G75*
G02X29089I4921D01*
G01*
G75*
G02X19246I-4921*
G01*
Y55452D02*
G75*
G02X29089I4921D01*
G01*
G75*
G02X19246I-4921*
G01*
X38144Y83011D02*
G75*
G02X49561I5709D01*
G01*
G75*
G02X38144I-5709*
G01*
X18459D02*
G75*
G02X29876I5709D01*
G01*
G75*
G02X18459I-5709*
G01*
X30972Y206190D02*
X33537Y203624D01*
Y199999*
X30972Y197434*
X27347*
X24781Y199999*
Y203624*
X27347Y206190*
X30972*
X40972D02*
X43537Y203624D01*
Y199999*
X40972Y197434*
X37347*
X34781Y199999*
Y203624*
X37347Y206190*
X40972*
X50972D02*
X53537Y203624D01*
Y199999*
X50972Y197434*
X47347*
X44781Y199999*
Y203624*
X47347Y206190*
X50972*
X60972D02*
X63537Y203624D01*
Y199999*
X60972Y197434*
X57347*
X54781Y199999*
Y203624*
X57347Y206190*
X60972*
X70972D02*
X73537Y203624D01*
Y199999*
X70972Y197434*
X67347*
X64781Y199999*
Y203624*
X67347Y206190*
X70972*
X80972D02*
X83537Y203624D01*
Y199999*
X80972Y197434*
X77347*
X74781Y199999*
Y203624*
X77347Y206190*
X80972*
X90972D02*
X93537Y203624D01*
Y199999*
X90972Y197434*
X87347*
X84781Y199999*
Y203624*
X87347Y206190*
X90972*
X100972D02*
X103537Y203624D01*
Y199999*
X100972Y197434*
X97347*
X94781Y199999*
Y203624*
X97347Y206190*
X100972*
X110972D02*
X113537Y203624D01*
Y199999*
X110972Y197434*
X107347*
X104781Y199999*
Y203624*
X107347Y206190*
X110972*
X155972D02*
X158537Y203624D01*
Y199999*
X155972Y197434*
X152347*
X149781Y199999*
Y203624*
X152347Y206190*
X155972*
X175972D02*
X178537Y203624D01*
Y199999*
X175972Y197434*
X172347*
X169781Y199999*
Y203624*
X172347Y206190*
X175972*
X185972D02*
X188537Y203624D01*
Y199999*
X185972Y197434*
X182347*
X179781Y199999*
Y203624*
X182347Y206190*
X185972*
X195972D02*
X198537Y203624D01*
Y199999*
X195972Y197434*
X192347*
X189781Y199999*
Y203624*
X192347Y206190*
X195972*
X205972D02*
X208537Y203624D01*
Y199999*
X205972Y197434*
X202347*
X199781Y199999*
Y203624*
X202347Y206190*
X205972*
X225972D02*
X228537Y203624D01*
Y199999*
X225972Y197434*
X222347*
X219781Y199999*
Y203624*
X222347Y206190*
X225972*
X235972D02*
X238537Y203624D01*
Y199999*
X235972Y197434*
X232347*
X229781Y199999*
Y203624*
X232347Y206190*
X235972*
X245972D02*
X248537Y203624D01*
Y199999*
X245972Y197434*
X242347*
X239781Y199999*
Y203624*
X242347Y206190*
X245972*
X255972D02*
X258537Y203624D01*
Y199999*
X255972Y197434*
X252347*
X249781Y199999*
Y203624*
X252347Y206190*
X255972*
X285972D02*
X288537Y203624D01*
Y199999*
X285972Y197434*
X282347*
X279781Y199999*
Y203624*
X282347Y206190*
X285972*
X295972D02*
X298537Y203624D01*
Y199999*
X295972Y197434*
X292347*
X289781Y199999*
Y203624*
X292347Y206190*
X295972*
X325972Y146190D02*
X328537Y143624D01*
Y139999*
X325972Y137434*
X322347*
X319781Y139999*
Y143624*
X322347Y146190*
X325972*
Y156190D02*
X328537Y153624D01*
Y149999*
X325972Y147434*
X322347*
X319781Y149999*
Y153624*
X322347Y156190*
X325972*
Y166190D02*
X328537Y163624D01*
Y159999*
X325972Y157434*
X322347*
X319781Y159999*
Y163624*
X322347Y166190*
X325972*
Y176190D02*
X328537Y173624D01*
Y169999*
X325972Y167434*
X322347*
X319781Y169999*
Y173624*
X322347Y176190*
X325972*
Y186190D02*
X328537Y183624D01*
Y179999*
X325972Y177434*
X322347*
X319781Y179999*
Y183624*
X322347Y186190*
X325972*
Y196190D02*
X328537Y193624D01*
Y189999*
X325972Y187434*
X322347*
X319781Y189999*
Y193624*
X322347Y196190*
X325972*
Y206190D02*
X328537Y203624D01*
Y199999*
X325972Y197434*
X322347*
X319781Y199999*
Y203624*
X322347Y206190*
X325972*
X335972Y66190D02*
X338537Y63624D01*
Y59999*
X335972Y57434*
X332347*
X329781Y59999*
Y63624*
X332347Y66190*
X335972*
Y76190D02*
X338537Y73624D01*
Y69999*
X335972Y67434*
X332347*
X329781Y69999*
Y73624*
X332347Y76190*
X335972*
Y86190D02*
X338537Y83624D01*
Y79999*
X335972Y77434*
X332347*
X329781Y79999*
Y83624*
X332347Y86190*
X335972*
Y96190D02*
X338537Y93624D01*
Y89999*
X335972Y87434*
X332347*
X329781Y89999*
Y93624*
X332347Y96190*
X335972*
Y106190D02*
X338537Y103624D01*
Y99999*
X335972Y97434*
X332347*
X329781Y99999*
Y103624*
X332347Y106190*
X335972*
Y116190D02*
X338537Y113624D01*
Y109999*
X335972Y107434*
X332347*
X329781Y109999*
Y113624*
X332347Y116190*
X335972*
Y126190D02*
X338537Y123624D01*
Y119999*
X335972Y117434*
X332347*
X329781Y119999*
Y123624*
X332347Y126190*
X335972*
Y136190D02*
X338537Y133624D01*
Y129999*
X335972Y127434*
X332347*
X329781Y129999*
Y133624*
X332347Y136190*
X335972*
Y146190D02*
X338537Y143624D01*
Y139999*
X335972Y137434*
X332347*
X329781Y139999*
Y143624*
X332347Y146190*
X335972*
Y156190D02*
X338537Y153624D01*
Y149999*
X335972Y147434*
X332347*
X329781Y149999*
Y153624*
X332347Y156190*
X335972*
Y166190D02*
X338537Y163624D01*
Y159999*
X335972Y157434*
X332347*
X329781Y159999*
Y163624*
X332347Y166190*
X335972*
Y176190D02*
X338537Y173624D01*
Y169999*
X335972Y167434*
X332347*
X329781Y169999*
Y173624*
X332347Y176190*
X335972*
Y186190D02*
X338537Y183624D01*
Y179999*
X335972Y177434*
X332347*
X329781Y179999*
Y183624*
X332347Y186190*
X335972*
Y196190D02*
X338537Y193624D01*
Y189999*
X335972Y187434*
X332347*
X329781Y189999*
Y193624*
X332347Y196190*
X335972*
Y206190D02*
X338537Y203624D01*
Y199999*
X335972Y197434*
X332347*
X329781Y199999*
Y203624*
X332347Y206190*
X335972*
X329984Y11812D02*
G36*
X329640D01*
Y8511*
X322947*
Y9339*
X317878*
X315972Y7434*
X312347*
X309781Y9999*
Y11812*
X308537*
Y9999*
X305972Y7434*
X302347*
X299781Y9999*
Y11812*
X298537*
Y9999*
X295972Y7434*
X292347*
X289781Y9999*
Y11812*
X288537*
Y9999*
X285972Y7434*
X282347*
X279781Y9999*
Y11812*
X278537*
Y9999*
X275972Y7434*
X272347*
X269781Y9999*
Y11812*
X268537*
Y9999*
X265972Y7434*
X262347*
X259781Y9999*
Y11812*
X258537*
Y9999*
X255972Y7434*
X252347*
X249781Y9999*
Y11812*
X248537*
Y9999*
X245972Y7434*
X242347*
X239781Y9999*
Y11812*
X228537*
Y9999*
X225972Y7434*
X222347*
X219781Y9999*
Y11812*
X218537*
Y9999*
X215972Y7434*
X212347*
X209781Y9999*
Y11812*
X208537*
Y9999*
X205972Y7434*
X202347*
X199781Y9999*
Y11812*
X198537*
Y9999*
X195972Y7434*
X192347*
X189781Y9999*
Y11812*
X188537*
Y9999*
X185972Y7434*
X182347*
X179781Y9999*
Y11812*
X178537*
Y9999*
X175972Y7434*
X172347*
X169781Y9999*
Y11812*
X168537*
Y9999*
X165972Y7434*
X162347*
X159781Y9999*
Y11812*
X158537*
Y9999*
X155972Y7434*
X152347*
X149781Y9999*
Y11812*
X138537*
Y9999*
X135972Y7434*
X132347*
X129781Y9999*
Y11812*
X129325*
Y9673*
X126298Y6646*
X122021*
X119159Y9508*
X116298Y6646*
X112021*
X108994Y9673*
Y11812*
X108537*
Y9999*
X105972Y7434*
X102347*
X99781Y9999*
Y11812*
X98537*
Y9999*
X95972Y7434*
X92347*
X89781Y9999*
Y11812*
X88537*
Y9999*
X85972Y7434*
X82347*
X79781Y9999*
Y11812*
X78537*
Y9999*
X75972Y7434*
X72347*
X69781Y9999*
Y11812*
X48202*
G75*
G02X39502I-4350J2301*
G01*
X28517*
G75*
G02X19817I-4350J2301*
G01*
X6287*
Y2594*
X339713*
Y6988*
X329984*
Y11812*
G37*
X66410Y22063D02*
G36*
X54972D01*
X55563Y21471*
X61069*
G75*
G02X62738Y21078I-1J-3744*
G01*
X65426*
X66410Y22063*
G37*
X149781Y11812D02*
G36*
Y13624D01*
X151837Y15680*
Y19110*
X144730*
Y22063*
X92088*
G75*
G02X91384Y20554I-3657J787*
G01*
Y19897*
X90728*
G75*
G02X88431Y19109I-2296J2950*
G01*
X74035*
X70518Y15591*
Y14385*
X69040*
G75*
G02X65696I-1672J3346*
G01*
X62741*
G75*
G02X61069Y13991I-1672J3347*
G01*
X54014*
G75*
G02X51366Y15089J3740*
G01*
X44393Y22063*
X6287*
Y11812*
X19817*
G75*
G02X19246Y14113I4350J2302*
G01*
G75*
G02X29089I4921*
G01*
G75*
G02X28517Y11812I-4921J0*
G01*
X39502*
G75*
G02X38931Y14113I4350J2302*
G01*
G75*
G02X48774I4921*
G01*
G75*
G02X48202Y11812I-4921J0*
G01*
X69781*
Y13624*
X72347Y16190*
X75972*
X78537Y13624*
Y11812*
X79781*
Y13624*
X82347Y16190*
X85972*
X88537Y13624*
Y11812*
X89781*
Y13624*
X92347Y16190*
X95972*
X98537Y13624*
Y11812*
X99781*
Y13624*
X102347Y16190*
X105972*
X108537Y13624*
Y11812*
X108994*
Y13950*
X112021Y16977*
X116298*
X119159Y14116*
X122021Y16977*
X126298*
X129325Y13950*
Y11812*
X129781*
Y13624*
X132347Y16190*
X135972*
X138537Y13624*
Y11812*
X149781*
G37*
X309781D02*
G36*
Y13624D01*
X312347Y16190*
X315972*
X318177Y13985*
X322947*
Y15795*
X320396*
G75*
G02X318862Y16430I-2J2167*
G01*
X313396Y21897*
X310543*
G75*
G02X309714Y22063I1J2167*
G01*
X286122*
Y19602*
X271555*
Y22063*
X249114*
Y18815*
X232972*
Y22063*
X157329*
Y19110*
X156482*
Y15680*
X158537Y13624*
Y11812*
X159781*
Y13624*
X162347Y16190*
X165972*
X168537Y13624*
Y11812*
X169781*
Y13624*
X172347Y16190*
X175972*
X178537Y13624*
Y11812*
X179781*
Y13624*
X182347Y16190*
X185972*
X188537Y13624*
Y11812*
X189781*
Y13624*
X192347Y16190*
X195972*
X198537Y13624*
Y11812*
X199781*
Y13624*
X202347Y16190*
X205972*
X208537Y13624*
Y11812*
X209781*
Y13624*
X212347Y16190*
X215972*
X218537Y13624*
Y11812*
X219781*
Y13624*
X222347Y16190*
X225972*
X228537Y13624*
Y11812*
X239781*
Y13624*
X242347Y16190*
X245972*
X248537Y13624*
Y11812*
X249781*
Y13624*
X252347Y16190*
X255972*
X258537Y13624*
Y11812*
X259781*
Y13624*
X262347Y16190*
X265972*
X268537Y13624*
Y11812*
X269781*
Y13624*
X272347Y16190*
X275972*
X278537Y13624*
Y11812*
X279781*
Y13624*
X282347Y16190*
X285972*
X288537Y13624*
Y11812*
X289781*
Y13624*
X292347Y16190*
X295972*
X298537Y13624*
Y11812*
X299781*
Y13624*
X302347Y16190*
X305972*
X308537Y13624*
Y11812*
X309781*
G37*
X339713Y13759D02*
G36*
Y22063D01*
X319354*
X321291Y20126*
X322947*
Y21110*
X329640*
Y20127*
X330772*
Y20846*
X339315*
Y15649*
X330772*
Y15796*
X329640*
Y11812*
X329984*
Y13759*
X339713*
G37*
X44393Y22063D02*
G36*
X43469Y22986D01*
G75*
G02X40654Y24152I385J4911*
G01*
X27366*
G75*
G02X19317Y27063I-3198J3740*
G01*
X6287*
Y22063*
X44393*
G37*
X66410D02*
G36*
X69839Y25491D01*
G75*
G02X72486Y26589I2648J-2642*
G01*
X84888*
Y27063*
X49972*
X54972Y22063*
X66410*
G37*
X144730D02*
G36*
Y24340D01*
X142008Y27063*
X132207*
G75*
G02X128333Y25546I-3875J4192*
G01*
G75*
G02X124458Y27063J5709*
G01*
X112522*
G75*
G02X108648Y25546I-3875J4192*
G01*
G75*
G02X104773Y27063J5709*
G01*
X91974*
Y25015*
X91480*
G75*
G02X92171Y22849I-3050J-2166*
G01*
G75*
G02X92088Y22063I-3740J-1*
G01*
X144730*
G37*
X232972D02*
G36*
Y24896D01*
X228939*
G75*
G02X227406Y25531I-2J2167*
G01*
X225874Y27063*
X148132*
X149392Y25803*
X157329*
Y22063*
X232972*
G37*
X309714D02*
G36*
G75*
G02X309011Y22533I830J2002D01*
G01*
X304481Y27063*
X304119*
G75*
G02X301967I-1076J4500*
G01*
X297669*
Y26937*
X288417*
Y27063*
X286122*
Y24602*
X271555*
Y27063*
X248327*
Y25311*
X249114*
Y22063*
X271555*
Y24523*
X286122*
Y22063*
X309714*
G37*
X336714Y27063D02*
G36*
X336298Y26646D01*
X332021*
X331605Y27063*
X326714*
X326298Y26646*
X322021*
X321605Y27063*
X316054*
G75*
G02X313968Y26228I-3010J4500*
G01*
X314291*
G75*
G02X315825Y25593I2J-2167*
G01*
X319354Y22063*
X339713*
Y27063*
X336714*
G37*
X84888D02*
G36*
Y28583D01*
X84244Y29227*
X77407*
Y27811*
X67093*
Y38126*
X68800*
G75*
G02X66419Y41812I3450J4842*
G01*
X63757*
X58468Y36524*
G75*
G02X53317Y34389I-5152J5150*
G01*
X44004*
G75*
G02X43852Y34388I-151J7260*
G01*
G75*
G02X36568Y41672J7284*
G01*
G75*
G02X36569Y41812I7287J8*
G01*
X29087*
G75*
G02X29089Y41672I-4920J-139*
G01*
G75*
G02X19246I-4921*
G01*
G75*
G02X19248Y41812I4922J0*
G01*
X6287*
Y27063*
X19317*
G75*
G02X19246Y27893I4851J830*
G01*
G75*
G02X27366Y31633I4921*
G01*
X40654*
G75*
G02X48759Y28276I3198J-3741*
G01*
X49972Y27063*
X84888*
G37*
X94938Y41812D02*
G36*
X87276D01*
G75*
G02X87053Y41257I-3570J1116*
G01*
Y39779*
X85847*
X82776Y36707*
X85789*
G75*
G02X88404Y35645I5J-3741*
G01*
X91974*
Y31527*
G75*
G02X92171Y30330I-3543J-1197*
G01*
G75*
G02X91974Y29132I-3739*
G01*
Y27063*
X104773*
G75*
G02X102939Y31255I3875J4192*
G01*
G75*
G02X105857Y36235I5709*
G01*
X101307*
G75*
G02X99774Y36869I-2J2167*
G01*
X95286Y41357*
G75*
G02X94938Y41812I1532J1532*
G01*
G37*
X124458Y27063D02*
G36*
G75*
G02X122624Y31255I3875J4192D01*
G01*
G75*
G02X125543Y36235I5709*
G01*
X111438*
G75*
G02X114356Y31255I-2790J-4980*
G01*
G75*
G02X112522Y27063I-5709*
G01*
X124458*
G37*
X263623Y41812D02*
G36*
X257356D01*
X264940Y34227*
X271555*
Y34523*
X286122*
Y29602*
X271555*
Y29896*
X264046*
G75*
G02X262512Y30531I-2J2167*
G01*
X251262Y41781*
G75*
G02X251232Y41812I1533J1524*
G01*
X248327*
Y39602*
X233760*
Y41812*
X227606*
X233760Y35657*
Y39523*
X248327*
Y34602*
X234815*
X234894Y34523*
X248327*
Y29602*
X233760*
Y29963*
G75*
G02X232762Y30531I536J2103*
G01*
X222762Y40531*
G75*
G02X222143Y41812I1532J1531*
G01*
X212988*
Y34905*
X201276*
Y37843*
G75*
G02X192132Y39930I-4144J2919*
G01*
G75*
G02X182132I-5000J833*
G01*
G75*
G02X172132I-5000J833*
G01*
G75*
G02X162132I-5000J833*
G01*
G75*
G02X152132I-5000J833*
G01*
G75*
G02X142063Y40763I-5000J833*
G01*
G75*
G02X142173Y41812I5069J0*
G01*
X138302*
G75*
G02X136404Y41294I-1898J3222*
G01*
X131531*
G75*
G02X130394Y40566I-3210J3759*
G01*
X133730*
G75*
G02X135263Y39931I2J-2167*
G01*
X148132Y27063*
X225874*
X224798Y28139*
G75*
G02X220691Y31705I-505J3567*
G01*
Y31706*
G75*
G02X227896I3602*
G01*
G75*
G02Y31700I-3418J-3*
G01*
G75*
G02X227860Y31201I-3527*
G01*
X229834Y29227*
X233760*
Y29523*
X248327*
Y27063*
X271555*
Y29523*
X286122*
Y27063*
X288417*
Y34896*
X286122*
Y34602*
X271555*
Y34896*
X271437*
G75*
G02X269904Y35531I-2J2167*
G01*
X263623Y41812*
G37*
X142008Y27063D02*
G36*
X132835Y36235D01*
X131123*
G75*
G02X134041Y31255I-2790J-4980*
G01*
G75*
G02X132207Y27063I-5709*
G01*
X142008*
G37*
X152173Y41812D02*
G36*
X152091D01*
G75*
G02X152132Y41596I-4960J-1052*
G01*
G75*
G02X152173Y41812I5001J-835*
G01*
G37*
X162173D02*
G36*
X162091D01*
G75*
G02X162132Y41596I-4960J-1052*
G01*
G75*
G02X162173Y41812I5001J-835*
G01*
G37*
X172173D02*
G36*
X172091D01*
G75*
G02X172132Y41596I-4960J-1052*
G01*
G75*
G02X172173Y41812I5001J-835*
G01*
G37*
X182173D02*
G36*
X182091D01*
G75*
G02X182132Y41596I-4960J-1052*
G01*
G75*
G02X182173Y41812I5001J-835*
G01*
G37*
X192173D02*
G36*
X192091D01*
G75*
G02X192132Y41596I-4960J-1052*
G01*
G75*
G02X192173Y41812I5005J-836*
G01*
G37*
X301967Y27063D02*
G36*
G75*
G02X298417Y31562I1076J4499D01*
G01*
G75*
G02X299837Y34896I4626*
G01*
X297669*
Y27063*
X301967*
G37*
X304481D02*
G36*
X304403Y27140D01*
G75*
G02X304119Y27063I-1360J4419*
G01*
X304481*
G37*
X321605D02*
G36*
X318994Y29673D01*
Y33950*
X320564Y35520*
G75*
G02X319041Y34896I-1522J1544*
G01*
X317308*
G75*
G02X318457Y31562I-4264J-3335*
G01*
G75*
G02X316054Y27063I-5413*
G01*
X321605*
G37*
X338537Y41812D02*
G36*
Y39999D01*
X335972Y37434*
X332347*
X329781Y39999*
Y41812*
X328537*
Y39999*
X325972Y37434*
X322478*
X322021Y36977*
X326298*
X329159Y34116*
X332021Y36977*
X336298*
X339325Y33950*
Y29673*
X336714Y27063*
X339713*
Y41812*
X338537*
G37*
X331605Y27063D02*
G36*
X329159Y29508D01*
X326714Y27063*
X331605*
G37*
X38953Y47063D02*
G36*
X6287D01*
Y41812*
X19248*
G75*
G02X29087I4919J-140*
G01*
X36569*
G75*
G02X38953Y47063I7283J-140*
G01*
G37*
X66419Y41812D02*
G36*
G75*
G02X66305Y42967I5833J1156D01*
G01*
G75*
G02X67941Y47063I5945J0*
G01*
X66520*
G75*
G02X64406Y42461I-7260J549*
G01*
X63757Y41812*
X66419*
G37*
X79573Y47063D02*
G36*
X76559D01*
G75*
G02X78195Y42967I-4309J-4096*
G01*
G75*
G02X78189Y42700I-6507J9*
G01*
X80360Y44871*
Y45291*
X79573*
Y47063*
G37*
X94652D02*
G36*
X87841D01*
Y45291*
X87053*
Y44598*
G75*
G02X87447Y42928I-3347J-1670*
G01*
G75*
G02X87276Y41812I-3741J0*
G01*
X94938*
G75*
G02X94652Y42889I1880J1077*
G01*
Y47063*
G37*
X192173Y41812D02*
G36*
G75*
G02X193392Y44184I4963J-1051D01*
G01*
Y47063*
X143721*
X139051Y42393*
G75*
G02X138302Y41812I-2648J2643*
G01*
X142173*
G75*
G02X152091I4959J-1049*
G01*
X152173*
G75*
G02X162091I4959J-1049*
G01*
X162173*
G75*
G02X172091I4959J-1049*
G01*
X172173*
G75*
G02X182091I4959J-1049*
G01*
X182173*
G75*
G02X192091I4959J-1049*
G01*
X192173*
G37*
X222143D02*
G36*
G75*
G02X222128Y42062I2152J251D01*
G01*
Y47063*
X200872*
Y44184*
G75*
G02X201276Y43682I-3737J-3420*
G01*
Y46618*
X212988*
Y41812*
X222143*
G37*
X251232D02*
G36*
G75*
G02X250628Y43312I1562J1500D01*
G01*
Y47063*
X248327*
Y44602*
X233760*
Y47063*
X226459*
Y42959*
X227606Y41812*
X233760*
Y44523*
X248327*
Y41812*
X251232*
G37*
X259770Y47063D02*
G36*
X254959D01*
Y44209*
X257356Y41812*
X263623*
X260404Y45031*
G75*
G02X259770Y46562I1532J1531*
G01*
Y47063*
G37*
X333106D02*
G36*
X331324Y45281D01*
G75*
G02X329791Y44646I-1532J1533*
G01*
X327515*
X328537Y43624*
Y41812*
X329781*
Y43624*
X332347Y46190*
X335972*
X338537Y43624*
Y41812*
X339713*
Y47063*
X333106*
G37*
X51974Y52063D02*
G36*
X47421D01*
G75*
G02X40284I-3569J3389*
G01*
X27736*
G75*
G02X20599I-3569J3389*
G01*
X6287*
Y47063*
X38953*
G75*
G02X42730Y48869I4899J-5391*
G01*
G75*
G02X43852Y48956I1119J-7152*
G01*
X50300*
X51974Y50630*
Y52063*
G37*
X67172D02*
G36*
X66541D01*
Y47613*
G75*
G02Y47612I-8459J0*
G01*
G75*
G02X66520Y47063I-7281J2*
G01*
X67941*
G75*
G02X69846Y48404I4309J-4096*
G01*
G75*
G02X67172Y52063I2404J4563*
G01*
G37*
X79573D02*
G36*
X77328D01*
G75*
G02X74654Y48404I-5078J905*
G01*
G75*
G02X76559Y47063I-2404J-5437*
G01*
X79573*
Y52063*
G37*
X94652D02*
G36*
X87841D01*
Y47063*
X94652*
Y52063*
G37*
X193781D02*
G36*
X148721D01*
X143721Y47063*
X193392*
Y50400*
G75*
G02X193781Y52063I3740J0*
G01*
G37*
X220878D02*
G36*
X204083D01*
X200872Y48851*
Y47063*
X222128*
Y48039*
G75*
G02X220691Y50918I2165J2879*
G01*
G75*
G02X220878Y52063I3602*
G01*
G37*
X250628D02*
G36*
X248327D01*
Y49602*
X233760*
Y52063*
X227709*
G75*
G02X227896Y50918I-3416J-1144*
G01*
G75*
G02X226459Y48039I-3602*
G01*
Y47063*
X233760*
Y49523*
X248327*
Y47063*
X250628*
Y52063*
G37*
X259770Y47063D02*
G36*
Y52063D01*
X254959*
Y47063*
X259770*
G37*
X314232Y52063D02*
G36*
X310612D01*
Y48443*
X314232Y52063*
G37*
X329781D02*
G36*
X328537D01*
Y49999*
X327515Y48977*
X328896*
X329850Y49931*
X329781Y49999*
Y52063*
G37*
X338537D02*
G36*
Y49999D01*
X335972Y47434*
X333478*
X333106Y47063*
X339713*
Y52063*
X338537*
G37*
X51974D02*
G36*
Y56415D01*
X46578Y61812*
X45511*
G75*
G02X42194I-1658J7419*
G01*
X6287*
Y52063*
X20599*
G75*
G02X19246Y55452I3569J3389*
G01*
G75*
G02X29089I4921*
G01*
G75*
G02X27736Y52063I-4921*
G01*
X40284*
G75*
G02X38931Y55452I3569J3389*
G01*
G75*
G02X48774I4921*
G01*
G75*
G02X47421Y52063I-4921*
G01*
X51974*
G37*
X94652Y61812D02*
G36*
X66142D01*
G75*
G02X66541Y59432I-6883J-2379*
G01*
Y59432*
Y52063*
X67172*
G75*
G02X67093Y52967I5078J904*
G01*
G75*
G02X77407I5157*
G01*
G75*
G02X77328Y52063I-5158J0*
G01*
X79573*
Y53165*
X87841*
Y52063*
X94652*
Y61812*
G37*
X203254D02*
G36*
X198470D01*
Y59130*
X171300*
X166236Y54066*
G75*
G02X163589Y52967I-2648J2642*
G01*
X149626*
X148721Y52063*
X193781*
G75*
G02X194490Y53048I3350J-1662*
G01*
X203254Y61812*
G37*
X233760D02*
G36*
X228732D01*
X225091Y58170*
G75*
G02X222443Y57072I-2648J2642*
G01*
X209093*
X204083Y52063*
X220878*
G75*
G02X227709I3416J-1144*
G01*
X233760*
Y54523*
X248327*
Y52063*
X250628*
Y56084*
X250074Y55531*
G75*
G02X248541Y54896I-1532J1533*
G01*
X248327*
Y54602*
X233760*
Y59523*
X247628*
Y59602*
X233760*
Y61812*
G37*
X259770D02*
G36*
X254959D01*
Y52063*
X259770*
Y61812*
G37*
X319781D02*
G36*
X311314D01*
G75*
G02X311400Y60812I-5770J-999*
G01*
G75*
G02X308704Y55881I-5856J0*
G01*
X310612*
Y52063*
X314232*
X320975Y58806*
X319781Y59999*
Y61812*
G37*
X338537D02*
G36*
Y59999D01*
X335972Y57434*
X332347*
X329781Y59999*
Y61812*
X328537*
Y59999*
X325972Y57434*
X325728*
X324483Y56190*
X325972*
X328537Y53624*
Y52063*
X329781*
Y53624*
X332347Y56190*
X335972*
X338537Y53624*
Y52063*
X339713*
Y61812*
X338537*
G37*
X17356Y71812D02*
G36*
X6287D01*
Y61812*
X42194*
G75*
G02X41674Y61948I1659J7421*
G01*
X24274*
X24167Y61947*
G75*
G02X16883Y69231J7284*
G01*
G75*
G02X17356Y71812I7285*
G01*
G37*
X46578Y61812D02*
G36*
X46442Y61948D01*
X46031*
G75*
G02X45511Y61812I-2179J7285*
G01*
X46578*
G37*
X68293Y71812D02*
G36*
X62340D01*
X59759Y69231*
X64404Y64587*
G75*
G02X66142Y61812I-5145J-5155*
G01*
X94652*
Y62779*
X87652Y69778*
X77624*
Y67279*
X68293*
Y71812*
G37*
X223053D02*
G36*
X222880D01*
Y68812*
G75*
G02Y68811I-2115J0*
G01*
G75*
G02X222243Y67278I-2163*
G01*
X221424Y66459*
G75*
G02X220203Y65844I-1535J1531*
G01*
Y65232*
X211344*
Y70822*
X210951*
Y68480*
X204258*
Y69778*
X203827*
G75*
G02X202294Y70413I-2J2167*
G01*
X200894Y71812*
X198470*
Y61812*
X203254*
X204896Y63454*
G75*
G02X207543Y64552I2648J-2642*
G01*
X220894*
X223053Y66711*
Y71812*
G37*
X233760Y61812D02*
G36*
Y64523D01*
X235539*
G75*
G02X235163Y65232I1681J1346*
G01*
X232801*
Y69444*
X232014*
Y71812*
X230533*
Y65162*
G75*
G02X229435Y62515I-3740*
G01*
X228732Y61812*
X233760*
G37*
X259770D02*
G36*
Y71812D01*
X247959*
Y70477*
X251041*
G75*
G02X252574Y69843I2J-2167*
G01*
X254324Y68093*
G75*
G02X254959Y66562I-1532J-1531*
G01*
Y61812*
X259770*
G37*
X338537Y71812D02*
G36*
Y69999D01*
X335972Y67434*
X332347*
X329781Y69999*
Y71812*
X328537*
Y69999*
X325972Y67434*
X322347*
X319781Y69999*
Y71812*
X310513*
G75*
G02X310612Y70812I-4970J-1000*
G01*
G75*
G02X307737Y66242I-5069*
G01*
G75*
G02X311314Y61812I-2193J-5430*
G01*
X319781*
Y63624*
X322347Y66190*
X325972*
X328537Y63624*
Y61812*
X329781*
Y63624*
X332347Y66190*
X335972*
X338537Y63624*
Y61812*
X339713*
Y71812*
X338537*
G37*
X51739Y81812D02*
G36*
X49434D01*
G75*
G02X38271I-5581J1199*
G01*
X29749*
G75*
G02X18586I-5581J1199*
G01*
X6287*
Y71812*
X17356*
G75*
G02X24167Y76515I6812J-2581*
G01*
G75*
G02X24274Y76515I27J-3641*
G01*
X41674*
G75*
G02X46031I2179J-7283*
G01*
X46442*
X51739Y81812*
G37*
X68293Y71812D02*
G36*
Y75211D01*
X65739*
X62340Y71812*
X68293*
G37*
X200894D02*
G36*
X198470Y74236D01*
Y71812*
X200894*
G37*
X223053D02*
G36*
Y72562D01*
G75*
G02Y72572I3007J5*
G01*
G75*
G02X223055Y72681I2998J0*
G01*
X222880Y72856*
Y71812*
X223053*
G37*
X232014D02*
G36*
Y74163D01*
X230531Y72681*
G75*
G02X230533Y72572I-2996J-109*
G01*
G75*
G02Y72562I-3007J-5*
G01*
Y71812*
X232014*
G37*
X259770D02*
G36*
Y76668D01*
G75*
G02X260404Y78199I2166J0*
G01*
X260567Y78362*
X256758*
Y81812*
X256679*
Y78362*
X251758*
Y81812*
X251679*
Y78362*
X247959*
Y71812*
X259770*
G37*
X338537Y81812D02*
G36*
Y79999D01*
X335972Y77434*
X332347*
X329781Y79999*
Y81812*
X328537*
Y79999*
X325972Y77434*
X322347*
X319781Y79999*
Y81812*
X310513*
G75*
G02X310612Y80812I-4970J-1000*
G01*
G75*
G02X306376Y75812I-5069*
G01*
G75*
G02X310513Y71812I-833J-5000*
G01*
X319781*
Y73624*
X322347Y76190*
X325972*
X328537Y73624*
Y71812*
X329781*
Y73624*
X332347Y76190*
X335972*
X338537Y73624*
Y71812*
X339713*
Y81812*
X338537*
G37*
X83156Y91812D02*
G36*
X75676D01*
X75367Y91504*
G75*
G02X72718Y90408I-2646J2647*
G01*
X38470*
G75*
G02X35823Y91507J3740*
G01*
X35518Y91812*
X6287*
Y81812*
X18586*
G75*
G02X18459Y83011I5581J1198*
G01*
G75*
G02X29876I5709*
G01*
G75*
G02X29749Y81812I-5709J-1*
G01*
X38271*
G75*
G02X38144Y83011I5581J1198*
G01*
G75*
G02X49561I5709*
G01*
G75*
G02X49434Y81812I-5709J-1*
G01*
X51739*
X56943Y87015*
G75*
G02X65056Y88519I5150J-5150*
G01*
X72959*
G75*
G02X78407Y85684I0J-6654*
G01*
X79047*
X83156Y89792*
Y91812*
G37*
X251758D02*
G36*
X251679D01*
Y81812*
X251758*
Y91812*
G37*
X256758D02*
G36*
X256679D01*
Y81812*
X256758*
Y91812*
G37*
X338537D02*
G36*
Y89999D01*
X335972Y87434*
X332347*
X329781Y89999*
Y91812*
X328537*
Y89999*
X325972Y87434*
X322347*
X319781Y89999*
Y91812*
X310513*
G75*
G02X310612Y90812I-4970J-1000*
G01*
G75*
G02X306376Y85812I-5069*
G01*
G75*
G02X310513Y81812I-833J-5000*
G01*
X319781*
Y83624*
X322347Y86190*
X325972*
X328537Y83624*
Y81812*
X329781*
Y83624*
X332347Y86190*
X335972*
X338537Y83624*
Y81812*
X339713*
Y91812*
X338537*
G37*
X35518D02*
G36*
X30632Y96698D01*
G75*
G02X29533Y99345I2642J2648*
G01*
Y101812*
X6287*
Y91812*
X35518*
G37*
X61187Y101812D02*
G36*
X37014D01*
Y100894*
X40020Y97889*
X61915*
Y101083*
X61187Y101812*
G37*
X71917D02*
G36*
X71246D01*
Y97961*
X72585Y99300*
G75*
G02X71915Y101707I3996J2408*
G01*
G75*
G02X71917Y101812I4670J-1*
G01*
G37*
X83383D02*
G36*
X81245D01*
G75*
G02X81246Y101707I-4666J-105*
G01*
G75*
G02X80321Y98919I-4665*
G01*
Y98011*
Y98008*
Y98007*
Y98006*
G75*
G02X79226Y95362I-3740*
G01*
X75676Y91812*
X83156*
Y100522*
Y100525*
Y100526*
Y100527*
G75*
G02X83383Y101812I3740J0*
G01*
G37*
X251758Y91812D02*
G36*
Y92146D01*
X251679*
Y91812*
X251758*
G37*
X256758D02*
G36*
Y92929D01*
X257053*
Y94009*
X255972Y92929*
X256679*
Y91812*
X256758*
G37*
X338537Y101812D02*
G36*
Y99999D01*
X335972Y97434*
X332347*
X329781Y99999*
Y101812*
X328537*
Y99999*
X325972Y97434*
X322347*
X319781Y99999*
Y101812*
X310513*
G75*
G02X310612Y100812I-4970J-1000*
G01*
G75*
G02X306376Y95812I-5069*
G01*
G75*
G02X310513Y91812I-833J-5000*
G01*
X319781*
Y93624*
X322347Y96190*
X325972*
X328537Y93624*
Y91812*
X329781*
Y93624*
X332347Y96190*
X335972*
X338537Y93624*
Y91812*
X339713*
Y101812*
X338537*
G37*
X26822Y106812D02*
G36*
X26243D01*
G75*
G02X15894I-5174J2927*
G01*
X6287*
Y101812*
X29533*
Y104815*
G75*
G02X26822Y106812I1535J4924*
G01*
G37*
X61187Y101812D02*
G36*
X56187Y106812D01*
X46226*
Y104582*
X37014*
Y101812*
X61187*
G37*
X83383D02*
G36*
G75*
G02X84251Y103171I3513J-1285D01*
G01*
X87250Y106170*
Y106812*
X66766*
X67204Y106374*
X71246*
Y101812*
X71917*
G75*
G02X76581Y106373I4664J-104*
G01*
G75*
G02X81245Y101812J-4665*
G01*
X83383*
G37*
X146738Y106812D02*
G36*
X146699D01*
Y103437*
X146738Y103398*
Y106812*
G37*
X308657D02*
G36*
G75*
G02X306376Y105812I-3113J4000D01*
G01*
G75*
G02X310513Y101812I-833J-5000*
G01*
X319781*
Y103624*
X322347Y106190*
X325972*
X328537Y103624*
Y101812*
X329781*
Y103624*
X332347Y106190*
X335972*
X338537Y103624*
Y101812*
X339713*
Y106812*
X308657*
G37*
X15497Y111812D02*
G36*
X6287D01*
Y106812*
X15894*
G75*
G02X15124Y109739I5175J2927*
G01*
G75*
G02X15497Y111812I5945J0*
G01*
G37*
X26822Y106812D02*
G36*
G75*
G02X26506Y107335I4247J2927D01*
G01*
G75*
G02X26243Y106812I-5438J2406*
G01*
X26822*
G37*
X35911Y111812D02*
G36*
X35791D01*
G75*
G02X35911Y111514I-4726J-2077*
G01*
Y111812*
G37*
X56187Y106812D02*
G36*
X53624Y109375D01*
G75*
G02X52531Y111812I2642J2648*
G01*
X46226*
Y106812*
X56187*
G37*
X87250Y111812D02*
G36*
X61766D01*
X66766Y106812*
X87250*
Y111812*
G37*
X146738D02*
G36*
X146699D01*
Y106812*
X146738*
Y111812*
G37*
X338537D02*
G36*
Y109999D01*
X335972Y107434*
X332347*
X329781Y109999*
Y111812*
X328537*
Y109999*
X325972Y107434*
X322347*
X319781Y109999*
Y111812*
X310513*
G75*
G02X310612Y110812I-4970J-1000*
G01*
G75*
G02X308657Y106812I-5069*
G01*
X339713*
Y111812*
X338537*
G37*
X15497D02*
G36*
G75*
G02X21633Y115657I5572J-2073D01*
G01*
X15478Y121812*
X6287*
Y111812*
X15497*
G37*
X46738Y121812D02*
G36*
X41935D01*
Y120964*
X36423*
Y120177*
X28549*
Y121812*
X26057*
X33685Y114183*
G75*
G02X35791Y111812I-2619J-4446*
G01*
X35911*
Y114897*
X46226*
Y111812*
X52531*
G75*
G02X52526Y112022I3736J210*
G01*
Y120547*
X46738*
Y121812*
G37*
X73904D02*
G36*
X72250D01*
Y114346*
X64376*
Y115133*
X60006*
Y113572*
X61766Y111812*
X87250*
Y113598*
X88037*
Y116573*
G75*
G02X87289Y116172I-1375J1667*
G01*
Y115133*
X81778*
Y114346*
X73904*
Y121812*
G37*
X151814D02*
G36*
X146699D01*
Y111812*
X146738*
Y117181*
X147925*
G75*
G02X148554Y118552I2160J-161*
G01*
X151814Y121812*
G37*
X338537D02*
G36*
Y119999D01*
X335972Y117434*
X332347*
X329781Y119999*
Y121812*
X328537*
Y119999*
X325972Y117434*
X322347*
X319781Y119999*
Y121812*
X310513*
G75*
G02X310612Y120812I-4970J-1000*
G01*
G75*
G02X306376Y115812I-5069*
G01*
G75*
G02X310513Y111812I-833J-5000*
G01*
X319781*
Y113624*
X322347Y116190*
X325972*
X328537Y113624*
Y111812*
X329781*
Y113624*
X332347Y116190*
X335972*
X338537Y113624*
Y111812*
X339713*
Y121812*
X338537*
G37*
X15478D02*
G36*
X14637Y122653D01*
X11069*
Y126770*
G75*
G02X10872Y127967I3543J1197*
G01*
G75*
G02X11069Y129165I3739*
G01*
Y131708*
X10872*
Y131812*
X6287*
Y121812*
X15478*
G37*
X22565Y131812D02*
G36*
X18352D01*
Y131708*
X18156*
Y129713*
X26057Y121812*
X28549*
Y126590*
X22565*
Y131812*
G37*
X46738Y121812D02*
G36*
Y125338D01*
X44017Y122618*
G75*
G02X42483Y121984I-1531J1530*
G01*
X41935*
Y121812*
X46738*
G37*
X73904D02*
G36*
Y122614D01*
X81778*
Y121826*
X86896*
Y127378*
X72801*
Y126590*
X65321*
Y131812*
X64337*
Y121826*
X64376*
Y122614*
X72250*
Y121812*
X73904*
G37*
X172076Y131812D02*
G36*
X139224D01*
X146065Y124971*
G75*
G02X146699Y123440I-1532J-1531*
G01*
Y121812*
X151814*
X152847Y122845*
G75*
G02X154380Y123479I1532J-1533*
G01*
X195841*
X200212Y127850*
X187683*
Y127063*
X180793*
Y127850*
X176581*
Y130704*
X174083*
G75*
G02X172550Y131338I-2J2167*
G01*
X172076Y131812*
G37*
X338537D02*
G36*
Y129999D01*
X335972Y127434*
X332347*
X329781Y129999*
Y131812*
X328537*
Y129999*
X325972Y127434*
X322347*
X319781Y129999*
Y131812*
X310513*
G75*
G02X310612Y130812I-4970J-1000*
G01*
G75*
G02X306376Y125812I-5069*
G01*
G75*
G02X310513Y121812I-833J-5000*
G01*
X319781*
Y123624*
X322347Y126190*
X325972*
X328537Y123624*
Y121812*
X329781*
Y123624*
X332347Y126190*
X335972*
X338537Y123624*
Y121812*
X339713*
Y131812*
X338537*
G37*
X22565Y141812D02*
G36*
X6287D01*
Y131812*
X10872*
Y139189*
X18352*
Y131812*
X22565*
Y141812*
G37*
X65321Y131812D02*
G36*
Y141812D01*
X64337*
Y131812*
X65321*
G37*
X134100Y141812D02*
G36*
X133116D01*
Y137919*
X139224Y131812*
X172076*
X167849Y136038*
X139811*
G75*
G02X138278Y136672I-2J2167*
G01*
X134735Y140216*
G75*
G02X134100Y141747I1532J1531*
G01*
Y141812*
G37*
X319781Y131812D02*
G36*
Y133390D01*
X319089Y134146*
X309361*
G75*
G02X310513Y131812I-3818J-3335*
G01*
X319781*
G37*
X338537Y141812D02*
G36*
Y139999D01*
X335972Y137434*
X332347*
X329781Y139999*
Y141812*
X328537*
Y139999*
X325972Y137434*
X322347*
X319781Y139999*
Y141812*
X319574*
G75*
G02X319074Y141031I-2032J750*
G01*
X316521Y138477*
X320041*
G75*
G02X321641Y137773I2J-2166*
G01*
X323089Y136190*
X325972*
X328537Y133624*
Y131812*
X329781*
Y133624*
X332347Y136190*
X335972*
X338537Y133624*
Y131812*
X339713*
Y141812*
X338537*
G37*
X22565D02*
G36*
Y145488D01*
X28982*
Y151432*
G75*
G02X29014Y151812I2323J-1*
G01*
X6287*
Y141812*
X22565*
G37*
X72167Y151812D02*
G36*
X35006D01*
X33628Y150458*
Y148833*
G75*
G02X39722Y146826I2717J-2008*
G01*
G75*
G02X38970Y144700I-3379J0*
G01*
X48988*
G75*
G02X49663Y146185I2317J-157*
G01*
X51946Y148468*
G75*
G02X53589Y149148I1642J-1642*
G01*
X59494*
G75*
G02X61163Y148441I1J-2321*
G01*
X63680Y145846*
G75*
G02X64337Y144227I-1667J-1619*
G01*
Y141812*
X65321*
Y145488*
X71896*
Y150763*
G75*
G02X72167Y151812I2166J0*
G01*
G37*
X134100D02*
G36*
X133116D01*
Y141812*
X134100*
Y151812*
G37*
X338537D02*
G36*
Y149999D01*
X335972Y147434*
X332347*
X329781Y149999*
Y151812*
X328537*
Y149999*
X325972Y147434*
X322347*
X319781Y149999*
Y151812*
X319709*
Y142562*
G75*
G02X319574Y141812I-2166J1*
G01*
X319781*
Y143624*
X322347Y146190*
X325972*
X328537Y143624*
Y141812*
X329781*
Y143624*
X332347Y146190*
X335972*
X338537Y143624*
Y141812*
X339713*
Y151812*
X338537*
G37*
X19750Y161812D02*
G36*
X6287D01*
Y151812*
X29014*
G75*
G02X29677Y153089I2291J-380*
G01*
X33961Y157299*
X19750*
Y161812*
G37*
X72167Y151812D02*
G36*
G75*
G02X72530Y152294I1895J-1050D01*
G01*
X73833Y153597*
X36822*
X35006Y151812*
X72167*
G37*
X106628Y161812D02*
G36*
X105616D01*
Y160800*
X106628Y161812*
G37*
X137324D02*
G36*
X135298D01*
X133116Y159630*
Y151812*
X134100*
Y157692*
G75*
G02X134735Y159223I2166J0*
G01*
X137324Y161812*
G37*
X338537D02*
G36*
Y159999D01*
X335972Y157434*
X332347*
X329781Y159999*
Y161812*
X328537*
Y159999*
X325972Y157434*
X322347*
X319781Y159999*
Y161812*
X319709*
Y151812*
X319781*
Y153624*
X322347Y156190*
X325972*
X328537Y153624*
Y151812*
X329781*
Y153624*
X332347Y156190*
X335972*
X338537Y153624*
Y151812*
X339713*
Y161812*
X338537*
G37*
X19750Y171812D02*
G36*
X6287D01*
Y161812*
X19750*
Y171812*
G37*
X111502D02*
G36*
X105616D01*
Y161812*
X106628*
X111502Y166685*
Y171812*
G37*
X137324Y161812D02*
G36*
X140404Y164892D01*
G75*
G02X141937Y165526I1532J-1533*
G01*
X142109*
G75*
G02X139892Y169639I2704J4112*
G01*
G75*
G02X140398Y171812I4921*
G01*
X138431*
Y165841*
G75*
G02X137797Y164310I-2166J0*
G01*
X135298Y161812*
X137324*
G37*
X153702Y171812D02*
G36*
X149228D01*
G75*
G02X149734Y169638I-4416J-2174*
G01*
G75*
G02X149085Y167195I-4922*
G01*
X153702Y171812*
G37*
X202499D02*
G36*
X198539D01*
X197686Y170959*
X201646*
X202499Y171812*
G37*
X338537D02*
G36*
Y169999D01*
X335972Y167434*
X332347*
X329781Y169999*
Y171812*
X328537*
Y169999*
X325972Y167434*
X322347*
X319781Y169999*
Y171812*
X319709*
Y161812*
X319781*
Y163624*
X322347Y166190*
X325972*
X328537Y163624*
Y161812*
X329781*
Y163624*
X332347Y166190*
X335972*
X338537Y163624*
Y161812*
X339713*
Y171812*
X338537*
G37*
X19750Y183418D02*
G36*
X6287D01*
Y171812*
X19750*
Y183418*
G37*
X111502D02*
G36*
X105616D01*
Y171812*
X111502*
Y183418*
G37*
X153702Y171812D02*
G36*
X160197Y178307D01*
Y183418*
X149734*
G75*
G02X139892I-4921*
G01*
X138431*
Y171812*
X140398*
G75*
G02X144813Y174560I4415J-2173*
G01*
G75*
G02X149228Y171812I-1J-4922*
G01*
X153702*
G37*
X202499D02*
G36*
X205757Y175070D01*
G75*
G02X205417Y176812I4286J1741*
G01*
G75*
G02X210043Y181438I4626*
G01*
G75*
G02X214669Y176812J-4626*
G01*
G75*
G02X213534Y173776I-4626*
G01*
X215535Y175777*
G75*
G02X215417Y176812I4511J1035*
G01*
G75*
G02X215622Y178171I4627J0*
G01*
X211747Y182046*
X177522*
Y181771*
X171065*
Y183418*
X166890*
Y174975*
X168294*
X171065Y177746*
Y180354*
X177522*
Y180078*
X186767*
G75*
G02X194669Y176812I3276J-3266*
G01*
G75*
G02X193550Y173794I-4626*
G01*
X194396*
X195733Y175131*
G75*
G02X195417Y176812I4311J1681*
G01*
G75*
G02X200043Y181438I4626*
G01*
G75*
G02X204669Y176812J-4626*
G01*
G75*
G02X200043Y172186I-4626*
G01*
G75*
G02X199026Y172299I-2J4607*
G01*
X198539Y171812*
X202499*
G37*
X221837Y183418D02*
G36*
X216499D01*
X218684Y181233*
G75*
G02X219853Y181434I1361J-4430*
G01*
X221837Y183418*
G37*
X338537D02*
G36*
Y179999D01*
X335972Y177434*
X332347*
X329781Y179999*
Y183418*
X328537*
Y179999*
X325972Y177434*
X322347*
X319781Y179999*
Y183418*
X319709*
Y171812*
X319781*
Y173624*
X322347Y176190*
X325972*
X328537Y173624*
Y171812*
X329781*
Y173624*
X332347Y176190*
X335972*
X338537Y173624*
Y171812*
X339713*
Y183418*
X338537*
G37*
X115132Y191812D02*
G36*
X6287D01*
Y183418*
X19750*
Y191551*
X105616*
Y183418*
X111502*
Y187219*
Y187220*
G75*
G02X112182Y188862I2322*
G01*
X115132Y191812*
G37*
X160197Y183418D02*
G36*
Y186862D01*
X161994*
Y191812*
X138431*
Y183418*
X139892*
G75*
G02X149734I4921*
G01*
X160197*
G37*
X221837D02*
G36*
X228012Y189593D01*
G75*
G02X229546Y190227I1532J-1533*
G01*
X266316*
X264731Y191812*
X166325*
Y186862*
X166890*
Y183418*
X171065*
Y186653*
X177522*
Y186377*
X212641*
G75*
G02X214175Y185743I2J-2167*
G01*
X216499Y183418*
X221837*
G37*
X338537Y191812D02*
G36*
Y189999D01*
X335972Y187434*
X332347*
X329781Y189999*
Y191812*
X328537*
Y189999*
X325972Y187434*
X322347*
X319781Y189999*
Y191812*
X317856*
X319074Y190593*
G75*
G02X319709Y189062I-1532J-1531*
G01*
Y183418*
X319781*
Y183624*
X322347Y186190*
X325972*
X328537Y183624*
Y183418*
X329781*
Y183624*
X332347Y186190*
X335972*
X338537Y183624*
Y183418*
X339713*
Y191812*
X338537*
G37*
X115132D02*
G36*
X116837Y193516D01*
Y197944*
X114781Y199999*
Y201812*
X113537*
Y199999*
X110972Y197434*
X107347*
X104781Y199999*
Y201812*
X103537*
Y199999*
X100972Y197434*
X97347*
X94781Y199999*
Y201812*
X93537*
Y199999*
X90972Y197434*
X87347*
X84781Y199999*
Y201812*
X83537*
Y199999*
X80972Y197434*
X77347*
X74781Y199999*
Y201812*
X73537*
Y199999*
X70972Y197434*
X67347*
X64781Y199999*
Y201812*
X63537*
Y199999*
X60972Y197434*
X57347*
X54781Y199999*
Y201812*
X53537*
Y199999*
X50972Y197434*
X47347*
X44781Y199999*
Y201812*
X43537*
Y199999*
X40972Y197434*
X37347*
X34781Y199999*
Y201812*
X33537*
Y199999*
X30972Y197434*
X27347*
X24781Y199999*
Y201812*
X6287*
Y191812*
X115132*
G37*
X129781Y201812D02*
G36*
X123537D01*
Y199999*
X121482Y197944*
Y192624*
X129781Y200922*
Y201812*
G37*
X159781D02*
G36*
X158537D01*
Y199999*
X155972Y197434*
X152347*
X149781Y199999*
Y201812*
X148537*
Y199999*
X145972Y197434*
X142347*
X141887Y197894*
X138431Y194439*
Y191812*
X161994*
Y197787*
X159781Y199999*
Y201812*
G37*
X139680D02*
G36*
X138537D01*
Y200669*
X139680Y201812*
G37*
X264731Y191812D02*
G36*
X263012Y193531D01*
G75*
G02X262381Y194941I1532J1531*
G01*
X262233Y197548*
X259781Y199999*
Y201812*
X258537*
Y199999*
X255972Y197434*
X252347*
X249781Y199999*
Y201812*
X248537*
Y199999*
X245972Y197434*
X242347*
X239781Y199999*
Y201812*
X238537*
Y199999*
X235972Y197434*
X232347*
X229781Y199999*
Y201812*
X228537*
Y199999*
X225972Y197434*
X222347*
X219781Y199999*
Y201812*
X208537*
Y199999*
X205972Y197434*
X202347*
X199781Y199999*
Y201812*
X198537*
Y199999*
X195972Y197434*
X192347*
X189781Y199999*
Y201812*
X188537*
Y199999*
X185972Y197434*
X182347*
X179781Y199999*
Y201812*
X178537*
Y199999*
X175972Y197434*
X172347*
X169781Y199999*
Y201812*
X168537*
Y199999*
X166325Y197787*
Y191812*
X264731*
G37*
X269781Y201812D02*
G36*
X268537D01*
Y199999*
X266545Y198007*
X266658Y196009*
X269690Y192977*
X274316*
X273012Y194281*
G75*
G02X272382Y195676I1528J1530*
G01*
X272265Y197516*
X269781Y199999*
Y201812*
G37*
X338537D02*
G36*
Y199999D01*
X335972Y197434*
X332347*
X329781Y199999*
Y201812*
X328537*
Y199999*
X325972Y197434*
X322347*
X319781Y199999*
Y201812*
X298537*
Y199999*
X295972Y197434*
X292347*
X289781Y199999*
Y201812*
X288537*
Y199999*
X285972Y197434*
X282347*
X279781Y199999*
Y201812*
X278537*
Y199999*
X276571Y198033*
X276652Y196765*
X277440Y195977*
X312791*
G75*
G02X314324Y195343I2J-2167*
G01*
X317856Y191812*
X319781*
Y193624*
X322347Y196190*
X325972*
X328537Y193624*
Y191812*
X329781*
Y193624*
X332347Y196190*
X335972*
X338537Y193624*
Y191812*
X339713*
Y201812*
X338537*
G37*
X278537D02*
G36*
X279781D01*
Y203624*
X282347Y206190*
X285972*
X288537Y203624*
Y201812*
X289781*
Y203624*
X292347Y206190*
X295972*
X298537Y203624*
Y201812*
X319781*
Y203624*
X322347Y206190*
X325972*
X328537Y203624*
Y201812*
X329781*
Y203624*
X332347Y206190*
X335972*
X338537Y203624*
Y201812*
X339713*
Y210106*
X6287*
Y201812*
X24781*
Y203624*
X27347Y206190*
X30972*
X33537Y203624*
Y201812*
X34781*
Y203624*
X37347Y206190*
X40972*
X43537Y203624*
Y201812*
X44781*
Y203624*
X47347Y206190*
X50972*
X53537Y203624*
Y201812*
X54781*
Y203624*
X57347Y206190*
X60972*
X63537Y203624*
Y201812*
X64781*
Y203624*
X67347Y206190*
X70972*
X73537Y203624*
Y201812*
X74781*
Y203624*
X77347Y206190*
X80972*
X83537Y203624*
Y201812*
X84781*
Y203624*
X87347Y206190*
X90972*
X93537Y203624*
Y201812*
X94781*
Y203624*
X97347Y206190*
X100972*
X103537Y203624*
Y201812*
X104781*
Y203624*
X107347Y206190*
X110972*
X113537Y203624*
Y201812*
X114781*
Y203624*
X117347Y206190*
X120972*
X123537Y203624*
Y201812*
X129781*
Y203624*
X132347Y206190*
X135972*
X138537Y203624*
Y201812*
X139680*
X139781Y201913*
Y203624*
X142347Y206190*
X145972*
X148537Y203624*
Y201812*
X149781*
Y203624*
X152347Y206190*
X155972*
X158537Y203624*
Y201812*
X159781*
Y203624*
X162347Y206190*
X165972*
X168537Y203624*
Y201812*
X169781*
Y203624*
X172347Y206190*
X175972*
X178537Y203624*
Y201812*
X179781*
Y203624*
X182347Y206190*
X185972*
X188537Y203624*
Y201812*
X189781*
Y203624*
X192347Y206190*
X195972*
X198537Y203624*
Y201812*
X199781*
Y203624*
X202347Y206190*
X205972*
X208537Y203624*
Y201812*
X219781*
Y203624*
X222347Y206190*
X225972*
X228537Y203624*
Y201812*
X229781*
Y203624*
X232347Y206190*
X235972*
X238537Y203624*
Y201812*
X239781*
Y203624*
X242347Y206190*
X245972*
X248537Y203624*
Y201812*
X249781*
Y203624*
X252347Y206190*
X255972*
X258537Y203624*
Y201812*
X259781*
Y203624*
X262347Y206190*
X265972*
X268537Y203624*
Y201812*
X269781*
Y203624*
X272347Y206190*
X275972*
X278537Y203624*
Y201812*
G37*
X101703Y105202D02*
X98292Y101791D01*
X98783*
Y94959*
X100644*
G75*
G02X102641Y94409J-3898*
G01*
X103077*
Y97928*
G75*
G02X104219Y100684I3898J0*
G01*
X112801Y109267*
G75*
G02X115096Y110381I2757J-2756*
G01*
G75*
G02X117604Y119109I2508J4004*
G01*
G75*
G02X119891Y110251J-4724*
G01*
X135150*
X136069Y111170*
Y119804*
X130700Y125173*
X130596*
Y125276*
X130393Y125480*
G75*
G02X129967Y125990I2646J2644*
G01*
Y124385*
X123510*
Y129795*
X117715*
Y131677*
G75*
G02X117085Y130978I-3071J2135*
G01*
Y130582*
X116530*
G75*
G02X112757I-1887J3230*
G01*
X112203*
Y130978*
G75*
G02X111999Y131167I2439J2837*
G01*
X110868Y132298*
X102801*
Y107849*
G75*
G02X101703Y105202I-3740*
G01*
G36*
X98292Y101791*
X98783*
Y94959*
X100644*
G75*
G02X102641Y94409J-3898*
G01*
X103077*
Y97928*
G75*
G02X104219Y100684I3898J0*
G01*
X112801Y109267*
G75*
G02X115096Y110381I2757J-2756*
G01*
G75*
G02X117604Y119109I2508J4004*
G01*
G75*
G02X119891Y110251J-4724*
G01*
X135150*
X136069Y111170*
Y119804*
X130700Y125173*
X130596*
Y125276*
X130393Y125480*
G75*
G02X129967Y125990I2646J2644*
G01*
Y124385*
X123510*
Y129795*
X117715*
Y131677*
G75*
G02X117085Y130978I-3071J2135*
G01*
Y130582*
X116530*
G75*
G02X112757I-1887J3230*
G01*
X112203*
Y130978*
G75*
G02X111999Y131167I2439J2837*
G01*
X110868Y132298*
X102801*
Y107849*
G75*
G02X101703Y105202I-3740*
G01*
G37*
X110872Y96313D02*
Y94944D01*
X116581*
Y94157*
X120707*
Y94944*
X128581*
Y94157*
X133510*
Y99425*
X144587*
X143002Y101009*
G75*
G02X142368Y102540I1531J1531*
G01*
Y102614*
X136738*
Y102771*
G75*
G02X136699Y102770I-57J3741*
G01*
X118833*
G75*
G02X117604Y102574I-1229J3740*
G01*
G75*
G02X117157Y102599I2J3938*
G01*
X110872Y96313*
G36*
Y94944*
X116581*
Y94157*
X120707*
Y94944*
X128581*
Y94157*
X133510*
Y99425*
X144587*
X143002Y101009*
G75*
G02X142368Y102540I1531J1531*
G01*
Y102614*
X136738*
Y102771*
G75*
G02X136699Y102770I-57J3741*
G01*
X118833*
G75*
G02X117604Y102574I-1229J3740*
G01*
G75*
G02X117157Y102599I2J3938*
G01*
X110872Y96313*
G37*
X113670Y74617D02*
G75*
G02X109025Y70458I-4964J870D01*
G01*
X110059Y69424*
X131944*
X126467Y74901*
G75*
G02X125833Y76432I1531J1531*
G01*
Y83330*
X124581Y84581*
X122174*
G75*
G02X120640Y85216I-2J2165*
G01*
X118392Y87464*
X116581*
Y86677*
X112635*
X119688Y79624*
G75*
G02X118707Y71235I-981J-4137*
G01*
G75*
G02X115188Y73100J4252*
G01*
X113670Y74617*
G36*
G75*
G02X109025Y70458I-4964J870*
G01*
X110059Y69424*
X131944*
X126467Y74901*
G75*
G02X125833Y76432I1531J1531*
G01*
Y83330*
X124581Y84581*
X122174*
G75*
G02X120640Y85216I-2J2165*
G01*
X118392Y87464*
X116581*
Y86677*
X112635*
X119688Y79624*
G75*
G02X118707Y71235I-981J-4137*
G01*
G75*
G02X115188Y73100J4252*
G01*
X113670Y74617*
G37*
X132418Y197434D02*
X122657Y187674D01*
G75*
G02X130049Y183418I2471J-4256*
G01*
G75*
G02X120207I-4921*
G01*
G75*
G02X120872Y185889I4922*
G01*
X120124Y185141*
Y163597*
G75*
G02X119490Y162066I-2165*
G01*
X108860Y151436*
G75*
G02X107326Y150802I-1531J1531*
G01*
X81187*
G75*
G02X81384Y145867I-2205J-2559*
G01*
Y144700*
X102014*
Y139778*
X112417*
G75*
G02X115065Y138680J-3740*
G01*
X116706Y137039*
X117085*
Y136660*
X117289Y136457*
G75*
G02X117715Y135947I-2646J-2644*
G01*
Y137826*
X124171*
Y132417*
X129967*
Y130535*
G75*
G02X130596Y131234I3071J-2135*
G01*
Y131630*
X131150*
G75*
G02X132780Y132131I1887J-3229*
G01*
X129420Y135491*
G75*
G02X128785Y137022I1531J1531*
G01*
Y160526*
G75*
G02X129420Y162057I2165*
G01*
X134100Y166738*
Y195335*
G75*
G02X134735Y196867I2165*
G01*
X135302Y197434*
X132418*
X120207Y169639D02*
G75*
G02X130049I4921D01*
G01*
G75*
G02X120207I-4921*
G01*
X134100D02*
G36*
X130049D01*
G75*
G02X120207I-4921*
G01*
X120124*
Y163597*
G75*
G02X119490Y162066I-2166J0*
G01*
X108860Y151436*
G75*
G02X107326Y150802I-1532J1533*
G01*
X81384*
Y150618*
G75*
G02X82360Y148243I-2402J-2375*
G01*
G75*
G02X81384Y145868I-3378*
G01*
Y144700*
X102014*
Y139778*
X112417*
G75*
G02X115065Y138680J-3740*
G01*
X116706Y137039*
X117085*
Y136660*
X117289Y136457*
G75*
G02X117715Y135947I-2614J-2617*
G01*
Y137826*
X124171*
Y132417*
X129967*
Y130732*
X130113*
G75*
G02X130596Y131234I2926J-2332*
G01*
Y131630*
X131150*
G75*
G02X132780Y132131I1888J-3233*
G01*
X129420Y135491*
G75*
G02X128785Y137022I1532J1531*
G01*
Y160526*
G75*
G02X129420Y162057I2166J0*
G01*
X134100Y166738*
Y169639*
G37*
X135105Y197237D02*
G36*
X132221D01*
X122657Y187674*
G75*
G02X130049Y183418I2471J-4256*
G01*
G75*
G02X120207I-4921*
G01*
G75*
G02X120872Y185889I4924J0*
G01*
X120124Y185141*
Y169639*
X120207*
G75*
G02X130049I4921*
G01*
X134100*
Y195335*
G75*
G02X134735Y196867I2166J0*
G01*
X135105Y197237*
G37*
X163707Y116078D02*
Y110550D01*
G75*
G02X163431Y109493I-2165*
G01*
Y102614*
X156738*
Y117181*
X159379*
G75*
G02X160010Y118593I2162J-119*
G01*
X160566Y119148*
X155275*
X153307Y117181*
X153431*
Y102614*
X147522*
X147680Y102456*
X151854*
G75*
G02X153387Y101821I2J-2165*
G01*
X154805Y100404*
G75*
G02X155439Y98873I-1531J-1531*
G01*
Y93912*
G75*
G02X154805Y92381I-2165*
G01*
X151620Y89196*
Y87849*
X153676*
G75*
G02X160431Y87770I3377J-79*
G01*
G75*
G02X156751Y84406I-3378*
G01*
X156498Y84153*
G75*
G02X154964Y83519I-1531J1531*
G01*
X151620*
Y62732*
X145296*
X141375Y58811*
G75*
G02X140085Y56236I-3731J259*
G01*
Y55842*
X139533*
G75*
G02X135754I-1890J3228*
G01*
X135203*
Y56236*
G75*
G02X134573Y56935I2441J2834*
G01*
Y55055*
X128116*
Y61944*
X108510*
G75*
G02X105862Y63042J3740*
G01*
X97492Y71412*
G75*
G02X98707Y79739I1215J4075*
G01*
G75*
G02X102781Y76702J-4252*
G01*
X103678Y75806*
G75*
G02X107837Y80451I5029J-319*
G01*
X104219Y84070*
G75*
G02X103077Y86826I2756J2756*
G01*
Y87716*
X102643*
G75*
G02X100644Y87164I-2000J3346*
G01*
X95140*
G75*
G02X93315Y87618J3898*
G01*
X92091*
Y88634*
G75*
G02Y93489I3049J2428*
G01*
Y93523*
X91303*
Y99644*
X90636Y98977*
Y88243*
G75*
G02X89537Y85595I-3740*
G01*
X83244Y79302*
G75*
G02X80596Y78204I-2648J2642*
G01*
X78514*
G75*
G02X77039Y76610I-5556J3662*
G01*
X77624*
Y74109*
X88547*
G75*
G02X90080Y73475I2J-2165*
G01*
X98348Y65207*
G75*
G02X98982Y63676I-1531J-1531*
G01*
Y43785*
X102202Y40566*
X106586*
G75*
G02X108648Y49956I2062J4469*
G01*
G75*
G02X111846Y48774J-4921*
G01*
X125134*
G75*
G02X131531I3198J-3740*
G01*
X134854*
X145429Y59349*
G75*
G02X148077Y60448I2648J-2642*
G01*
X162039*
X164219Y62627*
Y102240*
X165951*
Y116078*
X163707*
G36*
Y110550*
G75*
G02X163431Y109493I-2165*
G01*
Y102614*
X156738*
Y117181*
X159379*
G75*
G02X160010Y118593I2162J-119*
G01*
X160566Y119148*
X155275*
X153307Y117181*
X153431*
Y102614*
X147522*
X147680Y102456*
X151854*
G75*
G02X153387Y101821I2J-2165*
G01*
X154805Y100404*
G75*
G02X155439Y98873I-1531J-1531*
G01*
Y93912*
G75*
G02X154805Y92381I-2165*
G01*
X151620Y89196*
Y87849*
X153676*
G75*
G02X160431Y87770I3377J-79*
G01*
G75*
G02X156751Y84406I-3378*
G01*
X156498Y84153*
G75*
G02X154964Y83519I-1531J1531*
G01*
X151620*
Y62732*
X145296*
X141375Y58811*
G75*
G02X140085Y56236I-3731J259*
G01*
Y55842*
X139533*
G75*
G02X135754I-1890J3228*
G01*
X135203*
Y56236*
G75*
G02X134573Y56935I2441J2834*
G01*
Y55055*
X128116*
Y61944*
X108510*
G75*
G02X105862Y63042J3740*
G01*
X97492Y71412*
G75*
G02X98707Y79739I1215J4075*
G01*
G75*
G02X102781Y76702J-4252*
G01*
X103678Y75806*
G75*
G02X107837Y80451I5029J-319*
G01*
X104219Y84070*
G75*
G02X103077Y86826I2756J2756*
G01*
Y87716*
X102643*
G75*
G02X100644Y87164I-2000J3346*
G01*
X95140*
G75*
G02X93315Y87618J3898*
G01*
X92091*
Y88634*
G75*
G02Y93489I3049J2428*
G01*
Y93523*
X91303*
Y99644*
X90636Y98977*
Y88243*
G75*
G02X89537Y85595I-3740*
G01*
X83244Y79302*
G75*
G02X80596Y78204I-2648J2642*
G01*
X78514*
G75*
G02X77039Y76610I-5556J3662*
G01*
X77624*
Y74109*
X88547*
G75*
G02X90080Y73475I2J-2165*
G01*
X98348Y65207*
G75*
G02X98982Y63676I-1531J-1531*
G01*
Y43785*
X102202Y40566*
X106586*
G75*
G02X108648Y49956I2062J4469*
G01*
G75*
G02X111846Y48774J-4921*
G01*
X125134*
G75*
G02X131531I3198J-3740*
G01*
X134854*
X145429Y59349*
G75*
G02X148077Y60448I2648J-2642*
G01*
X162039*
X164219Y62627*
Y102240*
X165951*
Y116078*
X163707*
G37*
X174219D02*
Y102240D01*
X198470*
Y100124*
X207925Y109579*
G75*
G02X212100Y113917I4618J-267*
G01*
G75*
G02X208095Y122396I443J5395*
G01*
X206552*
X200868Y116712*
G75*
G02X199334Y116078I-1531J1531*
G01*
X174219*
G36*
Y102240*
X198470*
Y100124*
X207925Y109579*
G75*
G02X212100Y113917I4618J-267*
G01*
G75*
G02X208095Y122396I443J5395*
G01*
X206552*
X200868Y116712*
G75*
G02X199334Y116078I-1531J1531*
G01*
X174219*
G37*
X175623Y139397D02*
X170615D01*
X174978Y135034*
X176581*
Y137889*
X180793*
Y138677*
X187683*
Y137889*
X207140*
G75*
G02X206116Y140312I2354J2422*
G01*
G75*
G02X212872I3378*
G01*
G75*
G02X212450Y138677I-3378*
G01*
X217683*
Y129477*
X219041*
G75*
G02X220574Y128843I2J-2165*
G01*
X225824Y123593*
G75*
G02X226459Y122062I-1531J-1531*
G01*
Y106209*
X233941Y98726*
G75*
G02X239826Y101492I3602J-21*
G01*
X249369Y111034*
G75*
G02X249456Y111117I1532J-1531*
G01*
X245546*
G75*
G02X244012Y111751I-2J2165*
G01*
X240237Y115526*
G75*
G02X233941Y117918I-2694J2392*
G01*
G75*
G02X240422Y120083I3602*
G01*
X240905*
G75*
G02X242439Y119449I2J-2165*
G01*
X245970Y115917*
Y129200*
X244848*
Y129988*
X241738*
Y129200*
X234848*
Y129988*
X231738*
Y129200*
X224848*
Y129988*
X220636*
Y140027*
X220805*
G75*
G02X219915Y142312I2488J2285*
G01*
G75*
G02X226671I3378*
G01*
G75*
G02X226321Y140815I-3378*
G01*
X230066*
G75*
G02X229915Y141812I3228J997*
G01*
G75*
G02X236671I3378*
G01*
G75*
G02X236521Y140815I-3378J0*
G01*
X240066*
G75*
G02X239915Y141812I3228J997*
G01*
G75*
G02X246671I3378*
G01*
G75*
G02X246521Y140815I-3378J0*
G01*
X250066*
G75*
G02X249915Y141812I3228J997*
G01*
G75*
G02X256671I3378*
G01*
G75*
G02X256521Y140815I-3378J0*
G01*
X261738*
Y129200*
X261679*
Y116157*
X261384*
Y113678*
G75*
G02X260750Y112147I-2165*
G01*
X259757Y111155*
G75*
G02X260315Y111227I556J-2093*
G01*
X279936*
X282053Y113344*
Y116157*
X281758*
Y130724*
X286679*
Y116157*
X286384*
Y112448*
G75*
G02X285750Y110917I-2165*
G01*
X283060Y108227*
X283227*
X287053Y112053*
Y116157*
X286758*
Y130724*
X291378*
Y136062*
G75*
G02X292012Y137593I2165*
G01*
X293816Y139396*
X284796*
G75*
G02X283262Y140031I-2J2165*
G01*
X274012Y149281*
G75*
G02X273744Y149607I1531J1531*
G01*
Y142307*
X264886*
Y142897*
X263543*
G75*
G02X262011Y143533J2165*
G01*
X259397Y146145*
X183273*
X181209Y144083*
G75*
G02X180467Y143341I-1971J1229*
G01*
X177157Y140031*
G75*
G02X175623Y139397I-1531J1531*
G01*
X276758Y130724D02*
X281679D01*
Y116157*
X276758*
Y130724*
X266758D02*
X271679D01*
Y116157*
X266758*
Y130724*
X271758D02*
X276679D01*
Y116157*
X271758*
Y130724*
X261758D02*
X266679D01*
Y116157*
X261758*
Y130724*
X233948Y98923D02*
G36*
G75*
G02X239826Y101492I3596J-218D01*
G01*
X249369Y111034*
G75*
G02X249456Y111117I1547J-1547*
G01*
X245546*
G75*
G02X244012Y111751I-2J2167*
G01*
X240237Y115526*
G75*
G02X233941Y117918I-2694J2392*
G01*
G75*
G02X240422Y120083I3602*
G01*
X240905*
G75*
G02X242439Y119449I2J-2167*
G01*
X245970Y115917*
Y123441*
X225963*
G75*
G02X226459Y122062I-1670J-1379*
G01*
Y106209*
X233744Y98923*
X233948*
G37*
X281758Y123441D02*
G36*
X281679D01*
Y116157*
X276758*
Y123441*
X276679*
Y116157*
X271758*
Y123441*
X271679*
Y116157*
X266758*
Y123441*
X266679*
Y116157*
X261758*
Y123441*
X261679*
Y116157*
X261384*
Y113678*
G75*
G02X260750Y112147I-2166J0*
G01*
X259757Y111155*
G75*
G02X260315Y111227I556J-2100*
G01*
X279936*
X282053Y113344*
Y116157*
X281758*
Y123441*
G37*
X286758D02*
G36*
X286679D01*
Y116157*
X286384*
Y112448*
G75*
G02X285750Y110917I-2166J0*
G01*
X283060Y108227*
X283227*
X287053Y112053*
Y116157*
X286758*
Y123441*
G37*
X293619Y139396D02*
G36*
X284796D01*
G75*
G02X283262Y140031I-2J2167*
G01*
X274012Y149281*
G75*
G02X273893Y149410I1526J1525*
G01*
X273744*
Y142307*
X264886*
Y142897*
X263543*
G75*
G02X262011Y143533I1J2167*
G01*
X259397Y146145*
X183273*
X181209Y144083*
G75*
G02X180467Y143341I-1977J1235*
G01*
X177157Y140031*
G75*
G02X175623Y139397I-1531J1530*
G01*
X170811*
Y139200*
X174978Y135034*
X176581*
Y137889*
X180793*
Y138677*
X187683*
Y137889*
X207140*
G75*
G02X206116Y140312I2356J2423*
G01*
G75*
G02X212872I3378*
G01*
Y140311*
G75*
G02X212450Y138677I-3376*
G01*
X217683*
Y129477*
X219041*
G75*
G02X220574Y128843I2J-2167*
G01*
X225824Y123593*
G75*
G02X225963Y123441I-1532J-1533*
G01*
X245970*
Y129200*
X244848*
Y129988*
X241738*
Y129200*
X234848*
Y129988*
X231738*
Y129200*
X224848*
Y129988*
X220636*
Y140027*
X220805*
G75*
G02X219915Y142312I2488J2285*
G01*
G75*
G02X226671I3378*
G01*
G75*
G02Y142311I-3222J0*
G01*
G75*
G02X226321Y140815I-3374*
G01*
X230066*
G75*
G02X229915Y141811I3229J997*
G01*
Y141812*
G75*
G02X236671I3378*
G01*
Y141811*
G75*
G02X236521Y140815I-3379*
G01*
X240066*
G75*
G02X239915Y141811I3229J997*
G01*
Y141812*
G75*
G02X246671I3378*
G01*
Y141811*
G75*
G02X246521Y140815I-3379*
G01*
X250066*
G75*
G02X249915Y141811I3229J997*
G01*
Y141812*
G75*
G02X256671I3378*
G01*
Y141811*
G75*
G02X256521Y140815I-3379*
G01*
X261738*
Y129200*
X261679*
Y123441*
X261758*
Y130724*
X266679*
Y123441*
X266758*
Y130724*
X271679*
Y123441*
X271758*
Y130724*
X276679*
Y123441*
X276758*
Y130724*
X281679*
Y123441*
X281758*
Y130724*
X286679*
Y123441*
X286758*
Y130724*
X291378*
Y136062*
G75*
G02X292012Y137593I2166J0*
G01*
X293619Y139200*
Y139396*
G37*
X217455Y121588D02*
G75*
G02X212986Y113917I-4912J-2276D01*
G01*
G75*
G02X217169Y109312I-443J-4605*
G01*
G75*
G02X209951Y105480I-4626*
G01*
X208407Y103937*
X217169*
Y94685*
X207917*
Y95730*
X204573Y92385*
Y83459*
X206953Y81078*
X210951*
Y80310*
X211344*
Y85645*
X208904*
Y93913*
X216778*
Y93126*
X222289*
Y92417*
X226502*
Y89956*
G75*
G02X226620Y89188I-2441J-769*
G01*
Y76354*
X226674Y76300*
G75*
G02X226913I119J-3742*
G01*
X230407Y79794*
G75*
G02X232219Y80546I1812J-1807*
G01*
X232801*
Y85173*
X227132*
Y93204*
X229339*
X219512Y103031*
G75*
G02X218878Y104562I1531J1531*
G01*
Y120165*
X217455Y121588*
G36*
G75*
G02X212986Y113917I-4912J-2276*
G01*
G75*
G02X217169Y109312I-443J-4605*
G01*
G75*
G02X209951Y105480I-4626*
G01*
X208407Y103937*
X217169*
Y94685*
X207917*
Y95730*
X204573Y92385*
Y83459*
X206953Y81078*
X210951*
Y80310*
X211344*
Y85645*
X208904*
Y93913*
X216778*
Y93126*
X222289*
Y92417*
X226502*
Y89956*
G75*
G02X226620Y89188I-2441J-769*
G01*
Y76354*
X226674Y76300*
G75*
G02X226913I119J-3742*
G01*
X230407Y79794*
G75*
G02X232219Y80546I1812J-1807*
G01*
X232801*
Y85173*
X227132*
Y93204*
X229339*
X219512Y103031*
G75*
G02X218878Y104562I1531J1531*
G01*
Y120165*
X217455Y121588*
G37*
X301209Y108184D02*
Y104312D01*
G75*
G02X300574Y102781I-2165*
G01*
X292994Y95201*
X295356Y92839*
G75*
G02X295990Y91308I-1531J-1531*
G01*
Y77141*
G75*
G02X295356Y75609I-2165*
G01*
X292639Y72893*
G75*
G02X292565Y72822I-1529J1531*
G01*
Y72535*
X293825*
Y60763*
X291943*
G75*
G02X292454Y60337I-2133J-3073*
G01*
X292657Y60133*
X293037*
Y59753*
X298238Y54552*
X300474*
Y55881*
X302383*
G75*
G02X303350Y66242I3160J4930*
G01*
G75*
G02X304710Y75812I2193J4570*
G01*
G75*
G02Y85812I833J5000*
G01*
G75*
G02Y95812I833J5000*
G01*
G75*
G02Y105812I833J5000*
G01*
G75*
G02X301209Y108184I833J5000*
G01*
G36*
Y104312*
G75*
G02X300574Y102781I-2165*
G01*
X292994Y95201*
X295356Y92839*
G75*
G02X295990Y91308I-1531J-1531*
G01*
Y77141*
G75*
G02X295356Y75609I-2165*
G01*
X292639Y72893*
G75*
G02X292565Y72822I-1529J1531*
G01*
Y72535*
X293825*
Y60763*
X291943*
G75*
G02X292454Y60337I-2133J-3073*
G01*
X292657Y60133*
X293037*
Y59753*
X298238Y54552*
X300474*
Y55881*
X302383*
G75*
G02X303350Y66242I3160J4930*
G01*
G75*
G02X304710Y75812I2193J4570*
G01*
G75*
G02Y85812I833J5000*
G01*
G75*
G02Y95812I833J5000*
G01*
G75*
G02Y105812I833J5000*
G01*
G75*
G02X301209Y108184I833J5000*
G01*
G37*
D02*
D14*
X13628Y135448D02*
X10478D01*
X14612Y136432D02*
Y139582D01*
X15596Y135448D02*
X18746D01*
X18814Y107484D02*
X16587Y105257D01*
X18814Y111994D02*
X16587Y114221D01*
X21215Y83011D02*
X18065D01*
X23324Y107484D02*
X25551Y105257D01*
X24167Y80058D02*
Y76908D01*
Y85963D02*
Y89113D01*
X25321Y136038D02*
X22171D01*
X26305Y129345D02*
Y126196D01*
Y142731D02*
Y145881D01*
X27120Y83011D02*
X30270D01*
X31305Y124312D02*
X28156D01*
X32486Y122934D02*
Y119783D01*
X40900Y83011D02*
X37750D01*
X43852Y85963D02*
Y89113D01*
X46805Y83011D02*
X49955D01*
X49967Y123302D02*
Y120153D01*
X68077Y136038D02*
X64927D01*
X68313Y117101D02*
Y113952D01*
Y119857D02*
Y123007D01*
X69061Y129345D02*
Y126196D01*
Y142731D02*
Y145881D01*
X69494Y118479D02*
X72644D01*
X69995Y45222D02*
X67768Y47449D01*
X74505Y45222D02*
X76732Y47449D01*
X76487Y117125D02*
X73510Y114148D01*
X76487Y119833D02*
X73510Y122810D01*
X79194Y117125D02*
X82171Y114148D01*
X79194Y119833D02*
X82171Y122810D01*
X82353Y47873D02*
X79377Y44897D01*
X82353Y50581D02*
X79375Y53559D01*
X85061Y47873D02*
X88037Y44897D01*
X85061Y50581D02*
X88038Y53559D01*
X90006Y109660D02*
X86856D01*
X96028Y97658D02*
X99177D01*
X106560Y29167D02*
X104333Y26940D01*
X106560Y33343D02*
X104333Y35570D01*
X107092Y77102D02*
X104865Y79329D01*
X110321Y73872D02*
X112548Y71645D01*
X110735Y29167D02*
X112963Y26940D01*
X110735Y33343D02*
X112963Y35570D01*
X112456Y10108D02*
X110229Y7881D01*
X112456Y13515D02*
X110229Y15742D01*
X113998Y89458D02*
X116974Y86481D01*
X113998Y92166D02*
X116974Y95143D01*
X115863Y10108D02*
X118090Y7881D01*
X115863Y13515D02*
X118090Y15742D01*
X116213Y112993D02*
X113985Y110766D01*
X116213Y115776D02*
X113985Y118004D01*
X118996Y112993D02*
X121223Y110766D01*
X118996Y115776D02*
X121223Y118004D01*
X120943Y132552D02*
Y129401D01*
Y135072D02*
Y138220D01*
X121415Y133812D02*
X124565D01*
X122456Y10108D02*
X120229Y7881D01*
X122456Y13515D02*
X120229Y15742D01*
X124644Y92190D02*
Y95338D01*
X125863Y10108D02*
X128090Y7881D01*
X125863Y13515D02*
X128090Y15742D01*
X126245Y29167D02*
X124018Y26940D01*
X126245Y33343D02*
X124018Y35570D01*
X126266Y128400D02*
X123116D01*
X126738Y127141D02*
Y123992D01*
Y129660D02*
Y132811D01*
X130420Y29167D02*
X132648Y26940D01*
X130420Y33343D02*
X132648Y35570D01*
X130872Y59070D02*
X127722D01*
X131344Y57810D02*
Y54661D01*
X136266Y95684D02*
X133116D01*
X142959Y96668D02*
Y99819D01*
X168534Y108346D02*
X165557Y105369D01*
X168534Y111447D02*
X165557Y114424D01*
X171635Y108346D02*
X174612Y105369D01*
X171635Y111447D02*
X174612Y114424D01*
X184238Y129818D02*
Y126669D01*
Y135920D02*
Y139070D01*
X207132Y37662D02*
Y34511D01*
Y43863D02*
Y47011D01*
X209886Y119312D02*
X206736D01*
X210232Y40763D02*
X213382D01*
X211487Y88424D02*
X208510Y85448D01*
X211487Y91132D02*
X208510Y94109D01*
X214194Y91132D02*
X217171Y94109D01*
X214238Y135920D02*
Y139070D01*
X214927Y132869D02*
X218077D01*
X215201Y119312D02*
X218350D01*
X225043Y173562D02*
Y179562D01*
X228293Y131957D02*
Y128807D01*
Y138060D02*
Y141208D01*
X230360Y87928D02*
Y84779D01*
X234770Y72987D02*
X231620D01*
X235728Y22062D02*
X232579D01*
X238293Y131957D02*
Y128807D01*
Y138060D02*
Y141208D01*
X241043Y21570D02*
Y18421D01*
X246358Y22062D02*
X249508D01*
X248293Y138060D02*
Y141208D01*
X248554Y122775D02*
X245577Y119798D01*
X248554Y124105D02*
X245577Y127081D01*
X258293Y138060D02*
Y141208D01*
X258982Y135009D02*
X262132D01*
X291069Y63991D02*
X294219D01*
X291242Y67873D02*
X294219Y64896D01*
X291242Y69164D02*
X294219Y72141D01*
X303351Y58620D02*
X301124Y56393D01*
X303351Y63004D02*
X301124Y65231D01*
X307735Y58620D02*
X309963Y56393D01*
X307735Y63004D02*
X309963Y65231D01*
X314922Y29683D02*
X317150Y27456D01*
X322456Y30108D02*
X320229Y27881D01*
X325863Y30108D02*
X328090Y27881D01*
X325863Y33515D02*
X328090Y35742D01*
X332456Y30108D02*
X330229Y27881D01*
X332456Y33515D02*
X330229Y35742D01*
X334241Y9572D02*
X331263Y6594D01*
X334241Y11178D02*
X331265Y14153D01*
X335846Y9572D02*
X338824Y6594D01*
X335846Y11178D02*
X338822Y14153D01*
X335863Y30108D02*
X338090Y27881D01*
X335863Y33515D02*
X338090Y35742D01*
D02*
D15*
X29159Y201812D03*
X39159D03*
X49159D03*
X59159D03*
X69159D03*
X74159Y11812D03*
X79159Y201812D03*
X84159Y11812D03*
X89159Y201812D03*
X94159Y11812D03*
X99159Y201812D03*
X104159Y11812D03*
X109159Y201812D03*
X114159Y11812D03*
X119159Y201812D03*
X124159Y11812D03*
X134159D03*
Y201812D03*
X144159D03*
X154159Y11812D03*
Y201812D03*
X164159Y11812D03*
Y201812D03*
X174159Y11812D03*
Y201812D03*
X184159Y11812D03*
Y201812D03*
X194159Y11812D03*
Y201812D03*
X204159Y11812D03*
Y201812D03*
X214159Y11812D03*
X224159D03*
Y201812D03*
X234159D03*
X244159Y11812D03*
Y201812D03*
X254159Y11812D03*
Y201812D03*
X264159Y11812D03*
Y201812D03*
X274159Y11812D03*
Y201812D03*
X284159Y11812D03*
Y201812D03*
X294159Y11812D03*
Y201812D03*
X304159Y11812D03*
X314159D03*
X324159Y31812D03*
Y41812D03*
Y51812D03*
Y61812D03*
Y71812D03*
Y81812D03*
Y91812D03*
Y101812D03*
Y111812D03*
Y121812D03*
Y131812D03*
Y141812D03*
Y151812D03*
Y161812D03*
Y171812D03*
Y181812D03*
Y191812D03*
Y201812D03*
X334159Y31812D03*
Y41812D03*
Y51812D03*
Y61812D03*
Y71812D03*
Y81812D03*
Y91812D03*
Y101812D03*
Y111812D03*
Y121812D03*
Y131812D03*
Y141812D03*
Y151812D03*
Y161812D03*
Y171812D03*
Y181812D03*
Y191812D03*
Y201812D03*
D02*
D16*
X207132Y40763D03*
X305543Y50812D03*
D02*
D17*
X147132Y40763D03*
X157132D03*
X167132D03*
X177132D03*
X187132D03*
X197132D03*
X305543Y60812D03*
Y70812D03*
Y80812D03*
Y90812D03*
Y100812D03*
Y110812D03*
Y120812D03*
Y130812D03*
D02*
D18*
X212543Y99312D03*
X290043Y176812D03*
X293043Y31562D03*
D02*
D19*
X190043Y176812D03*
X200043D03*
X210043D03*
X212543Y109312D03*
Y119312D03*
X220043Y176812D03*
X230043D03*
X240043D03*
X250043D03*
X260043D03*
X270043D03*
X280043D03*
X303043Y31562D03*
X313043D03*
D02*
D70*
X66581Y101707D03*
X72959Y71944D03*
D02*
D71*
Y81944D03*
X76581Y101707D03*
D02*
D20*
X32486Y124312D03*
X38785D03*
X61069Y17731D03*
X62014Y118479D03*
X67368Y17731D03*
X68313Y118479D03*
X77841D03*
X84140D03*
X100644Y91062D03*
X106943D03*
X112644Y90812D03*
X118943D03*
X124644D03*
X130943D03*
X147880Y22456D03*
X154179D03*
X161935Y164778D03*
X168234D03*
X212841Y89778D03*
X219140D03*
X272486Y67692D03*
X278785D03*
X283116Y74424D03*
X289415D03*
X299144Y149312D03*
X305443D03*
D02*
D21*
X83707Y42928D03*
Y49227D03*
X91384Y109660D03*
Y115959D03*
X163543Y177412D03*
Y183711D03*
X207604Y71629D03*
Y77928D03*
X300043Y157912D03*
Y164211D03*
X326293Y11662D03*
Y17961D03*
D02*
D22*
X224293Y31706D03*
Y50918D03*
X237543Y98706D03*
Y117918D03*
D02*
D25*
X41069Y109739D03*
X72250Y32967D03*
D02*
D26*
X21069Y109739D03*
X31069D03*
X72250Y42967D03*
Y52967D03*
D02*
D27*
X98707Y75487D03*
X108707D03*
X118707D03*
D02*
D28*
X117604Y106511D03*
Y114385D03*
D02*
D29*
X181345Y80684D03*
D02*
D73*
X41305Y174424D03*
X84061D03*
D02*
D74*
X14612Y127967D03*
X88431Y30330D03*
D02*
D75*
X14612Y135448D03*
X88431Y22849D03*
D02*
D76*
X308293Y157625D03*
Y165499D03*
X335043Y10375D03*
Y18249D03*
D02*
D77*
X24167Y14113D03*
Y27893D03*
Y41672D03*
Y55452D03*
Y69231D03*
Y83011D03*
X43852Y14113D03*
Y27893D03*
Y41672D03*
Y55452D03*
Y69231D03*
Y83011D03*
X108648Y31255D03*
Y45034D03*
X125128Y169639D03*
Y183418D03*
X128333Y31255D03*
Y45034D03*
X144813Y169639D03*
Y183418D03*
D02*
D78*
X31069Y109739D02*
Y111511D01*
X14612Y127967*
X31069Y109739D02*
X33274Y107534D01*
Y99345*
X38470Y94148*
X72722*
X76581Y98007*
Y101707*
X43852Y27893D02*
X24167D01*
X56266Y124562D02*
Y112022D01*
X66581Y101707*
X56305Y136038D02*
Y124601D01*
X56266Y124562*
X61069Y17731D02*
X54014D01*
X43852Y27893*
X72250Y32967D02*
X85793D01*
X88431Y30330*
X72250Y32967D02*
X73746D01*
X83707Y42928*
X72959Y81944D02*
X80596D01*
X86896Y88243*
Y99109*
Y100526*
X90203Y103833*
X95045*
X99061Y107849*
Y136038*
X88431Y22849D02*
X72486D01*
X67368Y17731*
X99061Y136038D02*
X112417D01*
X114644Y133812*
X100644Y91062D02*
X95140D01*
X95043Y90965*
X108648Y45034D02*
X128333D01*
X117604Y106511D02*
X136699D01*
X140085Y109896*
X117604Y106511D02*
X115557D01*
X106974Y97928*
Y91093*
X106943Y91062*
X118707Y75487D02*
X118313D01*
X106974Y86826*
Y90385*
X106943Y90416*
Y91062*
X128333Y45034D02*
X136404D01*
X148077Y56707*
X163589*
X171974Y65093*
Y65684*
X137644Y59070D02*
Y60369D01*
X142959Y65684*
X140085Y109896D02*
X139809D01*
Y121353*
X133037Y128125*
Y128400*
X142959Y65684D02*
X108510D01*
X98707Y75487*
X197132Y40763D02*
Y50400D01*
X207543Y60812*
X222443*
X226793Y65162*
Y72562*
X278785Y67692D02*
Y62115D01*
X278839Y62062*
X305543Y50812D02*
X296689D01*
X289809Y57692*
D02*
D79*
X31305Y136038D02*
Y136589D01*
X31384Y136668*
Y151432*
X35872Y155920*
X104022*
X113825Y165723*
Y187219*
X119159Y192554*
Y201812*
X36305Y136038D02*
Y146786D01*
X36344Y146826*
X46305Y136038D02*
Y127967D01*
X42486Y124148*
X38949*
X38785Y124312*
X62014Y118479D02*
Y132180D01*
X62093Y132259*
Y144227*
X59494Y146826*
X53589*
X51305Y144542*
Y136038*
X72959Y71944D02*
X88549D01*
X96817Y63676*
Y42889*
X101305Y38400*
X133732*
X147880Y24253*
Y22456*
X74061Y136038D02*
Y150763D01*
X76266Y152967*
X107329*
X79061Y136038D02*
Y148164D01*
X78982Y148243*
X89061Y136038D02*
Y120644D01*
X86659Y118243*
X84376*
X84140Y118479*
X91384Y115959D02*
Y117331D01*
X94061Y120009*
Y136038*
X118943Y90812D02*
X119730D01*
Y89188*
X122171Y86747*
X125478*
X127998Y84227*
Y76432*
X133746Y70684*
X142959*
X134159Y201812D02*
X133732D01*
X117959Y186038*
Y163597*
X107329Y152967*
X142959Y75684D02*
X134652D01*
X131069Y79267*
Y90686*
X130943Y90812*
X142959Y85684D02*
X154967D01*
X157053Y87770*
X142959Y90684D02*
X150045D01*
X153274Y93912*
Y98873*
X151856Y100290*
X146783*
X144533Y102540*
Y123440*
X130951Y137022*
Y160526*
X136266Y165841*
Y195335*
X142742Y201812*
X144159*
X150085Y109896D02*
Y117020D01*
X154378Y121314*
X196738*
X202736Y127312*
X219043*
X224293Y122062*
Y105312*
X235543Y94062*
X239293*
X245758Y100526*
X251778*
X260313Y109062*
X280833*
X284219Y112448*
Y123440*
X150085Y149896D02*
Y152928D01*
X161935Y164778*
X154159Y11812D02*
X154179Y22456D01*
X160085Y149896D02*
Y156629D01*
X168234Y164778*
X161935D02*
Y165009D01*
X166738Y169812*
X172226*
X174043Y171629*
X195293*
X200043Y176379*
Y176812*
X164159Y201812D02*
Y184328D01*
X163543Y183711*
X174293Y177912D02*
X169191Y172810D01*
X162722*
X149494Y159581*
X146423*
X140085Y153243*
Y149896*
X174293Y177912D02*
X188943D01*
X190043Y176812*
X174293Y184211D02*
X212644D01*
X220043Y176812*
X179238Y132869D02*
X174081D01*
X168746Y138204*
X139809*
X136266Y141747*
Y157692*
X141935Y163361*
X148313*
X162364Y177412*
X163543*
X179238Y157475D02*
Y151550D01*
X179376*
Y145312*
X175626Y141562*
X144043*
X140085Y145520*
Y149896*
X184238Y157475D02*
Y161570D01*
X185793Y163125*
X211793*
X218230Y169562*
X221043*
X225043Y173562*
X207604Y77928D02*
X207041D01*
X202407Y82562*
Y93282*
X208437Y99312*
X212543*
X209494Y140312D02*
Y136668D01*
X209238*
Y132869*
X210043Y176812D02*
Y176294D01*
X202543Y168794*
X177043*
X173028Y164778*
X168234*
X212543Y109312D02*
X210720D01*
X199455Y98046*
Y76314*
X203825Y71944*
X207289*
X207604Y71629*
X215774Y72987D02*
X208963D01*
X207604Y71629*
X215774Y77987D02*
X207663D01*
X207604Y77928*
X220043Y176812D02*
X219632D01*
X208543Y165723*
X178543*
X170085Y157265*
Y149896*
X220715Y82381D02*
Y88204D01*
X219140Y89778*
X220715Y82381D02*
Y68812D01*
X219890Y67987*
X215774*
X223293Y142312D02*
Y135009D01*
X225043Y179562D02*
X230793Y185312D01*
X296793*
X299543Y182562*
Y172312*
X295293Y168062*
X290793*
X284793Y162062*
Y158062*
X287793Y155062*
X290772*
X226543Y153062D02*
X225793D01*
X223293Y155562*
Y159615*
X226543Y153062D02*
X225543D01*
X223543Y151062*
X211293*
X209238Y153117*
Y157475*
X228293Y159615D02*
Y163562D01*
X233543Y168812*
X240043*
X248043Y176812*
X250043*
X230043D02*
X230793D01*
X236293Y182312*
X293793*
X295793Y180312*
Y173312*
X293793Y171312*
X289043*
X281043Y163312*
X265293*
X264293Y162312*
Y156562*
X265793Y155062*
X269315*
X233293Y141812D02*
Y135009D01*
Y159615D02*
Y154062D01*
X234293Y153062*
X226543*
X237230Y67987D02*
Y65875D01*
X241043Y62062*
X237230Y82987D02*
X239626D01*
X242801Y79812*
Y66812*
X244551Y65062*
X248793*
X249793Y64062*
Y58312*
X248543Y57062*
X241043*
X237543Y117918D02*
X240907D01*
X245543Y113282*
X252543*
X254219Y114957*
Y123440*
X240043Y176812D02*
X235543Y171562D01*
X231043*
X225043Y165562*
X220043*
X214238Y159757*
Y157475*
X241043Y27062D02*
X228937D01*
X224293Y31706*
X241043Y32062D02*
X234293D01*
X224293Y42062*
Y50918*
X243293Y141812D02*
Y135009D01*
Y159615D02*
Y153812D01*
X244043Y153062*
X234293*
X245293Y168562D02*
X245043D01*
X242043Y165562*
X239293*
X238293Y164562*
Y159615*
X245293Y168562D02*
X251793D01*
X260043Y176812*
X253293Y141812D02*
Y135009D01*
Y159615D02*
Y154062D01*
X254293Y153062*
X260293*
X261543Y154312*
Y164062*
X263543Y166062*
X278793*
X289543Y176812*
X290043*
X254293Y153062D02*
X244043D01*
X259219Y85644D02*
Y95237D01*
X263293Y99312*
X287293*
X296293Y108312*
Y134562*
X300793Y139062*
X314043*
X317543Y142562*
Y189062*
X312793Y193812*
X276543*
X274543Y195812*
X274159Y201812*
X259219Y123440D02*
Y113678D01*
X255043Y109503*
X250900*
X240102Y98706*
X237543*
X269315Y145062D02*
X263543D01*
X260293Y148312*
X182376*
X179376Y145312*
X269315Y155062D02*
Y150062D01*
Y160062D02*
X272043D01*
X275543Y156562*
Y150812*
X284793Y141562*
X294543*
X297543Y144562*
X302293*
X306033Y148302*
X305443Y149312*
X270043Y176812D02*
X267793D01*
X262543Y171562*
X260293*
X254293Y165562*
X250543*
X248293Y163312*
Y159615*
X278839Y32062D02*
X264043D01*
X252793Y43312*
Y66562*
X251043Y68312*
X246793*
X245793Y69312*
Y92562*
X247543Y94312*
X254293*
X262043Y102062*
X285043*
X293543Y110562*
Y136062*
X299293Y141812*
X312043*
X314793Y144562*
Y186312*
X310293Y190812*
X268793*
X264543Y195062*
X264159Y201812*
X278839Y37062D02*
X271435D01*
X261935Y46562*
Y76668*
X264219Y78952*
Y85644*
X278839Y37062D02*
X319043D01*
X323793Y41812*
X324159*
X278839Y42062D02*
X272506D01*
X265006Y49562*
Y75015*
X269219Y79227*
Y85644*
X278839Y42062D02*
X284543D01*
X286793Y39812*
X314543*
X321543Y46812*
X329793*
X334543Y51562*
X334159Y51812*
X278839Y47062D02*
X272827D01*
X268077Y51812*
Y73597*
X274219Y79739*
Y85644*
X278839Y52062D02*
X283431D01*
X290181Y45312*
X310543*
X324543Y59312*
Y61428*
X324159Y61812*
X278839Y57062D02*
X272329D01*
X270911Y58479*
Y66117*
X272486Y67692*
X279219Y85644D02*
Y94237D01*
X281543Y96562*
X291293*
X299043Y104312*
Y133062*
X302293Y136312*
X320043*
X324159Y131812*
X280043Y176812D02*
Y176062D01*
X272793Y168812*
X262543*
X258293Y164562*
Y159615*
X284219Y85644D02*
Y92987D01*
X285043Y93812*
X291321*
X293825Y91308*
Y77141*
X291108Y74424*
X289415*
X289219Y85644D02*
Y80526D01*
X283116Y74424*
X289219Y123440D02*
Y111156D01*
X284124Y106062*
X261565*
X252959Y97456*
X246687*
X239793Y90562*
X235043*
X221043Y104562*
Y121062*
X217543Y124562*
X205656*
X199337Y118243*
X162722*
X161541Y117062*
Y110550*
X160888Y109896*
X160085*
X290772Y150062D02*
X297803D01*
X299144Y149312*
X290772Y150062D02*
Y145062D01*
Y155062D02*
X297783D01*
X300043Y157912*
X290772Y160062D02*
Y160290D01*
X294293Y163812*
X299053*
X300043Y164211*
X303043Y31562D02*
X310543Y24062D01*
X314293*
X320394Y17961*
X326293*
X308293Y157625D02*
Y151572D01*
X305443Y149312*
X308293Y165499D02*
Y187062D01*
X307293Y188062*
X229543*
X220043Y178562*
Y176812*
X308293Y165499D02*
X300071Y164830D01*
X300043Y164211*
X324159Y51812D02*
X321543D01*
X312293Y42562*
X288156*
X283656Y47062*
X278839*
X326293Y11662D02*
X314693D01*
X314159Y11812*
X326293Y17961D02*
X334661D01*
X335043Y18249*
D02*
D80*
X36344Y146826D03*
X78982Y148243D03*
X157053Y87770D03*
X209494Y140312D03*
X223293Y142312D03*
X233293Y141812D03*
X243293D03*
X253293D03*
D02*
D81*
X24167Y69231D02*
X43852D01*
Y41672D02*
X53317D01*
X59258Y47613*
Y59432*
X49459Y69231*
X43852D02*
X49459D01*
X62093Y81865*
D02*
D120*
X241043Y22062D03*
Y27062D03*
Y32062D03*
Y37062D03*
Y42062D03*
Y47062D03*
Y52062D03*
Y57062D03*
Y62062D03*
X278839Y22062D03*
Y27062D03*
Y32062D03*
Y37062D03*
Y42062D03*
Y47062D03*
Y52062D03*
Y57062D03*
Y62062D03*
D02*
D121*
X249219Y85644D03*
Y123440D03*
X254219Y85644D03*
Y123440D03*
X259219Y85644D03*
Y123440D03*
X264219Y85644D03*
Y123440D03*
X269219Y85644D03*
Y123440D03*
X274219Y85644D03*
Y123440D03*
X279219Y85644D03*
Y123440D03*
X284219Y85644D03*
Y123440D03*
X289219Y85644D03*
Y123440D03*
D02*
D122*
X174293Y177912D03*
Y184211D03*
X289809Y57692D03*
Y63991D03*
D02*
D123*
X179238Y132869D03*
Y157475D03*
X184238Y132869D03*
Y157475D03*
X189238Y132869D03*
Y157475D03*
X194238Y132869D03*
Y157475D03*
X199238Y132869D03*
Y157475D03*
X204238Y132869D03*
Y157475D03*
X209238Y132869D03*
Y157475D03*
X214238Y132869D03*
Y157475D03*
X223293Y135009D03*
Y159615D03*
X228293Y135009D03*
Y159615D03*
X233293Y135009D03*
Y159615D03*
X238293Y135009D03*
Y159615D03*
X243293Y135009D03*
Y159615D03*
X248293Y135009D03*
Y159615D03*
X253293Y135009D03*
Y159615D03*
X258293Y135009D03*
Y159615D03*
D02*
D124*
X215774Y67987D03*
Y72987D03*
Y77987D03*
Y82987D03*
X237230Y67987D03*
Y72987D03*
Y77987D03*
Y82987D03*
X269315Y145062D03*
Y150062D03*
Y155062D03*
Y160062D03*
X290772Y145062D03*
Y150062D03*
Y155062D03*
Y160062D03*
D02*
D125*
X142959Y65684D03*
Y70684D03*
Y75684D03*
Y80684D03*
Y85684D03*
Y90684D03*
Y95684D03*
D02*
D126*
X26305Y136038D03*
X31305D03*
X36305D03*
X41305D03*
X46305D03*
X51305D03*
X56305D03*
X69061D03*
X74061D03*
X79061D03*
X84061D03*
X89061D03*
X94061D03*
X99061D03*
D02*
D127*
X140085Y109896D03*
Y149896D03*
X150085Y109896D03*
Y149896D03*
X160085Y109896D03*
Y149896D03*
X170085Y109896D03*
Y149896D03*
D02*
D128*
X49967Y124562D03*
X56266D03*
X114644Y133812D03*
X120943D03*
X126738Y128400D03*
X131344Y59070D03*
X133037Y128400D03*
X137644Y59070D03*
X224061Y89188D03*
X230360D03*
X284297Y68519D03*
X290596D03*
D02*
D129*
X95043Y90965D03*
Y97658D03*
D02*
D130*
X224061Y75294D02*
X226793Y72562D01*
X224061Y75294D02*
Y89188D01*
X237230Y77987D02*
X232219D01*
X226793Y72562*
X278785Y67692D02*
X283470D01*
X284297Y68519*
X278839Y62062D02*
X285439D01*
X289809Y57692*
X283116Y74424D02*
Y69700D01*
X284297Y68519*
D02*
D131*
X62093Y81865D02*
X72407D01*
X72486Y81944*
X72959*
D02*
D132*
X4293Y600D02*
X341707D01*
Y212100*
X4293*
Y600*
X0Y0D02*
M02*
