G04 EasyPC Gerber Version 21.0.3 Build 4286 *
G04 #@! TF.Part,Single*
G04 #@! TF.FileFunction,Copper,L2,Bot *
G04 #@! TF.FilePolarity,Positive *
%FSLAX35Y35*%
%MOIN*%
G04 #@! TA.AperFunction,ComponentPad*
%AMT15*0 Octagon Pad at angle 0*4,1,8,-0.01243,-0.03000,0.01243,-0.03000,0.03000,-0.01243,0.03000,0.01243,0.01243,0.03000,-0.01243,0.03000,-0.03000,0.01243,-0.03000,-0.01243,-0.01243,-0.03000,0*%
%ADD15T15*%
G04 #@! TA.AperFunction,SMDPad*
%ADD72R,0.02441X0.05787*%
%ADD20R,0.03543X0.03937*%
%ADD24R,0.04016X0.05787*%
%ADD74R,0.04331X0.07874*%
%ADD29R,0.31496X0.40354*%
%ADD75R,0.03150X0.03150*%
G04 #@! TA.AperFunction,ComponentPad*
%ADD18R,0.06496X0.06496*%
%ADD70R,0.06575X0.06575*%
%ADD16R,0.07382X0.07382*%
%ADD25R,0.07559X0.07559*%
G04 #@! TD.AperFunction*
%ADD13C,0.00394*%
%ADD14C,0.00787*%
%ADD79C,0.01575*%
G04 #@! TA.AperFunction,ViaPad*
%ADD80C,0.04000*%
G04 #@! TA.AperFunction,ComponentPad*
%ADD22C,0.04449*%
G04 #@! TD.AperFunction*
%ADD78C,0.04724*%
G04 #@! TA.AperFunction,ComponentPad*
%ADD28C,0.05118*%
%ADD27C,0.05748*%
%ADD19C,0.06496*%
%ADD71C,0.06575*%
%ADD77C,0.07087*%
%ADD17C,0.07382*%
G04 #@! TA.AperFunction,SMDPad*
%ADD76R,0.05787X0.02441*%
%ADD21R,0.03937X0.03543*%
%ADD23R,0.05787X0.04016*%
G04 #@! TA.AperFunction,ComponentPad*
%ADD26C,0.07559*%
G04 #@! TA.AperFunction,SMDPad*
%ADD73R,0.40354X0.31496*%
G04 #@! TD.AperFunction*
%ADD82C,0.09843*%
%ADD81C,0.11811*%
X0Y0D02*
D02*
D13*
X6090Y210303D02*
Y2397D01*
X339910*
Y210303*
X6090*
X26701Y111641D02*
G75*
G02X35833Y109739I4368J-1902D01*
G01*
G75*
G02X26701Y107837I-4764*
G01*
G75*
G02X15124Y109739I-5632J1902*
G01*
G75*
G02X26701Y111641I5945*
G01*
X336298Y36977D02*
X339325Y33950D01*
Y29673*
X336298Y26646*
X332021*
X331423Y27244*
Y23812*
G75*
G02X330786Y22278I-2165J0*
G01*
X329741Y21233*
Y19704*
X330671*
Y15295*
X328273*
G75*
G02X327419Y15132I-855J2160*
G01*
X326793*
G75*
G02X325939Y15295J2323*
G01*
X322915*
Y19145*
X313690*
X308074Y13531*
X308144Y13461*
Y10162*
X305809Y7828*
X302510*
X300175Y10162*
Y13461*
X302510Y15796*
X304215*
X310817Y22396*
X303440*
X303328Y22284*
G75*
G02X303324Y22281I-1576J1572*
G01*
X296637Y15594*
X296591Y15015*
X298144Y13461*
Y10162*
X295809Y7828*
X292510*
X290175Y10162*
Y13461*
X292291Y15578*
X292385Y16734*
G75*
G02X293012Y18093I2159J-173*
G01*
X293852Y18933*
X291776*
Y26689*
X296185*
Y24977*
X299896*
X300262Y25343*
G75*
G02X300266Y25346I1576J-1572*
G01*
X301009Y26090*
G75*
G02X302543Y26727I1534J-1528*
G01*
X310608*
G75*
G02X314894Y36649I2436J4835*
G01*
X310012Y41531*
G75*
G02X309378Y43062I1531J1531*
G01*
Y44956*
X299687*
Y56669*
X303377*
G75*
G02X302738Y57072I2167J4143*
G01*
X273070*
X294324Y35795*
X297276*
Y27330*
X289492*
Y17752*
X282720*
Y27870*
X288811*
Y30283*
X262052Y57072*
X216949*
X213113Y53236*
G75*
G02X210464Y52141I-2644J2645*
G01*
X191043*
X197793Y45391*
G75*
G02X201276Y42928I-661J-4628*
G01*
Y46618*
X212988*
Y34905*
X201276*
Y38598*
G75*
G02X192504Y40102I-4144J2165*
G01*
X191807Y40798*
G75*
G02Y40763I-4667J-18*
G01*
G75*
G02X191593Y39364I-4676*
G01*
X215161Y15796*
X215809*
X218144Y13461*
Y10162*
X215809Y7828*
X212510*
X210175Y10162*
Y13461*
X210773Y14059*
X188531Y36302*
G75*
G02X182457Y40763I-1399J4461*
G01*
G75*
G02X187132Y45438I4675*
G01*
G75*
G02X187167I18J-4667*
G01*
X180465Y52141*
X138313*
G75*
G02X135665Y53239J3740*
G01*
X122447Y66457*
Y28637*
G75*
G02X121352Y25992I-3740*
G01*
X112337Y16977*
X116298*
X119159Y14116*
X122021Y16977*
X126298*
X129325Y13950*
Y9673*
X126556Y6904*
X156190*
X160175Y10890*
Y13461*
X162510Y15796*
X165809*
X168144Y13461*
Y10162*
X165809Y7828*
X163237*
X158618Y3208*
G75*
G02X157084Y2574I-1531J1531*
G01*
X92567*
G75*
G02X91034Y3208I-2J2165*
G01*
X87491Y6751*
G75*
G02X86856Y8282I1531J1531*
G01*
Y8875*
X85809Y7828*
X82510*
X80175Y10162*
Y13461*
X82510Y15796*
X85091*
G75*
G02X85085Y15959I2159J165*
G01*
Y17338*
X84691*
Y22456*
X84100*
Y25237*
X80110Y29227*
X77014*
Y28204*
X67486*
Y37732*
X69433*
G75*
G02X68719Y47750I2817J5235*
G01*
G75*
G02X68169Y48168I3530J5219*
G01*
X51964*
G75*
G02X54250Y46621I-2865J-6697*
G01*
X61573Y39298*
G75*
G02X63707Y34148I-5150J-5150*
G01*
G75*
G02Y34147I-2374J-1*
G01*
G75*
G02Y34143I-2196J-2*
G01*
Y22107*
G75*
G02Y22103I-2276J-2*
G01*
G75*
G02Y22101I-2578J-1*
G01*
G75*
G02X61573Y16951I-7283J0*
G01*
X53585Y8963*
G75*
G02X48429Y6830I-5150J5150*
G01*
X43959*
G75*
G02X43745I-107J7300*
G01*
X24274*
G75*
G02X24167Y6829I-107J7295*
G01*
G75*
G02Y21397J7284*
G01*
G75*
G02X24274Y21396J-7296*
G01*
X43745*
G75*
G02X43959I107J-7300*
G01*
X45418*
X49140Y25118*
Y31131*
X46083Y34188*
X44053*
G75*
G02X42355Y34389J7284*
G01*
X24274*
G75*
G02X24167Y34388I-107J7295*
G01*
G75*
G02X21803Y48562J7284*
G01*
G75*
G02X24167Y62736I2365J6890*
G01*
G75*
G02X24274Y62735J-7296*
G01*
X43745*
G75*
G02X43959I107J-7300*
G01*
X45846*
X52303Y69192*
G75*
G02X54455Y70257I2648J-2642*
G01*
Y80133*
X63116*
Y67929*
X62262*
G75*
G02X58785Y62810I-3477J-1379*
G01*
X56500*
X56425Y62735*
X69766*
G75*
G02X76806Y57319J-7283*
G01*
G75*
G02X75781Y47750I-4556J-4351*
G01*
G75*
G02X75067Y37732I-3531J-4783*
G01*
X77014*
Y36707*
X81655*
G75*
G02X84304Y35612I5J-3740*
G01*
X87617Y32299*
X90400*
Y29394*
G75*
G02Y25360I-3149J-2017*
G01*
Y22456*
X89809*
Y17338*
X89415*
Y16856*
X90553Y15719*
G75*
G02X91170Y14456I-1531J-1531*
G01*
X92510Y15796*
X95809*
X98144Y13461*
Y10162*
X95809Y7828*
X92539*
X93462Y6904*
X111763*
X108994Y9673*
Y13633*
X108144Y12783*
Y10162*
X105809Y7828*
X102510*
X100175Y10162*
Y13461*
X100671Y13957*
X100835Y15195*
G75*
G02X102798Y18016I3708J-487*
G01*
X110715Y25933*
G75*
G02X102939Y31255I-2067J5321*
G01*
G75*
G02X114356I5709*
G01*
G75*
G02X113969Y29188I-5709J0*
G01*
X114967Y30186*
Y74540*
G75*
G02X122021Y77462I3740J947*
G01*
X139862Y59621*
X164612*
Y101846*
X198077*
Y59621*
X208919*
X212755Y63457*
G75*
G02X215404Y64552I2644J-2645*
G01*
X262728*
G75*
G02X264922I1097J-3741*
G01*
X302738*
G75*
G02X310219Y60812I2805J-3740*
G01*
G75*
G02X310187Y60267I-4677J1*
G01*
X310841Y60921*
Y66417*
X316628*
Y67204*
X310841*
Y68646*
X309687*
G75*
G02X300868Y70812I-4144J2165*
G01*
G75*
G02X309687Y72977I4675*
G01*
X313530*
G75*
G02X314564Y72716I3J-2166*
G01*
X316628*
Y73915*
X315896Y74646*
X310296*
G75*
G02X308762Y75281I-2J2165*
G01*
X307484Y76559*
G75*
G02X300868Y80812I-1941J4253*
G01*
G75*
G02X310219I4675*
G01*
G75*
G02X310150Y80017I-4676J0*
G01*
X311190Y78977*
X316791*
G75*
G02X318324Y78343I2J-2165*
G01*
X320324Y76343*
G75*
G02X320959Y74812I-1531J-1531*
G01*
Y74245*
X322510Y75796*
X325809*
X328144Y73461*
Y70162*
X325809Y67828*
X322510*
X320959Y69379*
Y64245*
X322510Y65796*
X325809*
X328144Y63461*
Y60162*
X325809Y57828*
X322510*
X320959Y59379*
Y58802*
G75*
G02X320324Y57271I-2165*
G01*
X319496Y56443*
Y52204*
X313709*
Y51417*
X319496*
Y45905*
X318709*
Y43459*
X320175Y41992*
Y43461*
X322510Y45796*
X325809*
X328144Y43461*
Y40162*
X326959Y38977*
X327756*
G75*
G02X329289Y38343I2J-2165*
G01*
X330789Y36843*
G75*
G02X331236Y36193I-1531J-1531*
G01*
X332021Y36977*
X336298*
X43852Y32420D02*
G75*
G02Y23365J-4528D01*
G01*
G75*
G02Y32420J4528*
G01*
X24167D02*
G75*
G02Y23365J-4528D01*
G01*
G75*
G02Y32420J4528*
G01*
X325809Y55796D02*
X328144Y53461D01*
Y50162*
X325809Y47828*
X322510*
X320175Y50162*
Y53461*
X322510Y55796*
X325809*
X321734Y13011D02*
X331852D01*
Y6240*
X321734*
Y13011*
X315809Y15796D02*
X318144Y13461D01*
Y10162*
X315809Y7828*
X312510*
X310175Y10162*
Y13461*
X312510Y15796*
X315809*
X303043Y35794D02*
G75*
G02X307276Y31562J-4232D01*
G01*
G75*
G02X303043Y27330I-4232*
G01*
G75*
G02X298811Y31562J4232*
G01*
G75*
G02X303043Y35794I4232*
G01*
X275809Y15796D02*
X278144Y13461D01*
Y10162*
X275809Y7828*
X272510*
X270175Y10162*
Y13461*
X272510Y15796*
X275809*
X285809D02*
X288144Y13461D01*
Y10162*
X285809Y7828*
X282510*
X280175Y10162*
Y13461*
X282510Y15796*
X285809*
X225809D02*
X228144Y13461D01*
Y10162*
X225809Y7828*
X222510*
X220175Y10162*
Y13461*
X222510Y15796*
X225809*
X235520Y36622D02*
X243866D01*
Y26504*
X235520*
Y27685*
X230402*
Y29239*
X226346*
G75*
G02X221085Y31706I-2052J2467*
G01*
G75*
G02X226648Y33885I3209*
G01*
X230402*
Y35441*
X235520*
Y36622*
X245809Y15796D02*
X248144Y13461D01*
Y10162*
X245809Y7828*
X242510*
X240175Y10162*
Y13461*
X242510Y15796*
X245809*
X235636Y52437D02*
X243982D01*
Y42319*
X235636*
Y43500*
X230518*
Y45211*
X227837*
G75*
G02X226304Y45846I-2J2165*
G01*
X224437Y47713*
G75*
G02X221085Y50918I-143J3206*
G01*
G75*
G02X227502I3209*
G01*
G75*
G02X227499Y50775I-3212J-1*
G01*
X228731Y49542*
X230518*
Y51256*
X235636*
Y52437*
X255809Y15796D02*
X258144Y13461D01*
Y10162*
X255809Y7828*
X252510*
X250175Y10162*
Y13461*
X252510Y15796*
X255809*
X265809D02*
X268144Y13461D01*
Y10162*
X265809Y7828*
X262510*
X260175Y10162*
Y13461*
X262510Y15796*
X265809*
X205809D02*
X208144Y13461D01*
Y10162*
X205809Y7828*
X202510*
X200175Y10162*
Y13461*
X200773Y14059*
X178531Y36302*
G75*
G02X172457Y40763I-1399J4461*
G01*
G75*
G02X181807I4675*
G01*
G75*
G02X181593Y39364I-4676*
G01*
X205161Y15796*
X205809*
X175809D02*
X178144Y13461D01*
Y10162*
X175809Y7828*
X172510*
X170175Y10162*
Y13461*
X170773Y14059*
X148531Y36302*
G75*
G02X142457Y40763I-1399J4461*
G01*
G75*
G02X151807I4675*
G01*
G75*
G02X151593Y39364I-4676*
G01*
X175161Y15796*
X175809*
X156200Y15405D02*
X158144Y13461D01*
Y10162*
X155809Y7828*
X152510*
X150175Y10162*
Y13461*
X151875Y15161*
X151755Y18578*
X151581*
Y26334*
X155990*
Y21373*
X156200Y15405*
X142526Y27515D02*
X149297D01*
Y17397*
X142526*
Y27515*
X185809Y15796D02*
X188144Y13461D01*
Y10162*
X185809Y7828*
X182510*
X180175Y10162*
Y13461*
X180773Y14059*
X158531Y36302*
G75*
G02X152457Y40763I-1399J4461*
G01*
G75*
G02X161807I4675*
G01*
G75*
G02X161593Y39364I-4676*
G01*
X185161Y15796*
X185809*
X195809D02*
X198144Y13461D01*
Y10162*
X195809Y7828*
X192510*
X190175Y10162*
Y13461*
X190773Y14059*
X168531Y36302*
G75*
G02X162457Y40763I-1399J4461*
G01*
G75*
G02X171807I4675*
G01*
G75*
G02X171593Y39364I-4676*
G01*
X195161Y15796*
X195809*
X122624Y31255D02*
G75*
G02X134041I5709D01*
G01*
G75*
G02X122624I-5709*
G01*
X135809Y15796D02*
X138144Y13461D01*
Y10162*
X135809Y7828*
X132510*
X130175Y10162*
Y13461*
X132510Y15796*
X135809*
X123805Y45034D02*
G75*
G02X132860I4528D01*
G01*
G75*
G02X123805I-4528*
G01*
X75809Y15796D02*
X78144Y13461D01*
Y10162*
X75809Y7828*
X72510*
X70175Y10162*
Y13461*
X72510Y15796*
X75809*
X18459Y83011D02*
G75*
G02X29876I5709D01*
G01*
G75*
G02X18459I-5709*
G01*
X19640Y69231D02*
G75*
G02X28695I4528D01*
G01*
G75*
G02X19640I-4528*
G01*
X142261Y187158D02*
G75*
G02X149341Y183418I2552J-3740D01*
G01*
G75*
G02X142261Y179678I-4528J0*
G01*
X127680*
G75*
G02X122576I-2552J3741*
G01*
X118807*
G75*
G02X116159Y180776J3740*
G01*
X106370Y190566*
X105222*
Y173536*
X122824*
G75*
G02X127680Y173379I2304J-3898*
G01*
X142261*
G75*
G02X149341Y169639I2552J-3740*
G01*
G75*
G02X142261Y165898I-4528J0*
G01*
X127680*
G75*
G02X122824Y165741I-2552J3740*
G01*
X105222*
Y157693*
X62900*
Y190566*
X62467*
Y157693*
X20144*
Y191157*
X52619*
G75*
G02X53663Y193174I3687J-631*
G01*
X57437Y196948*
G75*
G02X58825Y197828I2648J-2642*
G01*
X57510*
X55175Y200162*
Y203461*
X57510Y205796*
X60809*
X63144Y203461*
Y200162*
X61028Y198046*
X67291*
X65175Y200162*
Y203461*
X67510Y205796*
X70809*
X73144Y203461*
Y200162*
X71028Y198046*
X77291*
X75175Y200162*
Y203461*
X77510Y205796*
X80809*
X83144Y203461*
Y200162*
X81028Y198046*
X87291*
X85175Y200162*
Y203461*
X87510Y205796*
X90809*
X93144Y203461*
Y200162*
X91028Y198046*
X97291*
X95175Y200162*
Y203461*
X97510Y205796*
X100809*
X103144Y203461*
Y200162*
X101028Y198046*
X107291*
X105175Y200162*
Y203461*
X107510Y205796*
X110809*
X113144Y203461*
Y200162*
X110809Y197828*
X109179*
G75*
G02X110567Y196948I-1259J-3522*
G01*
X120356Y187158*
X122576*
G75*
G02X127680I2552J-3741*
G01*
X142261*
X335809Y185796D02*
X338144Y183461D01*
Y180162*
X335809Y177828*
X332510*
X330175Y180162*
Y182545*
X328296Y184425*
X327180*
X328144Y183461*
Y180162*
X325809Y177828*
X322510*
X320175Y180162*
Y180646*
X294276*
Y172578*
X285811*
Y180646*
X281834*
G75*
G02X280043Y172580I-1791J-3835*
G01*
G75*
G02X278252Y180646J4232*
G01*
X271834*
G75*
G02X270043Y172580I-1791J-3835*
G01*
G75*
G02X268252Y180646J4232*
G01*
X261834*
G75*
G02X260043Y172580I-1791J-3835*
G01*
G75*
G02X258252Y180646J4232*
G01*
X251834*
G75*
G02X250043Y172580I-1791J-3835*
G01*
G75*
G02X248252Y180646J4232*
G01*
X241834*
G75*
G02X240043Y172580I-1791J-3835*
G01*
G75*
G02X238252Y180646J4232*
G01*
X231834*
G75*
G02X230043Y172580I-1791J-3835*
G01*
G75*
G02X228252Y180646J4232*
G01*
X221834*
G75*
G02X220043Y172580I-1791J-3835*
G01*
G75*
G02X218252Y180646J4232*
G01*
X211834*
G75*
G02X210043Y172580I-1791J-3835*
G01*
G75*
G02X208252Y180646J4232*
G01*
X201834*
G75*
G02X200043Y172580I-1791J-3835*
G01*
G75*
G02X198252Y180646J4232*
G01*
X191834*
G75*
G02X190043Y172580I-1791J-3835*
G01*
G75*
G02X188252Y180646J4232*
G01*
X186190*
X147246Y141702*
G75*
G02X145712Y141068I-1531J1531*
G01*
X52124*
G75*
G02X50591Y141702I-2J2165*
G01*
X47633Y144660*
X38398*
G75*
G02X33360Y146826I-2054J2165*
G01*
G75*
G02X38398Y148991I2984*
G01*
X48527*
G75*
G02X50061Y148357I2J-2165*
G01*
X53019Y145398*
X78080*
G75*
G02X75998Y148243I903J2844*
G01*
G75*
G02X80855Y150567I2984*
G01*
X142262*
X180086Y188390*
G75*
G02X181728Y189070I1643J-1643*
G01*
X321267*
X320175Y190162*
Y193461*
X322510Y195796*
X325809*
X328144Y193461*
Y190162*
X327052Y189070*
X329258*
G75*
G02X330900Y188390J-2322*
G01*
X333494Y185796*
X335809*
Y175796D02*
X338144Y173461D01*
Y170162*
X335809Y167828*
X332510*
X330175Y170162*
Y173461*
X332510Y175796*
X335809*
Y165796D02*
X338144Y163461D01*
Y160162*
X335809Y157828*
X332510*
X330175Y160162*
Y162933*
X328557Y164685*
X326920*
X328144Y163461*
Y160162*
X326997Y159015*
X329505*
G75*
G02X331097Y158318J-2166*
G01*
X333427Y155796*
X335809*
X338144Y153461*
Y150162*
X335809Y147828*
X332510*
X330175Y150162*
Y152933*
X328557Y154685*
X326920*
X328144Y153461*
Y150162*
X326997Y149015*
X329505*
G75*
G02X331097Y148318J-2166*
G01*
X333427Y145796*
X335809*
X338144Y143461*
Y140162*
X335809Y137828*
X332510*
X330175Y140162*
Y142933*
X328557Y144685*
X326920*
X328144Y143461*
Y140162*
X326959Y138977*
X329791*
G75*
G02X331324Y138343I2J-2165*
G01*
X333871Y135796*
X335809*
X338144Y133461*
Y130162*
X335809Y127828*
X332510*
X330175Y130162*
Y133368*
X328896Y134646*
X326959*
X328144Y133461*
Y130162*
X325809Y127828*
X322510*
X320175Y130162*
Y133461*
X321360Y134646*
X308218*
G75*
G02X309687Y132977I-2674J-3835*
G01*
X315542*
G75*
G02X317107Y132309I1J-2165*
G01*
X323343Y125796*
X325809*
X328144Y123461*
Y120162*
X325809Y117828*
X322510*
X320175Y120162*
Y122843*
X314619Y128646*
X309687*
G75*
G02X301400I-4144J2165*
G01*
X297199*
Y127858*
X292081*
Y126677*
X284207*
Y134646*
X271641*
X266275Y129281*
G75*
G02X264742Y128646I-1531J1531*
G01*
X180863*
X159219Y107002*
Y89824*
G75*
G02X160037Y87770I-2165J-2054*
G01*
G75*
G02X154069I-2984*
G01*
G75*
G02X154888Y89824I2984*
G01*
Y107898*
G75*
G02X155522Y109430I2165*
G01*
X177739Y131646*
X79289*
X57346Y109704*
G75*
G02X56069Y109085I-1531J1531*
G01*
Y108874*
X57250*
Y101000*
X48982*
Y108874*
X50163*
Y109070*
X45833*
Y104976*
X36305*
Y114504*
X45833*
Y113400*
X50163*
Y113992*
X55509*
X76861Y135343*
G75*
G02X78394Y135977I1531J-1531*
G01*
X255896*
X263262Y143343*
G75*
G02X264796Y143977I1531J-1531*
G01*
X306051*
Y144685*
X259228*
X256276Y141733*
G75*
G02X250309Y141812I-2983J79*
G01*
G75*
G02X253214Y144795I2984*
G01*
X255817Y147397*
X251940*
X246276Y141733*
G75*
G02X240309Y141812I-2983J79*
G01*
G75*
G02X243214Y144795I2984*
G01*
X248816Y150397*
X244940*
X236276Y141733*
G75*
G02X230309Y141812I-2983J79*
G01*
G75*
G02X233214Y144795I2984*
G01*
X242064Y153645*
X237690*
X226276Y142233*
G75*
G02X220309Y142312I-2983J79*
G01*
G75*
G02X223214Y145295I2984*
G01*
X234318Y156397*
X228641*
X212477Y140233*
G75*
G02X206510Y140312I-2983J79*
G01*
G75*
G02X209415Y143295I2984*
G01*
X226211Y160092*
G75*
G02X227744Y160728I1533J-1529*
G01*
X281646*
X289299Y168380*
G75*
G02X290831Y169015I1533J-1530*
G01*
X306301*
Y169803*
X311813*
Y164173*
X312600*
Y169803*
X318112*
Y169015*
X321322*
X320175Y170162*
Y173461*
X322510Y175796*
X325809*
X328144Y173461*
Y170162*
X326997Y169015*
X329505*
G75*
G02X331097Y168318J-2166*
G01*
X333427Y165796*
X335809*
Y45796D02*
X338144Y43461D01*
Y40162*
X335809Y37828*
X332510*
X330175Y40162*
Y43461*
X332510Y45796*
X335809*
Y55796D02*
X338144Y53461D01*
Y50162*
X335809Y47828*
X332510*
X330175Y50162*
Y53461*
X332510Y55796*
X335809*
Y65796D02*
X338144Y63461D01*
Y60162*
X335809Y57828*
X332510*
X330175Y60162*
Y63461*
X332510Y65796*
X335809*
Y75796D02*
X338144Y73461D01*
Y70162*
X335809Y67828*
X332510*
X330175Y70162*
Y73461*
X332510Y75796*
X335809*
Y85796D02*
X338144Y83461D01*
Y80162*
X335809Y77828*
X332510*
X330175Y80162*
Y83461*
X332510Y85796*
X335809*
Y95796D02*
X338144Y93461D01*
Y90162*
X335809Y87828*
X332510*
X330175Y90162*
Y93461*
X332510Y95796*
X335809*
Y105796D02*
X338144Y103461D01*
Y100162*
X335809Y97828*
X332510*
X330175Y100162*
Y103461*
X332510Y105796*
X335809*
Y115796D02*
X338144Y113461D01*
Y110162*
X335809Y107828*
X332510*
X330175Y110162*
Y113461*
X332510Y115796*
X335809*
Y125796D02*
X338144Y123461D01*
Y120162*
X335809Y117828*
X332510*
X330175Y120162*
Y123461*
X332510Y125796*
X335809*
X325809Y85796D02*
X328144Y83461D01*
Y80162*
X325809Y77828*
X322510*
X320175Y80162*
Y82843*
X314619Y88646*
X309687*
G75*
G02X301400I-4144J2165*
G01*
X297199*
Y87858*
X292081*
Y86677*
X284207*
Y94944*
X292081*
Y93763*
X297199*
Y92977*
X301400*
G75*
G02X309687I4144J-2165*
G01*
X315542*
G75*
G02X317107Y92309I1J-2165*
G01*
X323343Y85796*
X325809*
Y95796D02*
X328144Y93461D01*
Y90162*
X325809Y87828*
X322510*
X320175Y90162*
Y92843*
X314619Y98646*
X309687*
G75*
G02X301400I-4144J2165*
G01*
X297199*
Y97858*
X292081*
Y96677*
X284207*
Y104944*
X292081*
Y103763*
X297199*
Y102977*
X301400*
G75*
G02X309687I4144J-2165*
G01*
X315542*
G75*
G02X317107Y102309I1J-2165*
G01*
X323343Y95796*
X325809*
Y105796D02*
X328144Y103461D01*
Y100162*
X325809Y97828*
X322510*
X320175Y100162*
Y102843*
X314619Y108646*
X309687*
G75*
G02X301400I-4144J2165*
G01*
X297199*
Y107858*
X292081*
Y106677*
X284207*
Y114944*
X292081*
Y113763*
X297199*
Y112977*
X301400*
G75*
G02X309687I4144J-2165*
G01*
X315542*
G75*
G02X317107Y112309I1J-2165*
G01*
X323343Y105796*
X325809*
Y115796D02*
X328144Y113461D01*
Y110162*
X325809Y107828*
X322510*
X320175Y110162*
Y112843*
X314619Y118646*
X309687*
G75*
G02X301400I-4144J2165*
G01*
X297199*
Y117858*
X292081*
Y116677*
X284207*
Y124944*
X292081*
Y123763*
X297199*
Y122977*
X301400*
G75*
G02X309687I4144J-2165*
G01*
X315542*
G75*
G02X317107Y122309I1J-2165*
G01*
X323343Y115796*
X325809*
X207130Y119312D02*
G75*
G02X217957I5413D01*
G01*
G75*
G02X207130I-5413*
G01*
X208311Y103543D02*
X216776D01*
Y95078*
X208311*
Y103543*
Y109312D02*
G75*
G02X216776I4232D01*
G01*
G75*
G02X208311I-4232*
G01*
X235438Y101127D02*
G75*
G02X240752Y98706I2106J-2421D01*
G01*
G75*
G02X234965Y96796I-3209*
G01*
X227352*
Y88488*
X217234*
Y96834*
X218415*
Y101952*
X226171*
Y101127*
X235438*
X235376Y120284D02*
G75*
G02X240752Y117918I2167J-2366D01*
G01*
G75*
G02X235285Y115639I-3209*
G01*
X227352*
Y107488*
X217234*
Y115834*
X218415*
Y120952*
X226171*
Y120284*
X235376*
X103667Y75487D02*
G75*
G02X113746I5039D01*
G01*
G75*
G02X103667I-5039*
G01*
X108648Y49562D02*
G75*
G02Y40507J-4528D01*
G01*
G75*
G02Y49562J4528*
G01*
X112880Y114385D02*
G75*
G02X122329I4724D01*
G01*
G75*
G02X118850Y109828I-4724*
G01*
G75*
G02X117604Y102967I-1246J-3317*
G01*
G75*
G02X116358Y109828J3543*
G01*
G75*
G02X112880Y114385I1246J4557*
G01*
X100681Y78802D02*
G75*
G02X98707Y71629I-1975J-3315D01*
G01*
G75*
G02X95392Y73512J3858*
G01*
X90740Y78164*
X89100*
Y76984*
X82801*
Y78046*
X74707*
G75*
G02X68855Y80758I-1748J3898*
G01*
X63939Y85674*
G75*
G02X62841Y88322I2642J2648*
G01*
Y97437*
X62309*
Y105980*
X70852*
Y97437*
X70321*
Y89871*
X74144Y86048*
G75*
G02X74707Y85841I-1186J-4106*
G01*
X82801*
Y86826*
X83220*
X73939Y96107*
G75*
G02X72841Y98755I2642J2648*
G01*
Y99644*
G75*
G02X76581Y105979I3740J2063*
G01*
G75*
G02X80534Y100091I0J-4271*
G01*
X88596Y92030*
G75*
G02X88679Y86826I-2645J-2644*
G01*
X89100*
Y85644*
X92289*
G75*
G02X94937Y84546J-3740*
G01*
X100681Y78802*
X68687Y76216D02*
X77230D01*
Y67673*
X68687*
Y76216*
X38144Y83011D02*
G75*
G02X49561I5709D01*
G01*
G75*
G02X38144I-5709*
G01*
X39325Y69231D02*
G75*
G02X48380I4528D01*
G01*
G75*
G02X39325I-4528*
G01*
X30809Y205796D02*
X33144Y203461D01*
Y200162*
X30809Y197828*
X27510*
X25175Y200162*
Y203461*
X27510Y205796*
X30809*
X40809D02*
X43144Y203461D01*
Y200162*
X40809Y197828*
X37510*
X35175Y200162*
Y203461*
X37510Y205796*
X40809*
X50809D02*
X53144Y203461D01*
Y200162*
X50809Y197828*
X47510*
X45175Y200162*
Y203461*
X47510Y205796*
X50809*
X120809D02*
X123144Y203461D01*
Y200162*
X120809Y197828*
X117510*
X115175Y200162*
Y203461*
X117510Y205796*
X120809*
X135809D02*
X138144Y203461D01*
Y200162*
X135809Y197828*
X132510*
X130175Y200162*
Y203461*
X132510Y205796*
X135809*
X145809D02*
X148144Y203461D01*
Y200162*
X145809Y197828*
X142510*
X140175Y200162*
Y203461*
X142510Y205796*
X145809*
X155809D02*
X158144Y203461D01*
Y200162*
X155809Y197828*
X152510*
X150175Y200162*
Y203461*
X152510Y205796*
X155809*
X165809D02*
X168144Y203461D01*
Y200162*
X165809Y197828*
X162510*
X160175Y200162*
Y203461*
X162510Y205796*
X165809*
X175809D02*
X178144Y203461D01*
Y200162*
X175809Y197828*
X172510*
X170175Y200162*
Y203461*
X172510Y205796*
X175809*
X185809D02*
X188144Y203461D01*
Y200162*
X185809Y197828*
X182510*
X180175Y200162*
Y203461*
X182510Y205796*
X185809*
X195809D02*
X198144Y203461D01*
Y200162*
X195809Y197828*
X192510*
X190175Y200162*
Y203461*
X192510Y205796*
X195809*
X205809D02*
X208144Y203461D01*
Y200162*
X205809Y197828*
X202510*
X200175Y200162*
Y203461*
X202510Y205796*
X205809*
X225809D02*
X228144Y203461D01*
Y200162*
X225809Y197828*
X222510*
X220175Y200162*
Y203461*
X222510Y205796*
X225809*
X235809D02*
X238144Y203461D01*
Y200162*
X235809Y197828*
X232510*
X230175Y200162*
Y203461*
X232510Y205796*
X235809*
X245809D02*
X248144Y203461D01*
Y200162*
X245809Y197828*
X242510*
X240175Y200162*
Y203461*
X242510Y205796*
X245809*
X255809D02*
X258144Y203461D01*
Y200162*
X255809Y197828*
X252510*
X250175Y200162*
Y203461*
X252510Y205796*
X255809*
X265809D02*
X268144Y203461D01*
Y200162*
X265809Y197828*
X262510*
X260175Y200162*
Y203461*
X262510Y205796*
X265809*
X275809D02*
X278144Y203461D01*
Y200162*
X275809Y197828*
X272510*
X270175Y200162*
Y203461*
X272510Y205796*
X275809*
X285809D02*
X288144Y203461D01*
Y200162*
X285809Y197828*
X282510*
X280175Y200162*
Y203461*
X282510Y205796*
X285809*
X295809D02*
X298144Y203461D01*
Y200162*
X295809Y197828*
X292510*
X290175Y200162*
Y203461*
X292510Y205796*
X295809*
X325809D02*
X328144Y203461D01*
Y200162*
X325809Y197828*
X322510*
X320175Y200162*
Y203461*
X322510Y205796*
X325809*
X335809Y195796D02*
X338144Y193461D01*
Y190162*
X335809Y187828*
X332510*
X330175Y190162*
Y193461*
X332510Y195796*
X335809*
Y205796D02*
X338144Y203461D01*
Y200162*
X335809Y197828*
X332510*
X330175Y200162*
Y203461*
X332510Y205796*
X335809*
X92271Y2594D02*
G36*
G75*
G02X91034Y3208I294J2147D01*
G01*
X87491Y6751*
G75*
G02X86856Y8282I1532J1531*
G01*
Y8875*
X85809Y7828*
X82510*
X80712Y9626*
X77607*
X75809Y7828*
X72510*
X70712Y9626*
X54248*
X53585Y8963*
G75*
G02X48429Y6830I-5151J5151*
G01*
X43959*
G75*
G02X43745I-107J7282*
G01*
X24274*
X24167Y6829*
G75*
G02X18430Y9626J7284*
G01*
X6287*
Y2594*
X92271*
G37*
X109042Y9626D02*
G36*
X107607D01*
X105809Y7828*
X102510*
X100712Y9626*
X97607*
X95809Y7828*
X92539*
X93462Y6904*
X111763*
X109042Y9626*
G37*
X158911D02*
G36*
X157607D01*
X155809Y7828*
X152510*
X150712Y9626*
X137607*
X135809Y7828*
X132510*
X130712Y9626*
X129277*
X126556Y6904*
X156190*
X158911Y9626*
G37*
X331852D02*
G36*
Y6240D01*
X321734*
Y9626*
X317607*
X315809Y7828*
X312510*
X310712Y9626*
X307607*
X305809Y7828*
X302510*
X300712Y9626*
X297607*
X295809Y7828*
X292510*
X290712Y9626*
X287607*
X285809Y7828*
X282510*
X280712Y9626*
X277607*
X275809Y7828*
X272510*
X270712Y9626*
X267607*
X265809Y7828*
X262510*
X260712Y9626*
X257607*
X255809Y7828*
X252510*
X250712Y9626*
X247607*
X245809Y7828*
X242510*
X240712Y9626*
X227607*
X225809Y7828*
X222510*
X220712Y9626*
X217607*
X215809Y7828*
X212510*
X210712Y9626*
X207607*
X205809Y7828*
X202510*
X200712Y9626*
X197607*
X195809Y7828*
X192510*
X190712Y9626*
X187607*
X185809Y7828*
X182510*
X180712Y9626*
X177607*
X175809Y7828*
X172510*
X170712Y9626*
X167607*
X165809Y7828*
X163237*
X158618Y3208*
G75*
G02X157380Y2594I-1532J1533*
G01*
X339713*
Y9626*
X331852*
G37*
X46478Y22456D02*
G36*
X6287D01*
Y9626*
X18430*
G75*
G02X16883Y14113I5738J4488*
G01*
G75*
G02X24167Y21397I7284*
G01*
G75*
G02X24274Y21396I27J-3641*
G01*
X43745*
G75*
G02X43959I107J-7282*
G01*
X45418*
X46478Y22456*
G37*
X80712Y9626D02*
G36*
X80175Y10162D01*
Y13461*
X82510Y15796*
X85091*
G75*
G02X85085Y15959I2107J163*
G01*
Y15959*
Y17338*
X84691*
Y22456*
X84100*
X63707*
Y22107*
Y22103*
Y22101*
Y22101*
G75*
G02X61573Y16951I-7282*
G01*
X54248Y9626*
X70712*
X70175Y10162*
Y13461*
X72510Y15796*
X75809*
X78144Y13461*
Y10162*
X77607Y9626*
X80712*
G37*
X107238Y22456D02*
G36*
X90400D01*
X89809*
Y17338*
X89415*
Y16856*
X90553Y15719*
G75*
G02X91170Y14456I-1535J-1533*
G01*
X92510Y15796*
X95809*
X98144Y13461*
Y10162*
X97607Y9626*
X100712*
X100175Y10162*
Y13461*
X100671Y13957*
X100835Y15195*
G75*
G02X102798Y18016I3707J-486*
G01*
X107238Y22456*
G37*
X150712Y9626D02*
G36*
X150175Y10162D01*
Y13461*
X151875Y15161*
X151755Y18578*
X151581*
Y22456*
X149297*
Y17397*
X142526*
Y22456*
X117816*
X112337Y16977*
X116298*
X119159Y14116*
X122021Y16977*
X126298*
X129325Y13950*
Y9673*
X129277Y9626*
X130712*
X130175Y10162*
Y13461*
X132510Y15796*
X135809*
X138144Y13461*
Y10162*
X137607Y9626*
X150712*
G37*
X109042D02*
G36*
X108994Y9673D01*
Y13633*
X108144Y12783*
Y10162*
X107607Y9626*
X109042*
G37*
X170712D02*
G36*
X170175Y10162D01*
Y13461*
X170773Y14059*
X162376Y22456*
X155990*
Y21373*
X156200Y15405*
X158144Y13461*
Y10162*
X157607Y9626*
X158911*
X160175Y10890*
Y13461*
X162510Y15796*
X165809*
X168144Y13461*
Y10162*
X167607Y9626*
X170712*
G37*
X180712D02*
G36*
X180175Y10162D01*
Y13461*
X180773Y14059*
X172376Y22456*
X168500*
X175161Y15796*
X175809*
X178144Y13461*
Y10162*
X177607Y9626*
X180712*
G37*
X190712D02*
G36*
X190175Y10162D01*
Y13461*
X190773Y14059*
X182376Y22456*
X178500*
X185161Y15796*
X185809*
X188144Y13461*
Y10162*
X187607Y9626*
X190712*
G37*
X200712D02*
G36*
X200175Y10162D01*
Y13461*
X200773Y14059*
X192376Y22456*
X188500*
X195161Y15796*
X195809*
X198144Y13461*
Y10162*
X197607Y9626*
X200712*
G37*
X210712D02*
G36*
X210175Y10162D01*
Y13461*
X210773Y14059*
X202376Y22456*
X198500*
X205161Y15796*
X205809*
X208144Y13461*
Y10162*
X207607Y9626*
X210712*
G37*
X291776Y22456D02*
G36*
X289492D01*
Y17752*
X282720*
Y22456*
X208500*
X215161Y15796*
X215809*
X218144Y13461*
Y10162*
X217607Y9626*
X220712*
X220175Y10162*
Y13461*
X222510Y15796*
X225809*
X228144Y13461*
Y10162*
X227607Y9626*
X240712*
X240175Y10162*
Y13461*
X242510Y15796*
X245809*
X248144Y13461*
Y10162*
X247607Y9626*
X250712*
X250175Y10162*
Y13461*
X252510Y15796*
X255809*
X258144Y13461*
Y10162*
X257607Y9626*
X260712*
X260175Y10162*
Y13461*
X262510Y15796*
X265809*
X268144Y13461*
Y10162*
X267607Y9626*
X270712*
X270175Y10162*
Y13461*
X272510Y15796*
X275809*
X278144Y13461*
Y10162*
X277607Y9626*
X280712*
X280175Y10162*
Y13461*
X282510Y15796*
X285809*
X288144Y13461*
Y10162*
X287607Y9626*
X290712*
X290175Y10162*
Y13461*
X292291Y15578*
X292385Y16734*
G75*
G02X293012Y18093I2156J-171*
G01*
X293852Y18933*
X291776*
Y22456*
G37*
X300712Y9626D02*
G36*
X300175Y10162D01*
Y13461*
X302510Y15796*
X304215*
X310817Y22396*
X303440*
X303328Y22284*
X303324Y22281*
X296637Y15594*
X296591Y15015*
X298144Y13461*
Y10162*
X297607Y9626*
X300712*
G37*
X330947Y22456D02*
G36*
G75*
G02X330786Y22278I-1687J1354D01*
G01*
X329741Y21233*
Y19704*
X330671*
Y15295*
X328273*
G75*
G02X327419Y15132I-853J2151*
G01*
X326793*
G75*
G02X325939Y15295I-2J2314*
G01*
X322915*
Y19145*
X313690*
X308074Y13531*
X308144Y13461*
Y10162*
X307607Y9626*
X310712*
X310175Y10162*
Y13461*
X312510Y15796*
X315809*
X318144Y13461*
Y10162*
X317607Y9626*
X321734*
Y13011*
X331852*
Y9626*
X339713*
Y22456*
X330947*
G37*
X49140Y27893D02*
G36*
X48380D01*
G75*
G02X43852Y23365I-4528*
G01*
G75*
G02X39325Y27893J4528*
G01*
X28695*
G75*
G02X24167Y23365I-4528*
G01*
G75*
G02X19640Y27893J4528*
G01*
X6287*
Y22456*
X46478*
X49140Y25118*
Y27893*
G37*
X81445D02*
G36*
X63707D01*
Y22456*
X84100*
Y25237*
X81445Y27893*
G37*
X104034D02*
G36*
X90954D01*
G75*
G02X90990Y27377I-3704J-517*
G01*
G75*
G02X90400Y25360I-3740*
G01*
Y22456*
X107238*
X110715Y25933*
G75*
G02X104034Y27893I-2067J5321*
G01*
G37*
X162376Y22456D02*
G36*
X156940Y27893D01*
X132946*
G75*
G02X123719I-4613J3362*
G01*
X122372*
G75*
G02X121352Y25992I-3666J744*
G01*
X117816Y22456*
X142526*
Y27515*
X149297*
Y22456*
X151581*
Y26334*
X155990*
Y22456*
X162376*
G37*
X172376D02*
G36*
X166940Y27893D01*
X163064*
X168500Y22456*
X172376*
G37*
X182376D02*
G36*
X176940Y27893D01*
X173064*
X178500Y22456*
X182376*
G37*
X192376D02*
G36*
X186940Y27893D01*
X183064*
X188500Y22456*
X192376*
G37*
X288811Y27893D02*
G36*
X243866D01*
Y26504*
X235520*
Y27685*
X230402*
Y27893*
X203064*
X208500Y22456*
X282720*
Y27870*
X288811*
Y27893*
G37*
X202376Y22456D02*
G36*
X196940Y27893D01*
X193064*
X198500Y22456*
X202376*
G37*
X309063Y27893D02*
G36*
X305152D01*
G75*
G02X303043Y27330I-2109J3670*
G01*
G75*
G02X300935Y27893I1J4233*
G01*
X297276*
Y27330*
X289492*
Y22456*
X291776*
Y26689*
X296185*
Y24977*
X299896*
X300262Y25343*
X300266Y25346*
X301009Y26090*
G75*
G02X302543Y26727I1533J-1526*
G01*
X310608*
G75*
G02X309063Y27893I2436J4835*
G01*
G37*
X337544D02*
G36*
X336298Y26646D01*
X332021*
X331423Y27244*
Y23812*
G75*
G02Y23811I-2115J0*
G01*
G75*
G02X330947Y22456I-2163*
G01*
X339713*
Y27893*
X337544*
G37*
X49140D02*
G36*
Y31131D01*
X46083Y34188*
X44053*
G75*
G02X42355Y34389I0J7287*
G01*
X24274*
X24167Y34388*
G75*
G02X16883Y41672J7284*
G01*
G75*
G02X17706Y45034I7284*
G01*
X6287*
Y27893*
X19640*
G75*
G02X24167Y32420I4528*
G01*
G75*
G02X28695Y27893J-4528*
G01*
X39325*
G75*
G02X43852Y32420I4528*
G01*
G75*
G02X48380Y27893J-4528*
G01*
X49140*
G37*
X81445D02*
G36*
X80110Y29227D01*
X77014*
Y28204*
X67486*
Y37732*
X69433*
G75*
G02X66305Y42967I2817J5235*
G01*
G75*
G02X66676Y45034I5945*
G01*
X55837*
X61573Y39298*
G75*
G02X63707Y34148I-5153J-5152*
G01*
Y34147*
Y34143*
Y27893*
X81445*
G37*
X114967Y45034D02*
G36*
X113175D01*
G75*
G02X108648Y40507I-4528*
G01*
G75*
G02X104120Y45034J4528*
G01*
X77824*
G75*
G02X78195Y42967I-5574J-2067*
G01*
G75*
G02X75067Y37732I-5945*
G01*
X77014*
Y36707*
X81655*
G75*
G02X84304Y35612I4J-3743*
G01*
X87617Y32299*
X90400*
Y29394*
G75*
G02X90954Y27893I-3149J-2017*
G01*
X104034*
G75*
G02X102939Y31255I4613J3363*
G01*
G75*
G02X114356I5709*
G01*
G75*
G02X113969Y29188I-5715J1*
G01*
X114967Y30186*
Y45034*
G37*
X156940Y27893D02*
G36*
X148531Y36302D01*
G75*
G02X142457Y40763I-1399J4461*
G01*
G75*
G02X145232Y45034I4675*
G01*
X132860*
G75*
G02X123805I-4528*
G01*
X122447*
Y28637*
G75*
G02X122372Y27893I-3741J0*
G01*
X123719*
G75*
G02X122624Y31255I4613J3363*
G01*
G75*
G02X134041I5709*
G01*
G75*
G02X132946Y27893I-5709J0*
G01*
X156940*
G37*
X176940D02*
G36*
X168531Y36302D01*
G75*
G02X162457Y40763I-1399J4461*
G01*
G75*
G02X165232Y45034I4675*
G01*
X159032*
G75*
G02X161807Y40763I-1900J-4272*
G01*
G75*
G02X161593Y39364I-4683J1*
G01*
X173064Y27893*
X176940*
G37*
X166940D02*
G36*
X158531Y36302D01*
G75*
G02X152457Y40763I-1399J4461*
G01*
G75*
G02X155232Y45034I4675*
G01*
X149032*
G75*
G02X151807Y40763I-1900J-4272*
G01*
G75*
G02X151593Y39364I-4683J1*
G01*
X163064Y27893*
X166940*
G37*
X186940D02*
G36*
X178531Y36302D01*
G75*
G02X172457Y40763I-1399J4461*
G01*
G75*
G02X175232Y45034I4675*
G01*
X169032*
G75*
G02X171807Y40763I-1900J-4272*
G01*
G75*
G02X171593Y39364I-4683J1*
G01*
X183064Y27893*
X186940*
G37*
X196940D02*
G36*
X188531Y36302D01*
G75*
G02X182457Y40763I-1399J4461*
G01*
G75*
G02X185231Y45034I4675*
G01*
X179032*
G75*
G02X181807Y40763I-1900J-4272*
G01*
G75*
G02X181593Y39364I-4683J1*
G01*
X193064Y27893*
X196940*
G37*
X288811D02*
G36*
Y30283D01*
X274076Y45034*
X243982*
Y42319*
X235636*
Y43500*
X230518*
Y45034*
X212988*
Y34905*
X201276*
Y38598*
G75*
G02X192504Y40102I-4144J2165*
G01*
X191807Y40798*
Y40763*
G75*
G02X191593Y39364I-4683J1*
G01*
X203064Y27893*
X230402*
Y29239*
X226346*
G75*
G02X221085Y31706I-2052J2467*
G01*
G75*
G02X226648Y33885I3209*
G01*
X230402*
Y35441*
X235520*
Y36622*
X243866*
Y27893*
X288811*
G37*
X201276Y45034D02*
G36*
X199032D01*
G75*
G02X201276Y42928I-1901J-4272*
G01*
Y45034*
G37*
X309063Y27893D02*
G36*
G75*
G02X307630Y31562I3981J3669D01*
G01*
G75*
G02X314894Y36649I5413*
G01*
X310012Y41531*
G75*
G02X309378Y43062I1532J1531*
G01*
Y44956*
X299687*
Y45034*
X285094*
X294324Y35795*
X297276*
Y27893*
X300935*
G75*
G02X298811Y31562I2109J3670*
G01*
G75*
G02X303043Y35794I4232*
G01*
G75*
G02X307276Y31562J-4232*
G01*
G75*
G02X305152Y27893I-4233J1*
G01*
X309063*
G37*
X321748Y45034D02*
G36*
X318709D01*
Y43459*
X320175Y41992*
Y43461*
X321748Y45034*
G37*
X337544Y27893D02*
G36*
X339713D01*
Y45034*
X336571*
X338144Y43461*
Y40162*
X335809Y37828*
X332510*
X330175Y40162*
Y43461*
X331748Y45034*
X326571*
X328144Y43461*
Y40162*
X326959Y38977*
X327756*
G75*
G02X329289Y38343I2J-2167*
G01*
X330789Y36843*
G75*
G02X331236Y36193I-1531J-1532*
G01*
X332021Y36977*
X336298*
X339325Y33950*
Y29673*
X337544Y27893*
G37*
X17644Y52210D02*
G36*
X6287D01*
Y45034*
X17706*
G75*
G02X21803Y48562I6462J-3362*
G01*
G75*
G02X17644Y52210I2365J6890*
G01*
G37*
X66676Y45034D02*
G36*
G75*
G02X68719Y47750I5574J-2067D01*
G01*
G75*
G02X68169Y48168I3611J5324*
G01*
X51964*
G75*
G02X54250Y46621I-2868J-6702*
G01*
X55837Y45034*
X66676*
G37*
X114967Y52210D02*
G36*
X78504D01*
G75*
G02X75781Y47750I-6254J757*
G01*
G75*
G02X77824Y45034I-3531J-4783*
G01*
X104120*
G75*
G02X108648Y49562I4528*
G01*
G75*
G02X113175Y45034J-4528*
G01*
X114967*
Y52210*
G37*
X137596D02*
G36*
X122447D01*
Y45034*
X123805*
G75*
G02X132860I4528*
G01*
X145232*
G75*
G02X149032I1900J-4272*
G01*
X155232*
G75*
G02X159032I1900J-4272*
G01*
X165232*
G75*
G02X169032I1900J-4272*
G01*
X175232*
G75*
G02X179032I1900J-4272*
G01*
X185231*
G75*
G02X187132Y45438I1900J-4272*
G01*
X187167*
X180465Y52141*
X138313*
G75*
G02X137596Y52210J3740*
G01*
G37*
X230518Y45034D02*
G36*
Y45211D01*
X227837*
G75*
G02X226304Y45846I-2J2167*
G01*
X224437Y47713*
G75*
G02X221085Y50918I-143J3206*
G01*
G75*
G02X221356Y52210I3209J0*
G01*
X211185*
G75*
G02X210464Y52141I-717J3673*
G01*
X191043*
X197793Y45391*
G75*
G02X199032Y45034I-662J-4629*
G01*
X201276*
Y46618*
X212988*
Y45034*
X230518*
G37*
X274076D02*
G36*
X266909Y52210D01*
X243982*
Y45034*
X274076*
G37*
X235636Y52210D02*
G36*
X227230D01*
G75*
G02X227502Y50918I-2937J-1292*
G01*
G75*
G02X227499Y50775I-3263*
G01*
X228731Y49542*
X230518*
Y51256*
X235636*
Y52210*
G37*
X299687D02*
G36*
X277927D01*
X285094Y45034*
X299687*
Y52210*
G37*
X338144D02*
G36*
Y50162D01*
X335809Y47828*
X332510*
X330175Y50162*
Y52210*
X328144*
Y50162*
X325809Y47828*
X322510*
X320175Y50162*
Y52210*
X319496*
Y52204*
X313709*
Y51417*
X319496*
Y45905*
X318709*
Y45034*
X321748*
X322510Y45796*
X325809*
X326571Y45034*
X331748*
X332510Y45796*
X335809*
X336571Y45034*
X339713*
Y52210*
X338144*
G37*
X17644D02*
G36*
G75*
G02X16883Y55452I6523J3242D01*
G01*
G75*
G02X20617Y61812I7284*
G01*
X6287*
Y52210*
X17644*
G37*
X114967Y61812D02*
G36*
X73315D01*
G75*
G02X76806Y57319I-3549J-6361*
G01*
G75*
G02X78550Y52967I-4556J-4351*
G01*
G75*
G02X78504Y52210I-6300J0*
G01*
X114967*
Y61812*
G37*
X137596Y52210D02*
G36*
G75*
G02X135665Y53239I717J3671D01*
G01*
X127093Y61812*
X122447*
Y52210*
X137596*
G37*
X164612Y61812D02*
G36*
X137671D01*
X139862Y59621*
X164612*
Y61812*
G37*
X211110D02*
G36*
X198077D01*
Y59621*
X208919*
X211110Y61812*
G37*
X266909Y52210D02*
G36*
X262052Y57072D01*
X216949*
X213113Y53236*
G75*
G02X211185Y52210I-2646J2647*
G01*
X221356*
G75*
G02X227230I2937J-1292*
G01*
X235636*
Y52437*
X243982*
Y52210*
X266909*
G37*
X299687D02*
G36*
Y56669D01*
X303377*
G75*
G02X302738Y57072I2172J4151*
G01*
X273070*
X277927Y52210*
X299687*
G37*
X310841Y61812D02*
G36*
X310110D01*
G75*
G02X310219Y60812I-4567J-1000*
G01*
G75*
G02Y60808I-4800J-2*
G01*
G75*
G02X310187Y60267I-4599*
G01*
X310841Y60921*
Y61812*
G37*
X338144D02*
G36*
Y60162D01*
X335809Y57828*
X332510*
X330175Y60162*
Y61812*
X328144*
Y60162*
X325809Y57828*
X322510*
X320959Y59379*
Y58802*
G75*
G02X320324Y57271I-2166J0*
G01*
X319496Y56443*
Y52210*
X320175*
Y53461*
X322510Y55796*
X325809*
X328144Y53461*
Y52210*
X330175*
Y53461*
X332510Y55796*
X335809*
X338144Y53461*
Y52210*
X339713*
Y61812*
X338144*
G37*
X20617D02*
G36*
G75*
G02X24167Y62736I3551J-6360D01*
G01*
G75*
G02X24274Y62735I27J-3641*
G01*
X43745*
G75*
G02X43959I107J-7282*
G01*
X45846*
X52303Y69192*
G75*
G02X52343Y69231I2649J-2635*
G01*
X48380*
G75*
G02X39325I-4528*
G01*
X28695*
G75*
G02X19640I-4528*
G01*
X6287*
Y61812*
X20617*
G37*
X114967Y69231D02*
G36*
X77230D01*
Y67673*
X68687*
Y69231*
X63116*
Y67929*
X62262*
G75*
G02X62526Y66550I-3477J-1379*
G01*
G75*
G02X58785Y62810I-3740*
G01*
X56500*
X56425Y62735*
X69766*
G75*
G02X73315Y61812I0J-7284*
G01*
X114967*
Y69231*
G37*
X127093Y61812D02*
G36*
X122447Y66457D01*
Y61812*
X127093*
G37*
X164612Y69231D02*
G36*
X130252D01*
X137671Y61812*
X164612*
Y69231*
G37*
X310841Y61812D02*
G36*
Y66417D01*
X316628*
Y67204*
X310841*
Y68646*
X309687*
G75*
G02X301143Y69231I-4144J2165*
G01*
X198077*
Y61812*
X211110*
X212755Y63457*
G75*
G02X215404Y64552I2646J-2647*
G01*
X262728*
G75*
G02X264922I1097J-3741*
G01*
X302738*
G75*
G02X310110Y61812I2805J-3740*
G01*
X310841*
G37*
X337213Y69231D02*
G36*
X335809Y67828D01*
X332510*
X331106Y69231*
X327213*
X325809Y67828*
X322510*
X321106Y69231*
X320959*
Y64245*
X322510Y65796*
X325809*
X328144Y63461*
Y61812*
X330175*
Y63461*
X332510Y65796*
X335809*
X338144Y63461*
Y61812*
X339713*
Y69231*
X337213*
G37*
X54455Y75487D02*
G36*
X6287D01*
Y69231*
X19640*
G75*
G02X28695I4528*
G01*
X39325*
G75*
G02X48380I4528*
G01*
X52343*
G75*
G02X54455Y70257I2608J-2683*
G01*
Y75487*
G37*
X68687D02*
G36*
X63116D01*
Y69231*
X68687*
Y75487*
G37*
X114967Y69231D02*
G36*
Y74540D01*
G75*
G02X114848Y75487I3741J947*
G01*
X113746*
G75*
G02X103667I-5039*
G01*
X102565*
G75*
G02X98707Y71629I-3858*
G01*
G75*
G02X95392Y73512I0J3859*
G01*
X93417Y75487*
X77230*
Y69231*
X114967*
G37*
X164612Y75487D02*
G36*
X123996D01*
X130252Y69231*
X164612*
Y75487*
G37*
X301143Y69231D02*
G36*
G75*
G02X300868Y70812I4400J1580D01*
G01*
G75*
G02X305504Y75487I4675*
G01*
X198077*
Y69231*
X301143*
G37*
X308556Y75487D02*
G36*
X305583D01*
G75*
G02X309687Y72977I-40J-4675*
G01*
X313530*
G75*
G02X314564Y72716I4J-2163*
G01*
X316628*
Y73915*
X315896Y74646*
X310296*
G75*
G02X308762Y75281I-2J2167*
G01*
X308556Y75487*
G37*
X322201D02*
G36*
X320851D01*
G75*
G02X320959Y74812I-2058J-675*
G01*
Y74245*
X322201Y75487*
G37*
X321106Y69231D02*
G36*
X320959Y69379D01*
Y69231*
X321106*
G37*
X331106D02*
G36*
X330175Y70162D01*
Y73461*
X332201Y75487*
X326118*
X328144Y73461*
Y70162*
X327213Y69231*
X331106*
G37*
X337213D02*
G36*
X339713D01*
Y75487*
X336118*
X338144Y73461*
Y70162*
X337213Y69231*
G37*
X93417Y75487D02*
G36*
X90740Y78164D01*
X89100*
Y76984*
X82801*
Y78046*
X74707*
G75*
G02X68855Y80758I-1748J3898*
G01*
X66602Y83011*
X49561*
G75*
G02X38144I-5709*
G01*
X29876*
G75*
G02X18459I-5709*
G01*
X6287*
Y75487*
X54455*
Y80133*
X63116*
Y75487*
X68687*
Y76216*
X77230*
Y75487*
X93417*
G37*
X164612Y83011D02*
G36*
X96472D01*
X100681Y78802*
G75*
G02X102565Y75487I-1975J-3315*
G01*
X103667*
G75*
G02X113746I5039*
G01*
X114848*
G75*
G02X122021Y77462I3858*
G01*
X123996Y75487*
X164612*
Y83011*
G37*
X308556Y75487D02*
G36*
X307484Y76559D01*
G75*
G02X300868Y80812I-1941J4253*
G01*
G75*
G02X301417Y83011I4675J0*
G01*
X198077*
Y75487*
X305504*
G75*
G02X305583I40J-4679*
G01*
X308556*
G37*
X338144Y83011D02*
G36*
Y80162D01*
X335809Y77828*
X332510*
X330175Y80162*
Y83011*
X328144*
Y80162*
X325809Y77828*
X322510*
X320175Y80162*
Y82843*
X320014Y83011*
X309669*
G75*
G02X310219Y80812I-4126J-2198*
G01*
G75*
G02Y80809I-4511J-1*
G01*
G75*
G02X310150Y80017I-4640*
G01*
X311190Y78977*
X316791*
G75*
G02X318324Y78343I2J-2167*
G01*
X320324Y76343*
G75*
G02X320851Y75487I-1532J-1532*
G01*
X322201*
X322510Y75796*
X325809*
X326118Y75487*
X332201*
X332510Y75796*
X335809*
X336118Y75487*
X339713*
Y83011*
X338144*
G37*
X66602D02*
G36*
X63939Y85674D01*
G75*
G02X62841Y88322I2642J2648*
G01*
Y91812*
X6287*
Y83011*
X18459*
G75*
G02X29876I5709*
G01*
X38144*
G75*
G02X49561I5709*
G01*
X66602*
G37*
X78234Y91812D02*
G36*
X70321D01*
Y89871*
X74144Y86048*
G75*
G02X74707Y85841I-1185J-4101*
G01*
X82801*
Y86826*
X83220*
X78234Y91812*
G37*
X164612D02*
G36*
X159219D01*
Y89824*
G75*
G02X160037Y87771I-2164J-2053*
G01*
Y87770*
G75*
G02X154069I-2984*
G01*
Y87771*
G75*
G02X154888Y89824I2983*
G01*
Y91812*
X88797*
G75*
G02X89691Y89385I-2846J-2427*
G01*
G75*
G02X88679Y86826I-3741*
G01*
X89100*
Y85644*
X92289*
G75*
G02X94937Y84546J-3740*
G01*
X96472Y83011*
X164612*
Y91812*
G37*
X320014Y83011D02*
G36*
X314619Y88646D01*
X309687*
G75*
G02X301400I-4144J2166*
G01*
X297199*
Y87858*
X292081*
Y86677*
X284207*
Y91812*
X227352*
Y88488*
X217234*
Y91812*
X198077*
Y83011*
X301417*
G75*
G02X309669I4126J-2199*
G01*
X320014*
G37*
X338144Y91812D02*
G36*
Y90162D01*
X335809Y87828*
X332510*
X330175Y90162*
Y91812*
X328144*
Y90162*
X325809Y87828*
X322510*
X320175Y90162*
Y91812*
X317583*
X323343Y85796*
X325809*
X328144Y83461*
Y83011*
X330175*
Y83461*
X332510Y85796*
X335809*
X338144Y83461*
Y83011*
X339713*
Y91812*
X338144*
G37*
X62309Y101812D02*
G36*
X57250D01*
Y101000*
X48982*
Y101812*
X6287*
Y91812*
X62841*
Y97437*
X62309*
Y101812*
G37*
X78234Y91812D02*
G36*
X73939Y96107D01*
G75*
G02X72841Y98755I2642J2648*
G01*
Y99644*
G75*
G02X72309Y101707I3740J2063*
G01*
G75*
G02X72310Y101812I4273J4*
G01*
X70852*
Y97437*
X70321*
Y91812*
X78234*
G37*
X154888Y101812D02*
G36*
X80851D01*
G75*
G02X80852Y101708I-4265J-117*
G01*
G75*
G02X80534Y100091I-4272J0*
G01*
X88596Y92030*
G75*
G02X88797Y91812I-2645J-2646*
G01*
X154888*
Y101812*
G37*
X164612D02*
G36*
X159219D01*
Y91812*
X164612*
Y101812*
G37*
X217234Y91812D02*
G36*
Y96834D01*
X218415*
Y101812*
X216776*
Y95078*
X208311*
Y101812*
X198077*
Y91812*
X217234*
G37*
X236739Y101812D02*
G36*
X226171D01*
Y101127*
X235438*
G75*
G02X236739Y101812I2106J-2421*
G01*
G37*
X320175Y91812D02*
G36*
Y92843D01*
X314619Y98646*
X309687*
G75*
G02X301400I-4144J2166*
G01*
X297199*
Y97858*
X292081*
Y96677*
X284207*
Y101812*
X238348*
G75*
G02X240752Y98706I-805J-3106*
G01*
Y98706*
G75*
G02X234965Y96796I-3209*
G01*
X227352*
Y91812*
X284207*
Y94944*
X292081*
Y93763*
X297199*
Y92977*
X301400*
G75*
G02X309687I4144J-2166*
G01*
X315542*
G75*
G02X317107Y92309I2J-2163*
G01*
X317583Y91812*
X320175*
G37*
X338144Y101812D02*
G36*
Y100162D01*
X335809Y97828*
X332510*
X330175Y100162*
Y101812*
X328144*
Y100162*
X325809Y97828*
X322510*
X320175Y100162*
Y101812*
X317583*
X323343Y95796*
X325809*
X328144Y93461*
Y91812*
X330175*
Y93461*
X332510Y95796*
X335809*
X338144Y93461*
Y91812*
X339713*
Y101812*
X338144*
G37*
X36305Y109739D02*
G36*
X35833D01*
G75*
G02X26701Y107837I-4764*
G01*
G75*
G02X15124Y109739I-5632J1902*
G01*
X6287*
Y101812*
X48982*
Y108874*
X50163*
Y109070*
X45833*
Y104976*
X36305*
Y109739*
G37*
X155831D02*
G36*
X119065D01*
G75*
G02X121148Y106511I-1460J-3228*
G01*
G75*
G02X117604Y102967I-3543*
G01*
G75*
G02X114061Y106511J3543*
G01*
G75*
G02X116144Y109739I3543*
G01*
X57381*
X57346Y109704*
G75*
G02X56069Y109085I-1530J1529*
G01*
Y108874*
X57250*
Y101812*
X62309*
Y105980*
X70852*
Y101812*
X72310*
G75*
G02X76581Y105979I4270J-104*
G01*
G75*
G02X80851Y101812J-4271*
G01*
X154888*
Y107898*
G75*
G02X155522Y109430I2166J0*
G01*
X155831Y109739*
G37*
X320175Y101812D02*
G36*
Y102843D01*
X314619Y108646*
X309687*
G75*
G02X301400I-4144J2166*
G01*
X297199*
Y107858*
X292081*
Y106677*
X284207*
Y109739*
X227352*
Y107488*
X217234*
Y109739*
X216754*
G75*
G02X216776Y109312I-4211J-428*
G01*
G75*
G02X208311I-4232*
G01*
G75*
G02X208333Y109739I4233J0*
G01*
X161956*
X159219Y107002*
Y101812*
X164612*
Y101846*
X198077*
Y101812*
X208311*
Y103543*
X216776*
Y101812*
X218415*
Y101952*
X226171*
Y101812*
X236739*
G75*
G02X238348I805J-3106*
G01*
X284207*
Y104944*
X292081*
Y103763*
X297199*
Y102977*
X301400*
G75*
G02X309687I4144J-2166*
G01*
X315542*
G75*
G02X317107Y102309I2J-2163*
G01*
X317583Y101812*
X320175*
G37*
X337720Y109739D02*
G36*
X335809Y107828D01*
X332510*
X330598Y109739*
X327720*
X325809Y107828*
X322510*
X320598Y109739*
X319568*
X323343Y105796*
X325809*
X328144Y103461*
Y101812*
X330175*
Y103461*
X332510Y105796*
X335809*
X338144Y103461*
Y101812*
X339713*
Y109739*
X337720*
G37*
X63330Y121812D02*
G36*
X6287D01*
Y109739*
X15124*
G75*
G02X26701Y111641I5945*
G01*
G75*
G02X35833Y109739I4368J-1902*
G01*
X36305*
Y114504*
X45833*
Y113400*
X50163*
Y113992*
X55509*
X63330Y121812*
G37*
X167904D02*
G36*
X69454D01*
X57381Y109739*
X116144*
G75*
G02X116358Y109828I1460J-3228*
G01*
G75*
G02X112880Y114384I1246J4557*
G01*
Y114385*
G75*
G02X122329I4724*
G01*
Y114384*
G75*
G02X118850Y109828I-4724*
G01*
G75*
G02X119065Y109739I-1246J-3316*
G01*
X155831*
X167904Y121812*
G37*
X320598Y109739D02*
G36*
X320175Y110162D01*
Y112843*
X314619Y118646*
X309687*
G75*
G02X301400I-4144J2166*
G01*
X297199*
Y117858*
X292081*
Y116677*
X284207*
Y121812*
X217345*
G75*
G02X217957Y119312I-4802J-2500*
G01*
G75*
G02X207130I-5413*
G01*
G75*
G02X207742Y121812I5413*
G01*
X174029*
X161956Y109739*
X208333*
G75*
G02X216754I4211J-427*
G01*
X217234*
Y115834*
X218415*
Y120952*
X226171*
Y120284*
X235376*
G75*
G02X240752Y117919I2167J-2366*
G01*
Y117918*
G75*
G02X235285Y115639I-3209J0*
G01*
X227352*
Y109739*
X284207*
Y114944*
X292081*
Y113763*
X297199*
Y112977*
X301400*
G75*
G02X309687I4144J-2166*
G01*
X315542*
G75*
G02X317107Y112309I2J-2163*
G01*
X319568Y109739*
X320598*
G37*
X338144Y121812D02*
G36*
Y120162D01*
X335809Y117828*
X332510*
X330175Y120162*
Y121812*
X328144*
Y120162*
X325809Y117828*
X322510*
X320175Y120162*
Y121812*
X317583*
X323343Y115796*
X325809*
X328144Y113461*
Y110162*
X327720Y109739*
X330598*
X330175Y110162*
Y113461*
X332510Y115796*
X335809*
X338144Y113461*
Y110162*
X337720Y109739*
X339713*
Y121812*
X338144*
G37*
X320175Y171812D02*
G36*
X177356D01*
X147246Y141702*
G75*
G02X145712Y141068I-1532J1533*
G01*
X52124*
G75*
G02X50591Y141702I-2J2167*
G01*
X47633Y144660*
X38398*
G75*
G02X33360Y146826I-2054J2165*
G01*
G75*
G02X38398Y148991I2984*
G01*
X48527*
G75*
G02X50061Y148357I2J-2167*
G01*
X53019Y145398*
X78080*
G75*
G02X75998Y148243I902J2844*
G01*
Y148243*
G75*
G02X80855Y150567I2984*
G01*
X142262*
X163507Y171812*
X148785*
G75*
G02X149341Y169639I-3972J-2174*
G01*
G75*
G02X142261Y165898I-4528*
G01*
X127680*
G75*
G02X122824Y165741I-2552J3740*
G01*
X105222*
Y157693*
X62900*
Y171812*
X62467*
Y157693*
X20144*
Y171812*
X6287*
Y121812*
X63330*
X76861Y135343*
G75*
G02X78394Y135977I1532J-1533*
G01*
X255896*
X263262Y143343*
G75*
G02X264796Y143977I1532J-1533*
G01*
X306051*
Y144685*
X259228*
X256276Y141733*
G75*
G02X250309Y141812I-2983J79*
G01*
G75*
G02X253214Y144795I2985J0*
G01*
X255817Y147397*
X251940*
X246276Y141733*
G75*
G02X240309Y141812I-2983J79*
G01*
G75*
G02X243214Y144795I2985J0*
G01*
X248816Y150397*
X244940*
X236276Y141733*
G75*
G02X230309Y141812I-2983J79*
G01*
G75*
G02X233214Y144795I2985J0*
G01*
X242064Y153645*
X237690*
X226276Y142233*
G75*
G02X220309Y142312I-2983J79*
G01*
G75*
G02X223214Y145295I2985J0*
G01*
X234318Y156397*
X228641*
X212477Y140233*
G75*
G02X206510Y140312I-2983J79*
G01*
G75*
G02X209415Y143295I2985J0*
G01*
X226211Y160092*
G75*
G02X227744Y160728I1533J-1531*
G01*
X281646*
X289299Y168380*
G75*
G02X290831Y169015I1533J-1531*
G01*
X306301*
Y169803*
X311813*
Y164173*
X312600*
Y169803*
X318112*
Y169015*
X321322*
X320175Y170162*
Y171812*
G37*
X167904Y121812D02*
G36*
X177739Y131646D01*
X79289*
X69454Y121812*
X167904*
G37*
X320175D02*
G36*
Y122843D01*
X314619Y128646*
X309687*
G75*
G02X301400I-4144J2166*
G01*
X297199*
Y127858*
X292081*
Y126677*
X284207*
Y134646*
X271641*
X266275Y129281*
G75*
G02X264742Y128646I-1532J1533*
G01*
X180863*
X174029Y121812*
X207742*
G75*
G02X217345I4802J-2500*
G01*
X284207*
Y124944*
X292081*
Y123763*
X297199*
Y122977*
X301400*
G75*
G02X309687I4144J-2166*
G01*
X315542*
G75*
G02X317107Y122309I2J-2163*
G01*
X317583Y121812*
X320175*
G37*
X338144Y171812D02*
G36*
Y170162D01*
X335809Y167828*
X332510*
X330175Y170162*
Y171812*
X328144*
Y170162*
X326997Y169015*
X329505*
G75*
G02X331097Y168318I0J-2165*
G01*
X333427Y165796*
X335809*
X338144Y163461*
Y160162*
X335809Y157828*
X332510*
X330175Y160162*
Y162933*
X328557Y164685*
X326920*
X328144Y163461*
Y160162*
X326997Y159015*
X329505*
G75*
G02X331097Y158318I0J-2165*
G01*
X333427Y155796*
X335809*
X338144Y153461*
Y150162*
X335809Y147828*
X332510*
X330175Y150162*
Y152933*
X328557Y154685*
X326920*
X328144Y153461*
Y150162*
X326997Y149015*
X329505*
G75*
G02X331097Y148318I0J-2165*
G01*
X333427Y145796*
X335809*
X338144Y143461*
Y140162*
X335809Y137828*
X332510*
X330175Y140162*
Y142933*
X328557Y144685*
X326920*
X328144Y143461*
Y140162*
X326959Y138977*
X329791*
G75*
G02X331324Y138343I2J-2167*
G01*
X333871Y135796*
X335809*
X338144Y133461*
Y130162*
X335809Y127828*
X332510*
X330175Y130162*
Y133368*
X328896Y134646*
X326959*
X328144Y133461*
Y130162*
X325809Y127828*
X322510*
X320175Y130162*
Y133461*
X321360Y134646*
X308218*
G75*
G02X309687Y132977I-2673J-3834*
G01*
X315542*
G75*
G02X317107Y132309I2J-2163*
G01*
X323343Y125796*
X325809*
X328144Y123461*
Y121812*
X330175*
Y123461*
X332510Y125796*
X335809*
X338144Y123461*
Y121812*
X339713*
Y171812*
X338144*
G37*
X20144Y181744D02*
G36*
X6287D01*
Y171812*
X20144*
Y181744*
G37*
X62900Y171812D02*
G36*
Y181744D01*
X62467*
Y171812*
X62900*
G37*
X173440Y181744D02*
G36*
X149020D01*
G75*
G02X142261Y179678I-4207J1674*
G01*
X127680*
G75*
G02X122576I-2552J3741*
G01*
X118807*
G75*
G02X116159Y180776J3740*
G01*
X115192Y181744*
X105222*
Y173536*
X122824*
G75*
G02X127680Y173379I2304J-3897*
G01*
X142261*
G75*
G02X148785Y171812I2551J-3740*
G01*
X163507*
X173440Y181744*
G37*
X338144D02*
G36*
Y180162D01*
X335809Y177828*
X332510*
X330175Y180162*
Y181744*
X328144*
Y180162*
X325809Y177828*
X322510*
X320175Y180162*
Y180646*
X294276*
Y172578*
X285811*
Y180646*
X281834*
G75*
G02X284276Y176812I-1791J-3835*
G01*
G75*
G02X280043Y172580I-4232*
G01*
G75*
G02X275811Y176812J4232*
G01*
G75*
G02X278252Y180646I4232*
G01*
X271834*
G75*
G02X274276Y176812I-1791J-3835*
G01*
G75*
G02X270043Y172580I-4232*
G01*
G75*
G02X265811Y176812J4232*
G01*
G75*
G02X268252Y180646I4232*
G01*
X261834*
G75*
G02X264276Y176812I-1791J-3835*
G01*
G75*
G02X260043Y172580I-4232*
G01*
G75*
G02X255811Y176812J4232*
G01*
G75*
G02X258252Y180646I4232*
G01*
X251834*
G75*
G02X254276Y176812I-1791J-3835*
G01*
G75*
G02X250043Y172580I-4232*
G01*
G75*
G02X245811Y176812J4232*
G01*
G75*
G02X248252Y180646I4232*
G01*
X241834*
G75*
G02X244276Y176812I-1791J-3835*
G01*
G75*
G02X240043Y172580I-4232*
G01*
G75*
G02X235811Y176812J4232*
G01*
G75*
G02X238252Y180646I4232*
G01*
X231834*
G75*
G02X234276Y176812I-1791J-3835*
G01*
G75*
G02X230043Y172580I-4232*
G01*
G75*
G02X225811Y176812J4232*
G01*
G75*
G02X228252Y180646I4232*
G01*
X221834*
G75*
G02X224276Y176812I-1791J-3835*
G01*
G75*
G02X220043Y172580I-4232*
G01*
G75*
G02X215811Y176812J4232*
G01*
G75*
G02X218252Y180646I4232*
G01*
X211834*
G75*
G02X214276Y176812I-1791J-3835*
G01*
G75*
G02X210043Y172580I-4232*
G01*
G75*
G02X205811Y176812J4232*
G01*
G75*
G02X208252Y180646I4232*
G01*
X201834*
G75*
G02X204276Y176812I-1791J-3835*
G01*
G75*
G02X200043Y172580I-4232*
G01*
G75*
G02X195811Y176812J4232*
G01*
G75*
G02X198252Y180646I4232*
G01*
X191834*
G75*
G02X194276Y176812I-1791J-3835*
G01*
G75*
G02X190043Y172580I-4232*
G01*
G75*
G02X185811Y176812J4232*
G01*
G75*
G02X188252Y180646I4232*
G01*
X186190*
X177356Y171812*
X320175*
Y173461*
X322510Y175796*
X325809*
X328144Y173461*
Y171812*
X330175*
Y173461*
X332510Y175796*
X335809*
X338144Y173461*
Y171812*
X339713*
Y181744*
X338144*
G37*
X52793Y191812D02*
G36*
X6287D01*
Y181744*
X20144*
Y191157*
X52619*
G75*
G02X52793Y191812I3689J-632*
G01*
G37*
X62900Y181744D02*
G36*
Y190566D01*
X62467*
Y181744*
X62900*
G37*
X115192D02*
G36*
X106370Y190566D01*
X105222*
Y181744*
X115192*
G37*
X320175Y191812D02*
G36*
X115703D01*
X120356Y187158*
X122576*
G75*
G02X127680I2552J-3741*
G01*
X142261*
G75*
G02X149341Y183418I2552J-3740*
G01*
G75*
G02X149020Y181744I-4528*
G01*
X173440*
X180086Y188390*
G75*
G02X181728Y189070I1642J-1642*
G01*
X321267*
X320175Y190162*
Y191812*
G37*
X338144D02*
G36*
Y190162D01*
X335809Y187828*
X332510*
X330175Y190162*
Y191812*
X328144*
Y190162*
X327052Y189070*
X329258*
G75*
G02X330900Y188390I0J-2322*
G01*
X333494Y185796*
X335809*
X338144Y183461*
Y181744*
X339713*
Y191812*
X338144*
G37*
X330175Y181744D02*
G36*
Y182545D01*
X328296Y184425*
X327180*
X328144Y183461*
Y181744*
X330175*
G37*
X52793Y191812D02*
G36*
G75*
G02X53663Y193174I3514J-1286D01*
G01*
X57437Y196948*
G75*
G02X58825Y197828I2646J-2639*
G01*
X57510*
X55175Y200162*
Y201812*
X53144*
Y200162*
X50809Y197828*
X47510*
X45175Y200162*
Y201812*
X43144*
Y200162*
X40809Y197828*
X37510*
X35175Y200162*
Y201812*
X33144*
Y200162*
X30809Y197828*
X27510*
X25175Y200162*
Y201812*
X6287*
Y191812*
X52793*
G37*
X65175Y201812D02*
G36*
X63144D01*
Y200162*
X61028Y198046*
X67291*
X65175Y200162*
Y201812*
G37*
X75175D02*
G36*
X73144D01*
Y200162*
X71028Y198046*
X77291*
X75175Y200162*
Y201812*
G37*
X85175D02*
G36*
X83144D01*
Y200162*
X81028Y198046*
X87291*
X85175Y200162*
Y201812*
G37*
X95175D02*
G36*
X93144D01*
Y200162*
X91028Y198046*
X97291*
X95175Y200162*
Y201812*
G37*
X105175D02*
G36*
X103144D01*
Y200162*
X101028Y198046*
X107291*
X105175Y200162*
Y201812*
G37*
X338144D02*
G36*
Y200162D01*
X335809Y197828*
X332510*
X330175Y200162*
Y201812*
X328144*
Y200162*
X325809Y197828*
X322510*
X320175Y200162*
Y201812*
X298144*
Y200162*
X295809Y197828*
X292510*
X290175Y200162*
Y201812*
X288144*
Y200162*
X285809Y197828*
X282510*
X280175Y200162*
Y201812*
X278144*
Y200162*
X275809Y197828*
X272510*
X270175Y200162*
Y201812*
X268144*
Y200162*
X265809Y197828*
X262510*
X260175Y200162*
Y201812*
X258144*
Y200162*
X255809Y197828*
X252510*
X250175Y200162*
Y201812*
X248144*
Y200162*
X245809Y197828*
X242510*
X240175Y200162*
Y201812*
X238144*
Y200162*
X235809Y197828*
X232510*
X230175Y200162*
Y201812*
X228144*
Y200162*
X225809Y197828*
X222510*
X220175Y200162*
Y201812*
X208144*
Y200162*
X205809Y197828*
X202510*
X200175Y200162*
Y201812*
X198144*
Y200162*
X195809Y197828*
X192510*
X190175Y200162*
Y201812*
X188144*
Y200162*
X185809Y197828*
X182510*
X180175Y200162*
Y201812*
X178144*
Y200162*
X175809Y197828*
X172510*
X170175Y200162*
Y201812*
X168144*
Y200162*
X165809Y197828*
X162510*
X160175Y200162*
Y201812*
X158144*
Y200162*
X155809Y197828*
X152510*
X150175Y200162*
Y201812*
X148144*
Y200162*
X145809Y197828*
X142510*
X140175Y200162*
Y201812*
X138144*
Y200162*
X135809Y197828*
X132510*
X130175Y200162*
Y201812*
X123144*
Y200162*
X120809Y197828*
X117510*
X115175Y200162*
Y201812*
X113144*
Y200162*
X110809Y197828*
X109179*
G75*
G02X110567Y196948I-1257J-3519*
G01*
X115703Y191812*
X320175*
Y193461*
X322510Y195796*
X325809*
X328144Y193461*
Y191812*
X330175*
Y193461*
X332510Y195796*
X335809*
X338144Y193461*
Y191812*
X339713*
Y201812*
X338144*
G37*
X113144D02*
G36*
X115175D01*
Y203461*
X117510Y205796*
X120809*
X123144Y203461*
Y201812*
X130175*
Y203461*
X132510Y205796*
X135809*
X138144Y203461*
Y201812*
X140175*
Y203461*
X142510Y205796*
X145809*
X148144Y203461*
Y201812*
X150175*
Y203461*
X152510Y205796*
X155809*
X158144Y203461*
Y201812*
X160175*
Y203461*
X162510Y205796*
X165809*
X168144Y203461*
Y201812*
X170175*
Y203461*
X172510Y205796*
X175809*
X178144Y203461*
Y201812*
X180175*
Y203461*
X182510Y205796*
X185809*
X188144Y203461*
Y201812*
X190175*
Y203461*
X192510Y205796*
X195809*
X198144Y203461*
Y201812*
X200175*
Y203461*
X202510Y205796*
X205809*
X208144Y203461*
Y201812*
X220175*
Y203461*
X222510Y205796*
X225809*
X228144Y203461*
Y201812*
X230175*
Y203461*
X232510Y205796*
X235809*
X238144Y203461*
Y201812*
X240175*
Y203461*
X242510Y205796*
X245809*
X248144Y203461*
Y201812*
X250175*
Y203461*
X252510Y205796*
X255809*
X258144Y203461*
Y201812*
X260175*
Y203461*
X262510Y205796*
X265809*
X268144Y203461*
Y201812*
X270175*
Y203461*
X272510Y205796*
X275809*
X278144Y203461*
Y201812*
X280175*
Y203461*
X282510Y205796*
X285809*
X288144Y203461*
Y201812*
X290175*
Y203461*
X292510Y205796*
X295809*
X298144Y203461*
Y201812*
X320175*
Y203461*
X322510Y205796*
X325809*
X328144Y203461*
Y201812*
X330175*
Y203461*
X332510Y205796*
X335809*
X338144Y203461*
Y201812*
X339713*
Y210106*
X6287*
Y201812*
X25175*
Y203461*
X27510Y205796*
X30809*
X33144Y203461*
Y201812*
X35175*
Y203461*
X37510Y205796*
X40809*
X43144Y203461*
Y201812*
X45175*
Y203461*
X47510Y205796*
X50809*
X53144Y203461*
Y201812*
X55175*
Y203461*
X57510Y205796*
X60809*
X63144Y203461*
Y201812*
X65175*
Y203461*
X67510Y205796*
X70809*
X73144Y203461*
Y201812*
X75175*
Y203461*
X77510Y205796*
X80809*
X83144Y203461*
Y201812*
X85175*
Y203461*
X87510Y205796*
X90809*
X93144Y203461*
Y201812*
X95175*
Y203461*
X97510Y205796*
X100809*
X103144Y203461*
Y201812*
X105175*
Y203461*
X107510Y205796*
X110809*
X113144Y203461*
Y201812*
G37*
D02*
D14*
X18675Y107345D02*
X16726Y105396D01*
X18675Y112133D02*
X16726Y114082D01*
X21018Y83011D02*
X18262D01*
X23463Y107345D02*
X25412Y105396D01*
X23463Y112133D02*
X25412Y114082D01*
X24167Y79861D02*
Y77105D01*
Y86160D02*
Y88916D01*
X27317Y83011D02*
X30073D01*
X40703D02*
X37947D01*
X43852Y79861D02*
Y77105D01*
Y86160D02*
Y88916D01*
X47002Y83011D02*
X49758D01*
X51541Y104936D02*
X48785D01*
X53116Y103558D02*
Y100803D01*
X54691Y104936D02*
X57447D01*
X57014Y74030D02*
X54258D01*
X58785Y77574D02*
Y80330D01*
X60557Y74030D02*
X63313D01*
X69856Y40573D02*
X67907Y38624D01*
X69856Y45361D02*
X67907Y47310D01*
X74644Y40573D02*
X76593Y38624D01*
X74644Y45361D02*
X76593Y47310D01*
X105498Y31255D02*
X102742D01*
X106226Y75487D02*
X103470D01*
X108648Y28105D02*
Y25349D01*
Y34404D02*
Y37160D01*
X108707Y73007D02*
Y70251D01*
Y77967D02*
Y80723D01*
X111187Y75487D02*
X113943D01*
X111553Y11812D02*
X108797D01*
X111797Y31255D02*
X114553D01*
X114159Y14418D02*
Y17174D01*
X116073Y112854D02*
X114124Y110905D01*
X116073Y115916D02*
X114124Y117865D01*
X119135Y112854D02*
X121084Y110905D01*
X119135Y115916D02*
X121084Y117865D01*
X122317Y13655D02*
X120369Y15603D01*
X126002Y9969D02*
X127951Y8021D01*
X126002Y13655D02*
X127951Y15603D01*
X126106Y29028D02*
X124157Y27079D01*
X126106Y33482D02*
X124157Y35431D01*
X130560Y29028D02*
X132509Y27079D01*
X130560Y33482D02*
X132509Y35431D01*
X145085Y22456D02*
X142329D01*
X145911Y19956D02*
Y17200D01*
Y24956D02*
Y27712D01*
X146738Y22456D02*
X149494D01*
X203719Y37350D02*
X201079Y34709D01*
X203719Y44175D02*
X201080Y46815D01*
X210525Y117293D02*
X208576Y115345D01*
X210525Y121330D02*
X208576Y123279D01*
X210544Y37350D02*
X213185Y34709D01*
X210544Y44175D02*
X213184Y46815D01*
X214562Y117293D02*
X216510Y115345D01*
X214562Y121330D02*
X216510Y123279D01*
X219793Y92662D02*
X217037D01*
X219793Y111662D02*
X217037D01*
X222293Y91048D02*
Y88291D01*
Y110048D02*
Y107291D01*
X224793Y92662D02*
X227549D01*
X224793Y111662D02*
X227549D01*
X239693Y29062D02*
Y26307D01*
Y34062D02*
Y36819D01*
X239809Y44877D02*
Y42122D01*
Y49877D02*
Y52633D01*
X241307Y31562D02*
X244063D01*
X241423Y47377D02*
X244179D01*
X285280Y22812D02*
X282524D01*
X286106Y20312D02*
Y17555D01*
Y25312D02*
Y28067D01*
X286650Y89319D02*
X284010Y86678D01*
X286650Y92305D02*
X284010Y94946D01*
X286650Y99319D02*
X284010Y96678D01*
X286650Y102305D02*
X284010Y104946D01*
X286650Y109319D02*
X284010Y106678D01*
X286650Y112305D02*
X284010Y114946D01*
X286650Y119319D02*
X284010Y116678D01*
X286650Y122305D02*
X284010Y124946D01*
X286766Y130812D02*
X284010D01*
X286933Y22812D02*
X289689D01*
X288144Y129237D02*
Y126480D01*
X289637Y89319D02*
X292278Y86678D01*
X289637Y92305D02*
X292278Y94946D01*
X289637Y99319D02*
X292278Y96678D01*
X289637Y102305D02*
X292278Y104946D01*
X289637Y109319D02*
X292278Y106678D01*
X289637Y112305D02*
X292278Y114946D01*
X289637Y119319D02*
X292278Y116678D01*
X289637Y122305D02*
X292278Y124946D01*
X302246Y50812D02*
X299490D01*
X305543Y47515D02*
Y44759D01*
X311025Y29543D02*
X309076Y27595D01*
X311025Y33580D02*
X309076Y35529D01*
X324293Y9625D02*
X321537D01*
X326793Y8798D02*
Y6043D01*
Y10452D02*
Y13208D01*
X329293Y9625D02*
X332049D01*
X334159Y29206D02*
Y26450D01*
Y34418D02*
Y37174D01*
X336766Y31812D02*
X339522D01*
D02*
D15*
X29159Y201812D03*
X39159D03*
X49159D03*
X59159D03*
X69159D03*
X74159Y11812D03*
X79159Y201812D03*
X84159Y11812D03*
X89159Y201812D03*
X94159Y11812D03*
X99159Y201812D03*
X104159Y11812D03*
X109159Y201812D03*
X114159Y11812D03*
X119159Y201812D03*
X124159Y11812D03*
X134159D03*
Y201812D03*
X144159D03*
X154159Y11812D03*
Y201812D03*
X164159Y11812D03*
Y201812D03*
X174159Y11812D03*
Y201812D03*
X184159Y11812D03*
Y201812D03*
X194159Y11812D03*
Y201812D03*
X204159Y11812D03*
Y201812D03*
X214159Y11812D03*
X224159D03*
Y201812D03*
X234159D03*
X244159Y11812D03*
Y201812D03*
X254159Y11812D03*
Y201812D03*
X264159Y11812D03*
Y201812D03*
X274159Y11812D03*
Y201812D03*
X284159Y11812D03*
Y201812D03*
X294159Y11812D03*
Y201812D03*
X304159Y11812D03*
X314159D03*
X324159Y31812D03*
Y41812D03*
Y51812D03*
Y61812D03*
Y71812D03*
Y81812D03*
Y91812D03*
Y101812D03*
Y111812D03*
Y121812D03*
Y131812D03*
Y141812D03*
Y151812D03*
Y161812D03*
Y171812D03*
Y181812D03*
Y191812D03*
Y201812D03*
X334159Y31812D03*
Y41812D03*
Y51812D03*
Y61812D03*
Y71812D03*
Y81812D03*
Y91812D03*
Y101812D03*
Y111812D03*
Y121812D03*
Y131812D03*
Y141812D03*
Y151812D03*
Y161812D03*
Y171812D03*
Y181812D03*
Y191812D03*
Y201812D03*
D02*
D16*
X207132Y40763D03*
X305543Y50812D03*
D02*
D17*
X147132Y40763D03*
X157132D03*
X167132D03*
X177132D03*
X187132D03*
X197132D03*
X305543Y60812D03*
Y70812D03*
Y80812D03*
Y90812D03*
Y100812D03*
Y110812D03*
Y120812D03*
Y130812D03*
D02*
D18*
X212543Y99312D03*
X290043Y176812D03*
X293043Y31562D03*
D02*
D19*
X190043Y176812D03*
X200043D03*
X210043D03*
X212543Y109312D03*
Y119312D03*
X220043Y176812D03*
X230043D03*
X240043D03*
X250043D03*
X260043D03*
X270043D03*
X280043D03*
X303043Y31562D03*
X313043D03*
D02*
D70*
X66581Y101707D03*
X72959Y71944D03*
D02*
D71*
Y81944D03*
X76581Y101707D03*
D02*
D20*
X288144Y90812D03*
Y100812D03*
Y110812D03*
Y120812D03*
Y130812D03*
X294443Y90812D03*
Y100812D03*
Y110812D03*
Y120812D03*
Y130812D03*
X295307Y151850D03*
X295394Y161850D03*
X301606Y151850D03*
X301693Y161850D03*
X308807Y146850D03*
X309057Y156850D03*
Y166850D03*
X315106Y146850D03*
X315356Y156850D03*
Y166850D03*
D02*
D21*
X53116Y104936D03*
Y111235D03*
X313793Y63662D03*
Y69961D03*
X316543Y48662D03*
Y54961D03*
D02*
D22*
X224293Y31706D03*
Y50918D03*
X237543Y98706D03*
Y117918D03*
D02*
D23*
X222293Y92662D03*
Y98961D03*
Y111662D03*
Y117961D03*
D02*
D24*
X233394Y31562D03*
X233510Y47377D03*
X239693Y31562D03*
X239809Y47377D03*
D02*
D25*
X41069Y109739D03*
X72250Y32967D03*
D02*
D26*
X21069Y109739D03*
X31069D03*
X72250Y42967D03*
Y52967D03*
D02*
D27*
X98707Y75487D03*
X108707D03*
X118707D03*
D02*
D28*
X117604Y106511D03*
Y114385D03*
D02*
D29*
X181345Y80684D03*
D02*
D72*
X145911Y22456D03*
X153785D03*
X286106Y22812D03*
X293980D03*
D02*
D73*
X41305Y174424D03*
X84061D03*
D02*
D74*
X58785Y74030D03*
X85951Y81904D03*
X87250Y27377D03*
D02*
D75*
X58785Y66550D03*
X85951Y89385D03*
X87250Y19896D03*
D02*
D76*
X326793Y9625D03*
Y17499D03*
D02*
D77*
X24167Y14113D03*
Y27893D03*
Y41672D03*
Y55452D03*
Y69231D03*
Y83011D03*
X43852Y14113D03*
Y27893D03*
Y41672D03*
Y55452D03*
Y69231D03*
Y83011D03*
X108648Y31255D03*
Y45034D03*
X125128Y169639D03*
Y183418D03*
X128333Y31255D03*
Y45034D03*
X144813Y169639D03*
Y183418D03*
D02*
D78*
X58785Y66550D02*
X54951D01*
X43852Y55452*
X72250Y32967D02*
X81659D01*
X87250Y27377*
X72959Y81944D02*
X85911D01*
X85951Y81904*
X72959Y81944D02*
X66581Y88322D01*
Y101707*
X76581D02*
Y98755D01*
X85951Y89385*
Y81904D02*
X92289D01*
X98707Y75487*
X118707D02*
Y28637D01*
X104780Y14709*
X104543*
X104159Y11812*
X125128Y169639D02*
Y169503D01*
X101480*
X100929Y170054*
X99061*
X125128Y183418D02*
X118807D01*
X107919Y194306*
X60085*
X56305Y190526*
Y185054*
X144813Y169639D02*
X125128D01*
X144813Y183418D02*
X125128D01*
X171935Y55881D02*
X182014D01*
X197132Y40763*
X171935Y55881D02*
X138313D01*
X118707Y75487*
X171935Y55881D02*
X210469D01*
X215400Y60812*
X263825*
X293043Y31562D02*
Y31593D01*
X263825Y60812*
X305543D02*
X263825D01*
D02*
D79*
X36344Y146826D02*
X48530D01*
X52122Y143233*
X145715*
X185293Y182812*
X323543*
X324159Y181812*
X53116Y111235D02*
X42565D01*
X41069Y109739*
X78982Y148243D02*
X143224D01*
X181728Y186747*
X329258*
X334258Y181747*
X334159*
Y181812*
X153785Y22456D02*
X154159Y11812D01*
X164159D02*
X157087Y4739D01*
X92565*
X89022Y8282*
Y14188*
X87250Y15959*
Y19896*
X174159Y11812D02*
Y13735D01*
X147132Y40763*
X184159Y11812D02*
Y13735D01*
X157132Y40763*
X194159Y11812D02*
Y13735D01*
X167132Y40763*
X204159Y11812D02*
Y13735D01*
X177132Y40763*
X214159Y11812D02*
Y13735D01*
X187132Y40763*
X222293Y98961D02*
X237287D01*
X237543Y98706*
X222293Y117961D02*
X237500D01*
X237543Y117918*
X233394Y31562D02*
X224437D01*
X224293Y31706*
X233510Y47377D02*
X227835D01*
X224293Y50918*
X293980Y22812D02*
X300793D01*
X301793Y23812*
X294159Y11812D02*
X294543Y16562D01*
X301793Y23812*
X294443Y90812D02*
X305543D01*
X294443Y100812D02*
X305543D01*
X294443Y110812D02*
X305543D01*
X294443Y120812D02*
X305543D01*
X294443Y130812D02*
X305543D01*
X295307Y151850D02*
X290581D01*
X288293Y149562*
X251043*
X243293Y141812*
X295394Y161850D02*
X291081D01*
X285043Y155812*
X236793*
X223293Y142312*
X301606Y151850D02*
X324505D01*
X324159Y151812*
X301693Y161850D02*
X324505D01*
X324159Y161812*
X301793Y23812D02*
X302543Y24562D01*
X314543*
X318293Y28312*
Y36312*
X311543Y43062*
Y58562*
X313793Y60812*
Y63662*
X305543Y70812D02*
X313533D01*
X313793Y69961*
X305543Y100812D02*
X315543D01*
X324159Y91812*
X305543Y110812D02*
X315543D01*
X324159Y101812*
X305543Y120812D02*
X315543D01*
X324159Y111812*
X305543Y130812D02*
X315543D01*
X324159Y121812*
X308807Y146850D02*
X258331D01*
X253293Y141812*
X309057Y156850D02*
X290581D01*
X286293Y152562*
X244043*
X233293Y141812*
X309057Y166850D02*
X290831D01*
X282543Y158562*
X227744*
X209494Y140312*
X315106Y146850D02*
X329505D01*
X334159Y141812*
X315356Y156850D02*
X329505D01*
X334159Y151812*
X315356Y166850D02*
X329505D01*
X334159Y161812*
X316543Y48662D02*
Y42312D01*
X316793*
X322293Y36812*
X327758*
X329258Y35312*
Y23812*
X327419Y21972*
Y21687*
X316543Y54961D02*
Y56552D01*
X318793Y58802*
Y74812*
X316793Y76812*
X310293*
X306293Y80812*
X305543*
X324159Y81812D02*
X315543Y90812D01*
X305543*
X324159Y141812D02*
X264793D01*
X256793Y133812*
X78392*
X55815Y111235*
X53116*
X327419Y21687D02*
Y17455D01*
X326793Y17499*
X327419Y21687D02*
X327043Y21312D01*
X312793*
X304543Y13062*
X304159Y11812*
X334159Y131812D02*
X334543Y132062D01*
X329793Y136812*
X270744*
X264744Y130812*
X179967*
X157053Y107898*
Y87770*
D02*
D80*
X36344Y146826D03*
X78982Y148243D03*
X157053Y87770D03*
X209494Y140312D03*
X223293Y142312D03*
X233293Y141812D03*
X243293D03*
X253293D03*
D02*
D81*
X43852Y14113D02*
X48435D01*
X56423Y22101*
Y34148*
X49100Y41471*
X44053*
X43852Y41672*
Y14113D02*
X24167D01*
X43852Y41672D02*
X24167D01*
X43852Y55452D02*
X69766D01*
X43852D02*
X24167D01*
D02*
D82*
X69766D02*
X72250Y52967D01*
X0Y0D02*
M02*
