G04 EasyPC Gerber Version 21.0.3 Build 4286 *
G04 #@! TF.Part,Single*
G04 #@! TF.FileFunction,Legend,Top *
G04 #@! TF.FilePolarity,Positive *
%FSLAX35Y35*%
%MOIN*%
%ADD13C,0.00394*%
%ADD149C,0.00394*%
%ADD147C,0.00472*%
%ADD145C,0.00500*%
%ADD146C,0.00600*%
%ADD117C,0.00669*%
%ADD14C,0.00787*%
%ADD155C,0.00984*%
%ADD148C,0.01000*%
X0Y0D02*
D02*
D13*
X12053Y133085D02*
Y135841D01*
X17171Y133085D02*
Y135841D01*
X85872Y25211D02*
Y22456D01*
X90990Y25211D02*
Y22456D01*
D02*
D14*
X10321Y115625D02*
Y97160D01*
X51817*
Y109739*
X13825Y121274D02*
G75*
G02X14612I394D01*
G01*
X13825D02*
G75*
G03X14612I394D01*
G01*
X35636Y125493D02*
Y123131D01*
X53116Y125743D02*
Y123381D01*
X60990Y158282D02*
Y144896D01*
X21620*
Y158282*
X64219Y16550D02*
Y18912D01*
X65163Y117298D02*
Y119660D01*
X78136Y63715D02*
X59671D01*
Y22219*
X72250*
X80990Y119660D02*
Y117298D01*
X82526Y46078D02*
X84888D01*
X88431Y37022D02*
X89219*
G75*
G02X88431I-394D01*
G01*
X89219D02*
G75*
G03X88431I-394D01*
G01*
X90203Y112810D02*
X92565D01*
X93469Y97461D02*
Y91162D01*
X96618D02*
Y99233D01*
X103746Y158282D02*
Y144896D01*
X64376*
Y158282*
X103793Y92243D02*
Y89881D01*
X115793Y91993D02*
Y89631D01*
X117793Y132631D02*
Y134993D01*
X127793Y91993D02*
Y89631D01*
X129888Y129581D02*
Y127219D01*
X136266Y60251D02*
Y57889D01*
X151030Y21274D02*
Y23637D01*
X164724Y180562D02*
X162362D01*
X165085Y165959D02*
Y163597D01*
X165203Y60999D02*
X151817D01*
Y100369*
X165203*
X175474Y181062D02*
X173112D01*
X176502Y137889D02*
Y152456D01*
X216974*
Y137889*
X176502*
X176581Y129227D02*
Y136511D01*
X206423Y74778D02*
X208785D01*
X207132Y53243D02*
X142132D01*
Y29424*
X213116*
Y40763*
X211543Y88881D02*
Y91243D01*
X220557Y140028D02*
Y154595D01*
X261030*
Y140028*
X220557*
X220636Y131367D02*
Y138650D01*
X223043Y91743D02*
Y89381D01*
X224039Y99312D02*
Y124312D01*
X201205*
Y94312*
X212543*
X232801Y65841D02*
X220203D01*
Y85133*
X232801*
Y65841*
X240281Y65231D02*
X234179D01*
X275636Y66511D02*
Y68873D01*
X286343Y142916D02*
X273744D01*
Y162207*
X286343*
Y142916*
X286502Y75487D02*
Y73125D01*
X287211Y69109D02*
Y66747D01*
X288392Y58952D02*
X290754D01*
X290043Y188229D02*
X185043D01*
Y165394*
X295043*
Y176812*
X293043Y20066D02*
X318043D01*
Y42900*
X288043*
Y31562*
X293823Y142306D02*
X287720D01*
X301224Y161062D02*
X298862D01*
X302293Y148131D02*
Y150493D01*
X310360Y161562D02*
X306226D01*
X317650Y50812D02*
Y135950D01*
X293437*
Y45812*
X305543*
X325112Y14812D02*
X327474D01*
X337110Y14312D02*
X332976D01*
D02*
D117*
X6817Y67524D02*
X8785D01*
X7801Y66540D02*
Y68509D01*
X9888Y141894D02*
Y144847D01*
X11364*
X11856Y144601*
X12102Y144355*
X12348Y143863*
Y142879*
X12102Y142387*
X11856Y142141*
X11364Y141894*
X9888*
X14071Y142141D02*
X14563Y141894D01*
X15055*
X15547Y142141*
X15793Y142633*
X15547Y143125*
X15055Y143371*
X14563*
X15055D02*
X15547Y143617D01*
X15793Y144109*
X15547Y144601*
X15055Y144847*
X14563*
X14071Y144601*
X9110Y84227D02*
Y86196D01*
X23028Y146028D02*
X24012D01*
X23520D02*
Y148981D01*
X23028D02*
X24012D01*
X28687Y146520D02*
X28441Y146274D01*
X27949Y146028*
X27211*
X26719Y146274*
X26472Y146520*
X26226Y147013*
Y147997*
X26472Y148489*
X26719Y148735*
X27211Y148981*
X27949*
X28441Y148735*
X28687Y148489*
X30656Y146028D02*
X31640D01*
X31148D02*
Y148981D01*
X30656Y148489*
X33425Y117564D02*
Y120517D01*
X35148*
X35640Y120270*
X35886Y119778*
X35640Y119286*
X35148Y119040*
X33425*
X35148D02*
X35886Y117564D01*
X38593D02*
Y120517D01*
X37362Y118548*
X39331*
X47041Y105239D02*
X48026D01*
X48518Y104993*
X48764Y104747*
X49010Y104255*
Y103763*
X48764Y103270*
X48518Y103024*
X48026Y102778*
X47041*
X46549Y103024*
X46303Y103270*
X46057Y103763*
Y104255*
X46303Y104747*
X46549Y104993*
X47041Y105239*
X46795Y103517D02*
X46057Y102778D01*
Y99333D02*
Y101302D01*
X47780Y99580*
X48272Y99333*
X48764Y99580*
X49010Y100072*
Y100810*
X48764Y101302*
X52506Y118765D02*
X52260Y118519D01*
X51768Y118272*
X51030*
X50537Y118519*
X50291Y118765*
X50045Y119257*
Y120241*
X50291Y120733*
X50537Y120979*
X51030Y121225*
X51768*
X52260Y120979*
X52506Y120733*
X55951Y118272D02*
X53982D01*
X55705Y119995*
X55951Y120487*
X55705Y120979*
X55213Y121225*
X54474*
X53982Y120979*
X58815Y83755D02*
X61768D01*
Y82032*
X61522Y81540*
X61030Y81294*
X60537Y81540*
X60291Y82032*
Y83755*
X58815Y79818D02*
X61768Y78587D01*
X58815Y77357*
X60045Y79326D02*
Y77849D01*
X58815Y75881D02*
X61768D01*
X60291D02*
Y75143D01*
X61768Y73420*
X60291Y75143D02*
X58815Y73420D01*
X61266Y10792D02*
Y13745D01*
X62988*
X63480Y13499*
X63726Y13007*
X63480Y12515*
X62988Y12269*
X61266*
X62988D02*
X63726Y10792D01*
X65695D02*
X66679D01*
X66187D02*
Y13745D01*
X65695Y13253*
X62447Y121816D02*
Y124769D01*
X64169*
X64661Y124522*
X64907Y124030*
X64661Y123538*
X64169Y123292*
X62447*
X64169D02*
X64907Y121816D01*
X66384Y122062D02*
X66876Y121816D01*
X67614*
X68106Y122062*
X68352Y122554*
Y122800*
X68106Y123292*
X67614Y123538*
X66384*
Y124769*
X68352*
X65547Y146028D02*
X66531D01*
X66039D02*
Y148981D01*
X65547D02*
X66531D01*
X71207Y146520D02*
X70961Y146274D01*
X70469Y146028*
X69730*
X69238Y146274*
X68992Y146520*
X68746Y147013*
Y147997*
X68992Y148489*
X69238Y148735*
X69730Y148981*
X70469*
X70961Y148735*
X71207Y148489*
X74652Y146028D02*
X72683D01*
X74406Y147751*
X74652Y148243*
X74406Y148735*
X73913Y148981*
X73175*
X72683Y148735*
X71500Y59190D02*
Y60174D01*
X71746Y60666*
X71992Y60912*
X72484Y61158*
X72976*
X73469Y60912*
X73715Y60666*
X73961Y60174*
Y59190*
X73715Y58698*
X73469Y58452*
X72976Y58206*
X72484*
X71992Y58452*
X71746Y58698*
X71500Y59190*
X73222Y58944D02*
X73961Y58206D01*
X75929D02*
X76913D01*
X76421D02*
Y61158D01*
X75929Y60666*
X78392Y121816D02*
Y124769D01*
X80114*
X80606Y124522*
X80852Y124030*
X80606Y123538*
X80114Y123292*
X78392*
X80114D02*
X80852Y121816D01*
X82329Y122554D02*
X82575Y123046D01*
X83067Y123292*
X83559*
X84051Y123046*
X84297Y122554*
X84051Y122062*
X83559Y121816*
X83067*
X82575Y122062*
X82329Y122554*
Y123292*
X82575Y124030*
X83067Y124522*
X83559Y124769*
X81669Y31770D02*
X84622D01*
Y30294*
X84376Y29802*
X84130Y29556*
X83638Y29310*
X82654*
X82161Y29556*
X81915Y29802*
X81669Y30294*
Y31770*
X81915Y27833D02*
X81669Y27341D01*
Y26603*
X81915Y26111*
X82407Y25865*
X82654*
X83146Y26111*
X83392Y26603*
Y27833*
X84622*
Y25865*
X83085Y112219D02*
X86037D01*
X84561D02*
Y109759D01*
X83085D02*
X86037D01*
Y108282D02*
X83085Y107052D01*
X86037Y105822*
X83085Y104345D02*
Y101885D01*
Y100408D02*
X86037D01*
Y98686*
X85791Y98194*
X85299Y97948*
X84807Y98194*
X84561Y98686*
Y100408*
Y98686D02*
X83085Y97948D01*
X86037Y96471D02*
X83085D01*
Y94011*
Y91304D02*
X84561D01*
X86037Y92534*
X84561Y91304D02*
X86037Y90074D01*
X86217Y82337D02*
X89169D01*
Y80615*
X88923Y80123*
X88431Y79877*
X87939Y80123*
X87693Y80615*
Y82337*
X86217Y78400D02*
X88185D01*
X87447D02*
X87939Y78154D01*
X88185Y77662*
Y77170*
X87939Y76678*
X86463Y72495D02*
X86217Y72741D01*
Y73233*
Y73725*
X86463Y74217*
X86955Y74463*
X87693*
X87939Y74217*
X88185Y73725*
Y73233*
X87939Y72741*
X87693Y72495*
X87447*
X87201Y72741*
X86955Y73233*
Y73725*
X87201Y74217*
X87447Y74463*
X86463Y70526D02*
X86217Y70034D01*
Y69050*
X86463Y68558*
X86955*
X87201Y69050*
Y70034*
X87447Y70526*
X87939*
X88185Y70034*
Y69050*
X87939Y68558*
X84858Y51983D02*
X81906D01*
Y53706*
X82152Y54198*
X82644Y54444*
X83136Y54198*
X83382Y53706*
Y51983*
Y53706D02*
X84858Y54444D01*
Y57889D02*
Y55920D01*
X83136Y57643*
X82644Y57889*
X82152Y57643*
X81906Y57150*
Y56412*
X82152Y55920*
X87841Y104690D02*
Y101737D01*
X90301*
X91778D02*
Y104690D01*
X94238*
X93746Y103213D02*
X91778D01*
Y101737D02*
X94238D01*
X95715D02*
Y104690D01*
X97191*
X97683Y104444*
X97929Y104198*
X98175Y103706*
Y102721*
X97929Y102229*
X97683Y101983*
X97191Y101737*
X95715*
X100144D02*
X101128D01*
X100636D02*
Y104690D01*
X100144Y104198*
X95370Y41353D02*
X92417D01*
Y43076*
X92663Y43568*
X93156Y43814*
X93648Y43568*
X93894Y43076*
Y41353*
X93402Y45290D02*
X94632D01*
X95124Y45536*
X95370Y46028*
Y46520*
X95124Y47013*
X94632Y47259*
X93402D02*
X95370D01*
Y49227D02*
X93402D01*
X93648D02*
X93402Y49473D01*
Y49965*
X93648Y50211*
X94386*
X93648D02*
X93402Y50457D01*
Y50950*
X93648Y51196*
X95370*
X93402Y53164D02*
X96108D01*
X94632D02*
X95124Y53410D01*
X95370Y53902*
Y54394*
X95124Y54887*
X94632Y55133*
X94140*
X93648Y54887*
X93402Y54394*
Y53902*
X93648Y53410*
X94140Y53164*
X94632*
X99652Y94650D02*
Y97603D01*
X101374*
X101866Y97357*
X102112Y96865*
X101866Y96373*
X101374Y96127*
X99652*
X101374D02*
X102112Y94650D01*
X103835Y94896D02*
X104327Y94650D01*
X104819*
X105311Y94896*
X105557Y95389*
X105311Y95881*
X104819Y96127*
X104327*
X104819D02*
X105311Y96373D01*
X105557Y96865*
X105311Y97357*
X104819Y97603*
X104327*
X103835Y97357*
X112880Y94414D02*
Y97367D01*
X114602*
X115094Y97121*
X115341Y96629*
X115094Y96137*
X114602Y95891*
X112880*
X114602D02*
X115341Y94414D01*
X117555D02*
X118047Y94660D01*
X118539Y95152*
X118785Y95891*
Y96629*
X118539Y97121*
X118047Y97367*
X117555*
X117063Y97121*
X116817Y96629*
X117063Y96137*
X117555Y95891*
X118047*
X118539Y96137*
X118785Y96629*
X117504Y137190D02*
X117258Y136944D01*
X116766Y136698*
X116028*
X115535Y136944*
X115289Y137190*
X115043Y137682*
Y138666*
X115289Y139158*
X115535Y139404*
X116028Y139650*
X116766*
X117258Y139404*
X117504Y139158*
X119226Y136944D02*
X119719Y136698D01*
X120211*
X120703Y136944*
X120949Y137436*
X120703Y137928*
X120211Y138174*
X119719*
X120211D02*
X120703Y138420D01*
X120949Y138912*
X120703Y139404*
X120211Y139650*
X119719*
X119226Y139404*
X117626Y127182D02*
X117380Y126936D01*
X116888Y126690*
X116150*
X115657Y126936*
X115411Y127182*
X115165Y127674*
Y128658*
X115411Y129150*
X115657Y129396*
X116150Y129643*
X116888*
X117380Y129396*
X117626Y129150*
X119594Y126690D02*
X120579D01*
X120087D02*
Y129643D01*
X119594Y129150*
X118785Y156333D02*
X119031Y155841D01*
X119524Y155595*
X120508*
X121000Y155841*
X121246Y156333*
X121000Y156826*
X120508Y157072*
X119524*
X119031Y157318*
X118785Y157810*
X119031Y158302*
X119524Y158548*
X120508*
X121000Y158302*
X121246Y157810*
X123953Y155595D02*
Y158548D01*
X122722D02*
X125183D01*
X126659Y155595D02*
Y158548D01*
X128382*
X128874Y158302*
X129120Y157810*
X128874Y157318*
X128382Y157072*
X126659*
X128382D02*
X129120Y155595D01*
X120957Y61178D02*
Y58963D01*
X121203Y58471*
X121695Y58225*
X122679*
X123171Y58471*
X123417Y58963*
Y61178*
X125386Y58225D02*
X126370D01*
X125878D02*
Y61178D01*
X125386Y60686*
X128096Y132229D02*
X127850Y131983D01*
X127358Y131737*
X126620*
X126128Y131983*
X125882Y132229*
X125636Y132721*
Y133706*
X125882Y134198*
X126128Y134444*
X126620Y134690*
X127358*
X127850Y134444*
X128096Y134198*
X130065Y131737D02*
X131049D01*
X130557D02*
Y134690D01*
X130065Y134198*
X135478Y131737D02*
X133510D01*
X135232Y133459*
X135478Y133952*
X135232Y134444*
X134740Y134690*
X134002*
X133510Y134444*
X127762Y94178D02*
Y97131D01*
X129484*
X129976Y96885*
X130222Y96393*
X129976Y95900*
X129484Y95654*
X127762*
X129484D02*
X130222Y94178D01*
X132437Y95654D02*
X132929D01*
X133421Y95900*
X133667Y96393*
X133421Y96885*
X132929Y97131*
X132437*
X131945Y96885*
X131699Y96393*
X131945Y95900*
X132437Y95654*
X131945Y95408*
X131699Y94916*
X131945Y94424*
X132437Y94178*
X132929*
X133421Y94424*
X133667Y94916*
X133421Y95408*
X132929Y95654*
X134976Y61550D02*
X134730Y61304D01*
X134238Y61058*
X133500*
X133008Y61304*
X132762Y61550*
X132516Y62042*
Y63026*
X132762Y63519*
X133008Y63765*
X133500Y64011*
X134238*
X134730Y63765*
X134976Y63519*
X137683Y61058D02*
Y64011D01*
X136453Y62042*
X138421*
X135291Y139532D02*
Y140517D01*
Y140024D02*
X132339D01*
Y139532D02*
Y140517D01*
X134799Y145192D02*
X135045Y144946D01*
X135291Y144454*
Y143715*
X135045Y143223*
X134799Y142977*
X134307Y142731*
X133323*
X132831Y142977*
X132585Y143223*
X132339Y143715*
Y144454*
X132585Y144946*
X132831Y145192*
X135291Y146668D02*
X132339Y148637D01*
Y146668*
X146305Y24965D02*
Y27918D01*
X148028*
X148520Y27672*
X148766Y27180*
X148520Y26688*
X148028Y26442*
X146305*
X148028D02*
X148766Y24965D01*
X150488Y25211D02*
X150980Y24965D01*
X151472*
X151965Y25211*
X152211Y25704*
X151965Y26196*
X151472Y26442*
X150980*
X151472D02*
X151965Y26688D01*
X152211Y27180*
X151965Y27672*
X151472Y27918*
X150980*
X150488Y27672*
X156148Y24965D02*
X154179D01*
X155902Y26688*
X156148Y27180*
X155902Y27672*
X155409Y27918*
X154671*
X154179Y27672*
X153539Y72505D02*
Y71520D01*
Y72013D02*
X156492D01*
Y72505D02*
Y71520D01*
X154031Y66845D02*
X153785Y67091D01*
X153539Y67583*
Y68322*
X153785Y68814*
X154031Y69060*
X154524Y69306*
X155508*
X156000Y69060*
X156246Y68814*
X156492Y68322*
Y67583*
X156246Y67091*
X156000Y66845*
X153785Y65123D02*
X153539Y64631D01*
Y64139*
X153785Y63646*
X154278Y63400*
X154770Y63646*
X155016Y64139*
Y64631*
Y64139D02*
X155262Y63646D01*
X155754Y63400*
X156246Y63646*
X156492Y64139*
Y64631*
X156246Y65123*
X161069Y168115D02*
Y171068D01*
X162791*
X163283Y170822*
X163530Y170330*
X163283Y169837*
X162791Y169591*
X161069*
X162791D02*
X163530Y168115D01*
X165498D02*
X166482D01*
X165990D02*
Y171068D01*
X165498Y170576*
X168943Y168361D02*
X169435Y168115D01*
X170173*
X170665Y168361*
X170911Y168853*
Y169099*
X170665Y169591*
X170173Y169837*
X168943*
Y171068*
X170911*
X170518Y55674D02*
Y58627D01*
X172240*
X172732Y58381*
X172978Y57889*
X172732Y57396*
X172240Y57150*
X170518*
X172240D02*
X172978Y55674D01*
X176423Y55920D02*
X176177Y55674D01*
X175685*
X175193*
X174701Y55920*
X174455Y56412*
Y57150*
X174701Y57396*
X175193Y57643*
X175685*
X176177Y57396*
X176423Y57150*
Y56904*
X176177Y56658*
X175685Y56412*
X175193*
X174701Y56658*
X174455Y56904*
X178392Y55674D02*
Y57643D01*
Y57396D02*
X178638Y57643D01*
X179130*
X179376Y57396*
Y56658*
Y57396D02*
X179622Y57643D01*
X180114*
X180360Y57396*
Y55674*
X182329Y56412D02*
X182575Y55920D01*
X183067Y55674*
X183559*
X184051Y55920*
X184297Y56412*
Y56904*
X184051Y57396*
X183559Y57643*
X183067*
X182575Y57396*
X182329Y56904*
Y56412*
X186758Y57643D02*
X187742D01*
X187250Y58135D02*
Y55920D01*
X187496Y55674*
X187742*
X187988Y55920*
X192171D02*
X191925Y55674D01*
X191433*
X190941*
X190449Y55920*
X190203Y56412*
Y57150*
X190449Y57396*
X190941Y57643*
X191433*
X191925Y57396*
X192171Y57150*
Y56904*
X191925Y56658*
X191433Y56412*
X190941*
X190449Y56658*
X190203Y56904*
X169780Y175881D02*
X166827D01*
Y177603*
X167073Y178095*
X167565Y178341*
X168057Y178095*
X168303Y177603*
Y175881*
Y177603D02*
X169780Y178341D01*
Y180310D02*
Y181294D01*
Y180802D02*
X166827D01*
X167319Y180310*
X169041Y183755D02*
X168549Y184001D01*
X168303Y184493*
Y184985*
X168549Y185477*
X169041Y185723*
X169533Y185477*
X169780Y184985*
Y184493*
X169533Y184001*
X169041Y183755*
X168303*
X167565Y184001*
X167073Y184493*
X166827Y184985*
X177476Y147160D02*
X178461D01*
X177969D02*
Y150113D01*
X177476D02*
X178461D01*
X183136Y147652D02*
X182890Y147406D01*
X182398Y147160*
X181659*
X181167Y147406*
X180921Y147652*
X180675Y148144*
Y149129*
X180921Y149621*
X181167Y149867*
X181659Y150113*
X182398*
X182890Y149867*
X183136Y149621*
X185350Y148637D02*
X185843D01*
X186335Y148883*
X186581Y149375*
X186335Y149867*
X185843Y150113*
X185350*
X184858Y149867*
X184612Y149375*
X184858Y148883*
X185350Y148637*
X184858Y148391*
X184612Y147898*
X184858Y147406*
X185350Y147160*
X185843*
X186335Y147406*
X186581Y147898*
X186335Y148391*
X185843Y148637*
X180154Y178105D02*
X180400Y177859D01*
X180646Y177367*
Y176629*
X180400Y176137*
X180154Y175891*
X179661Y175644*
X178677*
X178185Y175891*
X177939Y176137*
X177693Y176629*
Y177367*
X177939Y177859*
X178185Y178105*
X180646Y180074D02*
Y181058D01*
Y180566D02*
X177693D01*
X178185Y180074*
X180400Y183765D02*
X180646Y184257D01*
Y184749*
X180400Y185241*
X179907Y185487*
X179415Y185241*
X179169Y184749*
Y184257*
Y184749D02*
X178923Y185241D01*
X178431Y185487*
X177939Y185241*
X177693Y184749*
Y184257*
X177939Y183765*
X191285Y190812D02*
X191039Y190566D01*
X190547Y190320*
X189809*
X189317Y190566*
X189071Y190812*
X188825Y191304*
Y192288*
X189071Y192780*
X189317Y193026*
X189809Y193272*
X190547*
X191039Y193026*
X191285Y192780*
X192762Y192288D02*
Y191058D01*
X193008Y190566*
X193500Y190320*
X193992*
X194484Y190566*
X194730Y191058*
Y192288D02*
Y190320D01*
X196699D02*
Y192288D01*
Y191550D02*
X196945Y192042D01*
X197437Y192288*
X197929*
X198421Y192042*
X201128Y192288D02*
X202112D01*
X201620Y192780D02*
Y190566D01*
X201866Y190320*
X202112*
X202358Y190566*
X205557Y190320D02*
Y192288D01*
Y193026D02*
X208510Y190566*
X209002Y190320D01*
X209986*
X210478Y190566*
Y191058*
X209986Y191304*
X209002*
X208510Y191550*
Y192042*
X209002Y192288*
X209986*
X210478Y192042*
X198563Y110522D02*
X198809Y110276D01*
X199055Y109784*
Y109046*
X198809Y108554*
X198563Y108308*
X198071Y108062*
X197087*
X196594Y108308*
X196348Y108554*
X196102Y109046*
Y109784*
X196348Y110276*
X196594Y110522*
X199055Y111999D02*
X196102Y113229D01*
X199055Y114459*
X197825Y112491D02*
Y113967D01*
X199055Y115936D02*
X196102D01*
X199055Y118396*
X196102*
X199055Y120365D02*
Y121349D01*
Y120857D02*
X196102D01*
X196594Y120365*
X200783Y79528D02*
X203736D01*
Y77806*
X203490Y77314*
X202998Y77068*
X202506Y77314*
X202260Y77806*
Y79528*
Y77806D02*
X200783Y77068D01*
Y75099D02*
Y74115D01*
Y74607D02*
X203736D01*
X203244Y75099*
X200783Y70424D02*
X203736D01*
X201768Y71654*
Y69686*
X201699Y83076D02*
Y86028D01*
X203421*
X203913Y85782*
X204159Y85290*
X203913Y84798*
X203421Y84552*
X201699*
X203421D02*
X204159Y83076D01*
X206128D02*
X207112D01*
X206620D02*
Y86028D01*
X206128Y85536*
X209819Y83322D02*
X210311Y83076D01*
X210803*
X211295Y83322*
X211541Y83814*
X211295Y84306*
X210803Y84552*
X210311*
X210803D02*
X211295Y84798D01*
X211541Y85290*
X211295Y85782*
X210803Y86028*
X210311*
X209819Y85782*
X220931Y86166D02*
X220685Y85920D01*
X220193Y85674*
X219455*
X218963Y85920*
X218717Y86166*
X218470Y86658*
Y87643*
X218717Y88135*
X218963Y88381*
X219455Y88627*
X220193*
X220685Y88381*
X220931Y88135*
X222900Y85674D02*
X223884D01*
X223392D02*
Y88627D01*
X222900Y88135*
X226837Y85674D02*
X227821D01*
X227329D02*
Y88627D01*
X226837Y88135*
X219858Y22387D02*
X218382D01*
X216906Y21156*
X218382Y22387D02*
X216906Y23617D01*
X219858Y25585D02*
Y26570D01*
Y26078D02*
X216906D01*
X217398Y25585*
X221531Y148800D02*
X222516D01*
X222024D02*
Y151753D01*
X221531D02*
X222516D01*
X227191Y149292D02*
X226945Y149046D01*
X226453Y148800*
X225715*
X225222Y149046*
X224976Y149292*
X224730Y149784*
Y150769*
X224976Y151261*
X225222Y151507*
X225715Y151753*
X226453*
X226945Y151507*
X227191Y151261*
X229406Y148800D02*
X229898Y149046D01*
X230390Y149538*
X230636Y150276*
Y151015*
X230390Y151507*
X229898Y151753*
X229406*
X228913Y151507*
X228667Y151015*
X228913Y150522*
X229406Y150276*
X229898*
X230390Y150522*
X230636Y151015*
X232614Y89237D02*
X231138D01*
X229661Y88007*
X231138Y89237D02*
X229661Y90467D01*
X232614Y93912D02*
Y91944D01*
X230892Y93666*
X230400Y93912*
X229907Y93666*
X229661Y93174*
Y92436*
X229907Y91944*
X240740Y79249D02*
Y78265D01*
Y78757D02*
X243693D01*
Y79249D02*
Y78265D01*
X241232Y73589D02*
X240986Y73835D01*
X240740Y74328*
Y75066*
X240986Y75558*
X241232Y75804*
X241724Y76050*
X242709*
X243201Y75804*
X243447Y75558*
X243693Y75066*
Y74328*
X243447Y73835*
X243201Y73589*
X241478Y72113D02*
X241970Y71867D01*
X242217Y71375*
Y70883*
X241970Y70391*
X241478Y70144*
X240986Y70391*
X240740Y70883*
Y71375*
X240986Y71867*
X241478Y72113*
X242217*
X242955Y71867*
X243447Y71375*
X243693Y70883*
X244720Y65359D02*
X245705D01*
X245213D02*
Y68312D01*
X244720D02*
X245705D01*
X250380Y65851D02*
X250134Y65605D01*
X249642Y65359*
X248904*
X248411Y65605*
X248165Y65851*
X247919Y66343*
Y67328*
X248165Y67820*
X248411Y68066*
X248904Y68312*
X249642*
X250134Y68066*
X250380Y67820*
X253087Y65359D02*
Y68312D01*
X251856Y66343*
X253825*
X259337Y66068D02*
Y69020D01*
X261059*
X261551Y68774*
X261797Y68282*
X261551Y67790*
X261059Y67544*
X259337*
X261059D02*
X261797Y66068D01*
X263766D02*
X264750D01*
X264258D02*
Y69020D01*
X263766Y68528*
X267703Y66068D02*
X268687D01*
X268195D02*
Y69020D01*
X267703Y68528*
X262207Y131178D02*
X263191D01*
X262699D02*
Y134131D01*
X262207D02*
X263191D01*
X267866Y131670D02*
X267620Y131424D01*
X267128Y131178*
X266390*
X265898Y131424*
X265652Y131670*
X265406Y132162*
Y133146*
X265652Y133639*
X265898Y133885*
X266390Y134131*
X267128*
X267620Y133885*
X267866Y133639*
X269343Y131424D02*
X269835Y131178D01*
X270573*
X271065Y131424*
X271311Y131916*
Y132162*
X271065Y132654*
X270573Y132900*
X269343*
Y134131*
X271311*
X271955Y70576D02*
X271709Y70330D01*
X271217Y70083*
X270478*
X269986Y70330*
X269740Y70576*
X269494Y71068*
Y72052*
X269740Y72544*
X269986Y72790*
X270478Y73036*
X271217*
X271709Y72790*
X271955Y72544*
X273923Y70083D02*
X274907D01*
X274415D02*
Y73036D01*
X273923Y72544*
X277614Y70330D02*
X278106Y70083D01*
X278598*
X279091Y70330*
X279337Y70822*
Y72298*
X279091Y72790*
X278598Y73036*
X278106*
X277614Y72790*
X277368Y72298*
Y70822*
X277614Y70330*
X279091Y72790*
X269730Y73627D02*
Y76580D01*
X271453*
X271945Y76333*
X272191Y75841*
X271945Y75349*
X271453Y75103*
X269730*
X271453D02*
X272191Y73627D01*
X274159D02*
X275144D01*
X274652D02*
Y76580D01*
X274159Y76087*
X279573Y73627D02*
X277604D01*
X279327Y75349*
X279573Y75841*
X279327Y76333*
X278835Y76580*
X278096*
X277604Y76333*
X284555Y142800D02*
Y143784D01*
Y143292D02*
X281602D01*
Y142800D02*
Y143784D01*
X284063Y148459D02*
X284309Y148213D01*
X284555Y147721*
Y146983*
X284309Y146491*
X284063Y146245*
X283571Y145999*
X282587*
X282094Y146245*
X281848Y146491*
X281602Y146983*
Y147721*
X281848Y148213*
X282094Y148459*
X284555Y150428D02*
Y151412D01*
Y150920D02*
X281602D01*
X282094Y150428*
X284309Y154119D02*
X284555Y154611D01*
Y155103*
X284309Y155595*
X283817Y155841*
X282341*
X281848Y155595*
X281602Y155103*
Y154611*
X281848Y154119*
X282341Y153873*
X283817*
X284309Y154119*
X281848Y155595*
X288628Y43788D02*
X288874Y43296D01*
X289366Y43050*
X290350*
X290843Y43296*
X291089Y43788*
X290843Y44280*
X290350Y44526*
X289366*
X288874Y44772*
X288628Y45265*
X288874Y45757*
X289366Y46003*
X290350*
X290843Y45757*
X291089Y45265*
X293057Y45019D02*
X294041D01*
X293549Y45511D02*
Y43296D01*
X293795Y43050*
X294041*
X294287Y43296*
X296502Y43050D02*
Y45019D01*
Y44280D02*
X296748Y44772D01*
X297240Y45019*
X297732*
X298224Y44772*
X300439Y43050D02*
X302900D01*
X304376D02*
Y46003D01*
X306098*
X306591Y45757*
X306837Y45265*
X306591Y44772*
X306098Y44526*
X304376*
X308313Y43788D02*
X308559Y43296D01*
X309051Y43050*
X309543*
X310035Y43296*
X310281Y43788*
Y44280*
X310035Y44772*
X309543Y45019*
X309051*
X308559Y44772*
X308313Y44280*
Y43788*
X312742Y45019D02*
X313726D01*
X313234Y45511D02*
Y43296D01*
X313480Y43050*
X313726*
X313972Y43296*
X290705Y50310D02*
X290951Y50064D01*
X291197Y49572*
Y48833*
X290951Y48341*
X290705Y48095*
X290213Y47849*
X289228*
X288736Y48095*
X288490Y48341*
X288244Y48833*
Y49572*
X288490Y50064*
X288736Y50310*
X291197Y51786D02*
X288244Y53755D01*
Y51786*
X296423Y168115D02*
Y171068D01*
X298146*
X298638Y170822*
X298884Y170330*
X298638Y169837*
X298146Y169591*
X296423*
X298146D02*
X298884Y168115D01*
X302329D02*
X300360D01*
X302083Y169837*
X302329Y170330*
X302083Y170822*
X301591Y171068*
X300852*
X300360Y170822*
X304543Y168361D02*
X305035Y168115D01*
X305528*
X306020Y168361*
X306266Y168853*
X306020Y169345*
X305528Y169591*
X305035*
X305528D02*
X306020Y169837D01*
X306266Y170330*
X306020Y170822*
X305528Y171068*
X305035*
X304543Y170822*
X297132Y142367D02*
Y145320D01*
X298854*
X299346Y145074*
X299593Y144581*
X299346Y144089*
X298854Y143843*
X297132*
X298854D02*
X299593Y142367D01*
X303037D02*
X301069D01*
X302791Y144089*
X303037Y144581*
X302791Y145074*
X302299Y145320*
X301561*
X301069Y145074*
X306974Y142367D02*
X305006D01*
X306728Y144089*
X306974Y144581*
X306728Y145074*
X306236Y145320*
X305498*
X305006Y145074*
X301856Y137643D02*
Y140595D01*
Y139119D02*
X304317D01*
Y137643D02*
Y140595D01*
X305793Y137643D02*
Y140595D01*
X307024Y139119*
X308254Y140595*
Y137643*
X310469D02*
X311453D01*
X310961D02*
Y140595D01*
X310469D02*
X311453D01*
X306443Y152544D02*
X306197Y152298D01*
X305705Y152052*
X304967*
X304474Y152298*
X304228Y152544*
X303982Y153036*
Y154020*
X304228Y154513*
X304474Y154759*
X304967Y155005*
X305705*
X306197Y154759*
X306443Y154513*
X308411Y152052D02*
X309396D01*
X308904D02*
Y155005D01*
X308411Y154513*
X313087Y152052D02*
Y155005D01*
X311856Y153036*
X313825*
X312535Y200296D02*
X313028Y200050D01*
X313766*
X314258Y200296*
X314504Y200788*
Y201034*
X314258Y201526*
X313766Y201772*
X312535*
Y203003*
X314504*
X316472D02*
X317703Y200050D01*
X318933Y203003*
X320990Y5123D02*
Y8076D01*
X322713*
X323205Y7830*
X323451Y7337*
X323205Y6845*
X322713Y6599*
X320990*
X322713D02*
X323451Y5123D01*
X326896D02*
X324927D01*
X326650Y6845*
X326896Y7337*
X326650Y7830*
X326157Y8076*
X325419*
X324927Y7830*
X330094Y5123D02*
Y8076D01*
X328864Y6107*
X330833*
X331955Y21442D02*
X331709Y21196D01*
X331217Y20950*
X330478*
X329986Y21196*
X329740Y21442*
X329494Y21934*
Y22918*
X329740Y23410*
X329986Y23656*
X330478Y23902*
X331217*
X331709Y23656*
X331955Y23410*
X335400Y20950D02*
X333431D01*
X335154Y22672*
X335400Y23164*
X335154Y23656*
X334661Y23902*
X333923*
X333431Y23656*
X337614Y21196D02*
X338106Y20950D01*
X338598*
X339091Y21196*
X339337Y21688*
X339091Y22180*
X338598Y22426*
X338106*
X338598D02*
X339091Y22672D01*
X339337Y23164*
X339091Y23656*
X338598Y23902*
X338106*
X337614Y23656*
D02*
D145*
X6809Y82101D02*
X10559D01*
Y79914*
X10247Y79289*
X9622Y78976*
X8997Y79289*
X8685Y79914*
Y82101*
X9309Y77101D02*
X7122D01*
X6809Y76789*
Y76164*
X7122Y75851*
X8059*
X7122D02*
X6809Y75539D01*
Y74914*
X7122Y74601*
X9309*
X6809Y72101D02*
X9309D01*
X8372D02*
X8997Y71789D01*
X9309Y71164*
Y70539*
X8997Y69914*
X7282Y25881D02*
X11032D01*
X9157D02*
Y24943D01*
X11032Y22756*
X9157Y24943D02*
X7282Y22756D01*
X7594Y18381D02*
X7282Y18693D01*
Y19318*
Y19943*
X7594Y20568*
X8220Y20881*
X9157*
X9470Y20568*
X9782Y19943*
Y19318*
X9470Y18693*
X9157Y18381*
X8844*
X8532Y18693*
X8220Y19318*
Y19943*
X8532Y20568*
X8844Y20881*
X9782Y15881D02*
X8532Y15568D01*
X7907Y14943*
Y14318*
X8532Y13693*
X9782Y13381*
X8532Y13693D02*
X7282Y14006D01*
X6657Y14318*
X6344Y14943*
X6657Y15568*
X9470Y57534D02*
X9782Y56909D01*
Y55972*
X9470Y55347*
X8844Y55034*
X7907*
X7594Y55347*
X7282Y55972*
Y56597*
X7594Y57222*
X7907Y57534*
X8220*
X8532Y57222*
X8844Y56597*
Y55972*
X8532Y55347*
X8220Y55034*
X7907D02*
X7282D01*
X9470Y50034D02*
X9782Y50659D01*
Y51597*
X9470Y52222*
X8844Y52534*
X8220*
X7594Y52222*
X7282Y51597*
Y50659*
X7594Y50034*
X9470Y45034D02*
X9782Y45659D01*
Y46597*
X9470Y47222*
X8844Y47534*
X8220*
X7594Y47222*
X7282Y46597*
Y45659*
X7594Y45034*
X9782Y42534D02*
X8220D01*
X7594Y42222*
X7282Y41597*
Y40972*
X7594Y40347*
X8220Y40034*
X9782D02*
X7282D01*
X7289Y37044D02*
X9789D01*
X8539Y35794D02*
Y38294D01*
X8645Y58479D02*
Y60979D01*
X13187Y204345D02*
X16937Y202783D01*
X13187Y201220*
X14750Y203720D02*
Y201845D01*
X13187Y197783D02*
Y198095D01*
X16937*
X13187Y192783D02*
Y193095D01*
X16937*
X13500Y186845D02*
X13187Y187158D01*
Y187783*
Y188408*
X13500Y189033*
X14125Y189345*
X15063*
X15375Y189033*
X15687Y188408*
Y187783*
X15375Y187158*
X15063Y186845*
X14750*
X14437Y187158*
X14125Y187783*
Y188408*
X14437Y189033*
X14750Y189345*
X15687Y184345D02*
X14437Y184033D01*
X13813Y183408*
Y182783*
X14437Y182158*
X15687Y181845*
X14437Y182158D02*
X13187Y182470D01*
X12563Y182783*
X12250Y183408*
X12563Y184033*
X13187Y174345D02*
X16937D01*
X15063D02*
Y171220D01*
X13187D02*
X16937D01*
X14125Y169345D02*
X13500Y169033D01*
X13187Y168408*
Y167783*
X13500Y167158*
X14125Y166845*
X14750*
X15375Y167158*
X15687Y167783*
Y168408*
X15375Y169033*
X14750Y169345*
X14125*
Y164345D02*
X13500Y164033D01*
X13187Y163408*
Y162783*
X13500Y162158*
X14125Y161845*
X14750*
X15375Y162158*
X15687Y162783*
Y163408*
X15375Y164033*
X14750Y164345*
X14125*
X15687Y159345D02*
X12250D01*
X14125D02*
X13500Y159033D01*
X13187Y158408*
Y157783*
X13500Y157158*
X14125Y156845*
X14750*
X15375Y157158*
X15687Y157783*
Y158408*
X15375Y159033*
X14750Y159345*
X14125*
X10937Y204345D02*
X7187Y202783D01*
X10937Y201220*
X7187Y196845D02*
Y199345D01*
X9375Y197158*
X10000Y196845*
X10625Y197158*
X10937Y197783*
Y198720*
X10625Y199345*
X7187Y194033D02*
X7500Y193720D01*
X7813Y194033*
X7500Y194345*
X7187Y194033*
X7500Y189345D02*
X7187Y188720D01*
Y187783*
X7500Y187158*
X8125Y186845*
X8437*
X9063Y187158*
X9375Y187783*
Y189345*
X10937*
Y186845*
X57238Y94428D02*
Y2696D01*
X10781*
Y94428*
X33169*
Y93803*
X34419*
Y94428*
X57238*
X96837Y21412D02*
Y54877D01*
X140144*
Y21412*
X118938*
Y22200*
X117688*
Y21412*
X96837*
X113317Y159796D02*
Y193261D01*
X156624*
Y159796*
X135418*
Y160583*
X134168*
Y159796*
X113317*
X136085Y102396D02*
X174085D01*
Y157396*
X136085*
Y102396*
Y134896D02*
G75*
G02X141085Y129896J-5000D01*
G01*
G75*
G02X136085Y124896I-5000*
G01*
X285728Y64129D02*
Y19995D01*
X234154*
Y64129*
X258465*
Y62652*
X261417*
Y64129*
X285728*
X291285Y78755D02*
X247152D01*
Y130330*
X291285*
Y106019*
X289809*
Y103066*
X291285*
Y78755*
D02*
D146*
X34159Y199312D02*
X31659Y196812D01*
X26659*
X24159Y199312*
Y204312*
X26659Y206812*
X31659*
X34159Y204312*
X44159Y199312D02*
X41659Y196812D01*
X36659*
X34159Y199312*
Y204312*
X36659Y206812*
X41659*
X44159Y204312*
X54159Y199312D02*
X51659Y196812D01*
X46659*
X44159Y199312*
Y204312*
X46659Y206812*
X51659*
X54159Y204312*
X64159Y199312D02*
X61659Y196812D01*
X56659*
X54159Y199312*
Y204312*
X56659Y206812*
X61659*
X64159Y204312*
X74159Y199312D02*
X71659Y196812D01*
X66659*
X64159Y199312*
Y204312*
X66659Y206812*
X71659*
X74159Y204312*
X79159Y9312D02*
X76659Y6812D01*
X71659*
X69159Y9312*
Y14312*
X71659Y16812*
X76659*
X79159Y14312*
X84159Y199312D02*
X81659Y196812D01*
X76659*
X74159Y199312*
Y204312*
X76659Y206812*
X81659*
X84159Y204312*
X89159Y9312D02*
X86659Y6812D01*
X81659*
X79159Y9312*
Y14312*
X81659Y16812*
X86659*
X89159Y14312*
X94159Y199312D02*
X91659Y196812D01*
X86659*
X84159Y199312*
Y204312*
X86659Y206812*
X91659*
X94159Y204312*
X99159Y9312D02*
X96659Y6812D01*
X91659*
X89159Y9312*
Y14312*
X91659Y16812*
X96659*
X99159Y14312*
X104159Y199312D02*
X101659Y196812D01*
X96659*
X94159Y199312*
Y204312*
X96659Y206812*
X101659*
X104159Y204312*
X109159Y9312D02*
X106659Y6812D01*
X101659*
X99159Y9312*
Y14312*
X101659Y16812*
X106659*
X109159Y14312*
X114159Y199312D02*
X116659Y196812D01*
X121659*
X124159Y199312*
Y204312*
X121659Y206812*
X116659*
X114159Y204312*
Y199312*
X111659Y196812*
X106659*
X104159Y199312*
Y204312*
X106659Y206812*
X111659*
X114159Y204312*
X119159Y9312D02*
X116659Y6812D01*
X111659*
X109159Y9312*
Y14312*
X111659Y16812*
X116659*
X119159Y14312*
X129159Y9312D02*
X126659Y6812D01*
X121659*
X119159Y9312*
Y14312*
X121659Y16812*
X126659*
X129159Y14312*
X139159D02*
Y9312D01*
X136659Y6812*
X131659*
X129159Y9312*
Y14312*
X131659Y16812*
X136659*
X139159Y14312*
Y199312D02*
X136659Y196812D01*
X131659*
X129159Y199312*
Y204312*
X131659Y206812*
X136659*
X139159Y204312*
X149159Y199312D02*
X146659Y196812D01*
X141659*
X139159Y199312*
Y204312*
X141659Y206812*
X146659*
X149159Y204312*
X159159Y9312D02*
X156659Y6812D01*
X151659*
X149159Y9312*
Y14312*
X151659Y16812*
X156659*
X159159Y14312*
Y199312D02*
X156659Y196812D01*
X151659*
X149159Y199312*
Y204312*
X151659Y206812*
X156659*
X159159Y204312*
X169159Y9312D02*
X166659Y6812D01*
X161659*
X159159Y9312*
Y14312*
X161659Y16812*
X166659*
X169159Y14312*
Y199312D02*
X166659Y196812D01*
X161659*
X159159Y199312*
Y204312*
X161659Y206812*
X166659*
X169159Y204312*
X179159Y9312D02*
X176659Y6812D01*
X171659*
X169159Y9312*
Y14312*
X171659Y16812*
X176659*
X179159Y14312*
Y199312D02*
X176659Y196812D01*
X171659*
X169159Y199312*
Y204312*
X171659Y206812*
X176659*
X179159Y204312*
X189159Y9312D02*
X186659Y6812D01*
X181659*
X179159Y9312*
Y14312*
X181659Y16812*
X186659*
X189159Y14312*
Y199312D02*
X186659Y196812D01*
X181659*
X179159Y199312*
Y204312*
X181659Y206812*
X186659*
X189159Y204312*
X199159Y9312D02*
X196659Y6812D01*
X191659*
X189159Y9312*
Y14312*
X191659Y16812*
X196659*
X199159Y14312*
Y199312D02*
X201659Y196812D01*
X206659*
X209159Y199312*
Y204312*
X206659Y206812*
X201659*
X199159Y204312*
Y199312*
X196659Y196812*
X191659*
X189159Y199312*
Y204312*
X191659Y206812*
X196659*
X199159Y204312*
X209159Y9312D02*
X206659Y6812D01*
X201659*
X199159Y9312*
Y14312*
X201659Y16812*
X206659*
X209159Y14312*
X219159Y9312D02*
X216659Y6812D01*
X211659*
X209159Y9312*
Y14312*
X211659Y16812*
X216659*
X219159Y14312*
X229159D02*
Y9312D01*
X226659Y6812*
X221659*
X219159Y9312*
Y14312*
X221659Y16812*
X226659*
X229159Y14312*
Y199312D02*
X226659Y196812D01*
X221659*
X219159Y199312*
Y204312*
X221659Y206812*
X226659*
X229159Y204312*
X239159Y199312D02*
X236659Y196812D01*
X231659*
X229159Y199312*
Y204312*
X231659Y206812*
X236659*
X239159Y204312*
X249159Y9312D02*
X246659Y6812D01*
X241659*
X239159Y9312*
Y14312*
X241659Y16812*
X246659*
X249159Y14312*
Y199312D02*
X246659Y196812D01*
X241659*
X239159Y199312*
Y204312*
X241659Y206812*
X246659*
X249159Y204312*
X259159Y9312D02*
X256659Y6812D01*
X251659*
X249159Y9312*
Y14312*
X251659Y16812*
X256659*
X259159Y14312*
Y199312D02*
X256659Y196812D01*
X251659*
X249159Y199312*
Y204312*
X251659Y206812*
X256659*
X259159Y204312*
X269159Y9312D02*
X266659Y6812D01*
X261659*
X259159Y9312*
Y14312*
X261659Y16812*
X266659*
X269159Y14312*
Y199312D02*
X266659Y196812D01*
X261659*
X259159Y199312*
Y204312*
X261659Y206812*
X266659*
X269159Y204312*
X279159Y9312D02*
X276659Y6812D01*
X271659*
X269159Y9312*
Y14312*
X271659Y16812*
X276659*
X279159Y14312*
Y199312D02*
X276659Y196812D01*
X271659*
X269159Y199312*
Y204312*
X271659Y206812*
X276659*
X279159Y204312*
X289159Y9312D02*
X286659Y6812D01*
X281659*
X279159Y9312*
Y14312*
X281659Y16812*
X286659*
X289159Y14312*
Y199312D02*
X291659Y196812D01*
X296659*
X299159Y199312*
Y204312*
X296659Y206812*
X291659*
X289159Y204312*
Y199312*
X286659Y196812*
X281659*
X279159Y199312*
Y204312*
X281659Y206812*
X286659*
X289159Y204312*
X299159Y9312D02*
X296659Y6812D01*
X291659*
X289159Y9312*
Y14312*
X291659Y16812*
X296659*
X299159Y14312*
X309159Y9312D02*
X306659Y6812D01*
X301659*
X299159Y9312*
Y14312*
X301659Y16812*
X306659*
X309159Y14312*
X319159Y9312D02*
X316659Y6812D01*
X311659*
X309159Y9312*
Y14312*
X311659Y16812*
X316659*
X319159Y14312*
Y9312*
X334159Y36812D02*
X336659D01*
X339159Y34312*
Y29312*
X336659Y26812*
X321659*
X319159Y29312*
Y34312*
X321659Y36812*
X324159*
X334159Y46812D02*
X336659D01*
X339159Y44312*
Y39312*
X336659Y36812*
X321659*
X319159Y39312*
Y44312*
X321659Y46812*
X324159*
X334159Y56812D02*
X336659D01*
X339159Y54312*
Y49312*
X336659Y46812*
X321659*
X319159Y49312*
Y54312*
X321659Y56812*
X324159*
X334159Y66812D02*
X336659D01*
X339159Y64312*
Y59312*
X336659Y56812*
X321659*
X319159Y59312*
Y64312*
X321659Y66812*
X324159*
X334159Y76812D02*
X336659D01*
X339159Y74312*
Y69312*
X336659Y66812*
X321659*
X319159Y69312*
Y74312*
X321659Y76812*
X324159*
X334159Y86812D02*
X336659D01*
X339159Y84312*
Y79312*
X336659Y76812*
X321659*
X319159Y79312*
Y84312*
X321659Y86812*
X324159*
X334159Y96812D02*
X336659D01*
X339159Y94312*
Y89312*
X336659Y86812*
X321659*
X319159Y89312*
Y94312*
X321659Y96812*
X324159*
X334159Y106812D02*
X336659D01*
X339159Y104312*
Y99312*
X336659Y96812*
X321659*
X319159Y99312*
Y104312*
X321659Y106812*
X324159*
X334159Y116812D02*
X336659D01*
X339159Y114312*
Y109312*
X336659Y106812*
X321659*
X319159Y109312*
Y114312*
X321659Y116812*
X324159*
X334159Y126812D02*
X336659D01*
X339159Y124312*
Y119312*
X336659Y116812*
X321659*
X319159Y119312*
Y124312*
X321659Y126812*
X324159*
X334159Y136812D02*
X336659D01*
X339159Y134312*
Y129312*
X336659Y126812*
X321659*
X319159Y129312*
Y134312*
X321659Y136812*
X324159*
X334159Y146812D02*
X336659D01*
X339159Y144312*
Y139312*
X336659Y136812*
X321659*
X319159Y139312*
Y144312*
X321659Y146812*
X324159*
X334159Y156812D02*
X336659D01*
X339159Y154312*
Y149312*
X336659Y146812*
X321659*
X319159Y149312*
Y154312*
X321659Y156812*
X324159*
X334159Y166812D02*
X336659D01*
X339159Y164312*
Y159312*
X336659Y156812*
X321659*
X319159Y159312*
Y164312*
X321659Y166812*
X324159*
X334159Y176812D02*
X336659D01*
X339159Y174312*
Y169312*
X336659Y166812*
X321659*
X319159Y169312*
Y174312*
X321659Y176812*
X324159*
X334159Y186812D02*
X336659D01*
X339159Y184312*
Y179312*
X336659Y176812*
X321659*
X319159Y179312*
Y184312*
X321659Y186812*
X324159*
X334159Y196812D02*
X336659D01*
X339159Y194312*
Y189312*
X336659Y186812*
X321659*
X319159Y189312*
Y194312*
X321659Y196812*
X324159*
X334159Y206812D02*
X336659D01*
X339159Y204312*
Y199312*
X336659Y196812*
X321659*
X319159Y199312*
Y204312*
X321659Y206812*
X334159*
D02*
D147*
X61581Y106458D02*
Y90290D01*
X81581*
Y113125*
X68247*
X68208Y66944D02*
X84376D01*
Y86944*
X61541*
Y73610*
D02*
D148*
X101856Y110448D02*
G75*
G02X133352I15748D01*
G01*
X101856D02*
G75*
G02X133352I15748D01*
G01*
G75*
G02X101856I-15748*
G01*
X232837Y62513D02*
Y20111D01*
X215750*
Y62513*
X232837*
X246087Y129513D02*
Y87111D01*
X229000*
Y129513*
X246087*
D02*
D149*
X97383Y65028D02*
G75*
G02X100597Y65026I1607J6D01*
G01*
Y56487*
X129207*
Y86487*
X88207*
Y56487*
X97384*
Y65026*
D02*
D155*
X22604Y130231D02*
G75*
G02Y129247J-492D01*
G01*
Y130231D02*
G75*
G02Y129247J-492D01*
G01*
G75*
G02Y130231J492*
G01*
X65360D02*
G75*
G02Y129247J-492D01*
G01*
Y130231D02*
G75*
G02Y129247J-492D01*
G01*
G75*
G02Y130231J492*
G01*
X137152Y99385D02*
G75*
G02X136167I-492D01*
G01*
X137152D02*
G75*
G02X136167I-492D01*
G01*
G75*
G02X137152I492*
G01*
X0Y0D02*
M02*
