G04 EasyPC Gerber Version 21.0.3 Build 4286 *
G04 #@! TF.Part,Single*
G04 #@! TF.FileFunction,Soldermask,Bot *
G04 #@! TF.FilePolarity,Negative *
%FSLAX35Y35*%
%MOIN*%
G04 #@! TA.AperFunction,SMDPad*
%ADD101R,0.03441X0.06787*%
%ADD90R,0.04543X0.04937*%
%ADD94R,0.05016X0.06787*%
%ADD103R,0.05331X0.08874*%
%ADD100R,0.32496X0.41354*%
%ADD104R,0.04150X0.04150*%
G04 #@! TA.AperFunction,ComponentPad*
%ADD86R,0.07496X0.07496*%
%ADD88R,0.07575X0.07575*%
%ADD84R,0.08382X0.08382*%
%ADD95R,0.08559X0.08559*%
%ADD99C,0.02600*%
%ADD92C,0.05449*%
%ADD98C,0.06118*%
%ADD97C,0.06748*%
G04 #@! TA.AperFunction,SMDPad*
%ADD105R,0.06787X0.03441*%
G04 #@! TA.AperFunction,ComponentPad*
%ADD87C,0.07496*%
G04 #@! TA.AperFunction,SMDPad*
%ADD91R,0.04937X0.04543*%
%ADD93R,0.06787X0.05016*%
G04 #@! TA.AperFunction,ComponentPad*
%ADD89C,0.07575*%
%ADD106C,0.08087*%
%ADD85C,0.08382*%
%ADD96C,0.08559*%
%AMT83*0 Octagon Pad at angle 0*4,1,8,-0.01449,-0.03500,0.01449,-0.03500,0.03500,-0.01449,0.03500,0.01449,0.01449,0.03500,-0.01449,0.03500,-0.03500,0.01449,-0.03500,-0.01449,-0.01449,-0.03500,0*%
%ADD83T83*%
G04 #@! TA.AperFunction,SMDPad*
%ADD102R,0.41354X0.32496*%
X0Y0D02*
D02*
D83*
X29159Y201812D03*
X39159D03*
X49159D03*
X59159D03*
X69159D03*
X74159Y11812D03*
X79159Y201812D03*
X84159Y11812D03*
X89159Y201812D03*
X94159Y11812D03*
X99159Y201812D03*
X104159Y11812D03*
X109159Y201812D03*
X114159Y11812D03*
X119159Y201812D03*
X124159Y11812D03*
X134159D03*
Y201812D03*
X144159D03*
X154159Y11812D03*
Y201812D03*
X164159Y11812D03*
Y201812D03*
X174159Y11812D03*
Y201812D03*
X184159Y11812D03*
Y201812D03*
X194159Y11812D03*
Y201812D03*
X204159Y11812D03*
Y201812D03*
X214159Y11812D03*
X224159D03*
Y201812D03*
X234159D03*
X244159Y11812D03*
Y201812D03*
X254159Y11812D03*
Y201812D03*
X264159Y11812D03*
Y201812D03*
X274159Y11812D03*
Y201812D03*
X284159Y11812D03*
Y201812D03*
X294159Y11812D03*
Y201812D03*
X304159Y11812D03*
X314159D03*
X324159Y31812D03*
Y41812D03*
Y51812D03*
Y61812D03*
Y71812D03*
Y81812D03*
Y91812D03*
Y101812D03*
Y111812D03*
Y121812D03*
Y131812D03*
Y141812D03*
Y151812D03*
Y161812D03*
Y171812D03*
Y181812D03*
Y191812D03*
Y201812D03*
X334159Y31812D03*
Y41812D03*
Y51812D03*
Y61812D03*
Y71812D03*
Y81812D03*
Y91812D03*
Y101812D03*
Y111812D03*
Y121812D03*
Y131812D03*
Y141812D03*
Y151812D03*
Y161812D03*
Y171812D03*
Y181812D03*
Y191812D03*
Y201812D03*
D02*
D84*
X207132Y40763D03*
X305543Y50812D03*
D02*
D85*
X147132Y40763D03*
X157132D03*
X167132D03*
X177132D03*
X187132D03*
X197132D03*
X305543Y60812D03*
Y70812D03*
Y80812D03*
Y90812D03*
Y100812D03*
Y110812D03*
Y120812D03*
Y130812D03*
D02*
D86*
X212543Y99312D03*
X290043Y176812D03*
X293043Y31562D03*
D02*
D87*
X190043Y176812D03*
X200043D03*
X210043D03*
X212543Y109312D03*
Y119312D03*
X220043Y176812D03*
X230043D03*
X240043D03*
X250043D03*
X260043D03*
X270043D03*
X280043D03*
X303043Y31562D03*
X313043D03*
D02*
D88*
X66581Y101707D03*
X72959Y71944D03*
D02*
D89*
Y81944D03*
X76581Y101707D03*
D02*
D90*
X288144Y90812D03*
Y100812D03*
Y110812D03*
Y120812D03*
Y130812D03*
X294443Y90812D03*
Y100812D03*
Y110812D03*
Y120812D03*
Y130812D03*
X295307Y151850D03*
X295394Y161850D03*
X301606Y151850D03*
X301693Y161850D03*
X308807Y146850D03*
X309057Y156850D03*
Y166850D03*
X315106Y146850D03*
X315356Y156850D03*
Y166850D03*
D02*
D91*
X53116Y104936D03*
Y111235D03*
X313793Y63662D03*
Y69961D03*
X316543Y48662D03*
Y54961D03*
D02*
D92*
X224293Y31706D03*
Y50918D03*
X237543Y98706D03*
Y117918D03*
D02*
D93*
X222293Y92662D03*
Y98961D03*
Y111662D03*
Y117961D03*
D02*
D94*
X233394Y31562D03*
X233510Y47377D03*
X239693Y31562D03*
X239809Y47377D03*
D02*
D95*
X41069Y109739D03*
X72250Y32967D03*
D02*
D96*
X21069Y109739D03*
X31069D03*
X72250Y42967D03*
Y52967D03*
D02*
D97*
X98707Y75487D03*
X108707D03*
X118707D03*
D02*
D98*
X117604Y106511D03*
Y114385D03*
D02*
D99*
X26305Y165054D03*
Y170054D03*
Y175054D03*
Y180054D03*
Y185054D03*
X31305Y165054D03*
Y170054D03*
Y175054D03*
Y180054D03*
Y185054D03*
X36305Y165054D03*
Y170054D03*
Y175054D03*
Y180054D03*
Y185054D03*
X41305Y165054D03*
Y170054D03*
Y175054D03*
Y180054D03*
Y185054D03*
X46305Y165054D03*
Y170054D03*
Y175054D03*
Y180054D03*
Y185054D03*
X51305Y165054D03*
Y170054D03*
Y175054D03*
Y180054D03*
Y185054D03*
X56305Y165054D03*
Y170054D03*
Y175054D03*
Y180054D03*
Y185054D03*
X69061Y165054D03*
Y170054D03*
Y175054D03*
Y180054D03*
Y185054D03*
X74061Y165054D03*
Y170054D03*
Y175054D03*
Y180054D03*
Y185054D03*
X79061Y165054D03*
Y170054D03*
Y175054D03*
Y180054D03*
Y185054D03*
X84061Y165054D03*
Y170054D03*
Y175054D03*
Y180054D03*
Y185054D03*
X89061Y165054D03*
Y170054D03*
Y175054D03*
Y180054D03*
Y185054D03*
X94061Y165054D03*
Y170054D03*
Y175054D03*
Y180054D03*
Y185054D03*
X99061Y165054D03*
Y170054D03*
Y175054D03*
Y180054D03*
Y185054D03*
X171974Y65684D03*
Y70684D03*
Y75684D03*
Y80684D03*
Y85684D03*
Y90684D03*
Y95684D03*
X176974Y65684D03*
Y70684D03*
Y75684D03*
Y80684D03*
Y85684D03*
Y90684D03*
Y95684D03*
X181974Y65684D03*
Y70684D03*
Y75684D03*
Y80684D03*
Y85684D03*
Y90684D03*
Y95684D03*
X186974Y65684D03*
Y70684D03*
Y75684D03*
Y80684D03*
Y85684D03*
Y90684D03*
Y95684D03*
X191974Y65684D03*
Y70684D03*
Y75684D03*
Y80684D03*
Y85684D03*
Y90684D03*
Y95684D03*
D02*
D100*
X181345Y80684D03*
D02*
D101*
X145911Y22456D03*
X153785D03*
X286106Y22812D03*
X293980D03*
D02*
D102*
X41305Y174424D03*
X84061D03*
D02*
D103*
X58785Y74030D03*
X85951Y81904D03*
X87250Y27377D03*
D02*
D104*
X58785Y66550D03*
X85951Y89385D03*
X87250Y19896D03*
D02*
D105*
X326793Y9625D03*
Y17499D03*
D02*
D106*
X24167Y14113D03*
Y27893D03*
Y41672D03*
Y55452D03*
Y69231D03*
Y83011D03*
X43852Y14113D03*
Y27893D03*
Y41672D03*
Y55452D03*
Y69231D03*
Y83011D03*
X108648Y31255D03*
Y45034D03*
X125128Y169639D03*
Y183418D03*
X128333Y31255D03*
Y45034D03*
X144813Y169639D03*
Y183418D03*
X0Y0D02*
M02*
