G04 EasyPC Gerber Version 21.0.3 Build 4286 *
G04 #@! TF.Part,Single*
G04 #@! TF.FileFunction,Copper,L1,Top *
G04 #@! TF.FilePolarity,Positive *
%FSLAX35Y35*%
%MOIN*%
G04 #@! TA.AperFunction,ComponentPad*
%AMT13*0 Octagon Pad at angle 0*4,1,8,-0.01243,-0.03000,0.01243,-0.03000,0.03000,-0.01243,0.03000,0.01243,0.01243,0.03000,-0.01243,0.03000,-0.03000,0.01243,-0.03000,-0.01243,-0.01243,-0.03000,0*%
%ADD13T13*%
%ADD12O,0.06000X0.12000*%
G04 #@! TA.AperFunction,SMDPad*
%ADD78R,0.02126X0.03701*%
%ADD20R,0.02165X0.11811*%
%ADD24R,0.02559X0.07283*%
%ADD79R,0.03150X0.03937*%
%ADD75R,0.03150X0.14567*%
%ADD23R,0.03543X0.03937*%
%ADD77R,0.03937X0.11811*%
%ADD74R,0.31496X0.40354*%
%ADD81R,0.03150X0.03150*%
G04 #@! TA.AperFunction,ComponentPad*
%ADD16R,0.06496X0.06496*%
%ADD18R,0.06575X0.06575*%
%ADD14R,0.07382X0.07382*%
%ADD27R,0.07559X0.07559*%
G04 #@! TD.AperFunction*
%ADD10C,0.00394*%
%ADD11C,0.00787*%
%ADD90C,0.01181*%
%ADD91C,0.01200*%
%ADD84C,0.01575*%
%ADD83C,0.03150*%
G04 #@! TA.AperFunction,ViaPad*
%ADD85C,0.04000*%
G04 #@! TA.AperFunction,ComponentPad*
%ADD21C,0.04449*%
G04 #@! TD.AperFunction*
%ADD87C,0.04724*%
G04 #@! TA.AperFunction,ComponentPad*
%ADD72C,0.05118*%
%ADD29C,0.05748*%
%ADD17C,0.06496*%
%ADD19C,0.06575*%
%ADD82C,0.07087*%
%ADD15C,0.07382*%
G04 #@! TA.AperFunction,SMDPad*
%ADD22R,0.03701X0.02126*%
%ADD71R,0.11811X0.02165*%
%ADD26R,0.05787X0.02441*%
%ADD25R,0.06102X0.02756*%
%ADD73R,0.14567X0.03150*%
%ADD70R,0.03937X0.03543*%
G04 #@! TA.AperFunction,ComponentPad*
%ADD28C,0.07559*%
G04 #@! TA.AperFunction,SMDPad*
%ADD80R,0.07874X0.04331*%
%ADD76R,0.40354X0.31496*%
G04 #@! TD.AperFunction*
%ADD89C,0.08661*%
%ADD88C,0.11024*%
%ADD86C,0.11811*%
X0Y0D02*
D02*
D10*
X2397Y210303D02*
Y2397D01*
X336217*
Y6988*
X326291*
Y13759*
X336217*
Y210303*
X2397*
X70350Y111583D02*
G75*
G02X73303Y104225J-4272D01*
G01*
Y102083*
G75*
G02X72437Y99994I-2953J0*
G01*
X67811Y95369*
G75*
G02X65722Y94503I-2089J2087*
G01*
X34777*
G75*
G02X32688Y95369I0J2953*
G01*
X27494Y100563*
G75*
G02X26628Y102652I2087J2089*
G01*
Y105034*
G75*
G02X23008Y107837I748J4705*
G01*
G75*
G02X11431Y109739I-5632J1902*
G01*
G75*
G02X23008Y111641I5945*
G01*
G75*
G02X26409Y114404I4368J-1902*
G01*
X20326Y120487*
X20289*
Y120291*
X11628*
Y119700*
X4147*
Y127181*
X11628*
Y126590*
X20289*
Y126393*
X21549*
G75*
G02X23638Y125526I0J-2953*
G01*
X31667Y117497*
G75*
G02X32533Y115408I-2087J-2089*
G01*
Y111765*
G75*
G02X32112Y110246I-2953J0*
G01*
G75*
G02X32139Y109739I-4739J-508*
G01*
G75*
G02X32094Y109083I-4764J0*
G01*
G75*
G02X32533Y107534I-2514J-1549*
G01*
Y103876*
X36000Y100408*
X64499*
X67397Y103307*
Y104225*
G75*
G02X70350Y111583I2953J3087*
G01*
X332605Y36977D02*
X335631Y33950D01*
Y29673*
X332605Y26646*
X328328*
X325466Y29508*
X322605Y26646*
X318328*
X315301Y29673*
Y33950*
X316871Y35520*
G75*
G02X315348Y34896I-1521J1541*
G01*
X313615*
G75*
G02X310274Y26228I-4265J-3335*
G01*
X310597*
G75*
G02X312131Y25593I2J-2166*
G01*
X317598Y20126*
X319647*
Y20716*
X325553*
Y20127*
X327472*
Y20452*
X335228*
Y16043*
X331972*
G75*
G02X330965Y15796I-1004J1919*
G01*
X325553*
Y15204*
X319647*
Y15795*
X316703*
G75*
G02X315169Y16430I-2J2166*
G01*
X309703Y21897*
X306850*
G75*
G02X305317Y22533J2165*
G01*
X300391Y27459*
G75*
G02X296744Y34896I-1041J4102*
G01*
X293582*
Y27330*
X285118*
Y34896*
X267744*
G75*
G02X266211Y35531I-2J2165*
G01*
X256711Y45031*
G75*
G02X256076Y46562I1531J1531*
G01*
Y76668*
G75*
G02X256275Y77574I2165*
G01*
X253033*
Y83818*
G75*
G02X252935Y84463I2067J645*
G01*
Y93584*
X252131Y92781*
G75*
G02X250598Y92146I-1531J1531*
G01*
X244747*
X244265Y91665*
Y91354*
X247167*
Y77574*
X244265*
Y70477*
X247348*
G75*
G02X248881Y69843I2J-2165*
G01*
X250631Y68093*
G75*
G02X251265Y66562I-1531J-1531*
G01*
Y44209*
X261247Y34227*
X275145*
G75*
G02X275788Y34130J-2166*
G01*
X282035*
Y29996*
X275793*
G75*
G02X275145Y29896I-648J2067*
G01*
X260352*
G75*
G02X258819Y30531I-2J2165*
G01*
X247569Y41781*
G75*
G02X246935Y43312I1531J1531*
G01*
Y56084*
X246381Y55531*
G75*
G02X244848Y54896I-1531J1531*
G01*
X237350*
G75*
G02X236702Y54996J2166*
G01*
X230460*
Y59130*
X236707*
G75*
G02X237350Y59227I643J-2068*
G01*
X243935*
Y59996*
X237998*
G75*
G02X236702I-648J2067*
G01*
X230460*
Y64130*
X232220*
X232006Y64344*
G75*
G02X231386Y65626I1531J1531*
G01*
X229502*
Y69444*
X228320*
Y73606*
X226053Y71339*
Y65162*
G75*
G02X225187Y63073I-2953J0*
G01*
X220839Y58725*
G75*
G02X218750Y57859I-2089J2087*
G01*
X205073*
X198883Y51669*
X210206*
Y39956*
X198494*
Y43647*
G75*
G02X189675Y45812I-4144J2165*
G01*
G75*
G02X191397Y49437I4675*
G01*
Y51312*
G75*
G02X192263Y53401I2953J0*
G01*
X201761Y62898*
G75*
G02X203850Y63765I2089J-2087*
G01*
X217526*
X220147Y66385*
Y67377*
G75*
G02X219991Y67198I-1829J1435*
G01*
X219199Y66376*
G75*
G02X217525Y65664I-1674J1611*
G01*
X216116*
Y65626*
X208045*
Y70350*
X215998*
Y70626*
X208045*
Y70822*
X206864*
Y68874*
X200958*
Y69779*
X200131*
G75*
G02X198599Y70415J2165*
G01*
X195368Y73645*
Y59523*
X174837*
X164247Y50691*
G75*
G02X163955Y50470I-2396J2873*
G01*
G75*
G02X164350Y50487I393J-4659*
G01*
G75*
G02X168811Y44413I0J-4675*
G01*
X180756Y32468*
X183803*
Y26956*
X177897*
Y29202*
X165749Y41351*
G75*
G02X161948Y49823I-1399J4461*
G01*
G75*
G02X161850Y49822I-94J3746*
G01*
X156754*
G75*
G02X158811Y44413I-2404J-4010*
G01*
X170247Y32977*
X170850*
G75*
G02X172245Y32468J-2165*
G01*
X173803*
Y26956*
X167897*
Y29206*
G75*
G02X167819Y29281I1450J1606*
G01*
X155749Y41351*
G75*
G02X152831Y41390I-1399J4461*
G01*
G75*
G02X152881Y41342I-1483J-1582*
G01*
X161756Y32468*
X163803*
Y26956*
X157897*
Y30202*
X150453Y37645*
X150350*
G75*
G02X148817Y38281J2166*
G01*
X145748Y41351*
G75*
G02X141946Y49822I-1398J4461*
G01*
X141286*
X134795Y43331*
G75*
G02X132706Y42465I-2089J2087*
G01*
X129052*
G75*
G02X127254Y41196I-3432J2953*
G01*
X130039*
G75*
G02X131681Y40515J-2323*
G01*
X140312Y31885*
X147897*
Y32468*
X153803*
Y26956*
X147897*
Y27239*
X139350*
G75*
G02X137707Y27919J2323*
G01*
X129077Y36550*
X128530*
G75*
G02X125620Y25930I-2910J-4911*
G01*
G75*
G02X122710Y36550J5709*
G01*
X108844*
G75*
G02X105935Y25930I-2910J-4911*
G01*
G75*
G02X103244Y36673I0J5709*
G01*
G75*
G02X102347Y37230I746J2200*
G01*
X97859Y41719*
G75*
G02X97179Y43361I1643J1643*
G01*
Y62714*
X87437Y72456*
X72828*
Y70507*
X64285*
Y77450*
X61194Y74360*
Y45959*
G75*
G02X59057Y40805I-7283*
G01*
X54778Y36526*
G75*
G02X49624Y34389I-5155J5145*
G01*
X40266*
G75*
G02X40159Y34388I-107J7295*
G01*
G75*
G02Y48956J7284*
G01*
G75*
G02X40266Y48956J-7296*
G01*
X46607*
X46628Y48976*
Y61368*
X46048Y61948*
X40266*
G75*
G02X40052I-107J7300*
G01*
X20581*
G75*
G02X20474Y61947I-107J7295*
G01*
G75*
G02Y76515J7284*
G01*
G75*
G02X20581Y76515J-7296*
G01*
X40052*
G75*
G02X40266I107J-7300*
G01*
X46628*
Y77371*
G75*
G02Y77375I2276J2*
G01*
G75*
G02Y77377I2578J1*
G01*
G75*
G02X48761Y82527I7283J0*
G01*
X56163Y89928*
G75*
G02X63675Y91668I5150J-5150*
G01*
X68452*
G75*
G02X70004Y91515I105J-6891*
G01*
X84731Y106243*
G75*
G02X87377Y107338I2645J-2645*
G01*
X91116*
Y113401*
X86588*
Y112220*
X78714*
Y120488*
X86588*
Y119307*
X87112*
G75*
G02X87419Y119693I1838J-1145*
G01*
X89356Y121630*
X75840*
Y120448*
X68360*
Y129976*
X61090*
Y125609*
G75*
G02X61240Y124562I-3591J-1047*
G01*
Y111711*
X61369Y111582*
X64622*
Y103039*
X56078*
Y106294*
X54858Y107515*
G75*
G02X53759Y110162I2642J2648*
G01*
Y120547*
X47972*
Y123622*
X47131Y122781*
G75*
G02X45598Y122146I-1531J1531*
G01*
X45256*
Y121358*
X40137*
Y120177*
X32263*
Y128007*
X31090*
Y126826*
X23610*
Y145724*
X30185*
Y146665*
X29703Y147146*
X21352*
G75*
G02X19819Y147781I-2J2165*
G01*
X17569Y150031*
G75*
G02X16935Y151562I1531J1531*
G01*
Y192312*
G75*
G02X17569Y193843I2165*
G01*
X18819Y195093*
G75*
G02X20352Y195727I1531J-1531*
G01*
X22943*
G75*
G02X21482Y198811I2523J3083*
G01*
Y204811*
G75*
G02X29450I3984*
G01*
Y198811*
G75*
G02X27989Y195727I-3984*
G01*
X32943*
G75*
G02X31482Y198811I2523J3083*
G01*
Y204811*
G75*
G02X39450I3984*
G01*
Y198811*
G75*
G02X37989Y195727I-3984*
G01*
X42943*
G75*
G02X41482Y198811I2523J3083*
G01*
Y204811*
G75*
G02X49450I3984*
G01*
Y198811*
G75*
G02X47989Y195727I-3984*
G01*
X52943*
G75*
G02X51482Y198811I2523J3083*
G01*
Y204811*
G75*
G02X59450I3984*
G01*
Y198811*
G75*
G02X57989Y195727I-3984*
G01*
X62943*
G75*
G02X61482Y198811I2523J3083*
G01*
Y204811*
G75*
G02X69450I3984*
G01*
Y198811*
G75*
G02X69446Y198636I-3989J3*
G01*
X71482Y200771*
Y204811*
G75*
G02X79450I3984*
G01*
Y198811*
G75*
G02X72786Y195863I-3984*
G01*
X69391Y192302*
X115600*
G75*
G02X118248Y191204J-3740*
G01*
X121506Y187945*
G75*
G02X121435Y178891I-71J-4527*
G01*
G75*
G02X117301Y181572J4528*
G01*
X114051Y184822*
X108261*
Y174975*
X121063*
G75*
G02Y163558J-5709*
G01*
X108261*
Y152535*
X90840*
Y138165*
X104659*
Y132849*
X105812*
X108863Y135900*
G75*
G02X108903Y135940I2102J-2083*
G01*
Y136645*
X110120*
G75*
G02X111781I831J-2833*
G01*
X112998*
Y135940*
G75*
G02X113038Y131724I-2047J-2128*
G01*
X112998Y131683*
Y130976*
X112291*
X109124Y127810*
G75*
G02X107035Y126944I-2089J2087*
G01*
X105840*
Y106196*
G75*
G02X104741Y103548I-3740*
G01*
X102149Y100956*
G75*
G02X99502Y99858I-2647J2642*
G01*
X95090*
Y94172*
X96950*
G75*
G02X97925Y94015J-3111*
G01*
X99706*
Y92504*
G75*
G02Y89620I-2756J-1442*
G01*
Y88110*
X97930*
G75*
G02X96950Y87952I-980J2952*
G01*
X91446*
G75*
G02X90839Y88011J3110*
G01*
X88791*
Y89443*
G75*
G02Y92681I2656J1619*
G01*
Y93523*
X87610*
Y98543*
X75293Y86226*
G75*
G02X72387Y79051I-6737J-1448*
G01*
X72828*
Y77101*
X88399*
G75*
G02X90042Y76421J-2323*
G01*
X101144Y65319*
G75*
G02X101824Y63676I-1643J-1643*
G01*
Y47317*
G75*
G02X109367Y48371I4110J-1899*
G01*
X122187*
G75*
G02X129052I3432J-2953*
G01*
X131483*
X137139Y54026*
G75*
G02X137502Y55228I3711J-465*
G01*
X137079*
G75*
G02X135420I-830J2834*
G01*
X134202*
Y55934*
G75*
G02X133297Y58062I2048J2128*
G01*
Y62668*
G75*
G02X133298Y62731I2954J-6*
G01*
X107978*
G75*
G02X105889Y63597I0J2953*
G01*
X97018Y72468*
G75*
G02X97350Y80170I332J3844*
G01*
G75*
G02X101194Y76644J-3858*
G01*
X102384Y75453*
G75*
G02X104474Y80450I4966J858*
G01*
G75*
G02X103761Y80975I1377J2613*
G01*
X101163Y83573*
G75*
G02X100297Y85662I2087J2089*
G01*
Y93024*
G75*
G02X101163Y95113I2953J0*
G01*
X112877Y106828*
G75*
G02X115104Y109442I3473J-703*
G01*
G75*
G02X116350Y118723I1246J4557*
G01*
G75*
G02X117596Y109442J-4724*
G01*
G75*
G02X118309Y109078I-1246J-3318*
G01*
X126407*
G75*
G02X126391Y109381I2937J305*
G01*
Y128400*
G75*
G02X127297Y130528I2953*
G01*
Y131236*
X128520*
G75*
G02X128946Y131326I825J-2835*
G01*
X127970Y132302*
G75*
G02X127336Y133833I1531J1531*
G01*
Y190062*
G75*
G02X127970Y191593I2165*
G01*
X131290Y194913*
G75*
G02X126482Y198811I-824J3898*
G01*
Y204811*
G75*
G02X134450I3984*
G01*
Y198811*
G75*
G02X134364Y197987I-3985J0*
G01*
X136482Y200104*
Y204811*
G75*
G02X144450I3984*
G01*
Y198811*
G75*
G02X138104Y195602I-3984*
G01*
X131667Y189165*
Y175577*
X135030Y178941*
G75*
G02X136673Y179621I1643J-1643*
G01*
X138654*
G75*
G02X141120Y187946I2466J3797*
G01*
G75*
G02X143585Y179621J-4528*
G01*
X156897*
Y180169*
X162803*
Y175227*
X164853*
X167765Y178140*
Y179960*
X169897*
G75*
G02X170600Y180078I703J-2048*
G01*
X183658*
G75*
G02X189317Y173794I2692J-3266*
G01*
X190703*
X192347Y175438*
G75*
G02X196350Y181044I4003J1374*
G01*
G75*
G02X200582Y176812J-4232*
G01*
G75*
G02X195669Y172635I-4232*
G01*
X193993Y170959*
X197953*
X202369Y175375*
G75*
G02X206350Y181044I3981J1437*
G01*
G75*
G02X210582Y176812J-4232*
G01*
G75*
G02X206350Y172580I-4232*
G01*
G75*
G02X205742Y172624I1J4232*
G01*
X201007Y167889*
X203953*
X212176Y176111*
G75*
G02X212118Y176812I4175J700*
G01*
G75*
G02X212248Y177852I4232J0*
G01*
X208054Y182046*
X170600*
G75*
G02X169893Y182165J2165*
G01*
X167765*
Y186259*
X169897*
G75*
G02X170600Y186377I703J-2048*
G01*
X208948*
G75*
G02X210481Y185743I2J-2165*
G01*
X215310Y180914*
G75*
G02X215723Y180998I1043J-4101*
G01*
X224319Y189593*
G75*
G02X225852Y190227I1531J-1531*
G01*
X262622*
X259319Y193531*
G75*
G02X258688Y194941I1531J1531*
G01*
X258670Y195254*
G75*
G02X256482Y198811I1796J3557*
G01*
Y204811*
G75*
G02X264450I3984*
G01*
Y198811*
G75*
G02X263128Y195846I-3984*
G01*
X265997Y192977*
X270622*
X269319Y194281*
G75*
G02X268772Y195205I1531J1531*
G01*
G75*
G02X266482Y198811I1694J3606*
G01*
Y204811*
G75*
G02X274450I3984*
G01*
Y198811*
G75*
G02X273498Y196226I-3984J0*
G01*
X273747Y195977*
X277665*
G75*
G02X276482Y198811I2801J2833*
G01*
Y204811*
G75*
G02X284450I3984*
G01*
Y198811*
G75*
G02X283267Y195977I-3984*
G01*
X287665*
G75*
G02X286482Y198811I2801J2833*
G01*
Y204811*
G75*
G02X294450I3984*
G01*
Y198811*
G75*
G02X293267Y195977I-3984*
G01*
X309098*
G75*
G02X310631Y195343I2J-2165*
G01*
X315381Y190593*
G75*
G02X316015Y189062I-1531J-1531*
G01*
Y142562*
G75*
G02X315381Y141031I-2165*
G01*
X312828Y138477*
X316348*
G75*
G02X317948Y137773I2J-2165*
G01*
X319756Y135796*
X322116*
X324450Y133461*
Y130162*
X322116Y127828*
X318817*
X316482Y130162*
Y132959*
X315396Y134146*
X305127*
G75*
G02X306525Y130812I-3277J-3335*
G01*
G75*
G02X297515Y129060I-4675*
G01*
Y122563*
G75*
G02X306525Y120812I4335J-1752*
G01*
G75*
G02X297515Y119060I-4675*
G01*
Y112563*
G75*
G02X306525Y110812I4335J-1752*
G01*
G75*
G02X297515Y109060I-4675*
G01*
Y104312*
G75*
G02X296881Y102781I-2165*
G01*
X289301Y95201*
X291663Y92839*
G75*
G02X292297Y91308I-1531J-1531*
G01*
Y77141*
G75*
G02X291663Y75609I-2165*
G01*
X288828Y72775*
G75*
G02X288714Y72669I-1531J1531*
G01*
Y71944*
X289895*
Y63913*
X288714*
Y63765*
X298225*
G75*
G02X306525Y60812I3625J-2953*
G01*
G75*
G02X304017Y56669I-4675*
G01*
X307706*
Y49230*
X317560Y59084*
X316482Y60162*
Y63461*
X318817Y65796*
X322116*
X324450Y63461*
Y60162*
X322898Y58610*
G75*
G02X322381Y57781I-2048J701*
G01*
X320396Y55796*
X322116*
X324450Y53461*
Y50162*
X323265Y48977*
X325203*
X326482Y50256*
Y53461*
X328817Y55796*
X332116*
X334450Y53461*
Y50162*
X332116Y47828*
X330178*
X327631Y45281*
G75*
G02X326098Y44646I-1531J1531*
G01*
X323265*
X324450Y43461*
Y40162*
X322116Y37828*
X319178*
X318328Y36977*
X322605*
X325466Y34116*
X328328Y36977*
X332605*
X32612Y114504D02*
X42139D01*
Y104976*
X32612*
Y114504*
X120478Y132417D02*
X126273D01*
Y124385*
X119817*
Y129795*
X114021*
Y137826*
X120478*
Y132417*
X126722Y62078D02*
X133179D01*
Y54047*
X126722*
Y62078*
X322116Y75796D02*
X324450Y73461D01*
Y70162*
X322116Y67828*
X318817*
X316482Y70162*
Y73461*
X318817Y75796*
X322116*
Y85796D02*
X324450Y83461D01*
Y80162*
X322116Y77828*
X318817*
X316482Y80162*
Y83461*
X318817Y85796*
X322116*
Y95796D02*
X324450Y93461D01*
Y90162*
X322116Y87828*
X318817*
X316482Y90162*
Y93461*
X318817Y95796*
X322116*
Y105796D02*
X324450Y103461D01*
Y100162*
X322116Y97828*
X318817*
X316482Y100162*
Y103461*
X318817Y105796*
X322116*
Y115796D02*
X324450Y113461D01*
Y110162*
X322116Y107828*
X318817*
X316482Y110162*
Y113461*
X318817Y115796*
X322116*
Y125796D02*
X324450Y123461D01*
Y120162*
X322116Y117828*
X318817*
X316482Y120162*
Y123461*
X318817Y125796*
X322116*
X297175Y70812D02*
G75*
G02X306525I4675D01*
G01*
G75*
G02X297175I-4675*
G01*
Y80812D02*
G75*
G02X306525I4675D01*
G01*
G75*
G02X297175I-4675*
G01*
Y90812D02*
G75*
G02X306525I4675D01*
G01*
G75*
G02X297175I-4675*
G01*
Y100812D02*
G75*
G02X306525I4675D01*
G01*
G75*
G02X297175I-4675*
G01*
X332116Y45796D02*
X334450Y43461D01*
Y40162*
X332116Y37828*
X328817*
X326482Y40162*
Y43461*
X328817Y45796*
X332116*
X319647Y14417D02*
X325553D01*
Y8905*
X319647*
Y9339*
X314450*
Y8811*
G75*
G02X306482I-3984*
G01*
Y14811*
G75*
G02X314450I3984*
G01*
Y13985*
X319647*
Y14417*
X296482Y14811D02*
G75*
G02X304450I3984D01*
G01*
Y8811*
G75*
G02X296482I-3984*
G01*
Y14811*
X286482D02*
G75*
G02X294450I3984D01*
G01*
Y8811*
G75*
G02X286482I-3984*
G01*
Y14811*
X248033Y91354D02*
X252167D01*
Y77574*
X248033*
Y91354*
X266482Y14811D02*
G75*
G02X274450I3984D01*
G01*
Y8811*
G75*
G02X266482I-3984*
G01*
Y14811*
X268256Y24130D02*
X282035D01*
Y19996*
X268256*
Y24130*
X276482Y14811D02*
G75*
G02X284450I3984D01*
G01*
Y8811*
G75*
G02X276482I-3984*
G01*
Y14811*
X268256Y29130D02*
X282035D01*
Y24996*
X268256*
Y29130*
X256482Y14811D02*
G75*
G02X264450I3984D01*
G01*
Y8811*
G75*
G02X256482I-3984*
G01*
Y14811*
X246482D02*
G75*
G02X254450I3984D01*
G01*
Y8811*
G75*
G02X246482I-3984*
G01*
Y14811*
X230460Y44130D02*
X244240D01*
Y39996*
X230460*
Y44130*
Y49130D02*
X244240D01*
Y44996*
X230460*
Y49130*
Y54130D02*
X244240D01*
Y49996*
X230460*
Y54130*
X216482Y14811D02*
G75*
G02X224450I3984D01*
G01*
Y8811*
G75*
G02X216482I-3984*
G01*
Y14811*
X244240Y25311D02*
X245421D01*
Y18815*
X229279*
Y24896*
X225246*
G75*
G02X223713Y25531I-2J2165*
G01*
X220743Y28500*
G75*
G02X217391Y31706I-143J3206*
G01*
G75*
G02X223809I3209*
G01*
G75*
G02X223806Y31562I-3212J-1*
G01*
X226141Y29227*
X237350*
G75*
G02X237993Y29130J-2166*
G01*
X244240*
Y25311*
X236482Y14811D02*
G75*
G02X244450I3984D01*
G01*
Y8811*
G75*
G02X236482I-3984*
G01*
Y14811*
X230460Y39130D02*
X244240D01*
Y34996*
X230728*
X231497Y34227*
X237350*
G75*
G02X237993Y34130J-2166*
G01*
X244240*
Y29996*
X237998*
G75*
G02X237350Y29896I-648J2067*
G01*
X230602*
G75*
G02X229069Y30531I-2J2165*
G01*
X219069Y40531*
G75*
G02X218435Y42062I1531J1531*
G01*
Y48550*
G75*
G02X217391Y50918I2165J2368*
G01*
G75*
G02X223809I3209*
G01*
G75*
G02X222765Y48550I-3209*
G01*
Y42959*
X230460Y35264*
Y39130*
X206482Y14811D02*
G75*
G02X214450I3984D01*
G01*
Y8811*
G75*
G02X206482I-3984*
G01*
Y14811*
X201105Y32468D02*
X203803D01*
Y26956*
X197897*
Y29544*
X185635Y41317*
G75*
G02X179675Y45812I-1285J4495*
G01*
G75*
G02X189025I4675*
G01*
G75*
G02X188776Y44305I-4676J0*
G01*
X201105Y32468*
X202838Y18012D02*
G75*
G02X204450Y14811I-2372J-3202D01*
G01*
Y8811*
G75*
G02X196482I-3984*
G01*
Y14811*
G75*
G02X198514Y18284I3984*
G01*
X198592Y20657*
X197897*
Y26169*
X203803*
Y20657*
X202925*
X202838Y18012*
X190756Y32468D02*
X193803D01*
Y26956*
X187897*
Y29202*
X175749Y41351*
G75*
G02X169675Y45812I-1399J4461*
G01*
G75*
G02X179025I4675*
G01*
G75*
G02X178811Y44413I-4676*
G01*
X190756Y32468*
X192838Y18012D02*
G75*
G02X194450Y14811I-2372J-3202D01*
G01*
Y8811*
G75*
G02X186482I-3984*
G01*
Y14811*
G75*
G02X188514Y18284I3984*
G01*
X188592Y20657*
X187897*
Y26169*
X193803*
Y20657*
X192925*
X192838Y18012*
X182838D02*
G75*
G02X184450Y14811I-2372J-3202D01*
G01*
Y8811*
G75*
G02X176482I-3984*
G01*
Y14811*
G75*
G02X178514Y18284I3984*
G01*
X178592Y20657*
X177897*
Y26169*
X183803*
Y20657*
X182925*
X182838Y18012*
X172838D02*
G75*
G02X174450Y14811I-2372J-3202D01*
G01*
Y8811*
G75*
G02X166482I-3984*
G01*
Y14811*
G75*
G02X168514Y18284I3984*
G01*
X168592Y20657*
X167897*
Y26169*
X173803*
Y20657*
X172925*
X172838Y18012*
X162838D02*
G75*
G02X164450Y14811I-2372J-3202D01*
G01*
Y8811*
G75*
G02X156482I-3984*
G01*
Y14811*
G75*
G02X158514Y18284I3984*
G01*
X158592Y20657*
X157897*
Y26169*
X163803*
Y20657*
X162925*
X162838Y18012*
X152838D02*
G75*
G02X154450Y14811I-2372J-3202D01*
G01*
Y8811*
G75*
G02X146482I-3984*
G01*
Y14811*
G75*
G02X148514Y18284I3984*
G01*
X148592Y20657*
X147897*
Y26169*
X153803*
Y20657*
X152925*
X152838Y18012*
X126482Y14811D02*
G75*
G02X134450I3984D01*
G01*
Y8811*
G75*
G02X126482I-3984*
G01*
Y14811*
X115466Y16107D02*
G75*
G02X125631Y14811I5000J-1296D01*
G01*
Y8811*
G75*
G02X115466Y7514I-5165*
G01*
G75*
G02X105301Y8811I-5000J1296*
G01*
Y14811*
G75*
G02X115466Y16107I5165*
G01*
X96482Y14811D02*
G75*
G02X104450I3984D01*
G01*
Y8811*
G75*
G02X96482I-3984*
G01*
Y14811*
X87567Y42181D02*
X89462D01*
Y36669*
X87572*
G75*
G02X86509Y36471I-1062J2756*
G01*
X79666*
G75*
G02X78714Y36314I-952J2796*
G01*
X73320*
Y31039*
X63793*
Y40567*
X65740*
G75*
G02X66655Y51434I2817J5235*
G01*
G75*
G02X63793Y55802I1902J4368*
G01*
G75*
G02X73320I4764*
G01*
G75*
G02X70459Y51434I-4764*
G01*
G75*
G02X73301Y42219I-1902J-5632*
G01*
X74580*
Y49504*
X82848*
Y42377*
X86509*
G75*
G02X87567Y42181J-2952*
G01*
X35631Y55452D02*
G75*
G02X44687I4528D01*
G01*
G75*
G02X35631I-4528*
G01*
X15946Y14113D02*
G75*
G02X25002I4528D01*
G01*
G75*
G02X15946I-4528*
G01*
X89462Y35881D02*
Y30370D01*
X87930*
X83366Y25806*
G75*
G02X81277Y24940I-2089J2087*
G01*
X43591*
G75*
G02X36727I-3432J2953*
G01*
X23906*
G75*
G02X15946Y27893I-3432J2953*
G01*
G75*
G02X23906Y30845I4528J0*
G01*
X36727*
G75*
G02X43591I3432J-2953*
G01*
X80054*
X83557Y34348*
Y35881*
X85452*
G75*
G02X87567I1058J-2756*
G01*
X89462*
X86482Y14811D02*
G75*
G02X94450I3984D01*
G01*
Y8811*
G75*
G02X86482I-3984*
G01*
Y14811*
X56482D02*
G75*
G02X64450I3984D01*
G01*
Y8811*
G75*
G02X56482I-3984*
G01*
Y14811*
X66482D02*
G75*
G02X74450I3984D01*
G01*
Y8811*
G75*
G02X66482I-3984*
G01*
Y14811*
X76482D02*
G75*
G02X84450I3984D01*
G01*
Y8811*
G75*
G02X76482I-3984*
G01*
Y14811*
X35631Y14113D02*
G75*
G02X44687I4528D01*
G01*
G75*
G02X35631I-4528*
G01*
X15946Y41672D02*
G75*
G02X25002I4528D01*
G01*
G75*
G02X15946I-4528*
G01*
Y55452D02*
G75*
G02X25002I4528D01*
G01*
G75*
G02X15946I-4528*
G01*
X34450Y83011D02*
G75*
G02X45868I5709D01*
G01*
G75*
G02X34450I-5709*
G01*
X14765D02*
G75*
G02X26183I5709D01*
G01*
G75*
G02X14765I-5709*
G01*
X81482Y204811D02*
G75*
G02X89450I3984D01*
G01*
Y198811*
G75*
G02X81482I-3984*
G01*
Y204811*
X91482D02*
G75*
G02X99450I3984D01*
G01*
Y198811*
G75*
G02X91482I-3984*
G01*
Y204811*
X101482D02*
G75*
G02X109450I3984D01*
G01*
Y198811*
G75*
G02X101482I-3984*
G01*
Y204811*
X111482D02*
G75*
G02X119450I3984D01*
G01*
Y198811*
G75*
G02X111482I-3984*
G01*
Y204811*
X146482D02*
G75*
G02X154450I3984D01*
G01*
Y198811*
G75*
G02X146482I-3984*
G01*
Y204811*
X156482D02*
G75*
G02X164450I3984D01*
G01*
Y198811*
G75*
G02X162631Y195466I-3984*
G01*
Y186468*
X162803*
Y180956*
X156897*
Y186468*
X158301*
Y195466*
G75*
G02X156482Y198811I2165J3344*
G01*
Y204811*
X166482D02*
G75*
G02X174450I3984D01*
G01*
Y198811*
G75*
G02X166482I-3984*
G01*
Y204811*
X176482D02*
G75*
G02X184450I3984D01*
G01*
Y198811*
G75*
G02X176482I-3984*
G01*
Y204811*
X186482D02*
G75*
G02X194450I3984D01*
G01*
Y198811*
G75*
G02X186482I-3984*
G01*
Y204811*
X196482D02*
G75*
G02X204450I3984D01*
G01*
Y198811*
G75*
G02X196482I-3984*
G01*
Y204811*
X216482D02*
G75*
G02X224450I3984D01*
G01*
Y198811*
G75*
G02X216482I-3984*
G01*
Y204811*
X226482D02*
G75*
G02X234450I3984D01*
G01*
Y198811*
G75*
G02X226482I-3984*
G01*
Y204811*
X236482D02*
G75*
G02X244450I3984D01*
G01*
Y198811*
G75*
G02X236482I-3984*
G01*
Y204811*
X246482D02*
G75*
G02X254450I3984D01*
G01*
Y198811*
G75*
G02X246482I-3984*
G01*
Y204811*
X322116Y145796D02*
X324450Y143461D01*
Y140162*
X322116Y137828*
X318817*
X316482Y140162*
Y143461*
X318817Y145796*
X322116*
Y155796D02*
X324450Y153461D01*
Y150162*
X322116Y147828*
X318817*
X316482Y150162*
Y153461*
X318817Y155796*
X322116*
Y165796D02*
X324450Y163461D01*
Y160162*
X322116Y157828*
X318817*
X316482Y160162*
Y163461*
X318817Y165796*
X322116*
Y175796D02*
X324450Y173461D01*
Y170162*
X322116Y167828*
X318817*
X316482Y170162*
Y173461*
X318817Y175796*
X322116*
Y185796D02*
X324450Y183461D01*
Y180162*
X322116Y177828*
X318817*
X316482Y180162*
Y183461*
X318817Y185796*
X322116*
Y195796D02*
X324450Y193461D01*
Y190162*
X322116Y187828*
X318817*
X316482Y190162*
Y193461*
X318817Y195796*
X322116*
Y205796D02*
X324450Y203461D01*
Y200162*
X322116Y197828*
X318817*
X316482Y200162*
Y203461*
X318817Y205796*
X322116*
X332116Y65796D02*
X334450Y63461D01*
Y60162*
X332116Y57828*
X328817*
X326482Y60162*
Y63461*
X328817Y65796*
X332116*
Y75796D02*
X334450Y73461D01*
Y70162*
X332116Y67828*
X328817*
X326482Y70162*
Y73461*
X328817Y75796*
X332116*
Y85796D02*
X334450Y83461D01*
Y80162*
X332116Y77828*
X328817*
X326482Y80162*
Y83461*
X328817Y85796*
X332116*
Y95796D02*
X334450Y93461D01*
Y90162*
X332116Y87828*
X328817*
X326482Y90162*
Y93461*
X328817Y95796*
X332116*
Y105796D02*
X334450Y103461D01*
Y100162*
X332116Y97828*
X328817*
X326482Y100162*
Y103461*
X328817Y105796*
X332116*
Y115796D02*
X334450Y113461D01*
Y110162*
X332116Y107828*
X328817*
X326482Y110162*
Y113461*
X328817Y115796*
X332116*
Y125796D02*
X334450Y123461D01*
Y120162*
X332116Y117828*
X328817*
X326482Y120162*
Y123461*
X328817Y125796*
X332116*
Y135796D02*
X334450Y133461D01*
Y130162*
X332116Y127828*
X328817*
X326482Y130162*
Y133461*
X328817Y135796*
X332116*
Y145796D02*
X334450Y143461D01*
Y140162*
X332116Y137828*
X328817*
X326482Y140162*
Y143461*
X328817Y145796*
X332116*
Y155796D02*
X334450Y153461D01*
Y150162*
X332116Y147828*
X328817*
X326482Y150162*
Y153461*
X328817Y155796*
X332116*
Y165796D02*
X334450Y163461D01*
Y160162*
X332116Y157828*
X328817*
X326482Y160162*
Y163461*
X328817Y165796*
X332116*
Y175796D02*
X334450Y173461D01*
Y170162*
X332116Y167828*
X328817*
X326482Y170162*
Y173461*
X328817Y175796*
X332116*
Y185796D02*
X334450Y183461D01*
Y180162*
X332116Y177828*
X328817*
X326482Y180162*
Y183461*
X328817Y185796*
X332116*
Y195796D02*
X334450Y193461D01*
Y190162*
X332116Y187828*
X328817*
X326482Y190162*
Y193461*
X328817Y195796*
X332116*
Y205796D02*
X334450Y203461D01*
Y200162*
X332116Y197828*
X328817*
X326482Y200162*
Y203461*
X328817Y205796*
X332116*
X326291Y11811D02*
G36*
X325553D01*
Y8905*
X319647*
Y9339*
X314450*
Y8811*
G75*
G02X306482I-3984*
G01*
Y11811*
X304450*
Y8811*
G75*
G02X296482I-3984*
G01*
Y11811*
X294450*
Y8811*
G75*
G02X286482I-3984*
G01*
Y11811*
X284450*
Y8811*
G75*
G02X276482I-3984*
G01*
Y11811*
X274450*
Y8811*
G75*
G02X266482I-3984*
G01*
Y11811*
X264450*
Y8811*
G75*
G02X256482I-3984*
G01*
Y11811*
X254450*
Y8811*
G75*
G02X246482I-3984*
G01*
Y11811*
X244450*
Y8811*
G75*
G02X236482I-3984*
G01*
Y11811*
X224450*
Y8811*
G75*
G02X216482I-3984*
G01*
Y11811*
X214450*
Y8811*
G75*
G02X206482I-3984*
G01*
Y11811*
X204450*
Y8811*
G75*
G02X196482I-3984*
G01*
Y11811*
X194450*
Y8811*
G75*
G02X186482I-3984*
G01*
Y11811*
X184450*
Y8811*
G75*
G02X176482I-3984*
G01*
Y11811*
X174450*
Y8811*
G75*
G02X166482I-3984*
G01*
Y11811*
X164450*
Y8811*
G75*
G02X156482I-3984*
G01*
Y11811*
X154450*
Y8811*
G75*
G02X146482I-3984*
G01*
Y11811*
X134450*
Y8811*
G75*
G02X126482I-3984*
G01*
Y11811*
X125631*
Y8811*
G75*
G02X115466Y7514I-5165J0*
G01*
G75*
G02X105301Y8810I-5000J1296*
G01*
Y8811*
Y11811*
X104450*
Y8811*
G75*
G02X96482I-3984*
G01*
Y11811*
X94450*
Y8811*
G75*
G02X86482I-3984*
G01*
Y11811*
X84450*
Y8811*
G75*
G02X76482I-3984*
G01*
Y11811*
X74450*
Y8811*
G75*
G02X66482I-3984*
G01*
Y11811*
X64450*
Y8811*
G75*
G02X56482I-3984*
G01*
Y11811*
X44057*
G75*
G02X36261I-3898J2302*
G01*
X24372*
G75*
G02X16576I-3898J2302*
G01*
X2594*
Y2594*
X336020*
Y6988*
X326291*
Y11811*
G37*
X146482D02*
G36*
Y14811D01*
G75*
G02X148514Y18284I3985J0*
G01*
X148592Y20657*
X147897*
Y22063*
X2594*
Y11811*
X16576*
G75*
G02X15946Y14113I3898J2302*
G01*
G75*
G02X25002I4528*
G01*
G75*
G02X24372Y11811I-4528*
G01*
X36261*
G75*
G02X35631Y14113I3898J2302*
G01*
G75*
G02X44687I4528*
G01*
G75*
G02X44057Y11811I-4528*
G01*
X56482*
Y14811*
G75*
G02X64450I3984*
G01*
Y11811*
X66482*
Y14811*
G75*
G02X74450I3984*
G01*
Y11811*
X76482*
Y14811*
G75*
G02X84450I3984*
G01*
Y11811*
X86482*
Y14811*
G75*
G02X94450I3984*
G01*
Y11811*
X96482*
Y14811*
G75*
G02X104450I3984*
G01*
Y11811*
X105301*
Y14811*
G75*
G02X115466Y16107I5165J0*
G01*
G75*
G02X125631Y14811I5000J-1296*
G01*
Y14811*
Y11811*
X126482*
Y14811*
G75*
G02X134450I3984*
G01*
Y11811*
X146482*
G37*
X156482D02*
G36*
Y14811D01*
G75*
G02X158514Y18284I3985J0*
G01*
X158592Y20657*
X157897*
Y22063*
X153803*
Y20657*
X152925*
X152838Y18012*
G75*
G02X154450Y14811I-2372J-3202*
G01*
Y11811*
X156482*
G37*
X166482D02*
G36*
Y14811D01*
G75*
G02X168514Y18284I3985J0*
G01*
X168592Y20657*
X167897*
Y22063*
X163803*
Y20657*
X162925*
X162838Y18012*
G75*
G02X164450Y14811I-2372J-3202*
G01*
Y11811*
X166482*
G37*
X176482D02*
G36*
Y14811D01*
G75*
G02X178514Y18284I3985J0*
G01*
X178592Y20657*
X177897*
Y22063*
X173803*
Y20657*
X172925*
X172838Y18012*
G75*
G02X174450Y14811I-2372J-3202*
G01*
Y11811*
X176482*
G37*
X186482D02*
G36*
Y14811D01*
G75*
G02X188514Y18284I3985J0*
G01*
X188592Y20657*
X187897*
Y22063*
X183803*
Y20657*
X182925*
X182838Y18012*
G75*
G02X184450Y14811I-2372J-3202*
G01*
Y11811*
X186482*
G37*
X196482D02*
G36*
Y14811D01*
G75*
G02X198514Y18284I3985J0*
G01*
X198592Y20657*
X197897*
Y22063*
X193803*
Y20657*
X192925*
X192838Y18012*
G75*
G02X194450Y14811I-2372J-3202*
G01*
Y11811*
X196482*
G37*
X336020Y13759D02*
G36*
Y22063D01*
X315661*
X317598Y20126*
X319647*
Y20716*
X325553*
Y20127*
X327472*
Y20452*
X335228*
Y16043*
X331972*
G75*
G02X330965Y15796I-1004J1917*
G01*
X325553*
Y15204*
X319647*
Y15795*
X316703*
G75*
G02X315169Y16430I-2J2167*
G01*
X309703Y21897*
X306850*
G75*
G02X306020Y22063I1J2167*
G01*
X282035*
Y19996*
X268256*
Y22063*
X245421*
Y18815*
X229279*
Y22063*
X203803*
Y20657*
X202925*
X202838Y18012*
G75*
G02X204450Y14811I-2372J-3202*
G01*
Y11811*
X206482*
Y14811*
G75*
G02X214450I3984*
G01*
Y11811*
X216482*
Y14811*
G75*
G02X224450I3984*
G01*
Y11811*
X236482*
Y14811*
G75*
G02X244450I3984*
G01*
Y11811*
X246482*
Y14811*
G75*
G02X254450I3984*
G01*
Y11811*
X256482*
Y14811*
G75*
G02X264450I3984*
G01*
Y11811*
X266482*
Y14811*
G75*
G02X274450I3984*
G01*
Y11811*
X276482*
Y14811*
G75*
G02X284450I3984*
G01*
Y11811*
X286482*
Y14811*
G75*
G02X294450I3984*
G01*
Y11811*
X296482*
Y14811*
G75*
G02X304450I3984*
G01*
Y11811*
X306482*
Y14811*
G75*
G02X314450I3984*
G01*
Y13985*
X319647*
Y14417*
X325553*
Y11811*
X326291*
Y13759*
X336020*
G37*
X229279Y22063D02*
G36*
Y24896D01*
X225246*
G75*
G02X223713Y25531I-2J2167*
G01*
X222181Y27063*
X203803*
Y26956*
X197897*
Y27063*
X193803*
Y26956*
X187897*
Y27063*
X183803*
Y26956*
X177897*
Y27063*
X173803*
Y26956*
X167897*
Y27063*
X163803*
Y26956*
X157897*
Y27063*
X153803*
Y26956*
X147897*
Y27063*
X129033*
G75*
G02X125620Y25930I-3413J4576*
G01*
G75*
G02X122206Y27063I0J5709*
G01*
X109348*
G75*
G02X105935Y25930I-3413J4576*
G01*
G75*
G02X102522Y27063I0J5709*
G01*
X84623*
X83366Y25806*
G75*
G02X81277Y24940I-2089J2087*
G01*
X43591*
G75*
G02X36727I-3432J2953*
G01*
X23906*
G75*
G02X16023Y27063I-3432J2953*
G01*
X2594*
Y22063*
X147897*
Y26169*
X153803*
Y22063*
X157897*
Y26169*
X163803*
Y22063*
X167897*
Y26169*
X173803*
Y22063*
X177897*
Y26169*
X183803*
Y22063*
X187897*
Y26169*
X193803*
Y22063*
X197897*
Y26169*
X203803*
Y22063*
X229279*
G37*
X306020D02*
G36*
G75*
G02X305317Y22533I830J2002D01*
G01*
X300787Y27063*
X282035*
Y24996*
X268256*
Y27063*
X244240*
Y25311*
X245421*
Y22063*
X268256*
Y24130*
X282035*
Y22063*
X306020*
G37*
X333021Y27063D02*
G36*
X332605Y26646D01*
X328328*
X327911Y27063*
X323021*
X322605Y26646*
X318328*
X317911Y27063*
X312361*
G75*
G02X310274Y26228I-3010J4500*
G01*
X310597*
G75*
G02X312131Y25593I2J-2167*
G01*
X315661Y22063*
X336020*
Y27063*
X333021*
G37*
X97771Y41812D02*
G36*
X89462D01*
Y36669*
X87572*
G75*
G02X86509Y36471I-1064J2766*
G01*
X79666*
G75*
G02X78714Y36314I-953J2805*
G01*
X73320*
Y31039*
X63793*
Y40567*
X65740*
G75*
G02X64150Y41812I2817J5236*
G01*
X59898*
G75*
G02X59057Y40805I-5987J4148*
G01*
X54778Y36526*
G75*
G02X49624Y34389I-5154J5144*
G01*
X40266*
X40159Y34388*
G75*
G02X32875Y41672J7284*
G01*
G75*
G02X32876Y41812I7287J8*
G01*
X25000*
G75*
G02X25002Y41672I-4528J-134*
G01*
G75*
G02X15946I-4528*
G01*
G75*
G02X15948Y41812I4530J6*
G01*
X2594*
Y27063*
X16023*
G75*
G02X15946Y27893I4451J830*
G01*
G75*
G02X23906Y30845I4528*
G01*
X36727*
G75*
G02X43591I3432J-2953*
G01*
X80054*
X83557Y34348*
Y35881*
X85452*
G75*
G02X87567I1058J-2756*
G01*
X89462*
Y30370*
X87930*
X84623Y27063*
X102522*
G75*
G02X100226Y31639I3413J4576*
G01*
G75*
G02X103244Y36673I5709*
G01*
G75*
G02X102347Y37230I743J2194*
G01*
X97859Y41719*
G75*
G02X97771Y41812I1643J1641*
G01*
G37*
X122206Y27063D02*
G36*
G75*
G02X119911Y31639I3413J4576D01*
G01*
G75*
G02X122710Y36550I5709*
G01*
X108844*
G75*
G02X111643Y31639I-2910J-4911*
G01*
G75*
G02X109348Y27063I-5709J0*
G01*
X122206*
G37*
X157897D02*
G36*
Y30202D01*
X150453Y37645*
X150350*
G75*
G02X148817Y38281J2165*
G01*
X145748Y41351*
G75*
G02X141930Y41812I-1399J4461*
G01*
X128357*
G75*
G02X127254Y41196I-2739J3610*
G01*
X130039*
G75*
G02X131681Y40515I0J-2322*
G01*
X140312Y31885*
X147897*
Y32468*
X153803*
Y27063*
X157897*
G37*
X147897D02*
G36*
Y27239D01*
X139350*
G75*
G02X137707Y27919I0J2322*
G01*
X129077Y36550*
X128530*
G75*
G02X131328Y31639I-2910J-4911*
G01*
G75*
G02X129033Y27063I-5709J0*
G01*
X147897*
G37*
X167897D02*
G36*
Y29206D01*
G75*
G02X167819Y29281I1165J1304*
G01*
X155749Y41351*
G75*
G02X152831Y41390I-1399J4461*
G01*
G75*
G02X152881Y41342I-1489J-1588*
G01*
X161756Y32468*
X163803*
Y27063*
X167897*
G37*
X177897D02*
G36*
Y29202D01*
X165749Y41351*
G75*
G02X161930Y41812I-1399J4461*
G01*
X161412*
X170247Y32977*
X170850*
G75*
G02X172245Y32468I1J-2163*
G01*
X173803*
Y27063*
X177897*
G37*
X259930Y41812D02*
G36*
X253662D01*
X261247Y34227*
X275145*
G75*
G02X275788Y34130I2J-2153*
G01*
X282035*
Y29996*
X275793*
G75*
G02X275145Y29896I-646J2053*
G01*
X260352*
G75*
G02X258819Y30531I-2J2167*
G01*
X247569Y41781*
G75*
G02X247539Y41812I1533J1524*
G01*
X244240*
Y39996*
X230460*
Y41812*
X223912*
X230460Y35264*
Y39130*
X244240*
Y34996*
X230728*
X231497Y34227*
X237350*
G75*
G02X237993Y34130I2J-2153*
G01*
X244240*
Y29996*
X237998*
G75*
G02X237350Y29896I-646J2053*
G01*
X230602*
G75*
G02X229069Y30531I-2J2167*
G01*
X219069Y40531*
G75*
G02X218449Y41812I1532J1531*
G01*
X210206*
Y39956*
X198494*
Y41812*
X196770*
G75*
G02X191930I-2420J4000*
G01*
X191372*
X201105Y32468*
X203803*
Y27063*
X222181*
X220743Y28500*
G75*
G02X217391Y31706I-143J3206*
G01*
G75*
G02X223809I3209*
G01*
G75*
G02X223806Y31562I-3263*
G01*
X226141Y29227*
X237350*
G75*
G02X237993Y29130I2J-2153*
G01*
X244240*
Y27063*
X268256*
Y29130*
X282035*
Y27063*
X300787*
X300391Y27459*
G75*
G02X295118Y31562I-1041J4102*
G01*
G75*
G02X296744Y34896I4232*
G01*
X293582*
Y27330*
X285118*
Y34896*
X267744*
G75*
G02X266211Y35531I-2J2167*
G01*
X259930Y41812*
G37*
X187897Y27063D02*
G36*
Y29202D01*
X175749Y41351*
G75*
G02X171930Y41812I-1399J4461*
G01*
X171412*
X180756Y32468*
X183803*
Y27063*
X187897*
G37*
X197897D02*
G36*
Y29544D01*
X185635Y41317*
G75*
G02X181930Y41812I-1285J4495*
G01*
X181412*
X190756Y32468*
X193803*
Y27063*
X197897*
G37*
X317911D02*
G36*
X315301Y29673D01*
Y33950*
X316871Y35520*
G75*
G02X315348Y34896I-1522J1544*
G01*
X313615*
G75*
G02X314764Y31562I-4264J-3335*
G01*
G75*
G02X312361Y27063I-5413*
G01*
X317911*
G37*
X334450Y41812D02*
G36*
Y40162D01*
X332116Y37828*
X328817*
X326482Y40162*
Y41812*
X324450*
Y40162*
X322116Y37828*
X319178*
X318328Y36977*
X322605*
X325466Y34116*
X328328Y36977*
X332605*
X335631Y33950*
Y29673*
X333021Y27063*
X336020*
Y41812*
X334450*
G37*
X327911Y27063D02*
G36*
X325466Y29508D01*
X323021Y27063*
X327911*
G37*
X35260Y47063D02*
G36*
X2594D01*
Y41812*
X15948*
G75*
G02X25000I4526J-140*
G01*
X32876*
G75*
G02X35260Y47063I7283J-140*
G01*
G37*
X64150Y41812D02*
G36*
G75*
G02X62612Y45802I4407J3990D01*
G01*
G75*
G02X62747Y47063I5944J1*
G01*
X61194*
Y45959*
Y45959*
G75*
G02X59898Y41812I-7283J0*
G01*
X64150*
G37*
X74580Y47063D02*
G36*
X74366D01*
G75*
G02X74502Y45802I-5809J-1262*
G01*
G75*
G02X73301Y42219I-5945*
G01*
X74580*
Y47063*
G37*
X97179D02*
G36*
X82848D01*
Y42377*
X86509*
G75*
G02X87567Y42181I-2J-2964*
G01*
X89462*
Y41812*
X97771*
G75*
G02X97179Y43361I1730J1549*
G01*
Y43361*
Y47063*
G37*
X141930Y41812D02*
G36*
G75*
G02X139675Y45812I2420J4000D01*
G01*
G75*
G02X139845Y47063I4675J1*
G01*
X138527*
X134795Y43331*
G75*
G02X132706Y42465I-2089J2087*
G01*
X129052*
G75*
G02X128357Y41812I-3434J2956*
G01*
X141930*
G37*
X161930D02*
G36*
G75*
G02X159675Y45811I2420J4000D01*
G01*
G75*
G02X159845Y47063I4676*
G01*
X158855*
G75*
G02X159025Y45811I-4506J-1251*
G01*
G75*
G02X158811Y44413I-4676J0*
G01*
X161412Y41812*
X161930*
G37*
X171930D02*
G36*
G75*
G02X169675Y45812I2420J4000D01*
G01*
G75*
G02X169845Y47063I4676J0*
G01*
X168855*
G75*
G02X169025Y45812I-4505J-1251*
G01*
G75*
G02X168811Y44413I-4676*
G01*
X171412Y41812*
X171930*
G37*
X189845Y47063D02*
G36*
X188855D01*
G75*
G02X189025Y45812I-4505J-1251*
G01*
G75*
G02X188776Y44305I-4687J2*
G01*
X191372Y41812*
X191930*
G75*
G02X189675Y45811I2420J4000*
G01*
Y45812*
G75*
G02Y45813I5013J0*
G01*
G75*
G02X189845Y47063I4674J1*
G01*
G37*
X181930Y41812D02*
G36*
G75*
G02X179675Y45812I2420J4000D01*
G01*
G75*
G02X179845Y47063I4676J0*
G01*
X178855*
G75*
G02X179025Y45812I-4505J-1251*
G01*
G75*
G02X178811Y44413I-4683J1*
G01*
X181412Y41812*
X181930*
G37*
X198494D02*
G36*
Y43647D01*
G75*
G02X196770Y41812I-4144J2165*
G01*
X198494*
G37*
X218449D02*
G36*
G75*
G02X218435Y42062I2152J251D01*
G01*
Y47063*
X210206*
Y41812*
X218449*
G37*
X247539D02*
G36*
G75*
G02X246935Y43312I1562J1500D01*
G01*
Y47063*
X244240*
Y44996*
X230460*
Y47063*
X222765*
Y42959*
X223912Y41812*
X230460*
Y44130*
X244240*
Y41812*
X247539*
G37*
X256076Y47063D02*
G36*
X251265D01*
Y44209*
X253662Y41812*
X259930*
X256711Y45031*
G75*
G02X256076Y46562I1532J1531*
G01*
Y47063*
G37*
X329413D02*
G36*
X327631Y45281D01*
G75*
G02X326098Y44646I-1532J1533*
G01*
X323265*
X324450Y43461*
Y41812*
X326482*
Y43461*
X328817Y45796*
X332116*
X334450Y43461*
Y41812*
X336020*
Y47063*
X329413*
G37*
X46628Y52063D02*
G36*
X43161D01*
G75*
G02X37157I-3002J3389*
G01*
X23476*
G75*
G02X17472I-3002J3389*
G01*
X2594*
Y47063*
X35260*
G75*
G02X40159Y48956I4899J-5391*
G01*
G75*
G02X40266Y48956I27J-3641*
G01*
X46607*
X46628Y48976*
Y52063*
G37*
X62747Y47063D02*
G36*
G75*
G02X66655Y51434I5810J-1261D01*
G01*
G75*
G02X65605Y52063I1902J4367*
G01*
X61194*
Y47063*
X62747*
G37*
X97179D02*
G36*
Y52063D01*
X71508*
G75*
G02X70459Y51434I-2951J3739*
G01*
G75*
G02X74366Y47063I-1902J-5632*
G01*
X74580*
Y49504*
X82848*
Y47063*
X97179*
G37*
X135175Y52063D02*
G36*
X101824D01*
Y47317*
G75*
G02X109367Y48371I4110J-1899*
G01*
X122187*
G75*
G02X129052I3432J-2953*
G01*
X131483*
X135175Y52063*
G37*
X139845Y47063D02*
G36*
G75*
G02X141946Y49822I4505J-1251D01*
G01*
X141286*
X138527Y47063*
X139845*
G37*
X159845D02*
G36*
G75*
G02X161948Y49823I4505J-1251D01*
G01*
G75*
G02X161850Y49822I-123J6156*
G01*
X156754*
G75*
G02X158855Y47063I-2405J-4010*
G01*
X159845*
G37*
X189845D02*
G36*
G75*
G02X191397Y49437I4504J-1250D01*
G01*
Y51312*
G75*
G02X191494Y52063I2953J-1*
G01*
X165892*
X164247Y50691*
G75*
G02X163955Y50470I-2365J2832*
G01*
G75*
G02X164350Y50487I386J-4491*
G01*
G75*
G02X168855Y47063J-4675*
G01*
X169845*
G75*
G02X178855I4505J-1251*
G01*
X179845*
G75*
G02X188855I4505J-1251*
G01*
X189845*
G37*
X217602Y52063D02*
G36*
X199277D01*
X198883Y51669*
X210206*
Y47063*
X218435*
Y48550*
G75*
G02X217391Y50918I2166J2368*
G01*
G75*
G02X217602Y52063I3209*
G01*
G37*
X246935D02*
G36*
X244240D01*
Y49996*
X230460*
Y52063*
X223598*
G75*
G02X223809Y50918I-2998J-1144*
G01*
G75*
G02X222765Y48550I-3209J0*
G01*
Y47063*
X230460*
Y49130*
X244240*
Y47063*
X246935*
Y52063*
G37*
X256076Y47063D02*
G36*
Y52063D01*
X251265*
Y47063*
X256076*
G37*
X310539Y52063D02*
G36*
X307706D01*
Y49230*
X310539Y52063*
G37*
X326482D02*
G36*
X324450D01*
Y50162*
X323265Y48977*
X325203*
X326482Y50256*
Y52063*
G37*
X334450D02*
G36*
Y50162D01*
X332116Y47828*
X330178*
X329413Y47063*
X336020*
Y52063*
X334450*
G37*
X16775Y58063D02*
G36*
X2594D01*
Y52063*
X17472*
G75*
G02X15946Y55452I3002J3389*
G01*
G75*
G02X16775Y58063I4528*
G01*
G37*
X36460D02*
G36*
X24173D01*
G75*
G02X25002Y55452I-3699J-2611*
G01*
G75*
G02X23476Y52063I-4528*
G01*
X37157*
G75*
G02X35631Y55452I3002J3389*
G01*
G75*
G02X36460Y58063I4528*
G01*
G37*
X46628D02*
G36*
X43858D01*
G75*
G02X44687Y55452I-3699J-2611*
G01*
G75*
G02X43161Y52063I-4528*
G01*
X46628*
Y58063*
G37*
X64363D02*
G36*
X61194D01*
Y52063*
X65605*
G75*
G02X63793Y55802I2951J3739*
G01*
Y55802*
G75*
G02X64363Y58063I4764*
G01*
G37*
X97179D02*
G36*
X72750D01*
G75*
G02X73320Y55802I-4193J-2261*
G01*
Y55802*
G75*
G02X71508Y52063I-4763*
G01*
X97179*
Y58063*
G37*
X133297D02*
G36*
X133179D01*
Y54047*
X126722*
Y58063*
X101824*
Y52063*
X135175*
X137139Y54026*
G75*
G02X137502Y55228I3722J-468*
G01*
X137079*
G75*
G02X135420I-830J2834*
G01*
X134202*
Y55934*
G75*
G02X133297Y58062I2048J2128*
G01*
Y58063*
G37*
X196925D02*
G36*
X173086D01*
X165892Y52063*
X191494*
G75*
G02X192263Y53401I2856J-751*
G01*
X196925Y58063*
G37*
X230460D02*
G36*
X219827D01*
G75*
G02X218750Y57859I-1078J2750*
G01*
X205073*
X199277Y52063*
X217602*
G75*
G02X223598I2998J-1144*
G01*
X230460*
Y54130*
X244240*
Y52063*
X246935*
Y56084*
X246381Y55531*
G75*
G02X244848Y54896I-1532J1533*
G01*
X237350*
G75*
G02X236702Y54996I-2J2152*
G01*
X230460*
Y58063*
G37*
X256076Y52063D02*
G36*
Y58063D01*
X251265*
Y52063*
X256076*
G37*
X310539D02*
G36*
X316538Y58063D01*
X305631*
G75*
G02X304017Y56669I-3781J2749*
G01*
X307706*
Y52063*
X310539*
G37*
X332351Y58063D02*
G36*
X332116Y57828D01*
X328817*
X328581Y58063*
X322619*
G75*
G02X322381Y57781I-1771J1251*
G01*
X320396Y55796*
X322116*
X324450Y53461*
Y52063*
X326482*
Y53461*
X328817Y55796*
X332116*
X334450Y53461*
Y52063*
X336020*
Y58063*
X332351*
G37*
X13662Y71812D02*
G36*
X2594D01*
Y58063*
X16775*
G75*
G02X24173I3699J-2611*
G01*
X36460*
G75*
G02X43858I3699J-2611*
G01*
X46628*
Y61368*
X46048Y61948*
X40266*
G75*
G02X40052I-107J7282*
G01*
X20581*
X20474Y61947*
G75*
G02X13190Y69231J7284*
G01*
G75*
G02X13662Y71812I7285*
G01*
G37*
X97179Y58063D02*
G36*
Y62714D01*
X88081Y71812*
X72828*
Y70507*
X64285*
Y71812*
X61194*
Y58063*
X64363*
G75*
G02X72750I4193J-2261*
G01*
X97179*
G37*
X97674Y71812D02*
G36*
X94651D01*
X101144Y65319*
G75*
G02X101824Y63676I-1642J-1642*
G01*
Y63676*
Y58063*
X126722*
Y62078*
X133179*
Y58063*
X133297*
Y62668*
X133298Y62731*
X107978*
G75*
G02X105889Y63597I0J2953*
G01*
X97674Y71812*
G37*
X197202D02*
G36*
X195368D01*
Y59523*
X174837*
X173086Y58063*
X196925*
X201761Y62898*
G75*
G02X203850Y63765I2089J-2087*
G01*
X217526*
X220147Y66385*
Y67377*
G75*
G02X219991Y67198I-1903J1499*
G01*
X219199Y66376*
G75*
G02X217525Y65664I-1674J1612*
G01*
X216116*
Y65626*
X208045*
Y70350*
X215998*
Y70626*
X208045*
Y70822*
X206864*
Y68874*
X200958*
Y69779*
X200131*
G75*
G02X198599Y70415I1J2167*
G01*
X197202Y71812*
G37*
X230460Y58063D02*
G36*
Y59130D01*
X236707*
G75*
G02X237350Y59227I641J-2056*
G01*
X243935*
Y59996*
X237998*
G75*
G02X236702I-648J2067*
G01*
X230460*
Y64130*
X232220*
X232006Y64344*
G75*
G02X231386Y65626I1533J1532*
G01*
X229502*
Y69444*
X228320*
Y71812*
X226526*
X226053Y71339*
Y65162*
G75*
G02X225187Y63073I-2953J0*
G01*
X220839Y58725*
G75*
G02X219827Y58063I-2089J2087*
G01*
X230460*
G37*
X256076D02*
G36*
Y71812D01*
X244265*
Y70477*
X247348*
G75*
G02X248881Y69843I2J-2167*
G01*
X250631Y68093*
G75*
G02X251265Y66562I-1532J-1531*
G01*
Y58063*
X256076*
G37*
X334450Y71812D02*
G36*
Y70162D01*
X332116Y67828*
X328817*
X326482Y70162*
Y71812*
X324450*
Y70162*
X322116Y67828*
X318817*
X316482Y70162*
Y71812*
X306417*
G75*
G02X306525Y70812I-4567J-1000*
G01*
G75*
G02X297175I-4675*
G01*
G75*
G02X297283Y71812I4676J0*
G01*
X289895*
Y63913*
X288714*
Y63765*
X298225*
G75*
G02X306525Y60812I3625J-2953*
G01*
Y60811*
G75*
G02X305631Y58063I-4675*
G01*
X316538*
X317560Y59084*
X316482Y60162*
Y63461*
X318817Y65796*
X322116*
X324450Y63461*
Y60162*
X322898Y58610*
G75*
G02X322619Y58063I-2051J703*
G01*
X328581*
X326482Y60162*
Y63461*
X328817Y65796*
X332116*
X334450Y63461*
Y60162*
X332351Y58063*
X336020*
Y71812*
X334450*
G37*
X48134Y81812D02*
G36*
X45741D01*
G75*
G02X34578I-5581J1199*
G01*
X26056*
G75*
G02X14893I-5581J1199*
G01*
X2594*
Y71812*
X13662*
G75*
G02X20474Y76515I6812J-2581*
G01*
G75*
G02X20581Y76515I27J-3641*
G01*
X40052*
G75*
G02X40266I107J-7282*
G01*
X46628*
Y77371*
Y77375*
Y77377*
Y77377*
G75*
G02X48134Y81812I7282J0*
G01*
G37*
X64285Y71812D02*
G36*
Y77450D01*
X61194Y74360*
Y71812*
X64285*
G37*
X102924Y81812D02*
G36*
X74776D01*
G75*
G02X72387Y79051I-6219J2967*
G01*
X72828*
Y77101*
X88399*
G75*
G02X90042Y76421I0J-2322*
G01*
X94651Y71812*
X97674*
X97018Y72468*
G75*
G02X93492Y76312I332J3844*
G01*
G75*
G02X97350Y80170I3858*
G01*
G75*
G02X101194Y76644I0J-3858*
G01*
X102384Y75453*
G75*
G02X102311Y76311I4966J858*
G01*
G75*
G02X104474Y80450I5040*
G01*
G75*
G02X103761Y80975I1376J2612*
G01*
X102924Y81812*
G37*
X88081Y71812D02*
G36*
X87437Y72456D01*
X72828*
Y71812*
X88081*
G37*
X197202D02*
G36*
X195368Y73645D01*
Y71812*
X197202*
G37*
X228320D02*
G36*
Y73606D01*
X226526Y71812*
X228320*
G37*
X253033Y81812D02*
G36*
X252167D01*
Y77574*
X248033*
Y81812*
X247167*
Y77574*
X244265*
Y71812*
X256076*
Y76668*
G75*
G02X256275Y77574I2171J-1*
G01*
X253033*
Y81812*
G37*
X334450D02*
G36*
Y80162D01*
X332116Y77828*
X328817*
X326482Y80162*
Y81812*
X324450*
Y80162*
X322116Y77828*
X318817*
X316482Y80162*
Y81812*
X306417*
G75*
G02X306525Y80812I-4567J-1000*
G01*
G75*
G02X297175I-4675*
G01*
G75*
G02X297283Y81812I4676J0*
G01*
X292297*
Y77141*
G75*
G02X291663Y75609I-2166J0*
G01*
X288828Y72775*
G75*
G02X288714Y72669I-1536J1536*
G01*
Y71944*
X289895*
Y71812*
X297283*
G75*
G02X306417I4567J-1000*
G01*
X316482*
Y73461*
X318817Y75796*
X322116*
X324450Y73461*
Y71812*
X326482*
Y73461*
X328817Y75796*
X332116*
X334450Y73461*
Y71812*
X336020*
Y81812*
X334450*
G37*
X48134D02*
G36*
G75*
G02X48761Y82527I5776J-4434D01*
G01*
X56163Y89928*
G75*
G02X59421Y91812I5150J-5149*
G01*
X2594*
Y81812*
X14893*
G75*
G02X14765Y83011I5581J1198*
G01*
G75*
G02X26183I5709*
G01*
G75*
G02X26056Y81812I-5709J-1*
G01*
X34578*
G75*
G02X34450Y83011I5581J1198*
G01*
G75*
G02X45868I5709*
G01*
G75*
G02X45741Y81812I-5709J-1*
G01*
X48134*
G37*
X70300Y91812D02*
G36*
X63204D01*
G75*
G02X63675Y91668I-1892J-7036*
G01*
X68452*
G75*
G02X70004Y91515I106J-6876*
G01*
X70300Y91812*
G37*
X102924Y81812D02*
G36*
X101163Y83573D01*
G75*
G02X100297Y85662I2087J2089*
G01*
Y91812*
X99969*
G75*
G02X100061Y91062I-3019J-750*
G01*
G75*
G02X99706Y89620I-3110*
G01*
Y88110*
X97930*
G75*
G02X96950Y87952I-979J2948*
G01*
X91446*
G75*
G02X90839Y88011I-1J3100*
G01*
X88791*
Y89443*
G75*
G02X88336Y91062I2656J1619*
G01*
G75*
G02X88428Y91812I3111*
G01*
X80879*
X75293Y86226*
G75*
G02X75447Y84778I-6737J-1448*
G01*
G75*
G02X74776Y81812I-6890J0*
G01*
X102924*
G37*
X253033D02*
G36*
Y83818D01*
G75*
G02X252935Y84463I2071J646*
G01*
Y91812*
X244412*
X244265Y91665*
Y91354*
X247167*
Y81812*
X248033*
Y91354*
X252167*
Y81812*
X253033*
G37*
X334450Y91812D02*
G36*
Y90162D01*
X332116Y87828*
X328817*
X326482Y90162*
Y91812*
X324450*
Y90162*
X322116Y87828*
X318817*
X316482Y90162*
Y91812*
X306417*
G75*
G02X306525Y90812I-4567J-1000*
G01*
G75*
G02X297175I-4675*
G01*
G75*
G02X297283Y91812I4676J0*
G01*
X292237*
G75*
G02X292297Y91308I-2107J-504*
G01*
Y81812*
X297283*
G75*
G02X306417I4567J-1000*
G01*
X316482*
Y83461*
X318817Y85796*
X322116*
X324450Y83461*
Y81812*
X326482*
Y83461*
X328817Y85796*
X332116*
X334450Y83461*
Y81812*
X336020*
Y91812*
X334450*
G37*
X80300Y101812D02*
G36*
X73290D01*
G75*
G02X72437Y99994I-2941J272*
G01*
X67811Y95369*
G75*
G02X65722Y94503I-2089J2087*
G01*
X34777*
G75*
G02X32688Y95369I0J2953*
G01*
X27494Y100563*
G75*
G02X26750Y101812I2087J2089*
G01*
X2594*
Y91812*
X59421*
G75*
G02X63204I1892J-7033*
G01*
X70300*
X80300Y101812*
G37*
X65902D02*
G36*
X34597D01*
X36000Y100408*
X64499*
X65902Y101812*
G37*
X88428Y91812D02*
G36*
G75*
G02X88791Y92681I3019J-750D01*
G01*
Y93523*
X87610*
Y98543*
X80879Y91812*
X88428*
G37*
X107861Y101812D02*
G36*
X103005D01*
X102149Y100956*
G75*
G02X99502Y99858I-2647J2642*
G01*
X95090*
Y94172*
X96950*
G75*
G02X97925Y94015I1J-3106*
G01*
X99706*
Y92504*
G75*
G02X99969Y91812I-2756J-1442*
G01*
X100297*
Y93024*
G75*
G02X101163Y95113I2953J0*
G01*
X107861Y101812*
G37*
X252935Y91812D02*
G36*
Y93584D01*
X252131Y92781*
G75*
G02X250598Y92146I-1532J1533*
G01*
X244747*
X244412Y91812*
X252935*
G37*
X334450Y101812D02*
G36*
Y100162D01*
X332116Y97828*
X328817*
X326482Y100162*
Y101812*
X324450*
Y100162*
X322116Y97828*
X318817*
X316482Y100162*
Y101812*
X306417*
G75*
G02X306525Y100812I-4567J-1000*
G01*
G75*
G02X297175I-4675*
G01*
G75*
G02X297283Y101812I4676J0*
G01*
X295912*
X289301Y95201*
X291663Y92839*
G75*
G02X292237Y91812I-1532J-1531*
G01*
X297283*
G75*
G02X306417I4567J-1000*
G01*
X316482*
Y93461*
X318817Y95796*
X322116*
X324450Y93461*
Y91812*
X326482*
Y93461*
X328817Y95796*
X332116*
X334450Y93461*
Y91812*
X336020*
Y101812*
X334450*
G37*
X26750D02*
G36*
G75*
G02X26628Y102652I2831J842D01*
G01*
Y105034*
G75*
G02X23008Y107837I749J4706*
G01*
G75*
G02X11431Y109739I-5632J1902*
G01*
G75*
G02X11534Y110842I5945*
G01*
X2594*
Y101812*
X26750*
G37*
X65902D02*
G36*
X67397Y103307D01*
Y104225*
G75*
G02X66078Y107312I2953J3087*
G01*
G75*
G02X67944Y110842I4272*
G01*
X64622*
Y103039*
X56078*
Y106294*
X54858Y107515*
G75*
G02X53759Y110162I2642J2648*
G01*
Y110842*
X42139*
Y104976*
X32612*
Y110842*
X32385*
G75*
G02X32112Y110246I-2800J921*
G01*
G75*
G02X32139Y109743I-4633J-502*
G01*
G75*
G02Y109739I-4772J-2*
G01*
G75*
G02X32094Y109083I-4810J3*
G01*
G75*
G02X32533Y107535I-2513J-1549*
G01*
Y107534*
Y103876*
X34597Y101812*
X65902*
G37*
X91116Y110842D02*
G36*
X72756D01*
G75*
G02X74622Y107312I-2406J-3530*
G01*
G75*
G02X73303Y104225I-4272J0*
G01*
Y102083*
G75*
G02X73290Y101812I-2953J1*
G01*
X80300*
X84731Y106243*
G75*
G02X87377Y107338I2646J-2646*
G01*
X91116*
Y110842*
G37*
X107861Y101812D02*
G36*
X112877Y106828D01*
G75*
G02X115104Y109442I3473J-704*
G01*
G75*
G02X112835Y110842I1246J4557*
G01*
X105840*
Y106196*
G75*
G02Y106195I-3759J0*
G01*
G75*
G02X104741Y103548I-3738*
G01*
X103005Y101812*
X107861*
G37*
X126391Y110842D02*
G36*
X119865D01*
G75*
G02X117596Y109442I-3515J3157*
G01*
G75*
G02X118309Y109078I-1243J-3311*
G01*
X126407*
G75*
G02X126391Y109380I2902J303*
G01*
Y109381*
Y110842*
G37*
X334450D02*
G36*
Y110162D01*
X332116Y107828*
X328817*
X326482Y110162*
Y110842*
X324450*
Y110162*
X322116Y107828*
X318817*
X316482Y110162*
Y110842*
X306525*
G75*
G02Y110812I-4697J-15*
G01*
G75*
G02X297515Y109060I-4675*
G01*
Y104312*
G75*
G02X296881Y102781I-2166J0*
G01*
X295912Y101812*
X297283*
G75*
G02X306417I4567J-1000*
G01*
X316482*
Y103461*
X318817Y105796*
X322116*
X324450Y103461*
Y101812*
X326482*
Y103461*
X328817Y105796*
X332116*
X334450Y103461*
Y101812*
X336020*
Y110842*
X334450*
G37*
X11534D02*
G36*
G75*
G02X23008Y111641I5842J-1103D01*
G01*
G75*
G02X26409Y114404I4367J-1902*
G01*
X20326Y120487*
X20289*
Y120291*
X11628*
Y119700*
X4147*
Y121812*
X2594*
Y110842*
X11534*
G37*
X53759D02*
G36*
Y120547D01*
X47972*
Y121812*
X45256*
Y121358*
X40137*
Y120177*
X32263*
Y121812*
X27352*
X31667Y117497*
G75*
G02X32533Y115408I-2087J-2089*
G01*
Y111765*
G75*
G02Y111764I-3007J0*
G01*
G75*
G02X32385Y110842I-2948J0*
G01*
X32612*
Y114504*
X42139*
Y110842*
X53759*
G37*
X68360Y121812D02*
G36*
X61240D01*
Y111711*
X61369Y111582*
X64622*
Y110842*
X67944*
G75*
G02X70350Y111583I2406J-3530*
G01*
G75*
G02X72756Y110842J-4272*
G01*
X91116*
Y113401*
X86588*
Y112220*
X78714*
Y120488*
X86588*
Y119307*
X87112*
G75*
G02X87419Y119693I1850J-1154*
G01*
X89356Y121630*
X75840*
Y120448*
X68360*
Y121812*
G37*
X126391Y110842D02*
G36*
Y121812D01*
X105840*
Y110842*
X112835*
G75*
G02X111626Y113999I3515J3157*
G01*
G75*
G02X116350Y118723I4724*
G01*
G75*
G02X121074Y113999J-4724*
G01*
G75*
G02X119865Y110842I-4724*
G01*
X126391*
G37*
X334450Y121812D02*
G36*
Y120162D01*
X332116Y117828*
X328817*
X326482Y120162*
Y121812*
X324450*
Y120162*
X322116Y117828*
X318817*
X316482Y120162*
Y121812*
X306417*
G75*
G02X306525Y120812I-4568J-1000*
G01*
G75*
G02X297515Y119060I-4675*
G01*
Y112563*
G75*
G02X306525Y110842I4335J-1752*
G01*
X316482*
Y113461*
X318817Y115796*
X322116*
X324450Y113461*
Y110842*
X326482*
Y113461*
X328817Y115796*
X332116*
X334450Y113461*
Y110842*
X336020*
Y121812*
X334450*
G37*
X23610Y131106D02*
G36*
X2594D01*
Y121812*
X4147*
Y127181*
X11628*
Y126590*
X20289*
Y126393*
X21549*
G75*
G02X23638Y125526I0J-2953*
G01*
X27352Y121812*
X32263*
Y128007*
X31090*
Y126826*
X23610*
Y131106*
G37*
X47972Y121812D02*
G36*
Y123622D01*
X47131Y122781*
G75*
G02X45598Y122146I-1532J1533*
G01*
X45256*
Y121812*
X47972*
G37*
X68360D02*
G36*
Y129976D01*
X61090*
Y125609*
G75*
G02X61240Y124565I-3569J-1044*
G01*
G75*
G02Y124562I-3923J-2*
G01*
Y121812*
X68360*
G37*
X127297Y131106D02*
G36*
X126273D01*
Y124385*
X119817*
Y129795*
X114021*
Y131106*
X112998*
Y130976*
X112291*
X109124Y127810*
G75*
G02X107035Y126944I-2089J2087*
G01*
X105840*
Y121812*
X126391*
Y128400*
G75*
G02X127297Y130528I2954*
G01*
Y131106*
G37*
X334450D02*
G36*
Y130162D01*
X332116Y127828*
X328817*
X326482Y130162*
Y131106*
X324450*
Y130162*
X322116Y127828*
X318817*
X316482Y130162*
Y131106*
X306516*
G75*
G02X306525Y130812I-4667J-297*
G01*
G75*
G02X297515Y129060I-4675*
G01*
Y122563*
G75*
G02X306417Y121812I4335J-1752*
G01*
X316482*
Y123461*
X318817Y125796*
X322116*
X324450Y123461*
Y121812*
X326482*
Y123461*
X328817Y125796*
X332116*
X334450Y123461*
Y121812*
X336020*
Y131106*
X334450*
G37*
X23610D02*
G36*
Y141812D01*
X2594*
Y131106*
X23610*
G37*
X127336Y141812D02*
G36*
X90840D01*
Y138165*
X104659*
Y132849*
X105812*
X108863Y135900*
G75*
G02X108903Y135940I2089J-2069*
G01*
Y136645*
X110120*
G75*
G02X111781I831J-2833*
G01*
X112998*
Y135940*
G75*
G02X113903Y133812I-2047J-2128*
G01*
G75*
G02X113038Y131724I-2952*
G01*
X112998Y131683*
Y131106*
X114021*
Y137826*
X120478*
Y132417*
X126273*
Y131106*
X127297*
Y131236*
X128520*
G75*
G02X128946Y131326I824J-2830*
G01*
X127970Y132302*
G75*
G02X127336Y133833I1532J1531*
G01*
Y141812*
G37*
X316482Y131106D02*
G36*
Y132959D01*
X315396Y134146*
X305127*
G75*
G02X306516Y131106I-3278J-3335*
G01*
X316482*
G37*
X334450Y141812D02*
G36*
Y140162D01*
X332116Y137828*
X328817*
X326482Y140162*
Y141812*
X324450*
Y140162*
X322116Y137828*
X318817*
X316482Y140162*
Y141812*
X315881*
G75*
G02X315381Y141031I-2032J750*
G01*
X312828Y138477*
X316348*
G75*
G02X317948Y137773I2J-2166*
G01*
X319756Y135796*
X322116*
X324450Y133461*
Y131106*
X326482*
Y133461*
X328817Y135796*
X332116*
X334450Y133461*
Y131106*
X336020*
Y141812*
X334450*
G37*
X16935Y151812D02*
G36*
X2594D01*
Y141812*
X23610*
Y145724*
X30185*
Y146665*
X29703Y147146*
X21352*
G75*
G02X19819Y147781I-2J2167*
G01*
X17569Y150031*
G75*
G02X16935Y151562I1532J1531*
G01*
Y151812*
G37*
X127336D02*
G36*
X90840D01*
Y141812*
X127336*
Y151812*
G37*
X334450D02*
G36*
Y150162D01*
X332116Y147828*
X328817*
X326482Y150162*
Y151812*
X324450*
Y150162*
X322116Y147828*
X318817*
X316482Y150162*
Y151812*
X316015*
Y142562*
G75*
G02X315881Y141812I-2166J1*
G01*
X316482*
Y143461*
X318817Y145796*
X322116*
X324450Y143461*
Y141812*
X326482*
Y143461*
X328817Y145796*
X332116*
X334450Y143461*
Y141812*
X336020*
Y151812*
X334450*
G37*
X16935Y161812D02*
G36*
X2594D01*
Y151812*
X16935*
Y161812*
G37*
X127336D02*
G36*
X108261D01*
Y152535*
X90840*
Y151812*
X127336*
Y161812*
G37*
X334450D02*
G36*
Y160162D01*
X332116Y157828*
X328817*
X326482Y160162*
Y161812*
X324450*
Y160162*
X322116Y157828*
X318817*
X316482Y160162*
Y161812*
X316015*
Y151812*
X316482*
Y153461*
X318817Y155796*
X322116*
X324450Y153461*
Y151812*
X326482*
Y153461*
X328817Y155796*
X332116*
X334450Y153461*
Y151812*
X336020*
Y161812*
X334450*
G37*
X16935Y171812D02*
G36*
X2594D01*
Y161812*
X16935*
Y171812*
G37*
X127336Y161812D02*
G36*
Y171812D01*
X126172*
G75*
G02X126771Y169267I-5110J-2545*
G01*
G75*
G02X121063Y163558I-5709*
G01*
X108261*
Y161812*
X127336*
G37*
X198806Y171812D02*
G36*
X194846D01*
X193993Y170959*
X197953*
X198806Y171812*
G37*
X207876D02*
G36*
X204930D01*
X201007Y167889*
X203953*
X207876Y171812*
G37*
X334450D02*
G36*
Y170162D01*
X332116Y167828*
X328817*
X326482Y170162*
Y171812*
X324450*
Y170162*
X322116Y167828*
X318817*
X316482Y170162*
Y171812*
X316015*
Y161812*
X316482*
Y163461*
X318817Y165796*
X322116*
X324450Y163461*
Y161812*
X326482*
Y163461*
X328817Y165796*
X332116*
X334450Y163461*
Y161812*
X336020*
Y171812*
X334450*
G37*
X16935D02*
G36*
Y181812D01*
X2594*
Y171812*
X16935*
G37*
X127336D02*
G36*
Y181812D01*
X125668*
G75*
G02X121435Y178891I-4233J1606*
G01*
G75*
G02X117301Y181572J4528*
G01*
X117061Y181812*
X108261*
Y174975*
X121063*
G75*
G02X126172Y171812J-5709*
G01*
X127336*
G37*
X136887Y181812D02*
G36*
X131667D01*
Y175577*
X135030Y178941*
G75*
G02X136673Y179621I1642J-1642*
G01*
X138654*
G75*
G02X136887Y181812I2466J3797*
G01*
G37*
X207876Y171812D02*
G36*
X212176Y176111D01*
G75*
G02X212118Y176811I4170J700*
G01*
G75*
G02Y176812I3759J0*
G01*
G75*
G02X212248Y177852I4240J-2*
G01*
X208288Y181812*
X162803*
Y180956*
X156897*
Y181812*
X145353*
G75*
G02X143585Y179621I-4233J1606*
G01*
X156897*
Y180169*
X162803*
Y175227*
X164853*
X167765Y178140*
Y179960*
X169897*
G75*
G02X170600Y180078I704J-2050*
G01*
X183658*
G75*
G02X190582Y176812I2692J-3266*
G01*
G75*
G02X189317Y173794I-4232J0*
G01*
X190703*
X192347Y175438*
G75*
G02X192118Y176812I4003J1374*
G01*
G75*
G02X196350Y181044I4232*
G01*
G75*
G02X200582Y176812J-4232*
G01*
Y176811*
G75*
G02X195669Y172635I-4232*
G01*
X194846Y171812*
X198806*
X202369Y175375*
G75*
G02X202118Y176812I3981J1436*
G01*
G75*
G02X206350Y181044I4232*
G01*
G75*
G02X210582Y176812J-4232*
G01*
G75*
G02X206350Y172580I-4232*
G01*
G75*
G02X205742Y172624I-1J4207*
G01*
X204930Y171812*
X207876*
G37*
X216537Y181812D02*
G36*
X214412D01*
X215310Y180914*
G75*
G02X215723Y180998I1044J-4107*
G01*
X216537Y181812*
G37*
X334450D02*
G36*
Y180162D01*
X332116Y177828*
X328817*
X326482Y180162*
Y181812*
X324450*
Y180162*
X322116Y177828*
X318817*
X316482Y180162*
Y181812*
X316015*
Y171812*
X316482*
Y173461*
X318817Y175796*
X322116*
X324450Y173461*
Y171812*
X326482*
Y173461*
X328817Y175796*
X332116*
X334450Y173461*
Y171812*
X336020*
Y181812*
X334450*
G37*
X16935Y191812D02*
G36*
X2594D01*
Y181812*
X16935*
Y191812*
G37*
X117061Y181812D02*
G36*
X114051Y184822D01*
X108261*
Y181812*
X117061*
G37*
X128189Y191812D02*
G36*
X117451D01*
G75*
G02X118248Y191204I-1851J-3250*
G01*
X121506Y187945*
G75*
G02X125962Y183418I-71J-4527*
G01*
G75*
G02X125668Y181812I-4528*
G01*
X127336*
Y190062*
G75*
G02X127970Y191593I2166J0*
G01*
X128189Y191812*
G37*
X156897Y181812D02*
G36*
Y186468D01*
X158301*
Y191812*
X134314*
X131667Y189165*
Y181812*
X136887*
G75*
G02X136592Y183418I4233J1606*
G01*
G75*
G02X141120Y187946I4528*
G01*
G75*
G02X145647Y183418J-4528*
G01*
G75*
G02X145353Y181812I-4527*
G01*
X156897*
G37*
X216537D02*
G36*
X224319Y189593D01*
G75*
G02X225852Y190227I1532J-1533*
G01*
X262622*
X261038Y191812*
X162631*
Y186468*
X162803*
Y181812*
X208288*
X208054Y182046*
X170600*
G75*
G02X169893Y182165J2164*
G01*
X167765*
Y186259*
X169897*
G75*
G02X170600Y186377I704J-2050*
G01*
X208948*
G75*
G02X210481Y185743I2J-2167*
G01*
X214412Y181812*
X216537*
G37*
X334450Y191812D02*
G36*
Y190162D01*
X332116Y187828*
X328817*
X326482Y190162*
Y191812*
X324450*
Y190162*
X322116Y187828*
X318817*
X316482Y190162*
Y191812*
X314162*
X315381Y190593*
G75*
G02X316015Y189062I-1532J-1531*
G01*
Y181812*
X316482*
Y183461*
X318817Y185796*
X322116*
X324450Y183461*
Y181812*
X326482*
Y183461*
X328817Y185796*
X332116*
X334450Y183461*
Y181812*
X336020*
Y191812*
X334450*
G37*
X16935D02*
G36*
Y192312D01*
G75*
G02X17569Y193843I2166J0*
G01*
X18819Y195093*
G75*
G02X20352Y195727I1532J-1533*
G01*
X22943*
G75*
G02X21482Y198811I2525J3084*
G01*
Y201811*
X2594*
Y191812*
X16935*
G37*
X31482Y201811D02*
G36*
X29450D01*
Y198811*
G75*
G02X27989Y195727I-3986J1*
G01*
X32943*
G75*
G02X31482Y198811I2525J3084*
G01*
Y201811*
G37*
X41482D02*
G36*
X39450D01*
Y198811*
G75*
G02X37989Y195727I-3986J1*
G01*
X42943*
G75*
G02X41482Y198811I2525J3084*
G01*
Y201811*
G37*
X51482D02*
G36*
X49450D01*
Y198811*
G75*
G02X47989Y195727I-3986J1*
G01*
X52943*
G75*
G02X51482Y198811I2525J3084*
G01*
Y201811*
G37*
X61482D02*
G36*
X59450D01*
Y198811*
G75*
G02X57989Y195727I-3986J1*
G01*
X62943*
G75*
G02X61482Y198811I2525J3084*
G01*
Y201811*
G37*
X71482D02*
G36*
X69450D01*
Y198811*
G75*
G02X69446Y198636I-4808J21*
G01*
X71482Y200771*
Y201811*
G37*
X126482D02*
G36*
X119450D01*
Y198811*
G75*
G02X111482I-3984*
G01*
Y201811*
X109450*
Y198811*
G75*
G02X101482I-3984*
G01*
Y201811*
X99450*
Y198811*
G75*
G02X91482I-3984*
G01*
Y201811*
X89450*
Y198811*
G75*
G02X81482I-3984*
G01*
Y201811*
X79450*
Y198811*
G75*
G02X72786Y195863I-3984*
G01*
X69391Y192302*
X115600*
G75*
G02X117451Y191812J-3741*
G01*
X128189*
X131290Y194913*
G75*
G02X126482Y198811I-824J3898*
G01*
Y201811*
G37*
X156482D02*
G36*
X154450D01*
Y198811*
G75*
G02X146482I-3984*
G01*
Y201811*
X144450*
Y198811*
Y198810*
G75*
G02X138104Y195602I-3984*
G01*
X134314Y191812*
X158301*
Y195466*
G75*
G02X156482Y198811I2166J3345*
G01*
Y201811*
G37*
X136482D02*
G36*
X134450D01*
Y198811*
G75*
G02X134364Y197987I-3990J1*
G01*
X136482Y200104*
Y201811*
G37*
X261038Y191812D02*
G36*
X259319Y193531D01*
G75*
G02X258688Y194941I1532J1531*
G01*
X258670Y195254*
G75*
G02X256482Y198811I1796J3557*
G01*
Y201811*
X254450*
Y198811*
G75*
G02X246482I-3984*
G01*
Y201811*
X244450*
Y198811*
G75*
G02X236482I-3984*
G01*
Y201811*
X234450*
Y198811*
G75*
G02X226482I-3984*
G01*
Y201811*
X224450*
Y198811*
G75*
G02X216482I-3984*
G01*
Y201811*
X204450*
Y198811*
G75*
G02X196482I-3984*
G01*
Y201811*
X194450*
Y198811*
G75*
G02X186482I-3984*
G01*
Y201811*
X184450*
Y198811*
G75*
G02X176482I-3984*
G01*
Y201811*
X174450*
Y198811*
G75*
G02X166482I-3984*
G01*
Y201811*
X164450*
Y198811*
G75*
G02X162631Y195466I-3985J0*
G01*
Y191812*
X261038*
G37*
X266482Y201811D02*
G36*
X264450D01*
Y198811*
G75*
G02X263128Y195846I-3984*
G01*
X265997Y192977*
X270622*
X269319Y194281*
G75*
G02X268772Y195205I1530J1530*
G01*
G75*
G02X266482Y198811I1694J3606*
G01*
Y201811*
G37*
X276482D02*
G36*
X274450D01*
Y198811*
G75*
G02X273498Y196226I-3984J0*
G01*
X273747Y195977*
X277665*
G75*
G02X276482Y198809I2799J2832*
G01*
G75*
G02Y198811I4511J1*
G01*
Y201811*
G37*
X286482D02*
G36*
X284450D01*
Y198811*
G75*
G02Y198809I-4511J0*
G01*
G75*
G02X283267Y195977I-3982*
G01*
X287665*
G75*
G02X286482Y198809I2799J2832*
G01*
G75*
G02Y198811I4511J1*
G01*
Y201811*
G37*
X334450D02*
G36*
Y200162D01*
X332116Y197828*
X328817*
X326482Y200162*
Y201811*
X324450*
Y200162*
X322116Y197828*
X318817*
X316482Y200162*
Y201811*
X294450*
Y198811*
G75*
G02Y198809I-4511J0*
G01*
G75*
G02X293267Y195977I-3982*
G01*
X309098*
G75*
G02X310631Y195343I2J-2167*
G01*
X314162Y191812*
X316482*
Y193461*
X318817Y195796*
X322116*
X324450Y193461*
Y191812*
X326482*
Y193461*
X328817Y195796*
X332116*
X334450Y193461*
Y191812*
X336020*
Y201811*
X334450*
G37*
X294450D02*
G36*
X316482D01*
Y203461*
X318817Y205796*
X322116*
X324450Y203461*
Y201811*
X326482*
Y203461*
X328817Y205796*
X332116*
X334450Y203461*
Y201811*
X336020*
Y210106*
X2594*
Y201811*
X21482*
Y204811*
G75*
G02X29450I3984*
G01*
Y201811*
X31482*
Y204811*
G75*
G02X39450I3984*
G01*
Y201811*
X41482*
Y204811*
G75*
G02X49450I3984*
G01*
Y201811*
X51482*
Y204811*
G75*
G02X59450I3984*
G01*
Y201811*
X61482*
Y204811*
G75*
G02X69450I3984*
G01*
Y201811*
X71482*
Y204811*
G75*
G02X79450I3984*
G01*
Y201811*
X81482*
Y204811*
G75*
G02X89450I3984*
G01*
Y201811*
X91482*
Y204811*
G75*
G02X99450I3984*
G01*
Y201811*
X101482*
Y204811*
G75*
G02X109450I3984*
G01*
Y201811*
X111482*
Y204811*
G75*
G02X119450I3984*
G01*
Y201811*
X126482*
Y204811*
G75*
G02X134450I3984*
G01*
Y201811*
X136482*
Y204811*
G75*
G02X144450I3984*
G01*
Y201811*
X146482*
Y204811*
G75*
G02X154450I3984*
G01*
Y201811*
X156482*
Y204811*
G75*
G02X164450I3984*
G01*
Y201811*
X166482*
Y204811*
G75*
G02X174450I3984*
G01*
Y201811*
X176482*
Y204811*
G75*
G02X184450I3984*
G01*
Y201811*
X186482*
Y204811*
G75*
G02X194450I3984*
G01*
Y201811*
X196482*
Y204811*
G75*
G02X204450I3984*
G01*
Y201811*
X216482*
Y204811*
G75*
G02X224450I3984*
G01*
Y201811*
X226482*
Y204811*
G75*
G02X234450I3984*
G01*
Y201811*
X236482*
Y204811*
G75*
G02X244450I3984*
G01*
Y201811*
X246482*
Y204811*
G75*
G02X254450I3984*
G01*
Y201811*
X256482*
Y204811*
G75*
G02X264450I3984*
G01*
Y201811*
X266482*
Y204811*
G75*
G02X274450I3984*
G01*
Y201811*
X276482*
Y204811*
G75*
G02X284450I3984*
G01*
Y201811*
X286482*
Y204811*
G75*
G02X294450I3984*
G01*
Y201811*
G37*
X112887Y86677D02*
X106411D01*
X107073Y86015*
X112850*
G75*
G02X114939Y85148I0J-2953*
G01*
X118937Y81151*
G75*
G02X119793Y79298I-2086J-2089*
G01*
G75*
G02X117350Y72454I-2443J-2986*
G01*
G75*
G02X113835Y77902J3858*
G01*
X111627Y80109*
X110663*
G75*
G02X107350Y71272I-3313J-3797*
G01*
G75*
G02X106491Y71346I0J5041*
G01*
X109201Y68637*
X129347*
G75*
G02X128522Y69153I706J2047*
G01*
X122774Y74901*
G75*
G02X122139Y76432I1531J1531*
G01*
Y83330*
X121282Y84188*
X117693*
G75*
G02X116159Y84822I-2J2165*
G01*
X113719Y87263*
G75*
G02X113297Y87858I1531J1531*
G01*
X112887*
Y86677*
G36*
X106411*
X107073Y86015*
X112850*
G75*
G02X114939Y85148I0J-2953*
G01*
X118937Y81151*
G75*
G02X119793Y79298I-2086J-2089*
G01*
G75*
G02X117350Y72454I-2443J-2986*
G01*
G75*
G02X113835Y77902J3858*
G01*
X111627Y80109*
X110663*
G75*
G02X107350Y71272I-3313J-3797*
G01*
G75*
G02X106491Y71346I0J5041*
G01*
X109201Y68637*
X129347*
G75*
G02X128522Y69153I706J2047*
G01*
X122774Y74901*
G75*
G02X122139Y76432I1531J1531*
G01*
Y83330*
X121282Y84188*
X117693*
G75*
G02X116159Y84822I-2J2165*
G01*
X113719Y87263*
G75*
G02X113297Y87858I1531J1531*
G01*
X112887*
Y86677*
G37*
X117053Y102652D02*
X109346Y94944D01*
X112887*
Y93763*
X117013*
Y94944*
X124887*
Y93763*
X129817*
Y99425*
X140421*
X138837Y101009*
G75*
G02X138202Y102540I1531J1531*
G01*
Y103007*
X133439*
Y103172*
X118309*
G75*
G02X117053Y102652I-1959J2953*
G01*
G36*
X109346Y94944*
X112887*
Y93763*
X117013*
Y94944*
X124887*
Y93763*
X129817*
Y99425*
X140421*
X138837Y101009*
G75*
G02X138202Y102540I1531J1531*
G01*
Y103007*
X133439*
Y103172*
X118309*
G75*
G02X117053Y102652I-1959J2953*
G01*
G37*
X215185Y120165D02*
X213762Y121588D01*
G75*
G02X214263Y119312I-4911J-2276*
G01*
G75*
G02X203437I-5413*
G01*
G75*
G02X204402Y122396I5413J0*
G01*
X202859*
X197174Y116712*
G75*
G02X195641Y116078I-1531J1531*
G01*
X170525*
Y101846*
X195368*
Y100142*
X204619Y109393*
G75*
G02X213082Y109312I4231J-81*
G01*
G75*
G02X206904Y105554I-4232*
G01*
X204893Y103543*
X213082*
Y95078*
X204618*
Y95238*
X203576Y94196*
X208637*
Y93015*
X212972*
Y94578*
X219429*
Y87349*
X219963Y86815*
G75*
G02X220147Y86607I-1643J-1642*
G01*
Y88777*
G75*
G02X220452Y92690I2353J1785*
G01*
Y93397*
X221676*
G75*
G02X222500Y93515I824J-2835*
G01*
X223100*
G75*
G02X223924Y93397J-2953*
G01*
X224547*
Y93136*
G75*
G02X226053Y90562I-1447J-2574*
G01*
Y79691*
X226436Y80074*
G75*
G02X228525Y80940I2089J-2087*
G01*
X229502*
Y85350*
X237572*
Y84409*
X239935Y82047*
Y91334*
X237631Y89031*
G75*
G02X236098Y88396I-1531J1531*
G01*
X231352*
G75*
G02X229819Y89031I-2J2165*
G01*
X215819Y103031*
G75*
G02X215185Y104562I1531J1531*
G01*
Y120165*
G36*
X213762Y121588*
G75*
G02X214263Y119312I-4911J-2276*
G01*
G75*
G02X203437I-5413*
G01*
G75*
G02X204402Y122396I5413J0*
G01*
X202859*
X197174Y116712*
G75*
G02X195641Y116078I-1531J1531*
G01*
X170525*
Y101846*
X195368*
Y100142*
X204619Y109393*
G75*
G02X213082Y109312I4231J-81*
G01*
G75*
G02X206904Y105554I-4232*
G01*
X204893Y103543*
X213082*
Y95078*
X204618*
Y95238*
X203576Y94196*
X208637*
Y93015*
X212972*
Y94578*
X219429*
Y87349*
X219963Y86815*
G75*
G02X220147Y86607I-1643J-1642*
G01*
Y88777*
G75*
G02X220452Y92690I2353J1785*
G01*
Y93397*
X221676*
G75*
G02X222500Y93515I824J-2835*
G01*
X223100*
G75*
G02X223924Y93397J-2953*
G01*
X224547*
Y93136*
G75*
G02X226053Y90562I-1447J-2574*
G01*
Y79691*
X226436Y80074*
G75*
G02X228525Y80940I2089J-2087*
G01*
X229502*
Y85350*
X237572*
Y84409*
X239935Y82047*
Y91334*
X237631Y89031*
G75*
G02X236098Y88396I-1531J1531*
G01*
X231352*
G75*
G02X229819Y89031I-2J2165*
G01*
X215819Y103031*
G75*
G02X215185Y104562I1531J1531*
G01*
Y120165*
G37*
X267787Y152700D02*
Y152425D01*
X269657*
Y147700*
X261586*
Y152425*
X263456*
Y152700*
X261586*
Y152958*
G75*
G02X260569Y153531I514J2104*
G01*
X260004Y154095*
G75*
G02X259381Y152781I-2154J217*
G01*
X258131Y151531*
G75*
G02X256598Y150896I-1531J1531*
G01*
X222747*
X222328Y150477*
X256598*
G75*
G02X258131Y149843I2J-2165*
G01*
X260747Y147227*
X261586*
Y147425*
X269657*
Y142700*
X261586*
Y142896*
X259852*
G75*
G02X258319Y143531I-2J2165*
G01*
X255703Y146146*
X180497*
X178131Y143781*
X178131*
X174381Y140031*
G75*
G02X172847Y139397I-1531J1531*
G01*
X140350*
G75*
G02X138817Y140033J2165*
G01*
X135842Y143007*
X134895*
Y138782*
X138527Y135192*
X173281*
Y137496*
X177100*
Y138677*
X183990*
Y137496*
X187809*
Y128244*
X183990*
Y127063*
X177100*
Y128244*
X173281*
Y130546*
X137572*
G75*
G02X135938Y131218J2323*
G01*
X131667Y135441*
Y134730*
X141899Y124498*
G75*
G02X142533Y122967I-1531J-1531*
G01*
Y103437*
X143515Y102456*
X148161*
G75*
G02X149694Y101821I2J-2165*
G01*
X151111Y100404*
G75*
G02X151746Y98873I-1531J-1531*
G01*
Y93912*
G75*
G02X151111Y92381I-2165*
G01*
X147883Y89153*
G75*
G02X147533Y88869I-1532J1531*
G01*
Y87849*
X150376*
X150377Y87850*
G75*
G02X156344Y87770I2983J-79*
G01*
G75*
G02X153439Y84787I-2984*
G01*
X153076Y84424*
X161903*
Y101846*
X162257*
Y116078*
X160013*
Y110550*
G75*
G02X159379Y109019I-2165*
G01*
X159344Y108984*
Y103007*
X153439*
Y116787*
X155683*
Y117062*
G75*
G02X156317Y118593I2165*
G01*
X156872Y119148*
X151581*
X149220Y116787*
X149344*
Y103007*
X143439*
Y116787*
X144226*
Y117020*
G75*
G02X144860Y118552I2165*
G01*
X149154Y122845*
G75*
G02X150687Y123479I1531J-1531*
G01*
X192148*
X196913Y128244*
X193281*
Y137496*
X197809*
Y129091*
G75*
G02X198281Y129339I1234J-1779*
G01*
Y137496*
X202809*
Y129477*
X203281*
Y137496*
X203544*
G75*
G02X204285Y138429I2001J-827*
G01*
G75*
G02X203616Y140312I2315J1883*
G01*
G75*
G02X209584I2984*
G01*
G75*
G02X209096Y138677I-2984*
G01*
X213990*
Y129477*
X215348*
G75*
G02X216881Y128843I2J-2165*
G01*
X222131Y123593*
G75*
G02X222765Y122062I-1531J-1531*
G01*
Y106209*
X230666Y98308*
G75*
G02X230641Y98706I3185J398*
G01*
G75*
G02X235853Y101212I3209*
G01*
X245675Y111034*
G75*
G02X245763Y111117I1532J-1531*
G01*
X241852*
G75*
G02X240319Y111751I-2J2165*
G01*
X236317Y115753*
X236218*
G75*
G02X230641Y117918I-2368J2165*
G01*
G75*
G02X236218Y120083I3209*
G01*
X237212*
G75*
G02X238745Y119449I2J-2165*
G01*
X241852Y116343*
Y129200*
X241155*
Y130381*
X238045*
Y129200*
X231155*
Y130381*
X228045*
Y129200*
X221155*
Y130381*
X217336*
Y139633*
X217435*
Y140258*
G75*
G02X216616Y142312I2165J2054*
G01*
G75*
G02X222584I2984*
G01*
G75*
G02X222181Y140815I-2984*
G01*
X226787*
G75*
G02X226616Y141812I2813J998*
G01*
G75*
G02X232584I2984*
G01*
G75*
G02X232413Y140815I-2984J0*
G01*
X236787*
G75*
G02X236616Y141812I2813J998*
G01*
G75*
G02X242584I2984*
G01*
G75*
G02X242413Y140815I-2984J0*
G01*
X246787*
G75*
G02X246616Y141812I2813J998*
G01*
G75*
G02X252584I2984*
G01*
G75*
G02X252413Y140815I-2984J0*
G01*
X258045*
Y129200*
X251155*
Y130381*
X248045*
Y130330*
X248348*
Y129149*
X252167*
Y122904*
G75*
G02X252265Y122259I-2067J-645*
G01*
Y114532*
G75*
G02X251631Y113001I-2165*
G01*
X250381Y111751*
G75*
G02X250293Y111668I-1532J1531*
G01*
X250453*
X252935Y114150*
Y122259*
G75*
G02X253033Y122904I2165*
G01*
Y129149*
X257167*
Y122904*
G75*
G02X257265Y122259I-2067J-645*
G01*
Y113253*
G75*
G02X256631Y111722I-2165*
G01*
X256064Y111155*
G75*
G02X256622Y111227I556J-2093*
G01*
X270292*
G75*
G02X270350Y111228I58J-2162*
G01*
X276243*
X278128Y113113*
Y115370*
X278033*
Y120137*
X277937Y122156*
G75*
G02X277935Y122259I2165J101*
G01*
G75*
G02X278033Y122904I2165*
G01*
Y129149*
X282167*
Y122904*
G75*
G02X282263Y122361I-2067J-646*
G01*
X282456Y118304*
G75*
G02X282458Y118201I-2165J-101*
G01*
Y112216*
G75*
G02X282444Y111964I-2165J-1*
G01*
X282533Y112053*
Y121857*
G75*
G02X283033Y123241I2165*
G01*
Y129149*
X287167*
Y122904*
G75*
G02Y121613I-2067J-645*
G01*
Y115370*
X286864*
Y111156*
G75*
G02X286778Y110552I-2166J0*
G01*
X287685Y111459*
Y136062*
G75*
G02X288319Y137593I2165*
G01*
X290122Y139396*
X281102*
G75*
G02X279569Y140031I-2J2165*
G01*
X270319Y149281*
G75*
G02X269685Y150812I1531J1531*
G01*
Y155665*
X269657Y155693*
Y152700*
X267787*
X273033Y129149D02*
X277167D01*
Y115370*
X273033*
Y129149*
X263033D02*
X267167D01*
Y115370*
X263033*
Y129149*
X268033D02*
X272167D01*
Y115370*
X268033*
Y129149*
X188281Y137496D02*
X192809D01*
Y128244*
X188281*
Y137496*
X258033Y129149D02*
X262167D01*
Y115370*
X258033*
Y129149*
X161903Y84621D02*
G36*
Y101846D01*
X162257*
Y116078*
X160013*
Y110550*
G75*
G02X159379Y109019I-2166J0*
G01*
X159344Y108984*
Y103007*
X153439*
Y116787*
X155683*
Y117062*
G75*
G02X156317Y118593I2166J0*
G01*
X156872Y119148*
X151581*
X149220Y116787*
X149344*
Y103007*
X143439*
Y116787*
X144226*
Y117020*
G75*
G02X144860Y118552I2166J0*
G01*
X148568Y122259*
X142533*
Y103437*
X143515Y102456*
X148161*
G75*
G02X149694Y101821I2J-2167*
G01*
X151111Y100404*
G75*
G02X151746Y98873I-1532J-1531*
G01*
Y93912*
G75*
G02X151111Y92381I-2166J0*
G01*
X147883Y89153*
G75*
G02X147533Y88869I-1530J1528*
G01*
Y87849*
X150376*
X150377Y87850*
G75*
G02X156344Y87770I2983J-79*
G01*
G75*
G02X153439Y84787I-2985J0*
G01*
X153272Y84621*
X161903*
G37*
X241852Y122259D02*
G36*
X222756D01*
G75*
G02X222765Y122062I-2157J-198*
G01*
Y106209*
X230666Y98308*
G75*
G02X230641Y98706I3223J401*
G01*
G75*
G02X235853Y101212I3209J0*
G01*
X245675Y111034*
G75*
G02X245763Y111117I1547J-1547*
G01*
X241852*
G75*
G02X240319Y111751I-2J2167*
G01*
X236317Y115753*
X236218*
G75*
G02X230641Y117918I-2368J2165*
G01*
G75*
G02X236218Y120083I3209*
G01*
X237212*
G75*
G02X238745Y119449I2J-2167*
G01*
X241852Y116343*
Y122259*
G37*
X252935D02*
G36*
X252265D01*
Y114532*
G75*
G02X251631Y113001I-2166J0*
G01*
X250381Y111751*
G75*
G02X250293Y111668I-1547J1547*
G01*
X250453*
X252935Y114150*
Y122259*
G37*
X277935Y122259D02*
G36*
X277167D01*
Y115370*
X273033*
Y122259*
X272167*
Y115370*
X268033*
Y122259*
X267167*
Y115370*
X263033*
Y122259*
X262167*
Y115370*
X258033*
Y122259*
X257265*
Y113253*
G75*
G02X256631Y111722I-2166J0*
G01*
X256064Y111155*
G75*
G02X256622Y111227I556J-2100*
G01*
X270292*
X270350Y111228*
X276243*
X278128Y113113*
Y115370*
X278033*
Y120137*
X277937Y122156*
G75*
G02X277935Y122246I1667J89*
G01*
G75*
G02Y122259I1661J7*
G01*
G37*
X282571Y122259D02*
G36*
X282268D01*
X282456Y118304*
G75*
G02X282458Y118214I-1667J-89*
G01*
G75*
G02Y118201I-1661J-6*
G01*
Y112216*
G75*
G02Y112212I-2233J-2*
G01*
G75*
G02X282444Y111964I-2120*
G01*
X282533Y112053*
Y121857*
G75*
G02Y121858I2374J0*
G01*
G75*
G02X282571Y122259I2163J-1*
G01*
G37*
X287685D02*
G36*
X287265D01*
G75*
G02X287167Y121613I-2165J-1*
G01*
Y115370*
X286864*
Y111156*
Y111156*
G75*
G02X286778Y110552I-2161*
G01*
X287685Y111459*
Y122259*
G37*
X148568D02*
G36*
X149154Y122845D01*
G75*
G02X150687Y123479I1532J-1533*
G01*
X192148*
X196913Y128244*
X193281*
Y132870*
X192809*
Y128244*
X188281*
Y132870*
X187809*
Y128244*
X183990*
Y127063*
X177100*
Y128244*
X173281*
Y130546*
X137572*
G75*
G02X135938Y131218I-1J2322*
G01*
X134267Y132870*
X133528*
X141899Y124498*
G75*
G02X142533Y122967I-1532J-1531*
G01*
Y122259*
X148568*
G37*
X198281Y132870D02*
G36*
X197809D01*
Y129091*
G75*
G02X198281Y129339I1230J-1772*
G01*
Y132870*
G37*
X203281D02*
G36*
X202809D01*
Y129477*
X203281*
Y132870*
G37*
X217336D02*
G36*
X213990D01*
Y129477*
X215348*
G75*
G02X216881Y128843I2J-2167*
G01*
X222131Y123593*
G75*
G02X222756Y122259I-1532J-1531*
G01*
X241852*
Y129200*
X241155*
Y130381*
X238045*
Y129200*
X231155*
Y130381*
X228045*
Y129200*
X221155*
Y130381*
X217336*
Y132870*
G37*
X287685D02*
G36*
X258045D01*
Y129200*
X251155*
Y130381*
X248045*
Y130330*
X248348*
Y129149*
X252167*
Y122904*
G75*
G02X252265Y122259I-2070J-646*
G01*
X252935*
G75*
G02X253033Y122904I2169J-2*
G01*
Y129149*
X257167*
Y122904*
G75*
G02X257265Y122259I-2070J-646*
G01*
X258033*
Y129149*
X262167*
Y122259*
X263033*
Y129149*
X267167*
Y122259*
X268033*
Y129149*
X272167*
Y122259*
X273033*
Y129149*
X277167*
Y122259*
X277935*
G75*
G02X278033Y122904I2169J-2*
G01*
Y129149*
X282167*
Y122904*
G75*
G02X282263Y122361I-2065J-646*
G01*
X282268Y122259*
X282571*
G75*
G02X283033Y123241I2125J-401*
G01*
Y129149*
X287167*
Y122904*
G75*
G02X287265Y122259I-2066J-645*
G01*
X287685*
Y132870*
G37*
X134267D02*
G36*
X131864Y135246D01*
Y134533*
X133528Y132870*
X134267*
G37*
X289926Y139396D02*
G36*
X281102D01*
G75*
G02X279569Y140031I-2J2167*
G01*
X270319Y149281*
G75*
G02X269685Y150812I1532J1531*
G01*
Y155496*
X269657*
Y152700*
X267787*
Y152425*
X269657*
Y147700*
X261586*
Y152425*
X263456*
Y152700*
X261586*
Y152958*
G75*
G02X260569Y153531I515J2106*
G01*
X260004Y154095*
G75*
G02X259381Y152781I-2155J217*
G01*
X258131Y151531*
G75*
G02X256598Y150896I-1532J1533*
G01*
X222747*
X222328Y150477*
X256598*
G75*
G02X258131Y149843I2J-2167*
G01*
X260747Y147227*
X261586*
Y147425*
X269657*
Y142700*
X261586*
Y142896*
X259852*
G75*
G02X258319Y143531I-2J2167*
G01*
X255703Y146146*
X180497*
X178131Y143781*
X178131*
X174381Y140031*
G75*
G02X172847Y139397I-1531J1530*
G01*
X140350*
G75*
G02X138817Y140033I1J2167*
G01*
X135842Y143007*
X134895*
Y138782*
X138527Y135192*
X173281*
Y137496*
X177100*
Y138677*
X183990*
Y137496*
X187809*
Y132870*
X188281*
Y137496*
X192809*
Y132870*
X193281*
Y137496*
X197809*
Y132870*
X198281*
Y137496*
X202809*
Y132870*
X203281*
Y137496*
X203544*
G75*
G02X204285Y138429I2002J-828*
G01*
G75*
G02X203616Y140311I2314J1882*
G01*
Y140312*
G75*
G02X209584I2984*
G01*
G75*
G02Y140311I-2506J0*
G01*
G75*
G02X209096Y138677I-2981*
G01*
X213990*
Y132870*
X217336*
Y139633*
X217435*
Y140258*
G75*
G02X216616Y142311I2164J2053*
G01*
Y142312*
G75*
G02X222584I2984*
G01*
Y142311*
G75*
G02X222181Y140815I-2983*
G01*
X226787*
G75*
G02X226616Y141812I2817J998*
G01*
G75*
G02X232584I2984*
G01*
G75*
G02X232413Y140815I-2989J1*
G01*
X236787*
G75*
G02X236616Y141812I2817J998*
G01*
G75*
G02X242584I2984*
G01*
G75*
G02X242413Y140815I-2989J1*
G01*
X246787*
G75*
G02X246616Y141812I2817J998*
G01*
G75*
G02X252584I2984*
G01*
G75*
G02X252413Y140815I-2989J1*
G01*
X258045*
Y132870*
X287685*
Y136062*
G75*
G02X288319Y137593I2166J0*
G01*
X289926Y139200*
Y139396*
G37*
X289895Y52574D02*
X282287D01*
X287385Y47477*
X295994*
Y56669*
X299683*
G75*
G02X298225Y57859I2167J4143*
G01*
X289895*
Y52574*
G36*
X282287*
X287385Y47477*
X295994*
Y56669*
X299683*
G75*
G02X298225Y57859I2167J4143*
G01*
X289895*
Y52574*
G37*
D02*
D11*
X6706Y123440D02*
X3950D01*
X7887Y122259D02*
Y119504D01*
Y124621D02*
Y127378D01*
X14981Y107345D02*
X13033Y105396D01*
X14981Y112133D02*
X13033Y114082D01*
X17324Y83011D02*
X14569D01*
X19770Y107345D02*
X21719Y105396D01*
X19770Y112133D02*
X21719Y114082D01*
X20474Y79861D02*
Y77105D01*
Y86160D02*
Y88916D01*
X23624Y83011D02*
X26380D01*
X26169Y136274D02*
X23413D01*
X27350Y129385D02*
Y126630D01*
Y143164D02*
Y145921D01*
X34822Y124312D02*
X32067D01*
X36200Y122737D02*
Y119980D01*
X37009Y83011D02*
X34254D01*
X40159Y79861D02*
Y77105D01*
Y86160D02*
Y88916D01*
X43309Y83011D02*
X46065D01*
X51200Y123105D02*
Y120350D01*
X64350Y132534D02*
Y129779D01*
X66163Y43408D02*
X64214Y41459D01*
X66163Y48196D02*
X64214Y50145D01*
X70951Y48196D02*
X72900Y50145D01*
X72100Y123007D02*
Y120252D01*
X78714Y46944D02*
Y49700D01*
X80289Y45566D02*
X83045D01*
X81158Y114860D02*
X78517Y112219D01*
X81158Y117846D02*
X78517Y120487D01*
X84144Y114860D02*
X86785Y112219D01*
X84144Y117846D02*
X86785Y120487D01*
X90169Y97658D02*
X87413D01*
X92531D02*
X95287D01*
X93675Y110162D02*
X90919D01*
X103707Y29411D02*
X101759Y27463D01*
X103707Y33866D02*
X101759Y35815D01*
X104870Y76312D02*
X102114D01*
X107350Y73831D02*
Y71076D01*
X107744Y9090D02*
X105484Y6830D01*
X107744Y14533D02*
X105484Y16794D01*
X108162Y29411D02*
X110111Y27463D01*
X108162Y33866D02*
X110111Y35815D01*
X109830Y76312D02*
X112586D01*
X110444Y89319D02*
X113084Y86678D01*
X110444Y92305D02*
X113084Y94946D01*
X113188Y9090D02*
X115449Y6830D01*
X113188Y14533D02*
X115448Y16794D01*
X114819Y112468D02*
X112870Y110519D01*
X114819Y115530D02*
X112870Y117479D01*
X117250Y132355D02*
Y129598D01*
Y135269D02*
Y138023D01*
X117744Y9090D02*
X115484Y6830D01*
X117744Y14533D02*
X115484Y16794D01*
X117881Y112468D02*
X119830Y110519D01*
X117881Y115530D02*
X119830Y117479D01*
X117919Y133812D02*
X120675D01*
X119457Y92305D02*
X116817Y94946D01*
X122376Y128400D02*
X119620D01*
X122444Y92305D02*
X125084Y94946D01*
X122470Y31639D02*
X119714D01*
X123045Y126944D02*
Y124189D01*
Y129857D02*
Y132614D01*
X123188Y9090D02*
X125449Y6830D01*
X123188Y14533D02*
X125448Y16794D01*
X125620Y28489D02*
Y25733D01*
X128769Y31639D02*
X131525D01*
X129281Y58062D02*
X126525D01*
X129950Y56605D02*
Y53850D01*
Y59519D02*
Y62275D01*
X132376Y95684D02*
X129620D01*
X139265Y96865D02*
Y99622D01*
X164701Y108206D02*
X162061Y105566D01*
X164701Y111587D02*
X162061Y114227D01*
X168081Y108206D02*
X170722Y105566D01*
X168081Y111587D02*
X170722Y114227D01*
X180545Y129621D02*
Y126866D01*
Y136117D02*
Y138874D01*
X204350Y42515D02*
Y39759D01*
Y49109D02*
Y51866D01*
X204700Y91637D02*
Y94393D01*
X205996Y119312D02*
X203240D01*
X207647Y45812D02*
X210403D01*
X210545Y136117D02*
Y138874D01*
X211431Y132869D02*
X214187D01*
X211704Y119312D02*
X214460D01*
X215416Y91346D02*
X212775Y93987D01*
X216985Y91346D02*
X219626Y93987D01*
X224600Y131761D02*
Y129004D01*
Y138257D02*
Y141011D01*
X230880Y72987D02*
X228124D01*
X231838Y22062D02*
X229082D01*
X234600Y131761D02*
Y129004D01*
Y138257D02*
Y141011D01*
X237350Y21373D02*
Y18618D01*
X242862Y22062D02*
X245618D01*
X244296Y121454D02*
X241655Y118814D01*
X244296Y123063D02*
X241655Y125704D01*
X244600Y138257D02*
Y141011D01*
X254600Y138257D02*
Y141011D01*
X255486Y135009D02*
X258242D01*
X285880Y55133D02*
Y52378D01*
X287336Y55802D02*
X290092D01*
X287452Y67143D02*
X290092Y64503D01*
X287452Y68713D02*
X290092Y71353D01*
X298553Y50812D02*
X295797D01*
X305147D02*
X307903D01*
X312204Y31562D02*
X314960D01*
X317860Y31812D02*
X315104D01*
X320466Y29206D02*
Y26450D01*
Y34418D02*
Y37174D01*
X328623Y29969D02*
X326675Y28021D01*
X328623Y33655D02*
X326675Y35603D01*
X330408Y9433D02*
X327766Y6791D01*
X330408Y11317D02*
X327769Y13956D01*
X332292Y9433D02*
X334934Y6791D01*
X332292Y11317D02*
X334931Y13956D01*
X332309Y29969D02*
X334257Y28021D01*
X332309Y33655D02*
X334257Y35603D01*
D02*
D12*
X25466Y201812D03*
X35466D03*
X45466D03*
X55466D03*
X60466Y11812D03*
X65466Y201812D03*
X70466Y11812D03*
X75466Y201812D03*
X80466Y11812D03*
X85466Y201812D03*
X90466Y11812D03*
X95466Y201812D03*
X100466Y11812D03*
X105466Y201812D03*
X110466Y11812D03*
X115466Y201812D03*
X120466Y11812D03*
X130466D03*
Y201812D03*
X140466D03*
X150466Y11812D03*
Y201812D03*
X160466Y11812D03*
Y201812D03*
X170466Y11812D03*
Y201812D03*
X180466Y11812D03*
Y201812D03*
X190466Y11812D03*
Y201812D03*
X200466Y11812D03*
Y201812D03*
X210466Y11812D03*
X220466D03*
Y201812D03*
X230466D03*
X240466Y11812D03*
Y201812D03*
X250466Y11812D03*
Y201812D03*
X260466Y11812D03*
Y201812D03*
X270466Y11812D03*
Y201812D03*
X280466Y11812D03*
Y201812D03*
X290466Y11812D03*
Y201812D03*
X300466Y11812D03*
X310466D03*
D02*
D13*
X320466Y31812D03*
Y41812D03*
Y51812D03*
Y61812D03*
Y71812D03*
Y81812D03*
Y91812D03*
Y101812D03*
Y111812D03*
Y121812D03*
Y131812D03*
Y141812D03*
Y151812D03*
Y161812D03*
Y171812D03*
Y181812D03*
Y191812D03*
Y201812D03*
X330466Y31812D03*
Y41812D03*
Y51812D03*
Y61812D03*
Y71812D03*
Y81812D03*
Y91812D03*
Y101812D03*
Y111812D03*
Y121812D03*
Y131812D03*
Y141812D03*
Y151812D03*
Y161812D03*
Y171812D03*
Y181812D03*
Y191812D03*
Y201812D03*
D02*
D14*
X204350Y45812D03*
X301850Y50812D03*
D02*
D15*
X144350Y45812D03*
X154350D03*
X164350D03*
X174350D03*
X184350D03*
X194350D03*
X301850Y60812D03*
Y70812D03*
Y80812D03*
Y90812D03*
Y100812D03*
Y110812D03*
Y120812D03*
Y130812D03*
D02*
D16*
X208850Y99312D03*
X286350Y176812D03*
X289350Y31562D03*
D02*
D17*
X186350Y176812D03*
X196350D03*
X206350D03*
X208850Y109312D03*
Y119312D03*
X216350Y176812D03*
X226350D03*
X236350D03*
X246350D03*
X256350D03*
X266350D03*
X276350D03*
X299350Y31562D03*
X309350D03*
D02*
D18*
X60350Y107312D03*
X68557Y74778D03*
D02*
D19*
Y84778D03*
X70350Y107312D03*
D02*
D70*
X64350Y133912D03*
Y140211D03*
X78714Y39267D03*
Y45566D03*
X86509Y33125D03*
Y39424D03*
X95250Y110162D03*
Y116461D03*
X150850Y23412D03*
Y29711D03*
X159850Y177412D03*
Y183711D03*
X160850Y23412D03*
Y29711D03*
X170850Y23412D03*
Y29711D03*
X180850Y23412D03*
Y29711D03*
X190850Y23412D03*
Y29711D03*
X200850Y23412D03*
Y29711D03*
X203911Y71629D03*
Y77928D03*
X296350Y157912D03*
Y164211D03*
X322600Y11662D03*
Y17961D03*
D02*
D71*
X237350Y22062D03*
Y27062D03*
Y32062D03*
Y37062D03*
Y42062D03*
Y47062D03*
Y52062D03*
Y57062D03*
Y62062D03*
X275145Y22062D03*
Y27062D03*
Y32062D03*
Y37062D03*
Y42062D03*
Y47062D03*
Y52062D03*
Y57062D03*
Y62062D03*
D02*
D20*
X245100Y84463D03*
Y122259D03*
X250100Y84463D03*
Y122259D03*
X255100Y84463D03*
Y122259D03*
X260100Y84463D03*
Y122259D03*
X265100Y84463D03*
Y122259D03*
X270100Y84463D03*
Y122259D03*
X275100Y84463D03*
Y122259D03*
X280100Y84463D03*
Y122259D03*
X285100Y84463D03*
Y122259D03*
D02*
D21*
X220600Y31706D03*
Y50918D03*
X233850Y98706D03*
Y117918D03*
D02*
D22*
X170600Y177912D03*
Y184211D03*
X285880Y55802D03*
Y62101D03*
D02*
D23*
X36200Y124312D03*
X42500D03*
X82651Y116353D03*
X88950D03*
X96950Y91062D03*
X103250D03*
X108950Y90812D03*
X115250D03*
X120950D03*
X127250D03*
X158242Y164778D03*
X164541D03*
X204700Y90062D03*
X211000D03*
X268793Y67692D03*
X275092D03*
X279659Y74306D03*
X285958D03*
X295450Y149312D03*
X301750D03*
D02*
D24*
X175545Y132869D03*
Y157475D03*
X180545Y132869D03*
Y157475D03*
X185545Y132869D03*
Y157475D03*
X190545Y132869D03*
Y157475D03*
X195545Y132869D03*
Y157475D03*
X200545Y132869D03*
Y157475D03*
X205545Y132869D03*
Y157475D03*
X210545Y132869D03*
Y157475D03*
X219600Y135009D03*
Y159615D03*
X224600Y135009D03*
Y159615D03*
X229600Y135009D03*
Y159615D03*
X234600Y135009D03*
Y159615D03*
X239600Y135009D03*
Y159615D03*
X244600Y135009D03*
Y159615D03*
X249600Y135009D03*
Y159615D03*
X254600Y135009D03*
Y159615D03*
D02*
D25*
X212080Y67987D03*
Y72987D03*
Y77987D03*
Y82987D03*
X233537Y67987D03*
Y72987D03*
Y77987D03*
Y82987D03*
X265622Y145062D03*
Y150062D03*
Y155062D03*
Y160062D03*
X287078Y145062D03*
Y150062D03*
Y155062D03*
Y160062D03*
D02*
D26*
X304600Y157625D03*
Y165499D03*
X331350Y10375D03*
Y18249D03*
D02*
D27*
X37376Y109739D03*
X68557Y35802D03*
D02*
D28*
X17376Y109739D03*
X27376D03*
X68557Y45802D03*
Y55802D03*
D02*
D29*
X97350Y76312D03*
X107350D03*
X117350D03*
D02*
D72*
X116350Y106125D03*
Y113999D03*
D02*
D73*
X139265Y65684D03*
Y70684D03*
Y75684D03*
Y80684D03*
Y85684D03*
Y90684D03*
Y95684D03*
D02*
D74*
X178635Y80684D03*
D02*
D75*
X27350Y136274D03*
X32350D03*
X37350D03*
X42350D03*
X47350D03*
X52350D03*
X57350D03*
X72100Y129896D03*
X77100D03*
X82100D03*
X87100D03*
X92100D03*
X97100D03*
X102100D03*
D02*
D76*
X42350Y175644D03*
X87100Y169267D03*
D02*
D77*
X136391Y109896D03*
Y149896D03*
X146391Y109896D03*
Y149896D03*
X156391Y109896D03*
Y149896D03*
X166391Y109896D03*
Y149896D03*
D02*
D78*
X51200Y124562D03*
X57500D03*
X110950Y133812D03*
X117250D03*
X123045Y128400D03*
X129344D03*
X129950Y58062D03*
X136250D03*
X216200Y90562D03*
X222500D03*
X280368Y67928D03*
X286667D03*
D02*
D79*
X91350Y90965D03*
Y97658D03*
D02*
D80*
X15368Y123440D03*
D02*
D81*
X7887D03*
D02*
D82*
X20474Y14113D03*
Y27893D03*
Y41672D03*
Y55452D03*
Y69231D03*
Y83011D03*
X40159Y14113D03*
Y27893D03*
Y41672D03*
Y55452D03*
Y69231D03*
Y83011D03*
X105935Y31639D03*
Y45418D03*
X121435Y169639D03*
Y183418D03*
X125620Y31639D03*
Y45418D03*
X141120Y169639D03*
Y183418D03*
D02*
D83*
X15368Y123440D02*
X21549D01*
X29580Y115408*
Y111765*
X27555Y109739*
X27376*
X40159Y27893D02*
X81277D01*
X86509Y33125*
X40159Y27893D02*
X20474D01*
X57350Y124711D02*
X57500Y124562D01*
X70350Y107312D02*
Y102083D01*
X65722Y97456*
X34777*
X29580Y102652*
Y107534*
X27376Y109739*
X78714Y39267D02*
X72021D01*
X68557Y35802*
X86509Y39424D02*
X78872D01*
X78714Y39267*
X96950Y91062D02*
X91446D01*
X91350Y90965*
X102100Y129896D02*
X107035D01*
X110950Y133812*
X103250Y91062D02*
Y93024D01*
X116350Y106125*
X103250Y91062D02*
Y85662D01*
X105850Y83062*
X112850*
X116850Y79062*
Y76812*
X117350Y76312*
X105935Y45418D02*
X125620D01*
X116350Y106125D02*
X132600D01*
X121063Y169267D02*
X121435Y169639D01*
X129344Y128400D02*
Y109381D01*
X132600Y106125*
X136163*
X136391Y106353*
Y109896*
X136250Y58062D02*
Y62668D01*
X139265Y65684*
X107978*
X97350Y76312*
X140850Y53562D02*
X132706Y45418D01*
X125620*
X194350Y45812D02*
Y51312D01*
X203850Y60812*
X218750*
X223100Y65162*
Y72562*
X222500Y90562D02*
X223100D01*
Y72562*
X233537Y77987D02*
X228525D01*
X223100Y72562*
X275092Y67692D02*
X280131D01*
X280368Y67928*
X275092Y67692D02*
Y62115D01*
X275145Y62062*
X285840*
X285880Y62101*
X279659Y74306D02*
Y68637D01*
X280368Y67928*
X285880Y62101D02*
X287169Y60812D01*
X301850*
D02*
D84*
X37350Y136274D02*
Y149312D01*
X36600Y150062*
X47350Y136274D02*
Y126062D01*
X45600Y124312*
X42500*
X64350Y140211D02*
Y145062D01*
X60600Y148812*
X54100*
X52350Y147062*
Y136274*
X75466Y201812D02*
X67600Y193562D01*
X20350*
X19100Y192312*
Y151562*
X21350Y149312*
X30600*
X32350Y147562*
Y136274*
X77100Y129896D02*
Y142812D01*
X75850Y144062*
X82100Y129896D02*
Y141812D01*
X81600Y142312*
X88950Y116353D02*
Y118162D01*
X92100Y121312*
Y129896*
X95250Y116461D02*
Y117961D01*
X97100Y119812*
Y129896*
X115250Y90812D02*
Y88794D01*
X117691Y86353*
X122179*
X124305Y84227*
Y76432*
X130053Y70684*
X139265*
Y75684D02*
X130958D01*
X127376Y79267*
Y90686*
X127250Y90812*
X139265Y85684D02*
X151273D01*
X153360Y87770*
X139265Y90684D02*
X146352D01*
X149580Y93912*
Y98873*
X148163Y100290*
X142618*
X140368Y102540*
Y122967*
X129502Y133833*
Y190062*
X140466Y201026*
Y201812*
X146391Y109896D02*
Y117020D01*
X150685Y121314*
X193045*
X199043Y127312*
X215350*
X220600Y122062*
Y105312*
X231850Y94062*
X235600*
X242065Y100526*
X248084*
X146391Y149896D02*
Y152928D01*
X158242Y164778*
X150466Y11812D02*
X150850Y23412D01*
Y29711D02*
Y29662D01*
X150750Y29562*
X139350*
X130039Y38873*
X103990*
X99502Y43361*
Y63676*
X88399Y74778*
X68557*
X156391Y149896D02*
Y156629D01*
X164541Y164778*
X158242D02*
Y165009D01*
X163045Y169812*
X168533*
X170350Y171629*
X191600*
X196350Y176379*
Y176812*
X160466Y201812D02*
Y184328D01*
X159850Y183711*
X160850Y23412D02*
X160466Y11812D01*
X160850Y29711D02*
Y30312D01*
X151350Y39812*
X150350*
X144350Y45812*
X170600Y177912D02*
X165750Y173062D01*
X150850*
X147350Y169562*
Y166562*
X136391Y155603*
Y149896*
X170600Y177912D02*
X185250D01*
X186350Y176812*
X170600Y184211D02*
X208950D01*
X216350Y176812*
X170850Y23412D02*
X170466Y11812D01*
X170850Y29711D02*
Y30812D01*
X169350*
X154350Y45812*
X175545Y132869D02*
X176598Y132812D01*
X137572*
X132572Y137812*
Y173198*
X136673Y177298*
X159850*
Y177412*
X175545Y157475D02*
Y151550D01*
X176600*
Y145312*
X172850Y141562*
X140350*
X136391Y145520*
Y149896*
X180545Y157475D02*
Y161570D01*
X182100Y163125*
X208100*
X214537Y169562*
X217350*
X221350Y173562*
X180850Y23412D02*
X180466Y11812D01*
X180850Y29711D02*
X181100Y30302D01*
X179860*
X164350Y45812*
X181850Y148312D02*
X179600D01*
X176600Y145312*
X184350Y45812D02*
Y45552D01*
X200850Y29711*
X190850Y23412D02*
X190466Y11812D01*
X190850Y29711D02*
X190600Y30302D01*
X189860*
X174350Y45812*
X196600Y80062D02*
Y75475D01*
X200131Y71944*
X203596*
X203911Y71629*
X200850Y23412D02*
X200466Y11812D01*
X203911Y77928D02*
Y78251D01*
X199600Y82562*
Y93282*
X205630Y99312*
X208850*
X206350Y176812D02*
Y176294D01*
X198850Y168794*
X173350*
X169334Y164778*
X164541*
X206600Y140312D02*
Y136668D01*
X205545*
Y132869*
X208850Y109312D02*
X207600D01*
X196600Y98312*
Y80062*
X211000Y90062D02*
Y87103D01*
X211750Y86353*
X217139*
X218320Y85172*
Y82410*
X218350Y82381*
Y68812*
X217525Y67987*
X212080*
Y72987D02*
X205269D01*
X203911Y71629*
X212080Y77987D02*
X203970D01*
X203911Y77928*
X216350Y176812D02*
X215939D01*
X204850Y165723*
X174850*
X166391Y157265*
Y149896*
X219600Y142312D02*
Y135009D01*
X221350Y179562D02*
X227100Y185312D01*
X293100*
X295850Y182562*
Y172312*
X291600Y168062*
X287100*
X281100Y162062*
Y158062*
X284100Y155062*
X287078*
X222850Y153062D02*
X222100D01*
X219600Y155562*
Y159615*
X222850Y153062D02*
X221850D01*
X219850Y151062*
X207600*
X205545Y153117*
Y157475*
X224600Y159615D02*
Y163562D01*
X229850Y168812*
X236350*
X244350Y176812*
X246350*
X226350D02*
X227100D01*
X232600Y182312*
X290100*
X292100Y180312*
Y173312*
X290100Y171312*
X285350*
X277350Y163312*
X261600*
X260600Y162312*
Y156562*
X262100Y155062*
X265622*
X229600Y141812D02*
Y135009D01*
Y159615D02*
Y154062D01*
X230600Y153062*
X222850*
X233537Y67987D02*
Y65875D01*
X237350Y62062*
X233537Y82987D02*
X235933D01*
X239108Y79812*
Y66812*
X240858Y65062*
X245100*
X246100Y64062*
Y58312*
X244850Y57062*
X237350*
X233850Y117918D02*
X237214D01*
X241850Y113282*
X248850*
X250100Y114532*
Y122259*
X236350Y176812D02*
X231850Y171562D01*
X227350*
X221350Y165562*
X216350*
X210545Y159757*
Y157475*
X237350Y27062D02*
X225244D01*
X220600Y31706*
X237350Y32062D02*
X230600D01*
X220600Y42062*
Y50918*
X239600Y141812D02*
Y135009D01*
Y159615D02*
Y153812D01*
X240350Y153062*
X230600*
X241600Y168562D02*
X241350D01*
X238350Y165562*
X235600*
X234600Y164562*
Y159615*
X241600Y168562D02*
X248100D01*
X256350Y176812*
X249600Y141812D02*
Y135009D01*
Y159615D02*
Y154062D01*
X250600Y153062*
X256600*
X257850Y154312*
Y164062*
X259850Y166062*
X275100*
X285850Y176812*
X286350*
X250600Y153062D02*
X240350D01*
X255100Y84463D02*
Y94812D01*
X259600Y99312*
X283600*
X292600Y108312*
Y134562*
X297100Y139062*
X310350*
X313850Y142562*
Y189062*
X309100Y193812*
X272850*
X270850Y195812*
X270466Y201812*
X255100Y122259D02*
Y113253D01*
X251350Y109503*
X247206*
X236409Y98706*
X233850*
X265622Y145062D02*
X259850D01*
X256600Y148312*
X181850*
X265622Y155062D02*
Y150062D01*
Y160062D02*
X268350D01*
X271850Y156562*
Y150812*
X281100Y141562*
X290850*
X293850Y144562*
X298600*
X302340Y148302*
X301750Y149312*
X266350Y176812D02*
X264100D01*
X258850Y171562*
X256600*
X250600Y165562*
X246850*
X244600Y163312*
Y159615*
X270350Y109062D02*
X256620D01*
X248084Y100526*
X270350Y109062D02*
X277139D01*
X280293Y112216*
Y118201*
X280100Y122259*
X275100Y84463D02*
Y93812D01*
X277850Y96562*
X287600*
X295350Y104312*
Y133062*
X298600Y136312*
X316350*
X320466Y131812*
X275145Y32062D02*
X260350D01*
X249100Y43312*
Y66562*
X247350Y68312*
X243100*
X242100Y69312*
Y92562*
X243850Y94312*
X250600*
X258350Y102062*
X281350*
X289850Y110562*
Y136062*
X295600Y141812*
X308350*
X311100Y144562*
Y186312*
X306600Y190812*
X265100*
X260850Y195062*
X260466Y201812*
X275145Y37062D02*
X267742D01*
X258242Y46562*
Y76668*
X260100Y78526*
Y84463*
X275145Y37062D02*
X315350D01*
X320100Y41812*
X320466*
X275145Y42062D02*
X268813D01*
X261313Y49562*
Y75015*
X265100Y78802*
Y84463*
X275145Y42062D02*
X280850D01*
X283100Y39812*
X310850*
X317850Y46812*
X326100*
X330850Y51562*
X330466Y51812*
X275145Y47062D02*
X269133D01*
X264383Y51812*
Y73597*
X270100Y79314*
Y84463*
X275145Y52062D02*
X279738D01*
X286488Y45312*
X306850*
X320850Y59312*
Y61428*
X320466Y61812*
X275145Y57062D02*
X268635D01*
X267218Y58479*
Y66117*
X268793Y67692*
X276350Y176812D02*
Y176062D01*
X269100Y168812*
X258850*
X254600Y164562*
Y159615*
X280100Y84463D02*
Y92562D01*
X281350Y93812*
X287628*
X290131Y91308*
Y77141*
X287297Y74306*
X285958*
X285100Y84463D02*
Y79747D01*
X279659Y74306*
X285100Y122259D02*
X284698Y121857D01*
Y111156*
X279604Y106062*
X257872*
X249265Y97456*
X242994*
X236100Y90562*
X231350*
X217350Y104562*
Y121062*
X213850Y124562*
X201962*
X195643Y118243*
X159029*
X157848Y117062*
Y110550*
X157194Y109896*
X156391*
X287078Y150062D02*
X294110D01*
X295450Y149312*
X287078Y150062D02*
Y145062D01*
Y155062D02*
X294090D01*
X296350Y157912*
X287078Y160062D02*
Y160290D01*
X290600Y163812*
X295360*
X296350Y164211*
X299350Y31562D02*
X306850Y24062D01*
X310600*
X316700Y17961*
X322600*
X304600Y157625D02*
Y151572D01*
X301750Y149312*
X304600Y165499D02*
Y187062D01*
X303600Y188062*
X225850*
X216350Y178562*
Y176812*
X304600Y165499D02*
X296378Y164830D01*
X296350Y164211*
X320466Y51812D02*
X317850D01*
X308600Y42562*
X284462*
X279962Y47062*
X275145*
X322600Y11662D02*
X311000D01*
X310466Y11812*
X322600Y17961D02*
X330968D01*
X331350Y18249*
D02*
D85*
X36600Y150062D03*
X75850Y144062D03*
X81600Y142312D03*
X153360Y87770D03*
X206600Y140312D03*
X219600Y142312D03*
X229600Y141812D03*
X239600D03*
X249600D03*
D02*
D86*
X40159Y41672D02*
X49624D01*
X53911Y45959*
Y64385*
X40159Y69231D02*
X49065D01*
X53911Y64385*
X40159Y69231D02*
X20474D01*
X53911Y64385D02*
Y77377D01*
X61313Y84778*
D02*
D87*
X42350Y175644D02*
X45100D01*
X60850Y188562*
X115600*
X120744Y183418*
X121435*
X42350Y175644D02*
Y136274D01*
X57350D02*
Y124711D01*
X57500Y124562D02*
Y110162D01*
X60350Y107312*
X87100Y169267D02*
Y129896D01*
X102100D02*
Y106196D01*
X99502Y103597*
X87376*
X68557Y84778*
X178635Y80684D02*
Y67562D01*
X161850Y53562*
X140850*
X178635Y80684D02*
X139265D01*
D02*
D88*
X61313Y84778D02*
X68557D01*
D02*
D89*
X87100Y169267D02*
X121063D01*
D02*
D90*
X221350Y173562D02*
Y179562D01*
D02*
D91*
X600Y600D02*
X338013D01*
Y212100*
X600*
Y600*
X0Y0D02*
M02*
