G04 EasyPC Gerber Version 21.0.3 Build 4286 *
G04 #@! TF.Part,Single*
G04 #@! TF.FileFunction,Drillmap *
G04 #@! TF.FilePolarity,Positive *
%FSLAX35Y35*%
%MOIN*%
%ADD84C,0.00669*%
G04 #@! TA.AperFunction,ComponentPad*
%ADD86C,0.10000*%
X0Y0D02*
D02*
D84*
X27376Y115477D02*
Y118430D01*
X29836*
X29344Y116954D02*
X27376D01*
X32935Y20343D02*
X32689Y20097D01*
X32196Y19851*
X31458*
X30966Y20097*
X30720Y20343*
X30474Y20835*
Y21820*
X30720Y22312*
X30966Y22558*
X31458Y22804*
X32196*
X32689Y22558*
X32935Y22312*
Y34123D02*
X32689Y33877D01*
X32196Y33631*
X31458*
X30966Y33877*
X30720Y34123*
X30474Y34615*
Y35599*
X30720Y36091*
X30966Y36337*
X31458Y36583*
X32196*
X32689Y36337*
X32935Y36091*
Y47902D02*
X32689Y47656D01*
X32196Y47410*
X31458*
X30966Y47656*
X30720Y47902*
X30474Y48394*
Y49379*
X30720Y49871*
X30966Y50117*
X31458Y50363*
X32196*
X32689Y50117*
X32935Y49871*
Y61682D02*
X32689Y61436D01*
X32196Y61190*
X31458*
X30966Y61436*
X30720Y61682*
X30474Y62174*
Y63158*
X30720Y63650*
X30966Y63896*
X31458Y64143*
X32196*
X32689Y63896*
X32935Y63650*
Y75461D02*
X32689Y75215D01*
X32196Y74969*
X31458*
X30966Y75215*
X30720Y75461*
X30474Y75954*
Y76938*
X30720Y77430*
X30966Y77676*
X31458Y77922*
X32196*
X32689Y77676*
X32935Y77430*
Y89241D02*
X32689Y88995D01*
X32196Y88749*
X31458*
X30966Y88995*
X30720Y89241*
X30474Y89733*
Y90717*
X30720Y91209*
X30966Y91456*
X31458Y91702*
X32196*
X32689Y91456*
X32935Y91209*
X35466Y207550D02*
X36696Y210503D01*
X37927Y207550*
X35958Y208780D02*
X37435D01*
X37376Y115477D02*
Y118430D01*
X39836*
X39344Y116954D02*
X37376D01*
X45466Y207550D02*
X46696Y210503D01*
X47927Y207550*
X45958Y208780D02*
X47435D01*
X47338Y155800D02*
X48322D01*
X47830D02*
Y158753D01*
X47338D02*
X48322D01*
X47376Y115477D02*
Y118430D01*
X49836*
X49344Y116954D02*
X47376D01*
X52620Y20343D02*
X52374Y20097D01*
X51881Y19851*
X51143*
X50651Y20097*
X50405Y20343*
X50159Y20835*
Y21820*
X50405Y22312*
X50651Y22558*
X51143Y22804*
X51881*
X52374Y22558*
X52620Y22312*
Y34123D02*
X52374Y33877D01*
X51881Y33631*
X51143*
X50651Y33877*
X50405Y34123*
X50159Y34615*
Y35599*
X50405Y36091*
X50651Y36337*
X51143Y36583*
X51881*
X52374Y36337*
X52620Y36091*
Y47902D02*
X52374Y47656D01*
X51881Y47410*
X51143*
X50651Y47656*
X50405Y47902*
X50159Y48394*
Y49379*
X50405Y49871*
X50651Y50117*
X51143Y50363*
X51881*
X52374Y50117*
X52620Y49871*
Y61682D02*
X52374Y61436D01*
X51881Y61190*
X51143*
X50651Y61436*
X50405Y61682*
X50159Y62174*
Y63158*
X50405Y63650*
X50651Y63896*
X51143Y64143*
X51881*
X52374Y63896*
X52620Y63650*
Y75461D02*
X52374Y75215D01*
X51881Y74969*
X51143*
X50651Y75215*
X50405Y75461*
X50159Y75954*
Y76938*
X50405Y77430*
X50651Y77676*
X51143Y77922*
X51881*
X52374Y77676*
X52620Y77430*
Y89241D02*
X52374Y88995D01*
X51881Y88749*
X51143*
X50651Y88995*
X50405Y89241*
X50159Y89733*
Y90717*
X50405Y91209*
X50651Y91456*
X51143Y91702*
X51881*
X52374Y91456*
X52620Y91209*
X55466Y207550D02*
X56696Y210503D01*
X57927Y207550*
X55958Y208780D02*
X57435D01*
X65466Y207550D02*
X66696Y210503D01*
X67927Y207550*
X65958Y208780D02*
X67435D01*
X70350Y113542D02*
X70596Y113296D01*
X71088Y113050*
X71580Y113296*
X71826Y113542*
Y116003*
X72319*
X71826D02*
X70842D01*
X70466Y17550D02*
X71696Y20503D01*
X72927Y17550*
X70958Y18780D02*
X72435D01*
X75466Y207550D02*
X76696Y210503D01*
X77927Y207550*
X75958Y208780D02*
X77435D01*
X78557Y41540D02*
Y44493D01*
X81017*
X80525Y43017D02*
X78557D01*
Y51540D02*
Y54493D01*
X81017*
X80525Y53017D02*
X78557D01*
Y61540D02*
Y64493D01*
X81017*
X80525Y63017D02*
X78557D01*
Y81009D02*
X78803Y80763D01*
X79295Y80517*
X79787Y80763*
X80033Y81009*
Y83469*
X80525*
X80033D02*
X79049D01*
X78557Y91009D02*
X78803Y90763D01*
X79295Y90517*
X79787Y90763*
X80033Y91009*
Y93469*
X80525*
X80033D02*
X79049D01*
X80350Y113542D02*
X80596Y113296D01*
X81088Y113050*
X81580Y113296*
X81826Y113542*
Y116003*
X82319*
X81826D02*
X80842D01*
X80466Y17550D02*
X81696Y20503D01*
X82927Y17550*
X80958Y18780D02*
X82435D01*
X85466Y207550D02*
X86696Y210503D01*
X87927Y207550*
X85958Y208780D02*
X87435D01*
X86588Y149800D02*
X87572D01*
X87080D02*
Y152753D01*
X86588D02*
X87572D01*
X90466Y17550D02*
X91696Y20503D01*
X92927Y17550*
X90958Y18780D02*
X92435D01*
X92338Y148050D02*
X93322D01*
X92830D02*
Y151003D01*
X92338D02*
X93322D01*
X95466Y207550D02*
X96696Y210503D01*
X97927Y207550*
X95958Y208780D02*
X97435D01*
X100466Y17550D02*
X101696Y20503D01*
X102927Y17550*
X100958Y18780D02*
X102435D01*
X105466Y207550D02*
X106696Y210503D01*
X107927Y207550*
X105958Y208780D02*
X107435D01*
X109072Y83280D02*
X109811D01*
Y83034*
X109565Y82542*
X109319Y82296*
X108826Y82050*
X108334*
X107842Y82296*
X107596Y82542*
X107350Y83034*
Y84019*
X107596Y84511*
X107842Y84757*
X108334Y85003*
X108826*
X109319Y84757*
X109565Y84511*
X109811Y84019*
X110466Y17550D02*
X111696Y20503D01*
X112927Y17550*
X110958Y18780D02*
X112435D01*
X115466Y207550D02*
X116696Y210503D01*
X117927Y207550*
X115958Y208780D02*
X117435D01*
X118395Y37869D02*
X118149Y37623D01*
X117657Y37377*
X116919*
X116427Y37623*
X116181Y37869*
X115935Y38361*
Y39345*
X116181Y39837*
X116427Y40083*
X116919Y40330*
X117657*
X118149Y40083*
X118395Y39837*
Y51648D02*
X118149Y51402D01*
X117657Y51156*
X116919*
X116427Y51402*
X116181Y51648*
X115935Y52141*
Y53125*
X116181Y53617*
X116427Y53863*
X116919Y54109*
X117657*
X118149Y53863*
X118395Y53617*
X119072Y83280D02*
X119811D01*
Y83034*
X119565Y82542*
X119319Y82296*
X118826Y82050*
X118334*
X117842Y82296*
X117596Y82542*
X117350Y83034*
Y84019*
X117596Y84511*
X117842Y84757*
X118334Y85003*
X118826*
X119319Y84757*
X119565Y84511*
X119811Y84019*
X120466Y17550D02*
X121696Y20503D01*
X122927Y17550*
X120958Y18780D02*
X122435D01*
X125466Y207550D02*
X126696Y210503D01*
X127927Y207550*
X125958Y208780D02*
X127435D01*
X126350Y111863D02*
Y114816D01*
Y113339D02*
X128811D01*
Y111863D02*
Y114816D01*
X126350Y119737D02*
Y122690D01*
Y121213D02*
X128811D01*
Y119737D02*
Y122690D01*
X129072Y83280D02*
X129811D01*
Y83034*
X129565Y82542*
X129319Y82296*
X128826Y82050*
X128334*
X127842Y82296*
X127596Y82542*
X127350Y83034*
Y84019*
X127596Y84511*
X127842Y84757*
X128334Y85003*
X128826*
X129319Y84757*
X129565Y84511*
X129811Y84019*
X130466Y17550D02*
X131696Y20503D01*
X132927Y17550*
X130958Y18780D02*
X132435D01*
X133895Y175869D02*
X133649Y175623D01*
X133157Y175377*
X132419*
X131927Y175623*
X131681Y175869*
X131435Y176361*
Y177345*
X131681Y177837*
X131927Y178083*
X132419Y178330*
X133157*
X133649Y178083*
X133895Y177837*
Y189648D02*
X133649Y189402D01*
X133157Y189156*
X132419*
X131927Y189402*
X131681Y189648*
X131435Y190141*
Y191125*
X131681Y191617*
X131927Y191863*
X132419Y192109*
X133157*
X133649Y191863*
X133895Y191617*
X138080Y37869D02*
X137834Y37623D01*
X137342Y37377*
X136604*
X136112Y37623*
X135866Y37869*
X135620Y38361*
Y39345*
X135866Y39837*
X136112Y40083*
X136604Y40330*
X137342*
X137834Y40083*
X138080Y39837*
Y51648D02*
X137834Y51402D01*
X137342Y51156*
X136604*
X136112Y51402*
X135866Y51648*
X135620Y52141*
Y53125*
X135866Y53617*
X136112Y53863*
X136604Y54109*
X137342*
X137834Y53863*
X138080Y53617*
X140466Y17550D02*
X141696Y20503D01*
X142927Y17550*
X140958Y18780D02*
X142435D01*
X140466Y207550D02*
X141696Y210503D01*
X142927Y207550*
X140958Y208780D02*
X142435D01*
X150466Y207550D02*
X151696Y210503D01*
X152927Y207550*
X150958Y208780D02*
X152435D01*
X153580Y175869D02*
X153334Y175623D01*
X152842Y175377*
X152104*
X151612Y175623*
X151366Y175869*
X151120Y176361*
Y177345*
X151366Y177837*
X151612Y178083*
X152104Y178330*
X152842*
X153334Y178083*
X153580Y177837*
Y189648D02*
X153334Y189402D01*
X152842Y189156*
X152104*
X151612Y189402*
X151366Y189648*
X151120Y190141*
Y191125*
X151366Y191617*
X151612Y191863*
X152104Y192109*
X152842*
X153334Y191863*
X153580Y191617*
X156072Y53026D02*
X156565Y52780D01*
X156811Y52288*
X156565Y51796*
X156072Y51550*
X154350*
Y54503*
X156072*
X156565Y54257*
X156811Y53765*
X156565Y53272*
X156072Y53026*
X154350*
X160466Y17550D02*
X161696Y20503D01*
X162927Y17550*
X160958Y18780D02*
X162435D01*
X160466Y207550D02*
X161696Y210503D01*
X162927Y207550*
X160958Y208780D02*
X162435D01*
X164098Y93509D02*
X165082D01*
X164590D02*
Y96461D01*
X164098D02*
X165082D01*
X166072Y53026D02*
X166565Y52780D01*
X166811Y52288*
X166565Y51796*
X166072Y51550*
X164350*
Y54503*
X166072*
X166565Y54257*
X166811Y53765*
X166565Y53272*
X166072Y53026*
X164350*
X170466Y17550D02*
X171696Y20503D01*
X172927Y17550*
X170958Y18780D02*
X172435D01*
X170466Y207550D02*
X171696Y210503D01*
X172927Y207550*
X170958Y208780D02*
X172435D01*
X176072Y53026D02*
X176565Y52780D01*
X176811Y52288*
X176565Y51796*
X176072Y51550*
X174350*
Y54503*
X176072*
X176565Y54257*
X176811Y53765*
X176565Y53272*
X176072Y53026*
X174350*
X180466Y17550D02*
X181696Y20503D01*
X182927Y17550*
X180958Y18780D02*
X182435D01*
X180466Y207550D02*
X181696Y210503D01*
X182927Y207550*
X180958Y208780D02*
X182435D01*
X186072Y53026D02*
X186565Y52780D01*
X186811Y52288*
X186565Y51796*
X186072Y51550*
X184350*
Y54503*
X186072*
X186565Y54257*
X186811Y53765*
X186565Y53272*
X186072Y53026*
X184350*
X190466Y17550D02*
X191696Y20503D01*
X192927Y17550*
X190958Y18780D02*
X192435D01*
X190466Y207550D02*
X191696Y210503D01*
X192927Y207550*
X190958Y208780D02*
X192435D01*
X196072Y53026D02*
X196565Y52780D01*
X196811Y52288*
X196565Y51796*
X196072Y51550*
X194350*
Y54503*
X196072*
X196565Y54257*
X196811Y53765*
X196565Y53272*
X196072Y53026*
X194350*
X198811Y183042D02*
X198565Y182796D01*
X198072Y182550*
X197334*
X196842Y182796*
X196596Y183042*
X196350Y183534*
Y184519*
X196596Y185011*
X196842Y185257*
X197334Y185503*
X198072*
X198565Y185257*
X198811Y185011*
X200466Y17550D02*
X201696Y20503D01*
X202927Y17550*
X200958Y18780D02*
X202435D01*
X200466Y207550D02*
X201696Y210503D01*
X202927Y207550*
X200958Y208780D02*
X202435D01*
X206072Y53026D02*
X206565Y52780D01*
X206811Y52288*
X206565Y51796*
X206072Y51550*
X204350*
Y54503*
X206072*
X206565Y54257*
X206811Y53765*
X206565Y53272*
X206072Y53026*
X204350*
X208811Y183042D02*
X208565Y182796D01*
X208072Y182550*
X207334*
X206842Y182796*
X206596Y183042*
X206350Y183534*
Y184519*
X206596Y185011*
X206842Y185257*
X207334Y185503*
X208072*
X208565Y185257*
X208811Y185011*
X210466Y17550D02*
X211696Y20503D01*
X212927Y17550*
X210958Y18780D02*
X212435D01*
X210466Y207550D02*
X211696Y210503D01*
X212927Y207550*
X210958Y208780D02*
X212435D01*
X216072Y53026D02*
X216565Y52780D01*
X216811Y52288*
X216565Y51796*
X216072Y51550*
X214350*
Y54503*
X216072*
X216565Y54257*
X216811Y53765*
X216565Y53272*
X216072Y53026*
X214350*
X218811Y183042D02*
X218565Y182796D01*
X218072Y182550*
X217334*
X216842Y182796*
X216596Y183042*
X216350Y183534*
Y184519*
X216596Y185011*
X216842Y185257*
X217334Y185503*
X218072*
X218565Y185257*
X218811Y185011*
X217338Y146050D02*
X218322D01*
X217830D02*
Y149003D01*
X217338D02*
X218322D01*
X221311Y105542D02*
X221065Y105296D01*
X220572Y105050*
X219834*
X219342Y105296*
X219096Y105542*
X218850Y106034*
Y107019*
X219096Y107511*
X219342Y107757*
X219834Y108003*
X220572*
X221065Y107757*
X221311Y107511*
Y115542D02*
X221065Y115296D01*
X220572Y115050*
X219834*
X219342Y115296*
X219096Y115542*
X218850Y116034*
Y117019*
X219096Y117511*
X219342Y117757*
X219834Y118003*
X220572*
X221065Y117757*
X221311Y117511*
Y125542D02*
X221065Y125296D01*
X220572Y125050*
X219834*
X219342Y125296*
X219096Y125542*
X218850Y126034*
Y127019*
X219096Y127511*
X219342Y127757*
X219834Y128003*
X220572*
X221065Y127757*
X221311Y127511*
X220466Y17550D02*
X221696Y20503D01*
X222927Y17550*
X220958Y18780D02*
X222435D01*
X228811Y183042D02*
X228565Y182796D01*
X228072Y182550*
X227334*
X226842Y182796*
X226596Y183042*
X226350Y183534*
Y184519*
X226596Y185011*
X226842Y185257*
X227334Y185503*
X228072*
X228565Y185257*
X228811Y185011*
X230338Y148050D02*
X231322D01*
X230830D02*
Y151003D01*
X230338D02*
X231322D01*
X230466Y17550D02*
X231696Y20503D01*
X232927Y17550*
X230958Y18780D02*
X232435D01*
X230466Y207550D02*
X231696Y210503D01*
X232927Y207550*
X230958Y208780D02*
X232435D01*
X230600Y37444D02*
Y40396D01*
X233061*
X232569Y38920D02*
X230600D01*
Y37444D02*
X233061D01*
X230600Y56656D02*
Y59609D01*
X233061*
X232569Y58133D02*
X230600D01*
Y56656D02*
X233061D01*
X238811Y183042D02*
X238565Y182796D01*
X238072Y182550*
X237334*
X236842Y182796*
X236596Y183042*
X236350Y183534*
Y184519*
X236596Y185011*
X236842Y185257*
X237334Y185503*
X238072*
X238565Y185257*
X238811Y185011*
X240338Y147550D02*
X241322D01*
X240830D02*
Y150503D01*
X240338D02*
X241322D01*
X240466Y207550D02*
X241696Y210503D01*
X242927Y207550*
X240958Y208780D02*
X242435D01*
X243850Y104444D02*
Y107396D01*
X246311*
X245819Y105920D02*
X243850D01*
Y104444D02*
X246311D01*
X243850Y123656D02*
Y126609D01*
X246311*
X245819Y125133D02*
X243850D01*
Y123656D02*
X246311D01*
X248811Y183042D02*
X248565Y182796D01*
X248072Y182550*
X247334*
X246842Y182796*
X246596Y183042*
X246350Y183534*
Y184519*
X246596Y185011*
X246842Y185257*
X247334Y185503*
X248072*
X248565Y185257*
X248811Y185011*
X250338Y147550D02*
X251322D01*
X250830D02*
Y150503D01*
X250338D02*
X251322D01*
X250466Y17550D02*
X251696Y20503D01*
X252927Y17550*
X250958Y18780D02*
X252435D01*
X250466Y207550D02*
X251696Y210503D01*
X252927Y207550*
X250958Y208780D02*
X252435D01*
X258811Y183042D02*
X258565Y182796D01*
X258072Y182550*
X257334*
X256842Y182796*
X256596Y183042*
X256350Y183534*
Y184519*
X256596Y185011*
X256842Y185257*
X257334Y185503*
X258072*
X258565Y185257*
X258811Y185011*
X260338Y147550D02*
X261322D01*
X260830D02*
Y150503D01*
X260338D02*
X261322D01*
X260466Y17550D02*
X261696Y20503D01*
X262927Y17550*
X260958Y18780D02*
X262435D01*
X260466Y207550D02*
X261696Y210503D01*
X262927Y207550*
X260958Y208780D02*
X262435D01*
X268811Y183042D02*
X268565Y182796D01*
X268072Y182550*
X267334*
X266842Y182796*
X266596Y183042*
X266350Y183534*
Y184519*
X266596Y185011*
X266842Y185257*
X267334Y185503*
X268072*
X268565Y185257*
X268811Y185011*
X270466Y17550D02*
X271696Y20503D01*
X272927Y17550*
X270958Y18780D02*
X272435D01*
X270466Y207550D02*
X271696Y210503D01*
X272927Y207550*
X270958Y208780D02*
X272435D01*
X278811Y183042D02*
X278565Y182796D01*
X278072Y182550*
X277334*
X276842Y182796*
X276596Y183042*
X276350Y183534*
Y184519*
X276596Y185011*
X276842Y185257*
X277334Y185503*
X278072*
X278565Y185257*
X278811Y185011*
X280466Y17550D02*
X281696Y20503D01*
X282927Y17550*
X280958Y18780D02*
X282435D01*
X280466Y207550D02*
X281696Y210503D01*
X282927Y207550*
X280958Y208780D02*
X282435D01*
X288811Y183042D02*
X288565Y182796D01*
X288072Y182550*
X287334*
X286842Y182796*
X286596Y183042*
X286350Y183534*
Y184519*
X286596Y185011*
X286842Y185257*
X287334Y185503*
X288072*
X288565Y185257*
X288811Y185011*
X290466Y17550D02*
X291696Y20503D01*
X292927Y17550*
X290958Y18780D02*
X292435D01*
X290466Y207550D02*
X291696Y210503D01*
X292927Y207550*
X290958Y208780D02*
X292435D01*
X298811Y183042D02*
X298565Y182796D01*
X298072Y182550*
X297334*
X296842Y182796*
X296596Y183042*
X296350Y183534*
Y184519*
X296596Y185011*
X296842Y185257*
X297334Y185503*
X298072*
X298565Y185257*
X298811Y185011*
X301811Y37792D02*
X301565Y37546D01*
X301072Y37300*
X300334*
X299842Y37546*
X299596Y37792*
X299350Y38284*
Y39269*
X299596Y39761*
X299842Y40007*
X300334Y40253*
X301072*
X301565Y40007*
X301811Y39761*
X300466Y17550D02*
X301696Y20503D01*
X302927Y17550*
X300958Y18780D02*
X302435D01*
X300466Y207550D02*
X301696Y210503D01*
X302927Y207550*
X300958Y208780D02*
X302435D01*
X311811Y37792D02*
X311565Y37546D01*
X311072Y37300*
X310334*
X309842Y37546*
X309596Y37792*
X309350Y38284*
Y39269*
X309596Y39761*
X309842Y40007*
X310334Y40253*
X311072*
X311565Y40007*
X311811Y39761*
X310466Y17550D02*
X311696Y20503D01*
X312927Y17550*
X310958Y18780D02*
X312435D01*
X313572Y58026D02*
X314065Y57780D01*
X314311Y57288*
X314065Y56796*
X313572Y56550*
X311850*
Y59503*
X313572*
X314065Y59257*
X314311Y58765*
X314065Y58272*
X313572Y58026*
X311850*
X313572Y68026D02*
X314065Y67780D01*
X314311Y67288*
X314065Y66796*
X313572Y66550*
X311850*
Y69503*
X313572*
X314065Y69257*
X314311Y68765*
X314065Y68272*
X313572Y68026*
X311850*
X313572Y78026D02*
X314065Y77780D01*
X314311Y77288*
X314065Y76796*
X313572Y76550*
X311850*
Y79503*
X313572*
X314065Y79257*
X314311Y78765*
X314065Y78272*
X313572Y78026*
X311850*
X313572Y88026D02*
X314065Y87780D01*
X314311Y87288*
X314065Y86796*
X313572Y86550*
X311850*
Y89503*
X313572*
X314065Y89257*
X314311Y88765*
X314065Y88272*
X313572Y88026*
X311850*
X313572Y98026D02*
X314065Y97780D01*
X314311Y97288*
X314065Y96796*
X313572Y96550*
X311850*
Y99503*
X313572*
X314065Y99257*
X314311Y98765*
X314065Y98272*
X313572Y98026*
X311850*
X313572Y108026D02*
X314065Y107780D01*
X314311Y107288*
X314065Y106796*
X313572Y106550*
X311850*
Y109503*
X313572*
X314065Y109257*
X314311Y108765*
X314065Y108272*
X313572Y108026*
X311850*
X313572Y118026D02*
X314065Y117780D01*
X314311Y117288*
X314065Y116796*
X313572Y116550*
X311850*
Y119503*
X313572*
X314065Y119257*
X314311Y118765*
X314065Y118272*
X313572Y118026*
X311850*
X313572Y128026D02*
X314065Y127780D01*
X314311Y127288*
X314065Y126796*
X313572Y126550*
X311850*
Y129503*
X313572*
X314065Y129257*
X314311Y128765*
X314065Y128272*
X313572Y128026*
X311850*
X313572Y138026D02*
X314065Y137780D01*
X314311Y137288*
X314065Y136796*
X313572Y136550*
X311850*
Y139503*
X313572*
X314065Y139257*
X314311Y138765*
X314065Y138272*
X313572Y138026*
X311850*
X321811Y37792D02*
X321565Y37546D01*
X321072Y37300*
X320334*
X319842Y37546*
X319596Y37792*
X319350Y38284*
Y39269*
X319596Y39761*
X319842Y40007*
X320334Y40253*
X321072*
X321565Y40007*
X321811Y39761*
X320466Y17550D02*
X321696Y20503D01*
X322927Y17550*
X320958Y18780D02*
X322435D01*
X330466Y37550D02*
X331696Y40503D01*
X332927Y37550*
X330958Y38780D02*
X332435D01*
X330466Y47550D02*
X331696Y50503D01*
X332927Y47550*
X330958Y48780D02*
X332435D01*
X330466Y57550D02*
X331696Y60503D01*
X332927Y57550*
X330958Y58780D02*
X332435D01*
X330466Y67550D02*
X331696Y70503D01*
X332927Y67550*
X330958Y68780D02*
X332435D01*
X330466Y77550D02*
X331696Y80503D01*
X332927Y77550*
X330958Y78780D02*
X332435D01*
X330466Y87550D02*
X331696Y90503D01*
X332927Y87550*
X330958Y88780D02*
X332435D01*
X330466Y97550D02*
X331696Y100503D01*
X332927Y97550*
X330958Y98780D02*
X332435D01*
X330466Y107550D02*
X331696Y110503D01*
X332927Y107550*
X330958Y108780D02*
X332435D01*
X330466Y117550D02*
X331696Y120503D01*
X332927Y117550*
X330958Y118780D02*
X332435D01*
X330466Y127550D02*
X331696Y130503D01*
X332927Y127550*
X330958Y128780D02*
X332435D01*
X330466Y137550D02*
X331696Y140503D01*
X332927Y137550*
X330958Y138780D02*
X332435D01*
X330466Y147550D02*
X331696Y150503D01*
X332927Y147550*
X330958Y148780D02*
X332435D01*
X330466Y157550D02*
X331696Y160503D01*
X332927Y157550*
X330958Y158780D02*
X332435D01*
X330466Y167550D02*
X331696Y170503D01*
X332927Y167550*
X330958Y168780D02*
X332435D01*
X330466Y177550D02*
X331696Y180503D01*
X332927Y177550*
X330958Y178780D02*
X332435D01*
X330466Y187550D02*
X331696Y190503D01*
X332927Y187550*
X330958Y188780D02*
X332435D01*
X330466Y197550D02*
X331696Y200503D01*
X332927Y197550*
X330958Y198780D02*
X332435D01*
X330466Y207550D02*
X331696Y210503D01*
X332927Y207550*
X330958Y208780D02*
X332435D01*
X340466Y37550D02*
X341696Y40503D01*
X342927Y37550*
X340958Y38780D02*
X342435D01*
X340466Y47550D02*
X341696Y50503D01*
X342927Y47550*
X340958Y48780D02*
X342435D01*
X340466Y57550D02*
X341696Y60503D01*
X342927Y57550*
X340958Y58780D02*
X342435D01*
X340466Y67550D02*
X341696Y70503D01*
X342927Y67550*
X340958Y68780D02*
X342435D01*
X340466Y77550D02*
X341696Y80503D01*
X342927Y77550*
X340958Y78780D02*
X342435D01*
X340466Y87550D02*
X341696Y90503D01*
X342927Y87550*
X340958Y88780D02*
X342435D01*
X340466Y97550D02*
X341696Y100503D01*
X342927Y97550*
X340958Y98780D02*
X342435D01*
X340466Y107550D02*
X341696Y110503D01*
X342927Y107550*
X340958Y108780D02*
X342435D01*
X340466Y117550D02*
X341696Y120503D01*
X342927Y117550*
X340958Y118780D02*
X342435D01*
X340466Y127550D02*
X341696Y130503D01*
X342927Y127550*
X340958Y128780D02*
X342435D01*
X340466Y137550D02*
X341696Y140503D01*
X342927Y137550*
X340958Y138780D02*
X342435D01*
X340466Y147550D02*
X341696Y150503D01*
X342927Y147550*
X340958Y148780D02*
X342435D01*
X340466Y157550D02*
X341696Y160503D01*
X342927Y157550*
X340958Y158780D02*
X342435D01*
X340466Y167550D02*
X341696Y170503D01*
X342927Y167550*
X340958Y168780D02*
X342435D01*
X340466Y177550D02*
X341696Y180503D01*
X342927Y177550*
X340958Y178780D02*
X342435D01*
X340466Y187550D02*
X341696Y190503D01*
X342927Y187550*
X340958Y188780D02*
X342435D01*
X340466Y197550D02*
X341696Y200503D01*
X342927Y197550*
X340958Y198780D02*
X342435D01*
X340466Y207550D02*
X341696Y210503D01*
X342927Y207550*
X340958Y208780D02*
X342435D01*
D02*
D86*
X17376Y109739D03*
X20474Y14113D03*
Y27893D03*
Y41672D03*
Y55452D03*
Y69231D03*
Y83011D03*
X25466Y201812D03*
X27376Y109739D03*
X35466Y201812D03*
X36600Y150062D03*
X37376Y109739D03*
X40159Y14113D03*
Y27893D03*
Y41672D03*
Y55452D03*
Y69231D03*
Y83011D03*
X45466Y201812D03*
X55466D03*
X60350Y107312D03*
X60466Y11812D03*
X65466Y201812D03*
X68557Y35802D03*
Y45802D03*
Y55802D03*
Y74778D03*
Y84778D03*
X70350Y107312D03*
X70466Y11812D03*
X75466Y201812D03*
X75850Y144062D03*
X80466Y11812D03*
X81600Y142312D03*
X85466Y201812D03*
X90466Y11812D03*
X95466Y201812D03*
X97350Y76312D03*
X100466Y11812D03*
X105466Y201812D03*
X105935Y31639D03*
Y45418D03*
X107350Y76312D03*
X110466Y11812D03*
X115466Y201812D03*
X116350Y106125D03*
Y113999D03*
X117350Y76312D03*
X120466Y11812D03*
X121435Y169639D03*
Y183418D03*
X125620Y31639D03*
Y45418D03*
X130466Y11812D03*
Y201812D03*
X140466D03*
X141120Y169639D03*
Y183418D03*
X144350Y45812D03*
X150466Y11812D03*
Y201812D03*
X153360Y87770D03*
X154350Y45812D03*
X160466Y11812D03*
Y201812D03*
X164350Y45812D03*
X170466Y11812D03*
Y201812D03*
X174350Y45812D03*
X180466Y11812D03*
Y201812D03*
X184350Y45812D03*
X186350Y176812D03*
X190466Y11812D03*
Y201812D03*
X194350Y45812D03*
X196350Y176812D03*
X200466Y11812D03*
Y201812D03*
X204350Y45812D03*
X206350Y176812D03*
X206600Y140312D03*
X208850Y99312D03*
Y109312D03*
Y119312D03*
X210466Y11812D03*
X216350Y176812D03*
X219600Y142312D03*
X220466Y11812D03*
Y201812D03*
X220600Y31706D03*
Y50918D03*
X226350Y176812D03*
X229600Y141812D03*
X230466Y201812D03*
X233850Y98706D03*
Y117918D03*
X236350Y176812D03*
X239600Y141812D03*
X240466Y11812D03*
Y201812D03*
X246350Y176812D03*
X249600Y141812D03*
X250466Y11812D03*
Y201812D03*
X256350Y176812D03*
X260466Y11812D03*
Y201812D03*
X266350Y176812D03*
X270466Y11812D03*
Y201812D03*
X276350Y176812D03*
X280466Y11812D03*
Y201812D03*
X286350Y176812D03*
X289350Y31562D03*
X290466Y11812D03*
Y201812D03*
X299350Y31562D03*
X300466Y11812D03*
X301850Y50812D03*
Y60812D03*
Y70812D03*
Y80812D03*
Y90812D03*
Y100812D03*
Y110812D03*
Y120812D03*
Y130812D03*
X309350Y31562D03*
X310466Y11812D03*
X320466Y31812D03*
Y41812D03*
Y51812D03*
Y61812D03*
Y71812D03*
Y81812D03*
Y91812D03*
Y101812D03*
Y111812D03*
Y121812D03*
Y131812D03*
Y141812D03*
Y151812D03*
Y161812D03*
Y171812D03*
Y181812D03*
Y191812D03*
Y201812D03*
X330466Y31812D03*
Y41812D03*
Y51812D03*
Y61812D03*
Y71812D03*
Y81812D03*
Y91812D03*
Y101812D03*
Y111812D03*
Y121812D03*
Y131812D03*
Y141812D03*
Y151812D03*
Y161812D03*
Y171812D03*
Y181812D03*
Y191812D03*
Y201812D03*
X0Y0D02*
M02*
