G04 EasyPC Gerber Version 21.0.3 Build 4286 *
G04 #@! TF.Part,Single*
G04 #@! TF.FileFunction,Legend,Top *
G04 #@! TF.FilePolarity,Positive *
%FSLAX35Y35*%
%MOIN*%
%ADD143C,0.00100*%
%ADD10C,0.00394*%
%ADD146C,0.00394*%
%ADD144C,0.00472*%
%ADD140C,0.00500*%
%ADD142C,0.00600*%
%ADD141C,0.00669*%
%ADD11C,0.00787*%
%ADD147C,0.00984*%
%ADD145C,0.01000*%
%ADD91C,0.01200*%
X0Y0D02*
D02*
D10*
X10250Y120881D02*
X7494D01*
X10250Y125999D02*
X7494D01*
D02*
D11*
X6628Y115625D02*
Y97160D01*
X48124*
Y109739*
X22061Y122652D02*
G75*
G02Y123440J394D01*
G01*
Y122652D02*
G75*
G03Y123440J394D01*
G01*
X39350Y125493D02*
Y123131D01*
X54350Y125743D02*
Y123381D01*
X62035Y158519D02*
Y145133D01*
X22665*
Y158519*
X63169Y137062D02*
X65531D01*
X74443Y66550D02*
X55978D01*
Y25054*
X68557*
X77533Y42416D02*
X79895D01*
X85801Y117534D02*
Y115172D01*
X87691Y36274D02*
X85328D01*
X89775Y97461D02*
Y91162D01*
X92925D02*
Y99233D01*
X94069Y113312D02*
X96431D01*
X100100Y92243D02*
Y89881D01*
X106785Y152141D02*
Y138755D01*
X67415*
Y152141*
X112100Y91993D02*
Y89631D01*
X114100Y132631D02*
Y134993D01*
X124100Y91993D02*
Y89631D01*
X126194Y129581D02*
Y127219D01*
X133100Y59243D02*
Y56881D01*
X149669Y26562D02*
X152031D01*
X161031Y180562D02*
X158669D01*
X161391Y165959D02*
Y163597D01*
X161509Y60999D02*
X148124D01*
Y100369*
X161509*
X162031Y26562D02*
X159669D01*
X169669D02*
X172031D01*
X171781Y181062D02*
X169419D01*
X172809Y137889D02*
Y152456D01*
X213281*
Y137889*
X172809*
X172887Y129227D02*
Y136511D01*
X179669Y26562D02*
X182031D01*
X189669D02*
X192031D01*
X199669D02*
X202031D01*
X202730Y74778D02*
X205092D01*
X204350Y58292D02*
X139350D01*
Y34473*
X210334*
Y45812*
X207850Y88881D02*
Y91243D01*
X216864Y140028D02*
Y154595D01*
X257336*
Y140028*
X216864*
X216943Y131367D02*
Y138650D01*
X219350Y91743D02*
Y89381D01*
X220346Y99312D02*
Y124312D01*
X197511*
Y94312*
X208850*
X229108Y65841D02*
X216509D01*
Y85133*
X229108*
Y65841*
X236588Y65231D02*
X230486D01*
X271943Y66511D02*
Y68873D01*
X282649Y142916D02*
X270051D01*
Y162207*
X282649*
Y142916*
X282809Y75487D02*
Y73125D01*
X283517Y69109D02*
Y66747D01*
X284698Y58952D02*
X287061D01*
X286350Y188229D02*
X181350D01*
Y165394*
X291350*
Y176812*
X289350Y20066D02*
X314350D01*
Y42900*
X284350*
Y31562*
X290130Y142306D02*
X284027D01*
X297531Y161062D02*
X295169D01*
X298600Y148131D02*
Y150493D01*
X306667Y161562D02*
X302533D01*
X313956Y50812D02*
Y135950D01*
X289744*
Y45812*
X301850*
X321419Y14812D02*
X323781D01*
X333417Y14312D02*
X329283D01*
D02*
D91*
X600Y600D02*
X338013D01*
Y212100*
X600*
Y600*
D02*
D140*
X3116Y82101D02*
X6866D01*
Y79914*
X6554Y79289*
X5929Y78976*
X5304Y79289*
X4991Y79914*
Y82101*
X5616Y77101D02*
X3429D01*
X3116Y76789*
Y76164*
X3429Y75851*
X4366*
X3429D02*
X3116Y75539D01*
Y74914*
X3429Y74601*
X5616*
X3116Y72101D02*
X5616D01*
X4679D02*
X5304Y71789D01*
X5616Y71164*
Y70539*
X5304Y69914*
X3589Y25881D02*
X7339D01*
X5464D02*
Y24943D01*
X7339Y22756*
X5464Y24943D02*
X3589Y22756D01*
X3901Y18381D02*
X3589Y18693D01*
Y19318*
Y19943*
X3901Y20568*
X4526Y20881*
X5464*
X5776Y20568*
X6089Y19943*
Y19318*
X5776Y18693*
X5464Y18381*
X5151*
X4839Y18693*
X4526Y19318*
Y19943*
X4839Y20568*
X5151Y20881*
X6089Y15881D02*
X4839Y15568D01*
X4214Y14943*
Y14318*
X4839Y13693*
X6089Y13381*
X4839Y13693D02*
X3589Y14006D01*
X2964Y14318*
X2651Y14943*
X2964Y15568*
X5776Y57534D02*
X6089Y56909D01*
Y55972*
X5776Y55347*
X5151Y55034*
X4214*
X3901Y55347*
X3589Y55972*
Y56597*
X3901Y57222*
X4214Y57534*
X4526*
X4839Y57222*
X5151Y56597*
Y55972*
X4839Y55347*
X4526Y55034*
X4214D02*
X3589D01*
X5776Y50034D02*
X6089Y50659D01*
Y51597*
X5776Y52222*
X5151Y52534*
X4526*
X3901Y52222*
X3589Y51597*
Y50659*
X3901Y50034*
X5776Y45034D02*
X6089Y45659D01*
Y46597*
X5776Y47222*
X5151Y47534*
X4526*
X3901Y47222*
X3589Y46597*
Y45659*
X3901Y45034*
X6089Y42534D02*
X4526D01*
X3901Y42222*
X3589Y41597*
Y40972*
X3901Y40347*
X4526Y40034*
X6089D02*
X3589D01*
X3596Y37044D02*
X6096D01*
X4846Y35794D02*
Y38294D01*
X4952Y58479D02*
Y60979D01*
X9287Y208062D02*
X13037Y206499D01*
X9287Y204937*
X10850Y207437D02*
Y205562D01*
X9287Y201499D02*
Y201812D01*
X13037*
X9287Y196499D02*
Y196812D01*
X13037*
X9600Y190562D02*
X9287Y190874D01*
Y191499*
Y192124*
X9600Y192749*
X10225Y193062*
X11163*
X11475Y192749*
X11787Y192124*
Y191499*
X11475Y190874*
X11163Y190562*
X10850*
X10537Y190874*
X10225Y191499*
Y192124*
X10537Y192749*
X10850Y193062*
X11787Y188062D02*
X10537Y187749D01*
X9913Y187124*
Y186499*
X10537Y185874*
X11787Y185562*
X10537Y185874D02*
X9287Y186187D01*
X8663Y186499*
X8350Y187124*
X8663Y187749*
X9287Y178062D02*
X13037D01*
X11163D02*
Y174937D01*
X9287D02*
X13037D01*
X10225Y173062D02*
X9600Y172749D01*
X9287Y172124*
Y171499*
X9600Y170874*
X10225Y170562*
X10850*
X11475Y170874*
X11787Y171499*
Y172124*
X11475Y172749*
X10850Y173062*
X10225*
Y168062D02*
X9600Y167749D01*
X9287Y167124*
Y166499*
X9600Y165874*
X10225Y165562*
X10850*
X11475Y165874*
X11787Y166499*
Y167124*
X11475Y167749*
X10850Y168062*
X10225*
X11787Y163062D02*
X8350D01*
X10225D02*
X9600Y162749D01*
X9287Y162124*
Y161499*
X9600Y160874*
X10225Y160562*
X10850*
X11475Y160874*
X11787Y161499*
Y162124*
X11475Y162749*
X10850Y163062*
X10225*
X13037Y153062D02*
X9287Y151499D01*
X13037Y149937*
X9287Y145562D02*
Y148062D01*
X11475Y145874*
X12100Y145562*
X12725Y145874*
X13037Y146499*
Y147437*
X12725Y148062*
X9287Y142749D02*
X9600Y142437D01*
X9913Y142749*
X9600Y143062*
X9287Y142749*
Y136499D02*
X13037D01*
X10537Y138062*
Y135562*
X53545Y94428D02*
Y2696D01*
X7088*
Y94428*
X29475*
Y93803*
X30725*
Y94428*
X53545*
X94124Y21796D02*
Y55261D01*
X137431*
Y21796*
X116225*
Y22583*
X114975*
Y21796*
X94124*
X109624Y159796D02*
Y193261D01*
X152931*
Y159796*
X131725*
Y160583*
X130475*
Y159796*
X109624*
X132391Y102396D02*
X170391D01*
Y157396*
X132391*
Y102396*
Y134896D02*
G75*
G02X137391Y129896J-5000D01*
G01*
G75*
G02X132391Y124896I-5000*
G01*
X282035Y64129D02*
Y19995D01*
X230460*
Y64129*
X254771*
Y62652*
X257724*
Y64129*
X282035*
X287167Y77574D02*
X243033D01*
Y129148*
X287167*
Y104837*
X285691*
Y101885*
X287167*
Y77574*
X340466Y1812D02*
X17966D01*
Y211812*
X330466*
X340466Y201812*
Y161812*
X350466Y151812*
Y16812*
X340466Y6812*
Y1812*
D02*
D141*
X3124Y67524D02*
X5092D01*
X4108Y66540D02*
Y68509D01*
X5417Y84227D02*
Y86196D01*
X8793Y117564D02*
Y120517D01*
X10269*
X10761Y120270*
X11007Y120024*
X11254Y119532*
Y118548*
X11007Y118056*
X10761Y117810*
X10269Y117564*
X8793*
X12976Y117810D02*
X13468Y117564D01*
X13960*
X14452Y117810*
X14698Y118302*
X14452Y118794*
X13960Y119040*
X13468*
X13960D02*
X14452Y119286D01*
X14698Y119778*
X14452Y120270*
X13960Y120517*
X13468*
X12976Y120270*
X37139Y117564D02*
Y120517D01*
X38862*
X39354Y120270*
X39600Y119778*
X39354Y119286*
X38862Y119040*
X37139*
X38862D02*
X39600Y117564D01*
X42307D02*
Y120517D01*
X41076Y118548*
X43045*
X43348Y105239D02*
X44332D01*
X44824Y104993*
X45070Y104747*
X45317Y104255*
Y103763*
X45070Y103270*
X44824Y103024*
X44332Y102778*
X43348*
X42856Y103024*
X42610Y103270*
X42364Y103763*
Y104255*
X42610Y104747*
X42856Y104993*
X43348Y105239*
X43102Y103517D02*
X42364Y102778D01*
Y99333D02*
Y101302D01*
X44086Y99580*
X44578Y99333*
X45070Y99580*
X45317Y100072*
Y100810*
X45070Y101302*
X41612Y161028D02*
Y162013D01*
Y161520D02*
X38659D01*
Y161028D02*
Y162013D01*
X41120Y166688D02*
X41366Y166442D01*
X41612Y165950*
Y165211*
X41366Y164719*
X41120Y164473*
X40628Y164227*
X39643*
X39151Y164473*
X38905Y164719*
X38659Y165211*
Y165950*
X38905Y166442*
X39151Y166688*
X41612Y168656D02*
Y169641D01*
Y169148D02*
X38659D01*
X39151Y168656*
X49757Y118765D02*
X49511Y118519D01*
X49019Y118272*
X48281*
X47789Y118519*
X47543Y118765*
X47297Y119257*
Y120241*
X47543Y120733*
X47789Y120979*
X48281Y121225*
X49019*
X49511Y120979*
X49757Y120733*
X53202Y118272D02*
X51234D01*
X52956Y119995*
X53202Y120487*
X52956Y120979*
X52464Y121225*
X51726*
X51234Y120979*
X55122Y83755D02*
X58074D01*
Y82032*
X57828Y81540*
X57336Y81294*
X56844Y81540*
X56598Y82032*
Y83755*
X55122Y79818D02*
X58074Y78587D01*
X55122Y77357*
X56352Y79326D02*
Y77849D01*
X55122Y75881D02*
X58074D01*
X56598D02*
Y75143D01*
X58074Y73420*
X56598Y75143D02*
X55122Y73420D01*
X59108Y91816D02*
Y94769D01*
X60830*
X61322Y94522*
X61569Y94030*
X61322Y93538*
X60830Y93292*
X59108*
X63045Y91816D02*
Y93784D01*
Y93046D02*
X63291Y93538D01*
X63783Y93784*
X64275*
X64767Y93538*
X68950Y92062D02*
X68704Y91816D01*
X68212*
X67720*
X67228Y92062*
X66982Y92554*
Y93292*
X67228Y93538*
X67720Y93784*
X68212*
X68704Y93538*
X68950Y93292*
Y93046*
X68704Y92800*
X68212Y92554*
X67720*
X67228Y92800*
X66982Y93046*
X70919Y92062D02*
X71411Y91816D01*
X72395*
X72887Y92062*
Y92554*
X72395Y92800*
X71411*
X70919Y93046*
Y93538*
X71411Y93784*
X72395*
X72887Y93538*
X65929Y124385D02*
X62976D01*
Y126107*
X63222Y126599*
X63714Y126845*
X64206Y126599*
X64452Y126107*
Y124385*
Y126107D02*
X65929Y126845D01*
X65683Y128322D02*
X65929Y128814D01*
Y129552*
X65683Y130044*
X65191Y130290*
X64944*
X64452Y130044*
X64206Y129552*
Y128322*
X62976*
Y130290*
X67807Y62024D02*
Y63009D01*
X68053Y63501*
X68299Y63747*
X68791Y63993*
X69283*
X69775Y63747*
X70021Y63501*
X70267Y63009*
Y62024*
X70021Y61532*
X69775Y61286*
X69283Y61040*
X68791*
X68299Y61286*
X68053Y61532*
X67807Y62024*
X69529Y61778D02*
X70267Y61040D01*
X72236D02*
X73220D01*
X72728D02*
Y63993D01*
X72236Y63501*
X76854Y119188D02*
X79807D01*
X78330D02*
Y116727D01*
X76854D02*
X79807D01*
Y115251D02*
X76854Y114020D01*
X79807Y112790*
X76854Y111314D02*
Y108853D01*
Y107377D02*
X79807D01*
Y105654*
X79561Y105162*
X79069Y104916*
X78576Y105162*
X78330Y105654*
Y107377*
Y105654D02*
X76854Y104916D01*
X79807Y103440D02*
X76854D01*
Y100979*
Y98272D02*
X78330D01*
X79807Y99503*
X78330Y98272D02*
X79807Y97042D01*
X79866Y48322D02*
X76913D01*
Y50044*
X77159Y50536*
X77651Y50782*
X78143Y50536*
X78389Y50044*
Y48322*
Y50044D02*
X79866Y50782D01*
Y54227D02*
Y52259D01*
X78143Y53981*
X77651Y54227*
X77159Y53981*
X76913Y53489*
Y52751*
X77159Y52259*
X83439Y110241D02*
Y113194D01*
X85161*
X85653Y112948*
X85899Y112456*
X85653Y111963*
X85161Y111717*
X83439*
X85161D02*
X85899Y110241D01*
X87376Y110979D02*
X87622Y111471D01*
X88114Y111717*
X88606*
X89098Y111471*
X89344Y110979*
X89098Y110487*
X88606Y110241*
X88114*
X87622Y110487*
X87376Y110979*
Y111717*
X87622Y112456*
X88114Y112948*
X88606Y113194*
X85565Y103272D02*
Y100320D01*
X88025*
X89502D02*
Y103272D01*
X91962*
X91470Y101796D02*
X89502D01*
Y100320D02*
X91962D01*
X93439D02*
Y103272D01*
X94915*
X95407Y103026*
X95653Y102780*
X95899Y102288*
Y101304*
X95653Y100812*
X95407Y100566*
X94915Y100320*
X93439*
X97868D02*
X98852D01*
X98360D02*
Y103272D01*
X97868Y102780*
X86362Y154650D02*
Y155635D01*
Y155143D02*
X83409D01*
Y154650D02*
Y155635D01*
X85870Y160310D02*
X86116Y160064D01*
X86362Y159572*
Y158833*
X86116Y158341*
X85870Y158095*
X85378Y157849*
X84393*
X83901Y158095*
X83655Y158341*
X83409Y158833*
Y159572*
X83655Y160064*
X83901Y160310*
X86362Y163755D02*
Y161786D01*
X84639Y163509*
X84147Y163755*
X83655Y163509*
X83409Y163017*
Y162278*
X83655Y161786*
X87425Y41707D02*
X84472D01*
Y43430*
X84718Y43922*
X85210Y44168*
X85702Y43922*
X85948Y43430*
Y41707*
Y43430D02*
X87425Y44168D01*
Y46137D02*
Y47121D01*
Y46629D02*
X84472D01*
X84964Y46137*
X92415Y103863D02*
Y106816D01*
X94137*
X94630Y106570*
X94876Y106078*
X94630Y105585*
X94137Y105339*
X92415*
X94137D02*
X94876Y103863D01*
X96352D02*
X98320Y106816D01*
X96352*
X91618Y29965D02*
X91864Y30457D01*
X92356Y30704*
X92848Y30457*
X93094Y29965*
Y28243*
X90141*
Y29965*
X90387Y30457*
X90880Y30704*
X91372Y30457*
X91618Y29965*
Y28243*
X93094Y32180D02*
X91126D01*
X91864D02*
X91372Y32426D01*
X91126Y32918*
Y33410*
X91372Y33902*
X93094Y36117D02*
X90141D01*
X92110D02*
Y36855D01*
X91126Y38085*
X92110Y36855D02*
X93094Y38085D01*
Y40054D02*
Y42515D01*
Y43991D02*
X90141D01*
Y45713*
X90387Y46206*
X90880Y46452*
X91372Y46206*
X91618Y45713*
Y43991*
X93094Y47928D02*
X91126D01*
X91372D02*
X91126Y48174D01*
Y48666*
X91372Y48912*
X92110*
X91372D02*
X91126Y49158D01*
Y49650*
X91372Y49896*
X93094*
X91126Y51865D02*
X93832D01*
X92356D02*
X92848Y52111D01*
X93094Y52603*
Y53095*
X92848Y53587*
X92356Y53833*
X91864*
X91372Y53587*
X91126Y53095*
Y52603*
X91372Y52111*
X91864Y51865*
X92356*
X96903Y94650D02*
Y97603D01*
X98626*
X99118Y97357*
X99364Y96865*
X99118Y96373*
X98626Y96127*
X96903*
X98626D02*
X99364Y94650D01*
X101086Y94896D02*
X101578Y94650D01*
X102070*
X102563Y94896*
X102809Y95389*
X102563Y95881*
X102070Y96127*
X101578*
X102070D02*
X102563Y96373D01*
X102809Y96865*
X102563Y97357*
X102070Y97603*
X101578*
X101086Y97357*
X109187Y94414D02*
Y97367D01*
X110909*
X111401Y97121*
X111647Y96629*
X111401Y96137*
X110909Y95891*
X109187*
X110909D02*
X111647Y94414D01*
X113862D02*
X114354Y94660D01*
X114846Y95152*
X115092Y95891*
Y96629*
X114846Y97121*
X114354Y97367*
X113862*
X113370Y97121*
X113124Y96629*
X113370Y96137*
X113862Y95891*
X114354*
X114846Y96137*
X115092Y96629*
X113811Y137190D02*
X113565Y136944D01*
X113072Y136698*
X112334*
X111842Y136944*
X111596Y137190*
X111350Y137682*
Y138666*
X111596Y139158*
X111842Y139404*
X112334Y139650*
X113072*
X113565Y139404*
X113811Y139158*
X115533Y136944D02*
X116025Y136698D01*
X116517*
X117009Y136944*
X117256Y137436*
X117009Y137928*
X116517Y138174*
X116025*
X116517D02*
X117009Y138420D01*
X117256Y138912*
X117009Y139404*
X116517Y139650*
X116025*
X115533Y139404*
X116372Y126796D02*
X116126Y126550D01*
X115633Y126304*
X114895*
X114403Y126550*
X114157Y126796*
X113911Y127288*
Y128272*
X114157Y128765*
X114403Y129011*
X114895Y129257*
X115633*
X116126Y129011*
X116372Y128765*
X118340Y126304D02*
X119324D01*
X118832D02*
Y129257D01*
X118340Y128765*
X115092Y156333D02*
X115338Y155841D01*
X115830Y155595*
X116815*
X117307Y155841*
X117553Y156333*
X117307Y156826*
X116815Y157072*
X115830*
X115338Y157318*
X115092Y157810*
X115338Y158302*
X115830Y158548*
X116815*
X117307Y158302*
X117553Y157810*
X120259Y155595D02*
Y158548D01*
X119029D02*
X121490D01*
X122966Y155595D02*
Y158548D01*
X124689*
X125181Y158302*
X125427Y157810*
X125181Y157318*
X124689Y157072*
X122966*
X124689D02*
X125427Y155595D01*
X119600Y62003D02*
Y59788D01*
X119846Y59296*
X120338Y59050*
X121322*
X121815Y59296*
X122061Y59788*
Y62003*
X124029Y59050D02*
X125013D01*
X124521D02*
Y62003D01*
X124029Y61511*
X124403Y132229D02*
X124157Y131983D01*
X123665Y131737*
X122927*
X122435Y131983*
X122189Y132229*
X121943Y132721*
Y133706*
X122189Y134198*
X122435Y134444*
X122927Y134690*
X123665*
X124157Y134444*
X124403Y134198*
X126372Y131737D02*
X127356D01*
X126864D02*
Y134690D01*
X126372Y134198*
X131785Y131737D02*
X129817D01*
X131539Y133459*
X131785Y133952*
X131539Y134444*
X131047Y134690*
X130309*
X129817Y134444*
X124069Y94178D02*
Y97131D01*
X125791*
X126283Y96885*
X126529Y96393*
X126283Y95900*
X125791Y95654*
X124069*
X125791D02*
X126529Y94178D01*
X128744Y95654D02*
X129236D01*
X129728Y95900*
X129974Y96393*
X129728Y96885*
X129236Y97131*
X128744*
X128252Y96885*
X128006Y96393*
X128252Y95900*
X128744Y95654*
X128252Y95408*
X128006Y94916*
X128252Y94424*
X128744Y94178*
X129236*
X129728Y94424*
X129974Y94916*
X129728Y95408*
X129236Y95654*
X131811Y60542D02*
X131565Y60296D01*
X131072Y60050*
X130334*
X129842Y60296*
X129596Y60542*
X129350Y61034*
Y62019*
X129596Y62511*
X129842Y62757*
X130334Y63003*
X131072*
X131565Y62757*
X131811Y62511*
X134517Y60050D02*
Y63003D01*
X133287Y61034*
X135256*
X131598Y139532D02*
Y140517D01*
Y140024D02*
X128645D01*
Y139532D02*
Y140517D01*
X131106Y145192D02*
X131352Y144946D01*
X131598Y144454*
Y143715*
X131352Y143223*
X131106Y142977*
X130614Y142731*
X129630*
X129137Y142977*
X128891Y143223*
X128645Y143715*
Y144454*
X128891Y144946*
X129137Y145192*
X131598Y146668D02*
X128645Y148637D01*
Y146668*
X157376Y168115D02*
Y171068D01*
X159098*
X159590Y170822*
X159836Y170330*
X159590Y169837*
X159098Y169591*
X157376*
X159098D02*
X159836Y168115D01*
X161805D02*
X162789D01*
X162297D02*
Y171068D01*
X161805Y170576*
X165250Y168361D02*
X165742Y168115D01*
X166480*
X166972Y168361*
X167218Y168853*
Y169099*
X166972Y169591*
X166480Y169837*
X165250*
Y171068*
X167218*
X157110Y21562D02*
X154157D01*
Y23284*
X154403Y23776*
X154895Y24022*
X155387Y23776*
X155633Y23284*
Y21562*
Y23284D02*
X157110Y24022D01*
X156864Y25745D02*
X157110Y26237D01*
Y26729*
X156864Y27221*
X156372Y27467*
X155880Y27221*
X155633Y26729*
Y26237*
Y26729D02*
X155387Y27221D01*
X154895Y27467*
X154403Y27221*
X154157Y26729*
Y26237*
X154403Y25745*
X157110Y31404D02*
Y29436D01*
X155387Y31158*
X154895Y31404*
X154403Y31158*
X154157Y30666*
Y29928*
X154403Y29436*
X164019Y81422D02*
X165004D01*
X164511D02*
Y84375D01*
X164019D02*
X165004D01*
X169679Y81914D02*
X169433Y81668D01*
X168941Y81422*
X168202*
X167710Y81668*
X167464Y81914*
X167218Y82406*
Y83391*
X167464Y83883*
X167710Y84129*
X168202Y84375*
X168941*
X169433Y84129*
X169679Y83883*
X171401Y81668D02*
X171893Y81422D01*
X172385*
X172878Y81668*
X173124Y82160*
X172878Y82652*
X172385Y82898*
X171893*
X172385D02*
X172878Y83144D01*
X173124Y83637*
X172878Y84129*
X172385Y84375*
X171893*
X171401Y84129*
X166086Y175881D02*
X163133D01*
Y177603*
X163380Y178095*
X163872Y178341*
X164364Y178095*
X164610Y177603*
Y175881*
Y177603D02*
X166086Y178341D01*
Y180310D02*
Y181294D01*
Y180802D02*
X163133D01*
X163626Y180310*
X165348Y183755D02*
X164856Y184001D01*
X164610Y184493*
Y184985*
X164856Y185477*
X165348Y185723*
X165840Y185477*
X166086Y184985*
Y184493*
X165840Y184001*
X165348Y183755*
X164610*
X163872Y184001*
X163380Y184493*
X163133Y184985*
X167504Y21865D02*
X164551D01*
Y23587*
X164797Y24080*
X165289Y24326*
X165781Y24080*
X166027Y23587*
Y21865*
Y23587D02*
X167504Y24326D01*
X167257Y26048D02*
X167504Y26540D01*
Y27032*
X167257Y27524*
X166765Y27770*
X166273Y27524*
X166027Y27032*
Y26540*
Y27032D02*
X165781Y27524D01*
X165289Y27770*
X164797Y27524*
X164551Y27032*
Y26540*
X164797Y26048*
X167504Y30231D02*
Y31215D01*
Y30723D02*
X164551D01*
X165043Y30231*
X173783Y147160D02*
X174767D01*
X174275D02*
Y150113D01*
X173783D02*
X174767D01*
X179443Y147652D02*
X179196Y147406D01*
X178704Y147160*
X177966*
X177474Y147406*
X177228Y147652*
X176982Y148144*
Y149129*
X177228Y149621*
X177474Y149867*
X177966Y150113*
X178704*
X179196Y149867*
X179443Y149621*
X181657Y148637D02*
X182149D01*
X182641Y148883*
X182887Y149375*
X182641Y149867*
X182149Y150113*
X181657*
X181165Y149867*
X180919Y149375*
X181165Y148883*
X181657Y148637*
X181165Y148391*
X180919Y147898*
X181165Y147406*
X181657Y147160*
X182149*
X182641Y147406*
X182887Y147898*
X182641Y148391*
X182149Y148637*
X176716Y21865D02*
X173763D01*
Y23587*
X174009Y24080*
X174502Y24326*
X174994Y24080*
X175240Y23587*
Y21865*
Y23587D02*
X176716Y24326D01*
X176470Y26048D02*
X176716Y26540D01*
Y27032*
X176470Y27524*
X175978Y27770*
X175486Y27524*
X175240Y27032*
Y26540*
Y27032D02*
X174994Y27524D01*
X174502Y27770*
X174009Y27524*
X173763Y27032*
Y26540*
X174009Y26048*
X176470Y29985D02*
X176716Y30477D01*
Y30969*
X176470Y31461*
X175978Y31707*
X174502*
X174009Y31461*
X173763Y30969*
Y30477*
X174009Y29985*
X174502Y29739*
X175978*
X176470Y29985*
X174009Y31461*
X176460Y178105D02*
X176706Y177859D01*
X176952Y177367*
Y176629*
X176706Y176137*
X176460Y175891*
X175968Y175644*
X174984*
X174492Y175891*
X174246Y176137*
X174000Y176629*
Y177367*
X174246Y177859*
X174492Y178105*
X176952Y180074D02*
Y181058D01*
Y180566D02*
X174000D01*
X174492Y180074*
X176706Y183765D02*
X176952Y184257D01*
Y184749*
X176706Y185241*
X176214Y185487*
X175722Y185241*
X175476Y184749*
Y184257*
Y184749D02*
X175230Y185241D01*
X174738Y185487*
X174246Y185241*
X174000Y184749*
Y184257*
X174246Y183765*
X186874Y21812D02*
X183921D01*
Y23534*
X184167Y24026*
X184659Y24272*
X185151Y24026*
X185397Y23534*
Y21812*
Y23534D02*
X186874Y24272D01*
Y27717D02*
Y25749D01*
X185151Y27471*
X184659Y27717*
X184167Y27471*
X183921Y26979*
Y26241*
X184167Y25749*
X186874Y30424D02*
X186628Y30916D01*
X186135Y31408*
X185397Y31654*
X184659*
X184167Y31408*
X183921Y30916*
Y30424*
X184167Y29932*
X184659Y29686*
X185151Y29932*
X185397Y30424*
Y30916*
X185151Y31408*
X184659Y31654*
X194870Y110522D02*
X195116Y110276D01*
X195362Y109784*
Y109046*
X195116Y108554*
X194870Y108308*
X194378Y108062*
X193393*
X192901Y108308*
X192655Y108554*
X192409Y109046*
Y109784*
X192655Y110276*
X192901Y110522*
X195362Y111999D02*
X192409Y113229D01*
X195362Y114459*
X194131Y112491D02*
Y113967D01*
X195362Y115936D02*
X192409D01*
X195362Y118396*
X192409*
X195362Y120365D02*
Y121349D01*
Y120857D02*
X192409D01*
X192901Y120365*
X197090Y79528D02*
X200043D01*
Y77806*
X199797Y77314*
X199305Y77068*
X198813Y77314*
X198567Y77806*
Y79528*
Y77806D02*
X197090Y77068D01*
Y75099D02*
Y74115D01*
Y74607D02*
X200043D01*
X199551Y75099*
X197090Y70424D02*
X200043D01*
X198074Y71654*
Y69686*
X197267Y22062D02*
X194315D01*
Y23784*
X194561Y24276*
X195053Y24522*
X195545Y24276*
X195791Y23784*
Y22062*
Y23784D02*
X197267Y24522D01*
Y27967D02*
Y25999D01*
X195545Y27721*
X195053Y27967*
X194561Y27721*
X194315Y27229*
Y26491*
X194561Y25999*
X195791Y30674D02*
Y31166D01*
X195545Y31658*
X195053Y31904*
X194561Y31658*
X194315Y31166*
Y30674*
X194561Y30182*
X195053Y29936*
X195545Y30182*
X195791Y30674*
X196037Y30182*
X196529Y29936*
X197021Y30182*
X197267Y30674*
Y31166*
X197021Y31658*
X196529Y31904*
X196037Y31658*
X195791Y31166*
X198006Y60162D02*
Y63115D01*
X199728*
X200220Y62869*
X200466Y62377*
X200220Y61885*
X199728Y61639*
X198006*
X199728D02*
X200466Y60162D01*
X201943D02*
Y63115D01*
X203173Y61639*
X204403Y63115*
Y60162*
X207110D02*
Y63115D01*
X205880D02*
X208340D01*
X198006Y83076D02*
Y86028D01*
X199728*
X200220Y85782*
X200466Y85290*
X200220Y84798*
X199728Y84552*
X198006*
X199728D02*
X200466Y83076D01*
X202435D02*
X203419D01*
X202927D02*
Y86028D01*
X202435Y85536*
X206126Y83322D02*
X206618Y83076D01*
X207110*
X207602Y83322*
X207848Y83814*
X207602Y84306*
X207110Y84552*
X206618*
X207110D02*
X207602Y84798D01*
X207848Y85290*
X207602Y85782*
X207110Y86028*
X206618*
X206126Y85782*
X207189Y22062D02*
X204236D01*
Y23784*
X204482Y24276*
X204974Y24522*
X205466Y24276*
X205712Y23784*
Y22062*
Y23784D02*
X207189Y24522D01*
Y27967D02*
Y25999D01*
X205466Y27721*
X204974Y27967*
X204482Y27721*
X204236Y27229*
Y26491*
X204482Y25999*
X207189Y29936D02*
X204236Y31904D01*
Y29936*
X217238Y86166D02*
X216992Y85920D01*
X216500Y85674*
X215761*
X215269Y85920*
X215023Y86166*
X214777Y86658*
Y87643*
X215023Y88135*
X215269Y88381*
X215761Y88627*
X216500*
X216992Y88381*
X217238Y88135*
X219206Y85674D02*
X220191D01*
X219698D02*
Y88627D01*
X219206Y88135*
X223143Y85674D02*
X224128D01*
X223635D02*
Y88627D01*
X223143Y88135*
X216165Y22387D02*
X214689D01*
X213212Y21156*
X214689Y22387D02*
X213212Y23617D01*
X216165Y25585D02*
Y26570D01*
Y26078D02*
X213212D01*
X213704Y25585*
X217838Y148800D02*
X218822D01*
X218330D02*
Y151753D01*
X217838D02*
X218822D01*
X223498Y149292D02*
X223252Y149046D01*
X222759Y148800*
X222021*
X221529Y149046*
X221283Y149292*
X221037Y149784*
Y150769*
X221283Y151261*
X221529Y151507*
X222021Y151753*
X222759*
X223252Y151507*
X223498Y151261*
X225712Y148800D02*
X226204Y149046D01*
X226696Y149538*
X226943Y150276*
Y151015*
X226696Y151507*
X226204Y151753*
X225712*
X225220Y151507*
X224974Y151015*
X225220Y150522*
X225712Y150276*
X226204*
X226696Y150522*
X226943Y151015*
X224797Y190812D02*
X224551Y190566D01*
X224059Y190320*
X223320*
X222828Y190566*
X222582Y190812*
X222336Y191304*
Y192288*
X222582Y192780*
X222828Y193026*
X223320Y193272*
X224059*
X224551Y193026*
X224797Y192780*
X226273Y192288D02*
Y191058D01*
X226519Y190566*
X227011Y190320*
X227504*
X227996Y190566*
X228242Y191058*
Y192288D02*
Y190320D01*
X230210D02*
Y192288D01*
Y191550D02*
X230456Y192042D01*
X230948Y192288*
X231441*
X231933Y192042*
X234639Y192288D02*
X235624D01*
X235131Y192780D02*
Y190566D01*
X235378Y190320*
X235624*
X235870Y190566*
X228921Y89237D02*
X227444D01*
X225968Y88007*
X227444Y89237D02*
X225968Y90467D01*
X228921Y93912D02*
Y91944D01*
X227198Y93666*
X226706Y93912*
X226214Y93666*
X225968Y93174*
Y92436*
X226214Y91944*
X237047Y79249D02*
Y78265D01*
Y78757D02*
X240000D01*
Y79249D02*
Y78265D01*
X237539Y73589D02*
X237293Y73835D01*
X237047Y74328*
Y75066*
X237293Y75558*
X237539Y75804*
X238031Y76050*
X239015*
X239507Y75804*
X239754Y75558*
X240000Y75066*
Y74328*
X239754Y73835*
X239507Y73589*
X237785Y72113D02*
X238277Y71867D01*
X238523Y71375*
Y70883*
X238277Y70391*
X237785Y70144*
X237293Y70391*
X237047Y70883*
Y71375*
X237293Y71867*
X237785Y72113*
X238523*
X239261Y71867*
X239754Y71375*
X240000Y70883*
X241027Y65359D02*
X242011D01*
X241519D02*
Y68312D01*
X241027D02*
X242011D01*
X246687Y65851D02*
X246441Y65605D01*
X245948Y65359*
X245210*
X244718Y65605*
X244472Y65851*
X244226Y66343*
Y67328*
X244472Y67820*
X244718Y68066*
X245210Y68312*
X245948*
X246441Y68066*
X246687Y67820*
X249393Y65359D02*
Y68312D01*
X248163Y66343*
X250131*
X255643Y66068D02*
Y69020D01*
X257366*
X257858Y68774*
X258104Y68282*
X257858Y67790*
X257366Y67544*
X255643*
X257366D02*
X258104Y66068D01*
X260072D02*
X261057D01*
X260565D02*
Y69020D01*
X260072Y68528*
X264009Y66068D02*
X264994D01*
X264502D02*
Y69020D01*
X264009Y68528*
X258088Y129997D02*
X259072D01*
X258580D02*
Y132950D01*
X258088D02*
X259072D01*
X263748Y130489D02*
X263502Y130243D01*
X263009Y129997*
X262271*
X261779Y130243*
X261533Y130489*
X261287Y130981*
Y131965*
X261533Y132457*
X261779Y132704*
X262271Y132950*
X263009*
X263502Y132704*
X263748Y132457*
X265224Y130243D02*
X265716Y129997D01*
X266454*
X266946Y130243*
X267193Y130735*
Y130981*
X266946Y131473*
X266454Y131719*
X265224*
Y132950*
X267193*
X268261Y70576D02*
X268015Y70330D01*
X267523Y70083*
X266785*
X266293Y70330*
X266047Y70576*
X265801Y71068*
Y72052*
X266047Y72544*
X266293Y72790*
X266785Y73036*
X267523*
X268015Y72790*
X268261Y72544*
X270230Y70083D02*
X271214D01*
X270722D02*
Y73036D01*
X270230Y72544*
X273921Y70330D02*
X274413Y70083D01*
X274905*
X275397Y70330*
X275643Y70822*
Y72298*
X275397Y72790*
X274905Y73036*
X274413*
X273921Y72790*
X273675Y72298*
Y70822*
X273921Y70330*
X275397Y72790*
X266037Y73627D02*
Y76580D01*
X267759*
X268252Y76333*
X268498Y75841*
X268252Y75349*
X267759Y75103*
X266037*
X267759D02*
X268498Y73627D01*
X270466D02*
X271450D01*
X270958D02*
Y76580D01*
X270466Y76087*
X275880Y73627D02*
X273911D01*
X275633Y75349*
X275880Y75841*
X275633Y76333*
X275141Y76580*
X274403*
X273911Y76333*
X280862Y142800D02*
Y143784D01*
Y143292D02*
X277909D01*
Y142800D02*
Y143784D01*
X280370Y148459D02*
X280616Y148213D01*
X280862Y147721*
Y146983*
X280616Y146491*
X280370Y146245*
X279878Y145999*
X278893*
X278401Y146245*
X278155Y146491*
X277909Y146983*
Y147721*
X278155Y148213*
X278401Y148459*
X280862Y150428D02*
Y151412D01*
Y150920D02*
X277909D01*
X278401Y150428*
X280616Y154119D02*
X280862Y154611D01*
Y155103*
X280616Y155595*
X280124Y155841*
X278647*
X278155Y155595*
X277909Y155103*
Y154611*
X278155Y154119*
X278647Y153873*
X280124*
X280616Y154119*
X278155Y155595*
X284935Y43788D02*
X285181Y43296D01*
X285673Y43050*
X286657*
X287149Y43296*
X287395Y43788*
X287149Y44280*
X286657Y44526*
X285673*
X285181Y44772*
X284935Y45265*
X285181Y45757*
X285673Y46003*
X286657*
X287149Y45757*
X287395Y45265*
X289364Y45019D02*
X290348D01*
X289856Y45511D02*
Y43296D01*
X290102Y43050*
X290348*
X290594Y43296*
X292809Y43050D02*
Y45019D01*
Y44280D02*
X293055Y44772D01*
X293547Y45019*
X294039*
X294531Y44772*
X296746Y43050D02*
X299206D01*
X300683D02*
Y46003D01*
X302405*
X302897Y45757*
X303143Y45265*
X302897Y44772*
X302405Y44526*
X300683*
X304620Y43788D02*
X304866Y43296D01*
X305358Y43050*
X305850*
X306342Y43296*
X306588Y43788*
Y44280*
X306342Y44772*
X305850Y45019*
X305358*
X304866Y44772*
X304620Y44280*
Y43788*
X309049Y45019D02*
X310033D01*
X309541Y45511D02*
Y43296D01*
X309787Y43050*
X310033*
X310279Y43296*
X287011Y50310D02*
X287257Y50064D01*
X287504Y49572*
Y48833*
X287257Y48341*
X287011Y48095*
X286519Y47849*
X285535*
X285043Y48095*
X284797Y48341*
X284551Y48833*
Y49572*
X284797Y50064*
X285043Y50310*
X287504Y51786D02*
X284551Y53755D01*
Y51786*
X292730Y168115D02*
Y171068D01*
X294452*
X294944Y170822*
X295191Y170330*
X294944Y169837*
X294452Y169591*
X292730*
X294452D02*
X295191Y168115D01*
X298635D02*
X296667D01*
X298389Y169837*
X298635Y170330*
X298389Y170822*
X297897Y171068*
X297159*
X296667Y170822*
X300850Y168361D02*
X301342Y168115D01*
X301834*
X302326Y168361*
X302572Y168853*
X302326Y169345*
X301834Y169591*
X301342*
X301834D02*
X302326Y169837D01*
X302572Y170330*
X302326Y170822*
X301834Y171068*
X301342*
X300850Y170822*
X293439Y142367D02*
Y145320D01*
X295161*
X295653Y145074*
X295899Y144581*
X295653Y144089*
X295161Y143843*
X293439*
X295161D02*
X295899Y142367D01*
X299344D02*
X297376D01*
X299098Y144089*
X299344Y144581*
X299098Y145074*
X298606Y145320*
X297868*
X297376Y145074*
X303281Y142367D02*
X301313D01*
X303035Y144089*
X303281Y144581*
X303035Y145074*
X302543Y145320*
X301805*
X301313Y145074*
X298163Y137643D02*
Y140595D01*
Y139119D02*
X300624D01*
Y137643D02*
Y140595D01*
X302100Y137643D02*
Y140595D01*
X303330Y139119*
X304561Y140595*
Y137643*
X306775D02*
X307759D01*
X307267D02*
Y140595D01*
X306775D02*
X307759D01*
X302750Y152544D02*
X302504Y152298D01*
X302011Y152052*
X301273*
X300781Y152298*
X300535Y152544*
X300289Y153036*
Y154020*
X300535Y154513*
X300781Y154759*
X301273Y155005*
X302011*
X302504Y154759*
X302750Y154513*
X304718Y152052D02*
X305702D01*
X305210D02*
Y155005D01*
X304718Y154513*
X309393Y152052D02*
Y155005D01*
X308163Y153036*
X310131*
X317297Y5123D02*
Y8076D01*
X319019*
X319511Y7830*
X319757Y7337*
X319511Y6845*
X319019Y6599*
X317297*
X319019D02*
X319757Y5123D01*
X323202D02*
X321234D01*
X322956Y6845*
X323202Y7337*
X322956Y7830*
X322464Y8076*
X321726*
X321234Y7830*
X326401Y5123D02*
Y8076D01*
X325171Y6107*
X327139*
X328261Y21442D02*
X328015Y21196D01*
X327523Y20950*
X326785*
X326293Y21196*
X326047Y21442*
X325801Y21934*
Y22918*
X326047Y23410*
X326293Y23656*
X326785Y23902*
X327523*
X328015Y23656*
X328261Y23410*
X331706Y20950D02*
X329738D01*
X331460Y22672*
X331706Y23164*
X331460Y23656*
X330968Y23902*
X330230*
X329738Y23656*
X333921Y21196D02*
X334413Y20950D01*
X334905*
X335397Y21196*
X335643Y21688*
X335397Y22180*
X334905Y22426*
X334413*
X334905D02*
X335397Y22672D01*
X335643Y23164*
X335397Y23656*
X334905Y23902*
X334413*
X333921Y23656*
D02*
D142*
X30466Y199312D02*
Y196812D01*
X27966Y194312*
X22966*
X20466Y196812*
Y206812*
X22966Y209312*
X27966*
X30466Y206812*
Y204312*
X40466Y199312D02*
Y196812D01*
X37966Y194312*
X32966*
X30466Y196812*
Y206812*
X32966Y209312*
X37966*
X40466Y206812*
Y204312*
X50466Y199312D02*
Y196812D01*
X47966Y194312*
X42966*
X40466Y196812*
Y206812*
X42966Y209312*
X47966*
X50466Y206812*
Y204312*
X60466Y199312D02*
Y196812D01*
X57966Y194312*
X52966*
X50466Y196812*
Y206812*
X52966Y209312*
X57966*
X60466Y206812*
Y204312*
X65466Y9312D02*
Y6812D01*
X62966Y4312*
X57966*
X55466Y6812*
Y16812*
X57966Y19312*
X62966*
X65466Y16812*
Y14312*
X70466Y199312D02*
Y196812D01*
X67966Y194312*
X62966*
X60466Y196812*
Y206812*
X62966Y209312*
X67966*
X70466Y206812*
Y204312*
X75466Y9312D02*
Y6812D01*
X72966Y4312*
X67966*
X65466Y6812*
Y16812*
X67966Y19312*
X72966*
X75466Y16812*
Y14312*
X80466Y199312D02*
Y196812D01*
X77966Y194312*
X72966*
X70466Y196812*
Y206812*
X72966Y209312*
X77966*
X80466Y206812*
Y204312*
X85466Y9312D02*
Y6812D01*
X82966Y4312*
X77966*
X75466Y6812*
Y16812*
X77966Y19312*
X82966*
X85466Y16812*
Y14312*
X90466Y199312D02*
Y196812D01*
X87966Y194312*
X82966*
X80466Y196812*
Y206812*
X82966Y209312*
X87966*
X90466Y206812*
Y204312*
X95466Y9312D02*
Y6812D01*
X92966Y4312*
X87966*
X85466Y6812*
Y16812*
X87966Y19312*
X92966*
X95466Y16812*
Y14312*
X100466Y199312D02*
Y196812D01*
X97966Y194312*
X92966*
X90466Y196812*
Y206812*
X92966Y209312*
X97966*
X100466Y206812*
Y204312*
X105466Y9312D02*
Y6812D01*
X102966Y4312*
X97966*
X95466Y6812*
Y16812*
X97966Y19312*
X102966*
X105466Y16812*
Y14312*
X110466Y199312D02*
Y196812D01*
X112966Y194312*
X117966*
X120466Y196812*
Y206812*
X117966Y209312*
X112966*
X110466Y206812*
Y204312*
Y196812*
X107966Y194312*
X102966*
X100466Y196812*
Y206812*
X102966Y209312*
X107966*
X110466Y206812*
Y204312*
X115466Y9312D02*
Y6812D01*
X112966Y4312*
X107966*
X105466Y6812*
Y16812*
X107966Y19312*
X112966*
X115466Y16812*
Y14312*
X125466Y9312D02*
Y6812D01*
X122966Y4312*
X117966*
X115466Y6812*
Y16812*
X117966Y19312*
X122966*
X125466Y16812*
Y14312*
X135466D02*
Y6812D01*
X132966Y4312*
X127966*
X125466Y6812*
Y16812*
X127966Y19312*
X132966*
X135466Y16812*
Y14312*
Y199312D02*
Y196812D01*
X132966Y194312*
X127966*
X125466Y196812*
Y206812*
X127966Y209312*
X132966*
X135466Y206812*
Y204312*
X145466Y199312D02*
Y196812D01*
X142966Y194312*
X137966*
X135466Y196812*
Y206812*
X137966Y209312*
X142966*
X145466Y206812*
Y204312*
X155466Y9312D02*
Y6812D01*
X152966Y4312*
X147966*
X145466Y6812*
Y16812*
X147966Y19312*
X152966*
X155466Y16812*
Y14312*
Y199312D02*
Y196812D01*
X152966Y194312*
X147966*
X145466Y196812*
Y206812*
X147966Y209312*
X152966*
X155466Y206812*
Y204312*
X165466Y9312D02*
Y6812D01*
X162966Y4312*
X157966*
X155466Y6812*
Y16812*
X157966Y19312*
X162966*
X165466Y16812*
Y14312*
Y199312D02*
Y196812D01*
X162966Y194312*
X157966*
X155466Y196812*
Y206812*
X157966Y209312*
X162966*
X165466Y206812*
Y204312*
X175466Y9312D02*
Y6812D01*
X172966Y4312*
X167966*
X165466Y6812*
Y16812*
X167966Y19312*
X172966*
X175466Y16812*
Y14312*
Y199312D02*
Y196812D01*
X172966Y194312*
X167966*
X165466Y196812*
Y206812*
X167966Y209312*
X172966*
X175466Y206812*
Y204312*
X185466Y9312D02*
Y6812D01*
X182966Y4312*
X177966*
X175466Y6812*
Y16812*
X177966Y19312*
X182966*
X185466Y16812*
Y14312*
Y199312D02*
Y196812D01*
X182966Y194312*
X177966*
X175466Y196812*
Y206812*
X177966Y209312*
X182966*
X185466Y206812*
Y204312*
X195466Y9312D02*
Y6812D01*
X192966Y4312*
X187966*
X185466Y6812*
Y16812*
X187966Y19312*
X192966*
X195466Y16812*
Y14312*
Y199312D02*
Y196812D01*
X197966Y194312*
X202966*
X205466Y196812*
Y206812*
X202966Y209312*
X197966*
X195466Y206812*
Y204312*
Y196812*
X192966Y194312*
X187966*
X185466Y196812*
Y206812*
X187966Y209312*
X192966*
X195466Y206812*
Y204312*
X205466Y9312D02*
Y6812D01*
X202966Y4312*
X197966*
X195466Y6812*
Y16812*
X197966Y19312*
X202966*
X205466Y16812*
Y14312*
X215466Y9312D02*
Y6812D01*
X212966Y4312*
X207966*
X205466Y6812*
Y16812*
X207966Y19312*
X212966*
X215466Y16812*
Y14312*
X225466D02*
Y6812D01*
X222966Y4312*
X217966*
X215466Y6812*
Y16812*
X217966Y19312*
X222966*
X225466Y16812*
Y14312*
Y199312D02*
Y196812D01*
X222966Y194312*
X217966*
X215466Y196812*
Y206812*
X217966Y209312*
X222966*
X225466Y206812*
Y204312*
X235466Y199312D02*
Y196812D01*
X232966Y194312*
X227966*
X225466Y196812*
Y206812*
X227966Y209312*
X232966*
X235466Y206812*
Y204312*
X245466Y9312D02*
Y6812D01*
X242966Y4312*
X237966*
X235466Y6812*
Y16812*
X237966Y19312*
X242966*
X245466Y16812*
Y14312*
Y199312D02*
Y196812D01*
X242966Y194312*
X237966*
X235466Y196812*
Y206812*
X237966Y209312*
X242966*
X245466Y206812*
Y204312*
X255466Y9312D02*
Y6812D01*
X252966Y4312*
X247966*
X245466Y6812*
Y16812*
X247966Y19312*
X252966*
X255466Y16812*
Y14312*
Y199312D02*
Y196812D01*
X252966Y194312*
X247966*
X245466Y196812*
Y206812*
X247966Y209312*
X252966*
X255466Y206812*
Y204312*
X265466Y9312D02*
Y6812D01*
X262966Y4312*
X257966*
X255466Y6812*
Y16812*
X257966Y19312*
X262966*
X265466Y16812*
Y14312*
Y199312D02*
Y196812D01*
X262966Y194312*
X257966*
X255466Y196812*
Y206812*
X257966Y209312*
X262966*
X265466Y206812*
Y204312*
X275466Y9312D02*
Y6812D01*
X272966Y4312*
X267966*
X265466Y6812*
Y16812*
X267966Y19312*
X272966*
X275466Y16812*
Y14312*
Y199312D02*
Y196812D01*
X272966Y194312*
X267966*
X265466Y196812*
Y206812*
X267966Y209312*
X272966*
X275466Y206812*
Y204312*
X285466Y9312D02*
Y6812D01*
X282966Y4312*
X277966*
X275466Y6812*
Y16812*
X277966Y19312*
X282966*
X285466Y16812*
Y14312*
Y199312D02*
Y196812D01*
X287966Y194312*
X292966*
X295466Y196812*
Y206812*
X292966Y209312*
X287966*
X285466Y206812*
Y204312*
Y196812*
X282966Y194312*
X277966*
X275466Y196812*
Y206812*
X277966Y209312*
X282966*
X285466Y206812*
Y204312*
X295466Y9312D02*
Y6812D01*
X292966Y4312*
X287966*
X285466Y6812*
Y16812*
X287966Y19312*
X292966*
X295466Y16812*
Y14312*
X305466Y9312D02*
Y6812D01*
X302966Y4312*
X297966*
X295466Y6812*
Y16812*
X297966Y19312*
X302966*
X305466Y16812*
Y14312*
X315466Y9312D02*
Y6812D01*
X312966Y4312*
X307966*
X305466Y6812*
Y16812*
X307966Y19312*
X312966*
X315466Y16812*
Y9312*
X330466Y36812D02*
X332966D01*
X335466Y34312*
Y29312*
X332966Y26812*
X317966*
X315466Y29312*
Y34312*
X317966Y36812*
X320466*
X330466Y46812D02*
X332966D01*
X335466Y44312*
Y39312*
X332966Y36812*
X317966*
X315466Y39312*
Y44312*
X317966Y46812*
X320466*
X330466Y56812D02*
X332966D01*
X335466Y54312*
Y49312*
X332966Y46812*
X317966*
X315466Y49312*
Y54312*
X317966Y56812*
X320466*
X330466Y66812D02*
X332966D01*
X335466Y64312*
Y59312*
X332966Y56812*
X317966*
X315466Y59312*
Y64312*
X317966Y66812*
X320466*
X330466Y76812D02*
X332966D01*
X335466Y74312*
Y69312*
X332966Y66812*
X317966*
X315466Y69312*
Y74312*
X317966Y76812*
X320466*
X330466Y86812D02*
X332966D01*
X335466Y84312*
Y79312*
X332966Y76812*
X317966*
X315466Y79312*
Y84312*
X317966Y86812*
X320466*
X330466Y96812D02*
X332966D01*
X335466Y94312*
Y89312*
X332966Y86812*
X317966*
X315466Y89312*
Y94312*
X317966Y96812*
X320466*
X330466Y106812D02*
X332966D01*
X335466Y104312*
Y99312*
X332966Y96812*
X317966*
X315466Y99312*
Y104312*
X317966Y106812*
X320466*
X330466Y116812D02*
X332966D01*
X335466Y114312*
Y109312*
X332966Y106812*
X317966*
X315466Y109312*
Y114312*
X317966Y116812*
X320466*
X330466Y126812D02*
X332966D01*
X335466Y124312*
Y119312*
X332966Y116812*
X317966*
X315466Y119312*
Y124312*
X317966Y126812*
X320466*
X330466Y136812D02*
X332966D01*
X335466Y134312*
Y129312*
X332966Y126812*
X317966*
X315466Y129312*
Y134312*
X317966Y136812*
X320466*
X330466Y146812D02*
X332966D01*
X335466Y144312*
Y139312*
X332966Y136812*
X317966*
X315466Y139312*
Y144312*
X317966Y146812*
X320466*
X330466Y156812D02*
X332966D01*
X335466Y154312*
Y149312*
X332966Y146812*
X317966*
X315466Y149312*
Y154312*
X317966Y156812*
X320466*
X330466Y166812D02*
X332966D01*
X335466Y164312*
Y159312*
X332966Y156812*
X317966*
X315466Y159312*
Y164312*
X317966Y166812*
X320466*
X330466Y176812D02*
X332966D01*
X335466Y174312*
Y169312*
X332966Y166812*
X317966*
X315466Y169312*
Y174312*
X317966Y176812*
X320466*
X330466Y186812D02*
X332966D01*
X335466Y184312*
Y179312*
X332966Y176812*
X317966*
X315466Y179312*
Y184312*
X317966Y186812*
X320466*
X330466Y196812D02*
X332966D01*
X335466Y194312*
Y189312*
X332966Y186812*
X317966*
X315466Y189312*
Y194312*
X317966Y196812*
X320466*
X330466Y206812D02*
X332966D01*
X335466Y204312*
Y199312*
X332966Y196812*
X317966*
X315466Y199312*
Y204312*
X317966Y206812*
X330466*
D02*
D143*
X26466Y202812D02*
X24466D01*
Y200812*
X26466*
Y202812*
G36*
X24466*
Y200812*
X26466*
Y202812*
G37*
X36466D02*
X34466D01*
Y200812*
X36466*
Y202812*
G36*
X34466*
Y200812*
X36466*
Y202812*
G37*
X46466D02*
X44466D01*
Y200812*
X46466*
Y202812*
G36*
X44466*
Y200812*
X46466*
Y202812*
G37*
X56466D02*
X54466D01*
Y200812*
X56466*
Y202812*
G36*
X54466*
Y200812*
X56466*
Y202812*
G37*
X66466D02*
X64466D01*
Y200812*
X66466*
Y202812*
G36*
X64466*
Y200812*
X66466*
Y202812*
G37*
X69466Y10812D02*
X71466D01*
Y12812*
X69466*
Y10812*
G36*
X71466*
Y12812*
X69466*
Y10812*
G37*
X76466Y202812D02*
X74466D01*
Y200812*
X76466*
Y202812*
G36*
X74466*
Y200812*
X76466*
Y202812*
G37*
X79466Y10812D02*
X81466D01*
Y12812*
X79466*
Y10812*
G36*
X81466*
Y12812*
X79466*
Y10812*
G37*
X86466Y202812D02*
X84466D01*
Y200812*
X86466*
Y202812*
G36*
X84466*
Y200812*
X86466*
Y202812*
G37*
X89466Y10812D02*
X91466D01*
Y12812*
X89466*
Y10812*
G36*
X91466*
Y12812*
X89466*
Y10812*
G37*
X96466Y202812D02*
X94466D01*
Y200812*
X96466*
Y202812*
G36*
X94466*
Y200812*
X96466*
Y202812*
G37*
X99466Y10812D02*
X101466D01*
Y12812*
X99466*
Y10812*
G36*
X101466*
Y12812*
X99466*
Y10812*
G37*
X106466Y202812D02*
X104466D01*
Y200812*
X106466*
Y202812*
G36*
X104466*
Y200812*
X106466*
Y202812*
G37*
X109466Y10812D02*
X111466D01*
Y12812*
X109466*
Y10812*
G36*
X111466*
Y12812*
X109466*
Y10812*
G37*
X116466Y202812D02*
X114466D01*
Y200812*
X116466*
Y202812*
G36*
X114466*
Y200812*
X116466*
Y202812*
G37*
X119466Y10812D02*
X121466D01*
Y12812*
X119466*
Y10812*
G36*
X121466*
Y12812*
X119466*
Y10812*
G37*
X129466D02*
X131466D01*
Y12812*
X129466*
Y10812*
G36*
X131466*
Y12812*
X129466*
Y10812*
G37*
X131466Y202812D02*
X129466D01*
Y200812*
X131466*
Y202812*
G36*
X129466*
Y200812*
X131466*
Y202812*
G37*
X141466D02*
X139466D01*
Y200812*
X141466*
Y202812*
G36*
X139466*
Y200812*
X141466*
Y202812*
G37*
X149466Y10812D02*
X151466D01*
Y12812*
X149466*
Y10812*
G36*
X151466*
Y12812*
X149466*
Y10812*
G37*
X151466Y202812D02*
X149466D01*
Y200812*
X151466*
Y202812*
G36*
X149466*
Y200812*
X151466*
Y202812*
G37*
X159466Y10812D02*
X161466D01*
Y12812*
X159466*
Y10812*
G36*
X161466*
Y12812*
X159466*
Y10812*
G37*
X161466Y202812D02*
X159466D01*
Y200812*
X161466*
Y202812*
G36*
X159466*
Y200812*
X161466*
Y202812*
G37*
X169466Y10812D02*
X171466D01*
Y12812*
X169466*
Y10812*
G36*
X171466*
Y12812*
X169466*
Y10812*
G37*
X171466Y202812D02*
X169466D01*
Y200812*
X171466*
Y202812*
G36*
X169466*
Y200812*
X171466*
Y202812*
G37*
X179466Y10812D02*
X181466D01*
Y12812*
X179466*
Y10812*
G36*
X181466*
Y12812*
X179466*
Y10812*
G37*
X181466Y202812D02*
X179466D01*
Y200812*
X181466*
Y202812*
G36*
X179466*
Y200812*
X181466*
Y202812*
G37*
X189466Y10812D02*
X191466D01*
Y12812*
X189466*
Y10812*
G36*
X191466*
Y12812*
X189466*
Y10812*
G37*
X191466Y202812D02*
X189466D01*
Y200812*
X191466*
Y202812*
G36*
X189466*
Y200812*
X191466*
Y202812*
G37*
X199466Y10812D02*
X201466D01*
Y12812*
X199466*
Y10812*
G36*
X201466*
Y12812*
X199466*
Y10812*
G37*
X201466Y202812D02*
X199466D01*
Y200812*
X201466*
Y202812*
G36*
X199466*
Y200812*
X201466*
Y202812*
G37*
X209466Y10812D02*
X211466D01*
Y12812*
X209466*
Y10812*
G36*
X211466*
Y12812*
X209466*
Y10812*
G37*
X219466D02*
X221466D01*
Y12812*
X219466*
Y10812*
G36*
X221466*
Y12812*
X219466*
Y10812*
G37*
X221466Y202812D02*
X219466D01*
Y200812*
X221466*
Y202812*
G36*
X219466*
Y200812*
X221466*
Y202812*
G37*
X231466D02*
X229466D01*
Y200812*
X231466*
Y202812*
G36*
X229466*
Y200812*
X231466*
Y202812*
G37*
X239466Y10812D02*
X241466D01*
Y12812*
X239466*
Y10812*
G36*
X241466*
Y12812*
X239466*
Y10812*
G37*
X241466Y202812D02*
X239466D01*
Y200812*
X241466*
Y202812*
G36*
X239466*
Y200812*
X241466*
Y202812*
G37*
X249466Y10812D02*
X251466D01*
Y12812*
X249466*
Y10812*
G36*
X251466*
Y12812*
X249466*
Y10812*
G37*
X251466Y202812D02*
X249466D01*
Y200812*
X251466*
Y202812*
G36*
X249466*
Y200812*
X251466*
Y202812*
G37*
X259466Y10812D02*
X261466D01*
Y12812*
X259466*
Y10812*
G36*
X261466*
Y12812*
X259466*
Y10812*
G37*
X261466Y202812D02*
X259466D01*
Y200812*
X261466*
Y202812*
G36*
X259466*
Y200812*
X261466*
Y202812*
G37*
X269466Y10812D02*
X271466D01*
Y12812*
X269466*
Y10812*
G36*
X271466*
Y12812*
X269466*
Y10812*
G37*
X271466Y202812D02*
X269466D01*
Y200812*
X271466*
Y202812*
G36*
X269466*
Y200812*
X271466*
Y202812*
G37*
X279466Y10812D02*
X281466D01*
Y12812*
X279466*
Y10812*
G36*
X281466*
Y12812*
X279466*
Y10812*
G37*
X281466Y202812D02*
X279466D01*
Y200812*
X281466*
Y202812*
G36*
X279466*
Y200812*
X281466*
Y202812*
G37*
X289466Y10812D02*
X291466D01*
Y12812*
X289466*
Y10812*
G36*
X291466*
Y12812*
X289466*
Y10812*
G37*
X291466Y202812D02*
X289466D01*
Y200812*
X291466*
Y202812*
G36*
X289466*
Y200812*
X291466*
Y202812*
G37*
X299466Y10812D02*
X301466D01*
Y12812*
X299466*
Y10812*
G36*
X301466*
Y12812*
X299466*
Y10812*
G37*
X309466D02*
X311466D01*
Y12812*
X309466*
Y10812*
G36*
X311466*
Y12812*
X309466*
Y10812*
G37*
X319466Y32812D02*
Y30812D01*
X321466*
Y32812*
X319466*
G36*
Y30812*
X321466*
Y32812*
X319466*
G37*
Y42812D02*
Y40812D01*
X321466*
Y42812*
X319466*
G36*
Y40812*
X321466*
Y42812*
X319466*
G37*
Y52812D02*
Y50812D01*
X321466*
Y52812*
X319466*
G36*
Y50812*
X321466*
Y52812*
X319466*
G37*
Y62812D02*
Y60812D01*
X321466*
Y62812*
X319466*
G36*
Y60812*
X321466*
Y62812*
X319466*
G37*
Y72812D02*
Y70812D01*
X321466*
Y72812*
X319466*
G36*
Y70812*
X321466*
Y72812*
X319466*
G37*
Y82812D02*
Y80812D01*
X321466*
Y82812*
X319466*
G36*
Y80812*
X321466*
Y82812*
X319466*
G37*
Y92812D02*
Y90812D01*
X321466*
Y92812*
X319466*
G36*
Y90812*
X321466*
Y92812*
X319466*
G37*
Y102812D02*
Y100812D01*
X321466*
Y102812*
X319466*
G36*
Y100812*
X321466*
Y102812*
X319466*
G37*
Y112812D02*
Y110812D01*
X321466*
Y112812*
X319466*
G36*
Y110812*
X321466*
Y112812*
X319466*
G37*
Y122812D02*
Y120812D01*
X321466*
Y122812*
X319466*
G36*
Y120812*
X321466*
Y122812*
X319466*
G37*
Y132812D02*
Y130812D01*
X321466*
Y132812*
X319466*
G36*
Y130812*
X321466*
Y132812*
X319466*
G37*
Y142812D02*
Y140812D01*
X321466*
Y142812*
X319466*
G36*
Y140812*
X321466*
Y142812*
X319466*
G37*
Y152812D02*
Y150812D01*
X321466*
Y152812*
X319466*
G36*
Y150812*
X321466*
Y152812*
X319466*
G37*
Y162812D02*
Y160812D01*
X321466*
Y162812*
X319466*
G36*
Y160812*
X321466*
Y162812*
X319466*
G37*
Y172812D02*
Y170812D01*
X321466*
Y172812*
X319466*
G36*
Y170812*
X321466*
Y172812*
X319466*
G37*
Y182812D02*
Y180812D01*
X321466*
Y182812*
X319466*
G36*
Y180812*
X321466*
Y182812*
X319466*
G37*
Y192812D02*
Y190812D01*
X321466*
Y192812*
X319466*
G36*
Y190812*
X321466*
Y192812*
X319466*
G37*
Y202812D02*
Y200812D01*
X321466*
Y202812*
X319466*
G36*
Y200812*
X321466*
Y202812*
X319466*
G37*
X329466Y32812D02*
Y30812D01*
X331466*
Y32812*
X329466*
G36*
Y30812*
X331466*
Y32812*
X329466*
G37*
Y42812D02*
Y40812D01*
X331466*
Y42812*
X329466*
G36*
Y40812*
X331466*
Y42812*
X329466*
G37*
Y52812D02*
Y50812D01*
X331466*
Y52812*
X329466*
G36*
Y50812*
X331466*
Y52812*
X329466*
G37*
Y62812D02*
Y60812D01*
X331466*
Y62812*
X329466*
G36*
Y60812*
X331466*
Y62812*
X329466*
G37*
Y72812D02*
Y70812D01*
X331466*
Y72812*
X329466*
G36*
Y70812*
X331466*
Y72812*
X329466*
G37*
Y82812D02*
Y80812D01*
X331466*
Y82812*
X329466*
G36*
Y80812*
X331466*
Y82812*
X329466*
G37*
Y92812D02*
Y90812D01*
X331466*
Y92812*
X329466*
G36*
Y90812*
X331466*
Y92812*
X329466*
G37*
Y102812D02*
Y100812D01*
X331466*
Y102812*
X329466*
G36*
Y100812*
X331466*
Y102812*
X329466*
G37*
Y112812D02*
Y110812D01*
X331466*
Y112812*
X329466*
G36*
Y110812*
X331466*
Y112812*
X329466*
G37*
Y122812D02*
Y120812D01*
X331466*
Y122812*
X329466*
G36*
Y120812*
X331466*
Y122812*
X329466*
G37*
Y132812D02*
Y130812D01*
X331466*
Y132812*
X329466*
G36*
Y130812*
X331466*
Y132812*
X329466*
G37*
Y142812D02*
Y140812D01*
X331466*
Y142812*
X329466*
G36*
Y140812*
X331466*
Y142812*
X329466*
G37*
Y152812D02*
Y150812D01*
X331466*
Y152812*
X329466*
G36*
Y150812*
X331466*
Y152812*
X329466*
G37*
Y162812D02*
Y160812D01*
X331466*
Y162812*
X329466*
G36*
Y160812*
X331466*
Y162812*
X329466*
G37*
Y172812D02*
Y170812D01*
X331466*
Y172812*
X329466*
G36*
Y170812*
X331466*
Y172812*
X329466*
G37*
Y182812D02*
Y180812D01*
X331466*
Y182812*
X329466*
G36*
Y180812*
X331466*
Y182812*
X329466*
G37*
Y192812D02*
Y190812D01*
X331466*
Y192812*
X329466*
G36*
Y190812*
X331466*
Y192812*
X329466*
G37*
Y202812D02*
Y200812D01*
X331466*
Y202812*
X329466*
G36*
Y200812*
X331466*
Y202812*
X329466*
G37*
D02*
D144*
X55350Y112063D02*
Y95894D01*
X75350*
Y118729*
X62017*
X63806Y69778D02*
X79974D01*
Y89778*
X57139*
Y76445*
D02*
D145*
X100602Y110062D02*
G75*
G02X132098I15748D01*
G01*
X100602D02*
G75*
G02X132098I15748D01*
G01*
G75*
G02X100602I-15748*
G01*
X229143Y62513D02*
Y20111D01*
X212057*
Y62513*
X229143*
X242393Y129513D02*
Y87111D01*
X225307*
Y129513*
X242393*
D02*
D146*
X96027Y65852D02*
G75*
G02X99240Y65851I1607J6D01*
G01*
Y57312*
X127850*
Y87312*
X86850*
Y57312*
X96027*
Y65851*
D02*
D147*
X23649Y130467D02*
G75*
G02Y129483J-492D01*
G01*
Y130467D02*
G75*
G02Y129483J-492D01*
G01*
G75*
G02Y130467J492*
G01*
X68399Y124089D02*
G75*
G02Y123105J-492D01*
G01*
Y124089D02*
G75*
G02Y123105J-492D01*
G01*
G75*
G02Y124089J492*
G01*
X133458Y99385D02*
G75*
G02X132474I-492D01*
G01*
X133458D02*
G75*
G02X132474I-492D01*
G01*
G75*
G02X133458I492*
G01*
X0Y0D02*
M02*
