G04 EasyPC Gerber Version 21.0.3 Build 4286 *
G04 #@! TF.Part,Single*
G04 #@! TF.FileFunction,Paste,Top *
G04 #@! TF.FilePolarity,Positive *
%FSLAX35Y35*%
%MOIN*%
G04 #@! TA.AperFunction,SMDPad*
%ADD136R,0.01726X0.03301*%
%ADD125R,0.01765X0.11411*%
%ADD128R,0.02159X0.06883*%
%ADD137R,0.02750X0.03537*%
%ADD133R,0.02750X0.14167*%
%ADD127R,0.03143X0.03537*%
%ADD135R,0.03537X0.11411*%
%ADD132R,0.31096X0.39954*%
%ADD139R,0.02750X0.02750*%
G04 #@! TD.AperFunction*
%ADD91C,0.01200*%
G04 #@! TA.AperFunction,SMDPad*
%ADD126R,0.03301X0.01726*%
%ADD124R,0.11411X0.01765*%
%ADD130R,0.05387X0.02041*%
%ADD129R,0.05702X0.02356*%
%ADD131R,0.14167X0.02750*%
%ADD123R,0.03537X0.03143*%
%ADD138R,0.07474X0.03931*%
%ADD134R,0.39954X0.31096*%
X0Y0D02*
D02*
D91*
X600Y600D02*
X338013D01*
Y212100*
X600*
Y600*
D02*
D123*
X64350Y133912D03*
Y140211D03*
X78714Y39267D03*
Y45566D03*
X86509Y33125D03*
Y39424D03*
X95250Y110162D03*
Y116461D03*
X150850Y23412D03*
Y29711D03*
X159850Y177412D03*
Y183711D03*
X160850Y23412D03*
Y29711D03*
X170850Y23412D03*
Y29711D03*
X180850Y23412D03*
Y29711D03*
X190850Y23412D03*
Y29711D03*
X200850Y23412D03*
Y29711D03*
X203911Y71629D03*
Y77928D03*
X296350Y157912D03*
Y164211D03*
X322600Y11662D03*
Y17961D03*
D02*
D124*
X237350Y22062D03*
Y27062D03*
Y32062D03*
Y37062D03*
Y42062D03*
Y47062D03*
Y52062D03*
Y57062D03*
Y62062D03*
X275145Y22062D03*
Y27062D03*
Y32062D03*
Y37062D03*
Y42062D03*
Y47062D03*
Y52062D03*
Y57062D03*
Y62062D03*
D02*
D125*
X245100Y84463D03*
Y122259D03*
X250100Y84463D03*
Y122259D03*
X255100Y84463D03*
Y122259D03*
X260100Y84463D03*
Y122259D03*
X265100Y84463D03*
Y122259D03*
X270100Y84463D03*
Y122259D03*
X275100Y84463D03*
Y122259D03*
X280100Y84463D03*
Y122259D03*
X285100Y84463D03*
Y122259D03*
D02*
D126*
X170600Y177912D03*
Y184211D03*
X285880Y55802D03*
Y62101D03*
D02*
D127*
X36200Y124312D03*
X42500D03*
X82651Y116353D03*
X88950D03*
X96950Y91062D03*
X103250D03*
X108950Y90812D03*
X115250D03*
X120950D03*
X127250D03*
X158242Y164778D03*
X164541D03*
X204700Y90062D03*
X211000D03*
X268793Y67692D03*
X275092D03*
X279659Y74306D03*
X285958D03*
X295450Y149312D03*
X301750D03*
D02*
D128*
X175545Y132869D03*
Y157475D03*
X180545Y132869D03*
Y157475D03*
X185545Y132869D03*
Y157475D03*
X190545Y132869D03*
Y157475D03*
X195545Y132869D03*
Y157475D03*
X200545Y132869D03*
Y157475D03*
X205545Y132869D03*
Y157475D03*
X210545Y132869D03*
Y157475D03*
X219600Y135009D03*
Y159615D03*
X224600Y135009D03*
Y159615D03*
X229600Y135009D03*
Y159615D03*
X234600Y135009D03*
Y159615D03*
X239600Y135009D03*
Y159615D03*
X244600Y135009D03*
Y159615D03*
X249600Y135009D03*
Y159615D03*
X254600Y135009D03*
Y159615D03*
D02*
D129*
X212080Y67987D03*
Y72987D03*
Y77987D03*
Y82987D03*
X233537Y67987D03*
Y72987D03*
Y77987D03*
Y82987D03*
X265622Y145062D03*
Y150062D03*
Y155062D03*
Y160062D03*
X287078Y145062D03*
Y150062D03*
Y155062D03*
Y160062D03*
D02*
D130*
X304600Y157625D03*
Y165499D03*
X331350Y10375D03*
Y18249D03*
D02*
D131*
X139265Y65684D03*
Y70684D03*
Y75684D03*
Y80684D03*
Y85684D03*
Y90684D03*
Y95684D03*
D02*
D132*
X178635Y80684D03*
D02*
D133*
X27350Y136274D03*
X32350D03*
X37350D03*
X42350D03*
X47350D03*
X52350D03*
X57350D03*
X72100Y129896D03*
X77100D03*
X82100D03*
X87100D03*
X92100D03*
X97100D03*
X102100D03*
D02*
D134*
X42350Y175644D03*
X87100Y169267D03*
D02*
D135*
X136391Y109896D03*
Y149896D03*
X146391Y109896D03*
Y149896D03*
X156391Y109896D03*
Y149896D03*
X166391Y109896D03*
Y149896D03*
D02*
D136*
X51200Y124562D03*
X57500D03*
X110950Y133812D03*
X117250D03*
X123045Y128400D03*
X129344D03*
X129950Y58062D03*
X136250D03*
X216200Y90562D03*
X222500D03*
X280368Y67928D03*
X286667D03*
D02*
D137*
X91350Y90965D03*
Y97658D03*
D02*
D138*
X15368Y123440D03*
D02*
D139*
X7887D03*
X0Y0D02*
M02*
