G04 EasyPC Gerber Version 21.0.3 Build 4286 *
G04 #@! TF.Part,Single*
G04 #@! TF.FileFunction,Soldermask,Top *
G04 #@! TF.FilePolarity,Negative *
%FSLAX35Y35*%
%MOIN*%
G04 #@! TA.AperFunction,ComponentPad*
%ADD92O,0.07000X0.13000*%
G04 #@! TA.AperFunction,SMDPad*
%ADD118R,0.03126X0.04701*%
%ADD102R,0.03165X0.12811*%
%ADD106R,0.03559X0.08283*%
%ADD119R,0.04150X0.04937*%
%ADD115R,0.04150X0.15567*%
%ADD105R,0.04543X0.04937*%
%ADD117R,0.04937X0.12811*%
%ADD114R,0.32496X0.41354*%
%ADD121R,0.04150X0.04150*%
G04 #@! TA.AperFunction,ComponentPad*
%ADD96R,0.07496X0.07496*%
%ADD98R,0.07575X0.07575*%
%ADD94R,0.08382X0.08382*%
%ADD109R,0.08559X0.08559*%
G04 #@! TD.AperFunction*
%ADD91C,0.01200*%
G04 #@! TA.AperFunction,ComponentPad*
%ADD103C,0.05449*%
%ADD112C,0.06118*%
%ADD111C,0.06748*%
G04 #@! TA.AperFunction,SMDPad*
%ADD104R,0.04701X0.03126*%
%ADD101R,0.12811X0.03165*%
%ADD108R,0.06787X0.03441*%
G04 #@! TA.AperFunction,ComponentPad*
%ADD97C,0.07496*%
G04 #@! TA.AperFunction,SMDPad*
%ADD107R,0.07102X0.03756*%
%ADD113R,0.15567X0.04150*%
%ADD100R,0.04937X0.04543*%
%ADD120R,0.08874X0.05331*%
G04 #@! TA.AperFunction,ComponentPad*
%ADD99C,0.07575*%
%ADD122C,0.08087*%
%ADD95C,0.08382*%
%ADD110C,0.08559*%
%AMT93*0 Octagon Pad at angle 0*4,1,8,-0.01449,-0.03500,0.01449,-0.03500,0.03500,-0.01449,0.03500,0.01449,0.01449,0.03500,-0.01449,0.03500,-0.03500,0.01449,-0.03500,-0.01449,-0.01449,-0.03500,0*%
%ADD93T93*%
G04 #@! TA.AperFunction,SMDPad*
%ADD116R,0.41354X0.32496*%
X0Y0D02*
D02*
D91*
X600Y600D02*
X338013D01*
Y212100*
X600*
Y600*
D02*
D92*
X25466Y201812D03*
X35466D03*
X45466D03*
X55466D03*
X60466Y11812D03*
X65466Y201812D03*
X70466Y11812D03*
X75466Y201812D03*
X80466Y11812D03*
X85466Y201812D03*
X90466Y11812D03*
X95466Y201812D03*
X100466Y11812D03*
X105466Y201812D03*
X110466Y11812D03*
X115466Y201812D03*
X120466Y11812D03*
X130466D03*
Y201812D03*
X140466D03*
X150466Y11812D03*
Y201812D03*
X160466Y11812D03*
Y201812D03*
X170466Y11812D03*
Y201812D03*
X180466Y11812D03*
Y201812D03*
X190466Y11812D03*
Y201812D03*
X200466Y11812D03*
Y201812D03*
X210466Y11812D03*
X220466D03*
Y201812D03*
X230466D03*
X240466Y11812D03*
Y201812D03*
X250466Y11812D03*
Y201812D03*
X260466Y11812D03*
Y201812D03*
X270466Y11812D03*
Y201812D03*
X280466Y11812D03*
Y201812D03*
X290466Y11812D03*
Y201812D03*
X300466Y11812D03*
X310466D03*
D02*
D93*
X320466Y31812D03*
Y41812D03*
Y51812D03*
Y61812D03*
Y71812D03*
Y81812D03*
Y91812D03*
Y101812D03*
Y111812D03*
Y121812D03*
Y131812D03*
Y141812D03*
Y151812D03*
Y161812D03*
Y171812D03*
Y181812D03*
Y191812D03*
Y201812D03*
X330466Y31812D03*
Y41812D03*
Y51812D03*
Y61812D03*
Y71812D03*
Y81812D03*
Y91812D03*
Y101812D03*
Y111812D03*
Y121812D03*
Y131812D03*
Y141812D03*
Y151812D03*
Y161812D03*
Y171812D03*
Y181812D03*
Y191812D03*
Y201812D03*
D02*
D94*
X204350Y45812D03*
X301850Y50812D03*
D02*
D95*
X144350Y45812D03*
X154350D03*
X164350D03*
X174350D03*
X184350D03*
X194350D03*
X301850Y60812D03*
Y70812D03*
Y80812D03*
Y90812D03*
Y100812D03*
Y110812D03*
Y120812D03*
Y130812D03*
D02*
D96*
X208850Y99312D03*
X286350Y176812D03*
X289350Y31562D03*
D02*
D97*
X186350Y176812D03*
X196350D03*
X206350D03*
X208850Y109312D03*
Y119312D03*
X216350Y176812D03*
X226350D03*
X236350D03*
X246350D03*
X256350D03*
X266350D03*
X276350D03*
X299350Y31562D03*
X309350D03*
D02*
D98*
X60350Y107312D03*
X68557Y74778D03*
D02*
D99*
Y84778D03*
X70350Y107312D03*
D02*
D100*
X64350Y133912D03*
Y140211D03*
X78714Y39267D03*
Y45566D03*
X86509Y33125D03*
Y39424D03*
X95250Y110162D03*
Y116461D03*
X150850Y23412D03*
Y29711D03*
X159850Y177412D03*
Y183711D03*
X160850Y23412D03*
Y29711D03*
X170850Y23412D03*
Y29711D03*
X180850Y23412D03*
Y29711D03*
X190850Y23412D03*
Y29711D03*
X200850Y23412D03*
Y29711D03*
X203911Y71629D03*
Y77928D03*
X296350Y157912D03*
Y164211D03*
X322600Y11662D03*
Y17961D03*
D02*
D101*
X237350Y22062D03*
Y27062D03*
Y32062D03*
Y37062D03*
Y42062D03*
Y47062D03*
Y52062D03*
Y57062D03*
Y62062D03*
X275145Y22062D03*
Y27062D03*
Y32062D03*
Y37062D03*
Y42062D03*
Y47062D03*
Y52062D03*
Y57062D03*
Y62062D03*
D02*
D102*
X245100Y84463D03*
Y122259D03*
X250100Y84463D03*
Y122259D03*
X255100Y84463D03*
Y122259D03*
X260100Y84463D03*
Y122259D03*
X265100Y84463D03*
Y122259D03*
X270100Y84463D03*
Y122259D03*
X275100Y84463D03*
Y122259D03*
X280100Y84463D03*
Y122259D03*
X285100Y84463D03*
Y122259D03*
D02*
D103*
X220600Y31706D03*
Y50918D03*
X233850Y98706D03*
Y117918D03*
D02*
D104*
X170600Y177912D03*
Y184211D03*
X285880Y55802D03*
Y62101D03*
D02*
D105*
X36200Y124312D03*
X42500D03*
X82651Y116353D03*
X88950D03*
X96950Y91062D03*
X103250D03*
X108950Y90812D03*
X115250D03*
X120950D03*
X127250D03*
X158242Y164778D03*
X164541D03*
X204700Y90062D03*
X211000D03*
X268793Y67692D03*
X275092D03*
X279659Y74306D03*
X285958D03*
X295450Y149312D03*
X301750D03*
D02*
D106*
X175545Y132869D03*
Y157475D03*
X180545Y132869D03*
Y157475D03*
X185545Y132869D03*
Y157475D03*
X190545Y132869D03*
Y157475D03*
X195545Y132869D03*
Y157475D03*
X200545Y132869D03*
Y157475D03*
X205545Y132869D03*
Y157475D03*
X210545Y132869D03*
Y157475D03*
X219600Y135009D03*
Y159615D03*
X224600Y135009D03*
Y159615D03*
X229600Y135009D03*
Y159615D03*
X234600Y135009D03*
Y159615D03*
X239600Y135009D03*
Y159615D03*
X244600Y135009D03*
Y159615D03*
X249600Y135009D03*
Y159615D03*
X254600Y135009D03*
Y159615D03*
D02*
D107*
X212080Y67987D03*
Y72987D03*
Y77987D03*
Y82987D03*
X233537Y67987D03*
Y72987D03*
Y77987D03*
Y82987D03*
X265622Y145062D03*
Y150062D03*
Y155062D03*
Y160062D03*
X287078Y145062D03*
Y150062D03*
Y155062D03*
Y160062D03*
D02*
D108*
X304600Y157625D03*
Y165499D03*
X331350Y10375D03*
Y18249D03*
D02*
D109*
X37376Y109739D03*
X68557Y35802D03*
D02*
D110*
X17376Y109739D03*
X27376D03*
X68557Y45802D03*
Y55802D03*
D02*
D111*
X97350Y76312D03*
X107350D03*
X117350D03*
D02*
D112*
X116350Y106125D03*
Y113999D03*
D02*
D113*
X139265Y65684D03*
Y70684D03*
Y75684D03*
Y80684D03*
Y85684D03*
Y90684D03*
Y95684D03*
D02*
D114*
X178635Y80684D03*
D02*
D115*
X27350Y136274D03*
X32350D03*
X37350D03*
X42350D03*
X47350D03*
X52350D03*
X57350D03*
X72100Y129896D03*
X77100D03*
X82100D03*
X87100D03*
X92100D03*
X97100D03*
X102100D03*
D02*
D116*
X42350Y175644D03*
X87100Y169267D03*
D02*
D117*
X136391Y109896D03*
Y149896D03*
X146391Y109896D03*
Y149896D03*
X156391Y109896D03*
Y149896D03*
X166391Y109896D03*
Y149896D03*
D02*
D118*
X51200Y124562D03*
X57500D03*
X110950Y133812D03*
X117250D03*
X123045Y128400D03*
X129344D03*
X129950Y58062D03*
X136250D03*
X216200Y90562D03*
X222500D03*
X280368Y67928D03*
X286667D03*
D02*
D119*
X91350Y90965D03*
Y97658D03*
D02*
D120*
X15368Y123440D03*
D02*
D121*
X7887D03*
D02*
D122*
X20474Y14113D03*
Y27893D03*
Y41672D03*
Y55452D03*
Y69231D03*
Y83011D03*
X40159Y14113D03*
Y27893D03*
Y41672D03*
Y55452D03*
Y69231D03*
Y83011D03*
X105935Y31639D03*
Y45418D03*
X121435Y169639D03*
Y183418D03*
X125620Y31639D03*
Y45418D03*
X141120Y169639D03*
Y183418D03*
X0Y0D02*
M02*
