G04 EasyPC Gerber Version 21.0.3 Build 4286 *
G04 #@! TF.Part,Single*
G04 #@! TF.FileFunction,Copper,L1,Top *
G04 #@! TF.FilePolarity,Positive *
%FSLAX35Y35*%
%MOIN*%
G04 #@! TA.AperFunction,ComponentPad*
%AMT15*0 Octagon Pad at angle 0*4,1,8,-0.01243,-0.03000,0.01243,-0.03000,0.03000,-0.01243,0.03000,0.01243,0.01243,0.03000,-0.01243,0.03000,-0.03000,0.01243,-0.03000,-0.01243,-0.01243,-0.03000,0*%
%ADD15T15*%
G04 #@! TA.AperFunction,SMDPad*
%ADD127R,0.02126X0.03701*%
%ADD120R,0.02165X0.11811*%
%ADD122R,0.02559X0.07283*%
%ADD128R,0.03150X0.03937*%
%ADD125R,0.03150X0.14567*%
%ADD20R,0.03543X0.03937*%
%ADD126R,0.03937X0.11811*%
%ADD74R,0.04331X0.07874*%
%ADD29R,0.31496X0.40354*%
%ADD75R,0.03150X0.03150*%
G04 #@! TA.AperFunction,ComponentPad*
%ADD18R,0.06496X0.06496*%
%ADD70R,0.06575X0.06575*%
%ADD16R,0.07382X0.07382*%
%ADD25R,0.07559X0.07559*%
G04 #@! TD.AperFunction*
%ADD13C,0.00394*%
%ADD14C,0.00787*%
%ADD131C,0.01181*%
%ADD132C,0.01200*%
%ADD79C,0.01575*%
%ADD129C,0.02362*%
G04 #@! TA.AperFunction,ViaPad*
%ADD80C,0.04000*%
G04 #@! TA.AperFunction,ComponentPad*
%ADD22C,0.04449*%
G04 #@! TD.AperFunction*
%ADD78C,0.04724*%
G04 #@! TA.AperFunction,ComponentPad*
%ADD28C,0.05118*%
%ADD27C,0.05748*%
%ADD19C,0.06496*%
%ADD71C,0.06575*%
%ADD77C,0.07087*%
%ADD17C,0.07382*%
G04 #@! TA.AperFunction,SMDPad*
%ADD121R,0.03701X0.02126*%
%ADD119R,0.11811X0.02165*%
%ADD76R,0.05787X0.02441*%
%ADD123R,0.06102X0.02756*%
%ADD124R,0.14567X0.03150*%
%ADD21R,0.03937X0.03543*%
G04 #@! TA.AperFunction,ComponentPad*
%ADD26C,0.07559*%
G04 #@! TA.AperFunction,SMDPad*
%ADD73R,0.40354X0.31496*%
G04 #@! TD.AperFunction*
%ADD130C,0.10236*%
%ADD81C,0.11811*%
X0Y0D02*
D02*
D13*
X6090Y210303D02*
Y2397D01*
X339910*
Y6988*
X329984*
Y13759*
X339910*
Y210303*
X6090*
X336298Y36977D02*
X339325Y33950D01*
Y29673*
X336298Y26646*
X332021*
X329159Y29508*
X326298Y26646*
X322021*
X318994Y29673*
Y33950*
X320564Y35520*
G75*
G02X319041Y34896I-1521J1541*
G01*
X317308*
G75*
G02X313968Y26228I-4265J-3335*
G01*
X314291*
G75*
G02X315825Y25593I2J-2166*
G01*
X321291Y20126*
X323341*
Y20716*
X329246*
Y20127*
X331165*
Y20452*
X338921*
Y16043*
X335665*
G75*
G02X334658Y15796I-1004J1919*
G01*
X329246*
Y15204*
X323341*
Y15795*
X320396*
G75*
G02X318862Y16430I-2J2166*
G01*
X313396Y21897*
X310543*
G75*
G02X309011Y22533J2165*
G01*
X304084Y27459*
G75*
G02X300437Y34896I-1041J4102*
G01*
X297276*
Y27330*
X288811*
Y34896*
X271437*
G75*
G02X269904Y35531I-2J2165*
G01*
X260404Y45031*
G75*
G02X259770Y46562I1531J1531*
G01*
Y76668*
G75*
G02X260404Y78199I2165*
G01*
X260960Y78756*
X257152*
Y84999*
G75*
G02X257053Y85644I2067J645*
G01*
Y94009*
X255824Y92781*
G75*
G02X255531Y92535I-1531J1530*
G01*
X256285*
Y78756*
X252152*
Y92146*
X251285*
Y78756*
X247959*
Y70477*
X251041*
G75*
G02X252574Y69843I2J-2165*
G01*
X254324Y68093*
G75*
G02X254959Y66562I-1531J-1531*
G01*
Y44209*
X264940Y34227*
X278839*
G75*
G02X279481Y34130J-2166*
G01*
X285728*
Y29996*
X279487*
G75*
G02X278839Y29896I-648J2067*
G01*
X264046*
G75*
G02X262512Y30531I-2J2165*
G01*
X251262Y41781*
G75*
G02X250628Y43312I1531J1531*
G01*
Y56084*
X250074Y55531*
G75*
G02X248541Y54896I-1531J1531*
G01*
X241043*
G75*
G02X240395Y54996J2166*
G01*
X234154*
Y59130*
X240400*
G75*
G02X241043Y59227I643J-2068*
G01*
X247628*
Y59996*
X241691*
G75*
G02X240395I-648J2067*
G01*
X234154*
Y64130*
X235913*
X235699Y64344*
G75*
G02X235080Y65626I1531J1531*
G01*
X233195*
Y69444*
X232014*
Y74163*
X230533Y72683*
Y65162*
G75*
G02X229435Y62515I-3740*
G01*
X225091Y58170*
G75*
G02X222443Y57072I-2648J2642*
G01*
X209093*
X200872Y48851*
Y43568*
G75*
G02X201276Y42928I-3741J-2806*
G01*
Y46618*
X212988*
Y34905*
X201276*
Y38598*
G75*
G02X192457Y40763I-4144J2165*
G01*
G75*
G02X193392Y43568I4675*
G01*
Y50400*
G75*
G02X194490Y53048I3740*
G01*
X204896Y63454*
G75*
G02X207543Y64552I2648J-2642*
G01*
X220894*
X222245Y65903*
G75*
G02X221219Y65664I-1026J2083*
G01*
X219809*
Y65626*
X211738*
Y70350*
X219691*
Y70626*
X211738*
Y70822*
X210557*
Y68874*
X204652*
Y69779*
X203825*
G75*
G02X202292Y70415J2165*
G01*
X198764Y73942*
G75*
G02X198128Y75475I1530J1533*
G01*
Y98312*
G75*
G02X198762Y99843I2165*
G01*
X208312Y109393*
G75*
G02X216776Y109312I4231J-81*
G01*
G75*
G02X210597Y105554I-4232*
G01*
X208587Y103543*
X216776*
Y95078*
X208311*
Y95238*
X207270Y94196*
X212331*
Y93015*
X216665*
Y94578*
X223122*
Y92697*
G75*
G02X226193Y94302I3071J-2135*
G01*
X226793*
G75*
G02X228871Y93672J-3740*
G01*
X219512Y103031*
G75*
G02X218878Y104562I1531J1531*
G01*
Y120165*
X217455Y121588*
G75*
G02X217957Y119312I-4911J-2276*
G01*
G75*
G02X207130I-5413*
G01*
G75*
G02X208095Y122396I5413J0*
G01*
X206552*
X200868Y116712*
G75*
G02X199334Y116078I-1531J1531*
G01*
X174219*
Y101846*
X198077*
Y59523*
X171694*
X166236Y54066*
G75*
G02X163589Y52967I-2648J2642*
G01*
X149626*
X139051Y42393*
G75*
G02X136404Y41294I-2648J2642*
G01*
X130884*
G75*
G02X129061Y40566I-2552J3741*
G01*
X133730*
G75*
G02X135263Y39931I2J-2165*
G01*
X149411Y25784*
G75*
G02X149711Y25409I-1531J-1531*
G01*
X150636*
Y19504*
X145124*
Y23946*
X132835Y36235*
X131123*
G75*
G02X128333Y25546I-2790J-4980*
G01*
G75*
G02X125543Y36235J5709*
G01*
X111438*
G75*
G02X108648Y25546I-2790J-4980*
G01*
G75*
G02X105857Y36235J5709*
G01*
X101307*
G75*
G02X99774Y36869I-2J2165*
G01*
X95286Y41357*
G75*
G02X94652Y42889I1531J1531*
G01*
Y62779*
X87652Y69778*
X77230*
Y67673*
X68687*
Y75211*
X65739*
X59759Y69231*
X64404Y64587*
G75*
G02X66541Y59432I-5145J-5155*
G01*
Y47613*
G75*
G02X64406Y42461I-7284*
G01*
X58468Y36524*
G75*
G02X53317Y34389I-5151J5150*
G01*
X44004*
G75*
G02X43852Y34388I-152J7297*
G01*
G75*
G02X42730Y48869J7284*
G01*
G75*
G02X43852Y48956I1122J-7196*
G01*
X50300*
X51974Y50630*
Y56415*
X46442Y61948*
X46031*
G75*
G02X41674I-2179J7283*
G01*
X24274*
G75*
G02X24167Y61947I-107J7295*
G01*
G75*
G02Y76515J7284*
G01*
G75*
G02X24274Y76515J-7296*
G01*
X41674*
G75*
G02X46031I2179J-7283*
G01*
X46442*
X56943Y87015*
G75*
G02X65056Y88519I5150J-5150*
G01*
X72959*
G75*
G02X78407Y85684J-6654*
G01*
X79047*
X83156Y89792*
Y100522*
G75*
G02Y100525I1461J2*
G01*
G75*
G02Y100526I1504J1*
G01*
G75*
G02X84251Y103171I3741J0*
G01*
X87250Y106170*
Y113598*
X88431*
Y116953*
X88192Y116714*
G75*
G02X86896Y116091I-1532J1530*
G01*
Y115527*
X81778*
Y114346*
X73904*
Y122614*
X81778*
Y121433*
X86787*
X86896Y121542*
Y127771*
X72801*
Y126590*
X65321*
Y145488*
X71896*
Y150763*
G75*
G02X72530Y152294I2165*
G01*
X73833Y153597*
X36834*
X33707Y150470*
Y148221*
G75*
G02X39329Y146826I2638J-1396*
G01*
G75*
G02X38628Y144904I-2984*
G01*
Y144307*
X48982*
Y144542*
G75*
G02X49663Y146185I2323*
G01*
X51946Y148468*
G75*
G02X53589Y149148I1643J-1643*
G01*
X59494*
G75*
G02X61163Y148441J-2323*
G01*
X63680Y145846*
G75*
G02X64337Y144227I-1667J-1619*
G01*
Y121433*
X64376*
Y122614*
X72250*
Y114346*
X64376*
Y115527*
X60006*
Y113572*
X67598Y105980*
X70852*
Y97889*
X71173*
X72841Y99556*
Y99644*
G75*
G02X76581Y105979I3740J2063*
G01*
G75*
G02X80321Y99644I0J-4271*
G01*
Y98011*
G75*
G02Y98008I-1461J-2*
G01*
G75*
G02Y98007I-1504J0*
G01*
G75*
G02X79226Y95362I-3741J0*
G01*
X75367Y91504*
G75*
G02X72718Y90408I-2644J2645*
G01*
X38470*
G75*
G02X35823Y91507J3740*
G01*
X30632Y96698*
G75*
G02X29533Y99345I2642J2648*
G01*
Y105230*
G75*
G02X26701Y107837I1535J4510*
G01*
G75*
G02X15124Y109739I-5632J1902*
G01*
G75*
G02X21633Y115657I5945*
G01*
X14243Y123047*
X11463*
Y125950*
G75*
G02Y129984I3149J2017*
G01*
Y131708*
X10872*
Y139189*
X18352*
Y131708*
X17762*
Y130107*
X33711Y114158*
G75*
G02X34463Y113081I-2641J-2648*
G01*
G75*
G02X35800Y110297I-3395J-3343*
G01*
X35915Y110182*
G75*
G02X36305Y109725I-2642J-2647*
G01*
Y114504*
X45833*
Y104976*
X37014*
Y100894*
X40020Y97889*
X62309*
Y100690*
X53624Y109375*
G75*
G02X52526Y112022I2642J2648*
G01*
Y120547*
X46738*
Y125338*
X44017Y122618*
G75*
G02X42483Y121984I-1531J1531*
G01*
X41541*
Y121358*
X36423*
Y120177*
X28549*
Y126590*
X22565*
Y145488*
X29061*
Y151432*
G75*
G02X29741Y153074I2323*
G01*
X34230Y157563*
G75*
G02X34371Y157693I1641J-1644*
G01*
X20144*
Y191157*
X62467*
Y158243*
X62900*
Y191157*
X105222*
Y160402*
X116837Y172001*
Y198501*
X115175Y200162*
Y203461*
X117510Y205796*
X120809*
X123144Y203461*
Y200162*
X121482Y198501*
Y186103*
G75*
G02X129656Y183418I3646J-2685*
G01*
G75*
G02X121482Y180733I-4528*
G01*
Y172323*
G75*
G02X129167Y167592I3646J-2685*
G01*
X131994Y170419*
Y198343*
X130175Y200162*
Y203461*
X132510Y205796*
X135809*
X138144Y203461*
Y200162*
X136325Y198343*
Y197039*
X140175Y200890*
Y203461*
X142510Y205796*
X145809*
X148144Y203461*
Y200162*
X145809Y197828*
X143237*
X139848Y194439*
Y164559*
X140293Y165004*
G75*
G02X141935Y165684I1643J-1643*
G01*
X142609*
G75*
G02X144813Y174166I2204J3955*
G01*
G75*
G02X147017Y165684J-4528*
G01*
X147351*
X160591Y178924*
Y180169*
X166496*
Y174975*
X168294*
X171459Y178140*
Y179960*
X173590*
G75*
G02X174293Y180078I703J-2048*
G01*
X187351*
G75*
G02X193011Y173794I2692J-3266*
G01*
X194396*
X196040Y175438*
G75*
G02X200043Y181044I4003J1374*
G01*
G75*
G02X204276Y176812J-4232*
G01*
G75*
G02X199362Y172635I-4232*
G01*
X197686Y170959*
X201646*
X206062Y175375*
G75*
G02X210043Y181044I3981J1437*
G01*
G75*
G02X214276Y176812J-4232*
G01*
G75*
G02X210043Y172580I-4232*
G01*
G75*
G02X209435Y172624I1J4232*
G01*
X204700Y167889*
X207646*
X215869Y176111*
G75*
G02X215811Y176812I4175J700*
G01*
G75*
G02X215941Y177852I4232J0*
G01*
X211747Y182046*
X174293*
G75*
G02X173586Y182165J2165*
G01*
X171459*
Y186259*
X173590*
G75*
G02X174293Y186377I703J-2048*
G01*
X212641*
G75*
G02X214175Y185743I2J-2165*
G01*
X219003Y180914*
G75*
G02X219417Y180998I1043J-4101*
G01*
X228012Y189593*
G75*
G02X229546Y190227I1531J-1531*
G01*
X266316*
X263012Y193531*
G75*
G02X262381Y194941I1531J1531*
G01*
X262200Y198138*
X260175Y200162*
Y203461*
X262510Y205796*
X265809*
X268144Y203461*
Y200162*
X266515Y198533*
X266658Y196009*
X269690Y192977*
X274316*
X273012Y194281*
G75*
G02X272382Y195676I1531J1531*
G01*
X272226Y198111*
X270175Y200162*
Y203461*
X272510Y205796*
X275809*
X278144Y203461*
Y200162*
X276537Y198556*
X276652Y196765*
X277440Y195977*
X312791*
G75*
G02X314324Y195343I2J-2165*
G01*
X319074Y190593*
G75*
G02X319709Y189062I-1531J-1531*
G01*
Y142562*
G75*
G02X319074Y141031I-2165*
G01*
X316521Y138477*
X320041*
G75*
G02X321641Y137773I2J-2165*
G01*
X323450Y135796*
X325809*
X328144Y133461*
Y130162*
X325809Y127828*
X322510*
X320175Y130162*
Y132959*
X319089Y134146*
X308820*
G75*
G02X310219Y130812I-3277J-3335*
G01*
G75*
G02X301209Y129060I-4675*
G01*
Y122563*
G75*
G02X310219Y120812I4335J-1752*
G01*
G75*
G02X301209Y119060I-4675*
G01*
Y112563*
G75*
G02X310219Y110812I4335J-1752*
G01*
G75*
G02X301209Y109060I-4675*
G01*
Y104312*
G75*
G02X300574Y102781I-2165*
G01*
X292994Y95201*
X295356Y92839*
G75*
G02X295990Y91308I-1531J-1531*
G01*
Y77141*
G75*
G02X295356Y75609I-2165*
G01*
X292521Y72775*
G75*
G02X292407Y72669I-1531J1531*
G01*
Y71944*
X293589*
Y64552*
X302738*
G75*
G02X310219Y60812I2805J-3740*
G01*
G75*
G02X307710Y56669I-4675*
G01*
X311400*
Y49230*
X321253Y59084*
X320175Y60162*
Y63461*
X322510Y65796*
X325809*
X328144Y63461*
Y60162*
X326592Y58610*
G75*
G02X326074Y57781I-2048J701*
G01*
X324090Y55796*
X325809*
X328144Y53461*
Y50162*
X326959Y48977*
X328896*
X330175Y50256*
Y53461*
X332510Y55796*
X335809*
X338144Y53461*
Y50162*
X335809Y47828*
X333871*
X331324Y45281*
G75*
G02X329791Y44646I-1531J1531*
G01*
X326959*
X328144Y43461*
Y40162*
X325809Y37828*
X322871*
X322021Y36977*
X326298*
X329159Y34116*
X332021Y36977*
X336298*
X140285Y183418D02*
G75*
G02X149341I4528D01*
G01*
G75*
G02X140285I-4528*
G01*
X325809Y75796D02*
X328144Y73461D01*
Y70162*
X325809Y67828*
X322510*
X320175Y70162*
Y73461*
X322510Y75796*
X325809*
Y85796D02*
X328144Y83461D01*
Y80162*
X325809Y77828*
X322510*
X320175Y80162*
Y83461*
X322510Y85796*
X325809*
Y95796D02*
X328144Y93461D01*
Y90162*
X325809Y87828*
X322510*
X320175Y90162*
Y93461*
X322510Y95796*
X325809*
Y105796D02*
X328144Y103461D01*
Y100162*
X325809Y97828*
X322510*
X320175Y100162*
Y103461*
X322510Y105796*
X325809*
Y115796D02*
X328144Y113461D01*
Y110162*
X325809Y107828*
X322510*
X320175Y110162*
Y113461*
X322510Y115796*
X325809*
Y125796D02*
X328144Y123461D01*
Y120162*
X325809Y117828*
X322510*
X320175Y120162*
Y123461*
X322510Y125796*
X325809*
X300868Y70812D02*
G75*
G02X310219I4675D01*
G01*
G75*
G02X300868I-4675*
G01*
Y80812D02*
G75*
G02X310219I4675D01*
G01*
G75*
G02X300868I-4675*
G01*
Y90812D02*
G75*
G02X310219I4675D01*
G01*
G75*
G02X300868I-4675*
G01*
Y100812D02*
G75*
G02X310219I4675D01*
G01*
G75*
G02X300868I-4675*
G01*
X335809Y45796D02*
X338144Y43461D01*
Y40162*
X335809Y37828*
X332510*
X330175Y40162*
Y43461*
X332510Y45796*
X335809*
X323341Y14417D02*
X329246D01*
Y8905*
X323341*
Y9339*
X317321*
X315809Y7828*
X312510*
X310175Y10162*
Y13461*
X312510Y15796*
X315809*
X317620Y13985*
X323341*
Y14417*
X305809Y15796D02*
X308144Y13461D01*
Y10162*
X305809Y7828*
X302510*
X300175Y10162*
Y13461*
X302510Y15796*
X305809*
X295809D02*
X298144Y13461D01*
Y10162*
X295809Y7828*
X292510*
X290175Y10162*
Y13461*
X292510Y15796*
X295809*
X275809D02*
X278144Y13461D01*
Y10162*
X275809Y7828*
X272510*
X270175Y10162*
Y13461*
X272510Y15796*
X275809*
X271949Y24130D02*
X285728D01*
Y19996*
X271949*
Y24130*
X285809Y15796D02*
X288144Y13461D01*
Y10162*
X285809Y7828*
X282510*
X280175Y10162*
Y13461*
X282510Y15796*
X285809*
X271949Y29130D02*
X285728D01*
Y24996*
X271949*
Y29130*
X265809Y15796D02*
X268144Y13461D01*
Y10162*
X265809Y7828*
X262510*
X260175Y10162*
Y13461*
X262510Y15796*
X265809*
X255809D02*
X258144Y13461D01*
Y10162*
X255809Y7828*
X252510*
X250175Y10162*
Y13461*
X252510Y15796*
X255809*
X234154Y44130D02*
X247933D01*
Y39996*
X234154*
Y44130*
Y49130D02*
X247933D01*
Y44996*
X234154*
Y49130*
Y54130D02*
X247933D01*
Y49996*
X234154*
Y54130*
X225809Y15796D02*
X228144Y13461D01*
Y10162*
X225809Y7828*
X222510*
X220175Y10162*
Y13461*
X222510Y15796*
X225809*
X247933Y25311D02*
X249114D01*
Y18815*
X232972*
Y24896*
X228939*
G75*
G02X227406Y25531I-2J2165*
G01*
X224437Y28500*
G75*
G02X221085Y31706I-143J3206*
G01*
G75*
G02X227502I3209*
G01*
G75*
G02X227499Y31562I-3212J-1*
G01*
X229834Y29227*
X241043*
G75*
G02X241686Y29130J-2166*
G01*
X247933*
Y25311*
X245809Y15796D02*
X248144Y13461D01*
Y10162*
X245809Y7828*
X242510*
X240175Y10162*
Y13461*
X242510Y15796*
X245809*
X234154Y39130D02*
X247933D01*
Y34996*
X234422*
X235190Y34227*
X241043*
G75*
G02X241686Y34130J-2166*
G01*
X247933*
Y29996*
X241691*
G75*
G02X241043Y29896I-648J2067*
G01*
X234296*
G75*
G02X232762Y30531I-2J2165*
G01*
X222762Y40531*
G75*
G02X222128Y42062I1531J1531*
G01*
Y48550*
G75*
G02X221085Y50918I2165J2368*
G01*
G75*
G02X227502I3209*
G01*
G75*
G02X226459Y48550I-3209*
G01*
Y42959*
X234154Y35264*
Y39130*
X215809Y15796D02*
X218144Y13461D01*
Y10162*
X215809Y7828*
X212510*
X210175Y10162*
Y13461*
X212510Y15796*
X215809*
X205809D02*
X208144Y13461D01*
Y10162*
X205809Y7828*
X202510*
X200175Y10162*
Y13461*
X202510Y15796*
X205809*
X172457Y40763D02*
G75*
G02X181807I4675D01*
G01*
G75*
G02X172457I-4675*
G01*
X185809Y15796D02*
X188144Y13461D01*
Y10162*
X185809Y7828*
X182510*
X180175Y10162*
Y13461*
X182510Y15796*
X185809*
X182457Y40763D02*
G75*
G02X191807I4675D01*
G01*
G75*
G02X182457I-4675*
G01*
X195809Y15796D02*
X198144Y13461D01*
Y10162*
X195809Y7828*
X192510*
X190175Y10162*
Y13461*
X192510Y15796*
X195809*
X152457Y40763D02*
G75*
G02X161807I4675D01*
G01*
G75*
G02X152457I-4675*
G01*
X165809Y15796D02*
X168144Y13461D01*
Y10162*
X165809Y7828*
X162510*
X160175Y10162*
Y13461*
X162510Y15796*
X165809*
X162457Y40763D02*
G75*
G02X171807I4675D01*
G01*
G75*
G02X162457I-4675*
G01*
X175809Y15796D02*
X178144Y13461D01*
Y10162*
X175809Y7828*
X172510*
X170175Y10162*
Y13461*
X172510Y15796*
X175809*
X142457Y40763D02*
G75*
G02X151807I4675D01*
G01*
G75*
G02X142457I-4675*
G01*
X156482Y15123D02*
X158144Y13461D01*
Y10162*
X155809Y7828*
X152510*
X150175Y10162*
Y13461*
X151837Y15123*
Y19504*
X151423*
Y25409*
X156935*
Y19504*
X156482*
Y15123*
X135809Y15796D02*
X138144Y13461D01*
Y10162*
X135809Y7828*
X132510*
X130175Y10162*
Y13461*
X132510Y15796*
X135809*
X126298Y16977D02*
X129325Y13950D01*
Y9673*
X126298Y6646*
X122021*
X119159Y9508*
X116298Y6646*
X112021*
X108994Y9673*
Y13950*
X112021Y16977*
X116298*
X119159Y14116*
X122021Y16977*
X126298*
X105809Y15796D02*
X108144Y13461D01*
Y10162*
X105809Y7828*
X102510*
X100175Y10162*
Y13461*
X102510Y15796*
X105809*
X91581Y32346D02*
G75*
G02Y28313I-3149J-2017D01*
G01*
Y25409*
X91158*
G75*
G02X88431Y19109I-2727J-2560*
G01*
X74035*
X70124Y15198*
Y14779*
X69665*
G75*
G02X65072I-2296J2952*
G01*
X64612*
Y15202*
G75*
G02X64219Y15714I2758J2529*
G01*
G75*
G02X63825Y15202I-3152J2017*
G01*
Y14779*
X63365*
G75*
G02X61069Y13991I-2296J2952*
G01*
X54014*
G75*
G02X51366Y15089J3740*
G01*
X43012Y23444*
G75*
G02X41301Y24152I841J4449*
G01*
X26719*
G75*
G02X19640Y27893I-2552J3740*
G01*
G75*
G02X26719Y31633I4528J0*
G01*
X41301*
G75*
G02X48301Y28733I2552J-3740*
G01*
X55563Y21471*
X61069*
G75*
G02X63363Y20685J-3740*
G01*
X63825*
Y20260*
G75*
G02X64219Y19748I-2758J-2529*
G01*
G75*
G02X64612Y20260I3152J-2017*
G01*
Y20685*
X65032*
X69839Y25491*
G75*
G02X72486Y26589I2648J-2642*
G01*
X85281*
Y28190*
X84244Y29227*
X77014*
Y28204*
X67486*
Y37732*
X69433*
G75*
G02X70348Y48600I2817J5235*
G01*
G75*
G02X67486Y52967I1902J4368*
G01*
G75*
G02X77014I4764*
G01*
G75*
G02X74152Y48600I-4764*
G01*
G75*
G02X78195Y42967I-1902J-5632*
G01*
G75*
G02X78189Y42700I-5943J-3*
G01*
X80754Y45265*
Y45291*
X79573*
Y53165*
X87841*
Y45291*
X86659*
Y45224*
G75*
G02Y40632I-2953J-2296*
G01*
Y40173*
X86241*
X82776Y36707*
X85789*
G75*
G02X88438Y35612I5J-3740*
G01*
X88798Y35252*
X91581*
Y32346*
X95809Y15796D02*
X98144Y13461D01*
Y10162*
X95809Y7828*
X92510*
X90175Y10162*
Y13461*
X92510Y15796*
X95809*
X85809D02*
X88144Y13461D01*
Y10162*
X85809Y7828*
X82510*
X80175Y10162*
Y13461*
X82510Y15796*
X85809*
X75809D02*
X78144Y13461D01*
Y10162*
X75809Y7828*
X72510*
X70175Y10162*
Y13461*
X72510Y15796*
X75809*
X39325Y14113D02*
G75*
G02X48380I4528D01*
G01*
G75*
G02X39325I-4528*
G01*
Y55452D02*
G75*
G02X48380I4528D01*
G01*
G75*
G02X39325I-4528*
G01*
X19640Y14113D02*
G75*
G02X28695I4528D01*
G01*
G75*
G02X19640I-4528*
G01*
Y41672D02*
G75*
G02X28695I4528D01*
G01*
G75*
G02X19640I-4528*
G01*
Y55452D02*
G75*
G02X28695I4528D01*
G01*
G75*
G02X19640I-4528*
G01*
X38144Y83011D02*
G75*
G02X49561I5709D01*
G01*
G75*
G02X38144I-5709*
G01*
X18459D02*
G75*
G02X29876I5709D01*
G01*
G75*
G02X18459I-5709*
G01*
X30809Y205796D02*
X33144Y203461D01*
Y200162*
X30809Y197828*
X27510*
X25175Y200162*
Y203461*
X27510Y205796*
X30809*
X40809D02*
X43144Y203461D01*
Y200162*
X40809Y197828*
X37510*
X35175Y200162*
Y203461*
X37510Y205796*
X40809*
X50809D02*
X53144Y203461D01*
Y200162*
X50809Y197828*
X47510*
X45175Y200162*
Y203461*
X47510Y205796*
X50809*
X60809D02*
X63144Y203461D01*
Y200162*
X60809Y197828*
X57510*
X55175Y200162*
Y203461*
X57510Y205796*
X60809*
X70809D02*
X73144Y203461D01*
Y200162*
X70809Y197828*
X67510*
X65175Y200162*
Y203461*
X67510Y205796*
X70809*
X80809D02*
X83144Y203461D01*
Y200162*
X80809Y197828*
X77510*
X75175Y200162*
Y203461*
X77510Y205796*
X80809*
X90809D02*
X93144Y203461D01*
Y200162*
X90809Y197828*
X87510*
X85175Y200162*
Y203461*
X87510Y205796*
X90809*
X100809D02*
X103144Y203461D01*
Y200162*
X100809Y197828*
X97510*
X95175Y200162*
Y203461*
X97510Y205796*
X100809*
X110809D02*
X113144Y203461D01*
Y200162*
X110809Y197828*
X107510*
X105175Y200162*
Y203461*
X107510Y205796*
X110809*
X155809D02*
X158144Y203461D01*
Y200162*
X155809Y197828*
X152510*
X150175Y200162*
Y203461*
X152510Y205796*
X155809*
X165809D02*
X168144Y203461D01*
Y200162*
X166325Y198343*
Y186468*
X166496*
Y180956*
X160591*
Y186468*
X161994*
Y198343*
X160175Y200162*
Y203461*
X162510Y205796*
X165809*
X175809D02*
X178144Y203461D01*
Y200162*
X175809Y197828*
X172510*
X170175Y200162*
Y203461*
X172510Y205796*
X175809*
X185809D02*
X188144Y203461D01*
Y200162*
X185809Y197828*
X182510*
X180175Y200162*
Y203461*
X182510Y205796*
X185809*
X195809D02*
X198144Y203461D01*
Y200162*
X195809Y197828*
X192510*
X190175Y200162*
Y203461*
X192510Y205796*
X195809*
X205809D02*
X208144Y203461D01*
Y200162*
X205809Y197828*
X202510*
X200175Y200162*
Y203461*
X202510Y205796*
X205809*
X225809D02*
X228144Y203461D01*
Y200162*
X225809Y197828*
X222510*
X220175Y200162*
Y203461*
X222510Y205796*
X225809*
X235809D02*
X238144Y203461D01*
Y200162*
X235809Y197828*
X232510*
X230175Y200162*
Y203461*
X232510Y205796*
X235809*
X245809D02*
X248144Y203461D01*
Y200162*
X245809Y197828*
X242510*
X240175Y200162*
Y203461*
X242510Y205796*
X245809*
X255809D02*
X258144Y203461D01*
Y200162*
X255809Y197828*
X252510*
X250175Y200162*
Y203461*
X252510Y205796*
X255809*
X285809D02*
X288144Y203461D01*
Y200162*
X285809Y197828*
X282510*
X280175Y200162*
Y203461*
X282510Y205796*
X285809*
X295809D02*
X298144Y203461D01*
Y200162*
X295809Y197828*
X292510*
X290175Y200162*
Y203461*
X292510Y205796*
X295809*
X325809Y145796D02*
X328144Y143461D01*
Y140162*
X325809Y137828*
X322510*
X320175Y140162*
Y143461*
X322510Y145796*
X325809*
Y155796D02*
X328144Y153461D01*
Y150162*
X325809Y147828*
X322510*
X320175Y150162*
Y153461*
X322510Y155796*
X325809*
Y165796D02*
X328144Y163461D01*
Y160162*
X325809Y157828*
X322510*
X320175Y160162*
Y163461*
X322510Y165796*
X325809*
Y175796D02*
X328144Y173461D01*
Y170162*
X325809Y167828*
X322510*
X320175Y170162*
Y173461*
X322510Y175796*
X325809*
Y185796D02*
X328144Y183461D01*
Y180162*
X325809Y177828*
X322510*
X320175Y180162*
Y183461*
X322510Y185796*
X325809*
Y195796D02*
X328144Y193461D01*
Y190162*
X325809Y187828*
X322510*
X320175Y190162*
Y193461*
X322510Y195796*
X325809*
Y205796D02*
X328144Y203461D01*
Y200162*
X325809Y197828*
X322510*
X320175Y200162*
Y203461*
X322510Y205796*
X325809*
X335809Y65796D02*
X338144Y63461D01*
Y60162*
X335809Y57828*
X332510*
X330175Y60162*
Y63461*
X332510Y65796*
X335809*
Y75796D02*
X338144Y73461D01*
Y70162*
X335809Y67828*
X332510*
X330175Y70162*
Y73461*
X332510Y75796*
X335809*
Y85796D02*
X338144Y83461D01*
Y80162*
X335809Y77828*
X332510*
X330175Y80162*
Y83461*
X332510Y85796*
X335809*
Y95796D02*
X338144Y93461D01*
Y90162*
X335809Y87828*
X332510*
X330175Y90162*
Y93461*
X332510Y95796*
X335809*
Y105796D02*
X338144Y103461D01*
Y100162*
X335809Y97828*
X332510*
X330175Y100162*
Y103461*
X332510Y105796*
X335809*
Y115796D02*
X338144Y113461D01*
Y110162*
X335809Y107828*
X332510*
X330175Y110162*
Y113461*
X332510Y115796*
X335809*
Y125796D02*
X338144Y123461D01*
Y120162*
X335809Y117828*
X332510*
X330175Y120162*
Y123461*
X332510Y125796*
X335809*
Y135796D02*
X338144Y133461D01*
Y130162*
X335809Y127828*
X332510*
X330175Y130162*
Y133461*
X332510Y135796*
X335809*
Y145796D02*
X338144Y143461D01*
Y140162*
X335809Y137828*
X332510*
X330175Y140162*
Y143461*
X332510Y145796*
X335809*
Y155796D02*
X338144Y153461D01*
Y150162*
X335809Y147828*
X332510*
X330175Y150162*
Y153461*
X332510Y155796*
X335809*
Y165796D02*
X338144Y163461D01*
Y160162*
X335809Y157828*
X332510*
X330175Y160162*
Y163461*
X332510Y165796*
X335809*
Y175796D02*
X338144Y173461D01*
Y170162*
X335809Y167828*
X332510*
X330175Y170162*
Y173461*
X332510Y175796*
X335809*
Y185796D02*
X338144Y183461D01*
Y180162*
X335809Y177828*
X332510*
X330175Y180162*
Y183461*
X332510Y185796*
X335809*
Y195796D02*
X338144Y193461D01*
Y190162*
X335809Y187828*
X332510*
X330175Y190162*
Y193461*
X332510Y195796*
X335809*
Y205796D02*
X338144Y203461D01*
Y200162*
X335809Y197828*
X332510*
X330175Y200162*
Y203461*
X332510Y205796*
X335809*
X329984Y11812D02*
G36*
X329246D01*
Y8905*
X323341*
Y9339*
X317321*
X315809Y7828*
X312510*
X310175Y10162*
Y11812*
X308144*
Y10162*
X305809Y7828*
X302510*
X300175Y10162*
Y11812*
X298144*
Y10162*
X295809Y7828*
X292510*
X290175Y10162*
Y11812*
X288144*
Y10162*
X285809Y7828*
X282510*
X280175Y10162*
Y11812*
X278144*
Y10162*
X275809Y7828*
X272510*
X270175Y10162*
Y11812*
X268144*
Y10162*
X265809Y7828*
X262510*
X260175Y10162*
Y11812*
X258144*
Y10162*
X255809Y7828*
X252510*
X250175Y10162*
Y11812*
X248144*
Y10162*
X245809Y7828*
X242510*
X240175Y10162*
Y11812*
X228144*
Y10162*
X225809Y7828*
X222510*
X220175Y10162*
Y11812*
X218144*
Y10162*
X215809Y7828*
X212510*
X210175Y10162*
Y11812*
X208144*
Y10162*
X205809Y7828*
X202510*
X200175Y10162*
Y11812*
X198144*
Y10162*
X195809Y7828*
X192510*
X190175Y10162*
Y11812*
X188144*
Y10162*
X185809Y7828*
X182510*
X180175Y10162*
Y11812*
X178144*
Y10162*
X175809Y7828*
X172510*
X170175Y10162*
Y11812*
X168144*
Y10162*
X165809Y7828*
X162510*
X160175Y10162*
Y11812*
X158144*
Y10162*
X155809Y7828*
X152510*
X150175Y10162*
Y11812*
X138144*
Y10162*
X135809Y7828*
X132510*
X130175Y10162*
Y11812*
X129325*
Y9673*
X126298Y6646*
X122021*
X119159Y9508*
X116298Y6646*
X112021*
X108994Y9673*
Y11812*
X108144*
Y10162*
X105809Y7828*
X102510*
X100175Y10162*
Y11812*
X98144*
Y10162*
X95809Y7828*
X92510*
X90175Y10162*
Y11812*
X88144*
Y10162*
X85809Y7828*
X82510*
X80175Y10162*
Y11812*
X78144*
Y10162*
X75809Y7828*
X72510*
X70175Y10162*
Y11812*
X47752*
G75*
G02X39953I-3899J2301*
G01*
X28067*
G75*
G02X20268I-3899J2301*
G01*
X6287*
Y2594*
X339713*
Y6988*
X329984*
Y11812*
G37*
X66410Y22063D02*
G36*
X54972D01*
X55563Y21471*
X61069*
G75*
G02X63363Y20685I0J-3739*
G01*
X63825*
Y20260*
G75*
G02X64219Y19748I-2745J-2519*
G01*
G75*
G02X64612Y20260I3139J-2007*
G01*
Y20685*
X65032*
X66410Y22063*
G37*
X150175Y11812D02*
G36*
Y13461D01*
X151837Y15123*
Y19504*
X151423*
Y22063*
X150636*
Y19504*
X145124*
Y22063*
X92087*
G75*
G02X88431Y19109I-3657J787*
G01*
X74035*
X70124Y15198*
Y14779*
X69665*
G75*
G02X65072I-2296J2952*
G01*
X64612*
Y15202*
G75*
G02X64219Y15714I2745J2519*
G01*
G75*
G02X63825Y15202I-3139J2007*
G01*
Y14779*
X63365*
G75*
G02X61069Y13991I-2296J2950*
G01*
X54014*
G75*
G02X51366Y15089J3740*
G01*
X44393Y22063*
X6287*
Y11812*
X20268*
G75*
G02X19640Y14113I3899J2301*
G01*
G75*
G02X28695I4528*
G01*
G75*
G02X28067Y11812I-4528*
G01*
X39953*
G75*
G02X39325Y14113I3899J2301*
G01*
G75*
G02X48380I4528*
G01*
G75*
G02X47752Y11812I-4528*
G01*
X70175*
Y13461*
X72510Y15796*
X75809*
X78144Y13461*
Y11812*
X80175*
Y13461*
X82510Y15796*
X85809*
X88144Y13461*
Y11812*
X90175*
Y13461*
X92510Y15796*
X95809*
X98144Y13461*
Y11812*
X100175*
Y13461*
X102510Y15796*
X105809*
X108144Y13461*
Y11812*
X108994*
Y13950*
X112021Y16977*
X116298*
X119159Y14116*
X122021Y16977*
X126298*
X129325Y13950*
Y11812*
X130175*
Y13461*
X132510Y15796*
X135809*
X138144Y13461*
Y11812*
X150175*
G37*
X339713Y13759D02*
G36*
Y22063D01*
X319354*
X321291Y20126*
X323341*
Y20716*
X329246*
Y20127*
X331165*
Y20452*
X338921*
Y16043*
X335665*
G75*
G02X334658Y15796I-1004J1917*
G01*
X329246*
Y15204*
X323341*
Y15795*
X320396*
G75*
G02X318862Y16430I-2J2167*
G01*
X313396Y21897*
X310543*
G75*
G02X309714Y22063I1J2167*
G01*
X285728*
Y19996*
X271949*
Y22063*
X249114*
Y18815*
X232972*
Y22063*
X156935*
Y19504*
X156482*
Y15123*
X158144Y13461*
Y11812*
X160175*
Y13461*
X162510Y15796*
X165809*
X168144Y13461*
Y11812*
X170175*
Y13461*
X172510Y15796*
X175809*
X178144Y13461*
Y11812*
X180175*
Y13461*
X182510Y15796*
X185809*
X188144Y13461*
Y11812*
X190175*
Y13461*
X192510Y15796*
X195809*
X198144Y13461*
Y11812*
X200175*
Y13461*
X202510Y15796*
X205809*
X208144Y13461*
Y11812*
X210175*
Y13461*
X212510Y15796*
X215809*
X218144Y13461*
Y11812*
X220175*
Y13461*
X222510Y15796*
X225809*
X228144Y13461*
Y11812*
X240175*
Y13461*
X242510Y15796*
X245809*
X248144Y13461*
Y11812*
X250175*
Y13461*
X252510Y15796*
X255809*
X258144Y13461*
Y11812*
X260175*
Y13461*
X262510Y15796*
X265809*
X268144Y13461*
Y11812*
X270175*
Y13461*
X272510Y15796*
X275809*
X278144Y13461*
Y11812*
X280175*
Y13461*
X282510Y15796*
X285809*
X288144Y13461*
Y11812*
X290175*
Y13461*
X292510Y15796*
X295809*
X298144Y13461*
Y11812*
X300175*
Y13461*
X302510Y15796*
X305809*
X308144Y13461*
Y11812*
X310175*
Y13461*
X312510Y15796*
X315809*
X317620Y13985*
X323341*
Y14417*
X329246*
Y11812*
X329984*
Y13759*
X339713*
G37*
X44393Y22063D02*
G36*
X43012Y23444D01*
G75*
G02X41301Y24152I838J4443*
G01*
X26719*
G75*
G02X19717Y27063I-2552J3740*
G01*
X6287*
Y22063*
X44393*
G37*
X66410D02*
G36*
X69839Y25491D01*
G75*
G02X72486Y26589I2648J-2642*
G01*
X85281*
Y27063*
X49972*
X54972Y22063*
X66410*
G37*
X145124D02*
G36*
Y23946D01*
X142008Y27063*
X132207*
G75*
G02X128333Y25546I-3875J4192*
G01*
G75*
G02X124458Y27063J5709*
G01*
X112522*
G75*
G02X108648Y25546I-3875J4192*
G01*
G75*
G02X104773Y27063J5709*
G01*
X91581*
Y25409*
X91158*
G75*
G02X92171Y22849I-2727J-2559*
G01*
G75*
G02X92087Y22063I-3740J-1*
G01*
X145124*
G37*
X232972D02*
G36*
Y24896D01*
X228939*
G75*
G02X227406Y25531I-2J2167*
G01*
X225874Y27063*
X148132*
X149411Y25784*
G75*
G02X149711Y25409I-1534J-1533*
G01*
X150636*
Y22063*
X151423*
Y25409*
X156935*
Y22063*
X232972*
G37*
X309714D02*
G36*
G75*
G02X309011Y22533I830J2002D01*
G01*
X304481Y27063*
X285728*
Y24996*
X271949*
Y27063*
X247933*
Y25311*
X249114*
Y22063*
X271949*
Y24130*
X285728*
Y22063*
X309714*
G37*
X336714Y27063D02*
G36*
X336298Y26646D01*
X332021*
X331605Y27063*
X326714*
X326298Y26646*
X322021*
X321605Y27063*
X316054*
G75*
G02X313968Y26228I-3010J4500*
G01*
X314291*
G75*
G02X315825Y25593I2J-2167*
G01*
X319354Y22063*
X339713*
Y27063*
X336714*
G37*
X85281D02*
G36*
Y28190D01*
X84244Y29227*
X77014*
Y28204*
X67486*
Y37732*
X69433*
G75*
G02X66419Y41812I2817J5235*
G01*
X63757*
X58468Y36524*
G75*
G02X53317Y34389I-5152J5150*
G01*
X44004*
G75*
G02X43852Y34388I-151J7260*
G01*
G75*
G02X36568Y41672J7284*
G01*
G75*
G02X36569Y41812I7287J8*
G01*
X28693*
G75*
G02X28695Y41672I-4528J-134*
G01*
G75*
G02X19640I-4528*
G01*
G75*
G02X19642Y41812I4530J6*
G01*
X6287*
Y27063*
X19717*
G75*
G02X19640Y27893I4451J830*
G01*
G75*
G02X26719Y31633I4528*
G01*
X41301*
G75*
G02X48301Y28733I2552J-3740*
G01*
X49972Y27063*
X85281*
G37*
X94938Y41812D02*
G36*
X87276D01*
G75*
G02X86659Y40632I-3570J1116*
G01*
Y40173*
X86241*
X82776Y36707*
X85789*
G75*
G02X88438Y35612I4J-3743*
G01*
X88798Y35252*
X91581*
Y32346*
G75*
G02X92171Y30330I-3149J-2017*
G01*
G75*
G02X91581Y28313I-3740*
G01*
Y27063*
X104773*
G75*
G02X102939Y31255I3875J4192*
G01*
G75*
G02X105857Y36235I5709*
G01*
X101307*
G75*
G02X99774Y36869I-2J2167*
G01*
X95286Y41357*
G75*
G02X94938Y41812I1532J1532*
G01*
G37*
X124458Y27063D02*
G36*
G75*
G02X122624Y31255I3875J4192D01*
G01*
G75*
G02X125543Y36235I5709*
G01*
X111438*
G75*
G02X114356Y31255I-2790J-4980*
G01*
G75*
G02X112522Y27063I-5709*
G01*
X124458*
G37*
X263623Y41812D02*
G36*
X257356D01*
X264940Y34227*
X278839*
G75*
G02X279481Y34130I2J-2153*
G01*
X285728*
Y29996*
X279487*
G75*
G02X278839Y29896I-646J2053*
G01*
X264046*
G75*
G02X262512Y30531I-2J2167*
G01*
X251262Y41781*
G75*
G02X251232Y41812I1533J1524*
G01*
X247933*
Y39996*
X234154*
Y41812*
X227606*
X234154Y35264*
Y39130*
X247933*
Y34996*
X234422*
X235190Y34227*
X241043*
G75*
G02X241686Y34130I2J-2153*
G01*
X247933*
Y29996*
X241691*
G75*
G02X241043Y29896I-646J2053*
G01*
X234296*
G75*
G02X232762Y30531I-2J2167*
G01*
X222762Y40531*
G75*
G02X222143Y41812I1532J1531*
G01*
X212988*
Y34905*
X201276*
Y38598*
G75*
G02X192457Y40762I-4144J2165*
G01*
Y40763*
G75*
G02X192576Y41812I4673*
G01*
X191688*
G75*
G02X191807Y40763I-4556J-1050*
G01*
G75*
G02X182457I-4675*
G01*
G75*
G02X182576Y41812I4676J0*
G01*
X181688*
G75*
G02X181807Y40763I-4556J-1050*
G01*
G75*
G02X172457I-4675*
G01*
G75*
G02X172576Y41812I4676J0*
G01*
X171688*
G75*
G02X171807Y40763I-4556J-1050*
G01*
G75*
G02X162457I-4675*
G01*
G75*
G02X162576Y41812I4676J0*
G01*
X161688*
G75*
G02X161807Y40763I-4556J-1050*
G01*
G75*
G02X152457I-4675*
G01*
G75*
G02X152576Y41812I4676J0*
G01*
X151688*
G75*
G02X151807Y40763I-4556J-1050*
G01*
G75*
G02X142457I-4675*
G01*
G75*
G02X142576Y41812I4676J0*
G01*
X138302*
G75*
G02X136404Y41294I-1898J3222*
G01*
X130884*
G75*
G02X129061Y40566I-2552J3742*
G01*
X133730*
G75*
G02X135263Y39931I2J-2167*
G01*
X148132Y27063*
X225874*
X224437Y28500*
G75*
G02X221085Y31706I-143J3206*
G01*
G75*
G02X227502I3209*
G01*
G75*
G02X227499Y31562I-3263*
G01*
X229834Y29227*
X241043*
G75*
G02X241686Y29130I2J-2153*
G01*
X247933*
Y27063*
X271949*
Y29130*
X285728*
Y27063*
X304481*
X304084Y27459*
G75*
G02X298811Y31562I-1041J4102*
G01*
G75*
G02X300437Y34896I4232*
G01*
X297276*
Y27330*
X288811*
Y34896*
X271437*
G75*
G02X269904Y35531I-2J2167*
G01*
X263623Y41812*
G37*
X142008Y27063D02*
G36*
X132835Y36235D01*
X131123*
G75*
G02X134041Y31255I-2790J-4980*
G01*
G75*
G02X132207Y27063I-5709*
G01*
X142008*
G37*
X321605D02*
G36*
X318994Y29673D01*
Y33950*
X320564Y35520*
G75*
G02X319041Y34896I-1522J1544*
G01*
X317308*
G75*
G02X318457Y31562I-4264J-3335*
G01*
G75*
G02X316054Y27063I-5413*
G01*
X321605*
G37*
X338144Y41812D02*
G36*
Y40162D01*
X335809Y37828*
X332510*
X330175Y40162*
Y41812*
X328144*
Y40162*
X325809Y37828*
X322871*
X322021Y36977*
X326298*
X329159Y34116*
X332021Y36977*
X336298*
X339325Y33950*
Y29673*
X336714Y27063*
X339713*
Y41812*
X338144*
G37*
X331605Y27063D02*
G36*
X329159Y29508D01*
X326714Y27063*
X331605*
G37*
X38953Y47063D02*
G36*
X6287D01*
Y41812*
X19642*
G75*
G02X28693I4526J-140*
G01*
X36569*
G75*
G02X38953Y47063I7283J-140*
G01*
G37*
X66419Y41812D02*
G36*
G75*
G02X66305Y42967I5832J1156D01*
G01*
G75*
G02X67941Y47063I5944J0*
G01*
X66520*
G75*
G02X64406Y42461I-7260J549*
G01*
X63757Y41812*
X66419*
G37*
X79573Y47063D02*
G36*
X76559D01*
G75*
G02X78195Y42967I-4309J-4095*
G01*
G75*
G02X78189Y42700I-6507J9*
G01*
X80754Y45265*
Y45291*
X79573*
Y47063*
G37*
X94652D02*
G36*
X87841D01*
Y45291*
X86659*
Y45224*
G75*
G02X87447Y42928I-2953J-2296*
G01*
G75*
G02X87276Y41812I-3740*
G01*
X94938*
G75*
G02X94652Y42889I1880J1077*
G01*
Y47063*
G37*
X192576Y41812D02*
G36*
G75*
G02X193392Y43568I4554J-1048D01*
G01*
Y47063*
X143721*
X139051Y42393*
G75*
G02X138302Y41812I-2648J2643*
G01*
X142576*
G75*
G02X151688I4556J-1049*
G01*
X152576*
G75*
G02X161688I4556J-1049*
G01*
X162576*
G75*
G02X171688I4556J-1049*
G01*
X172576*
G75*
G02X181688I4556J-1049*
G01*
X182576*
G75*
G02X191688I4556J-1049*
G01*
X192576*
G37*
X222143D02*
G36*
G75*
G02X222128Y42062I2152J251D01*
G01*
Y47063*
X200872*
Y43568*
G75*
G02X201276Y42928I-3767J-2822*
G01*
Y46618*
X212988*
Y41812*
X222143*
G37*
X251232D02*
G36*
G75*
G02X250628Y43312I1562J1500D01*
G01*
Y47063*
X247933*
Y44996*
X234154*
Y47063*
X226459*
Y42959*
X227606Y41812*
X234154*
Y44130*
X247933*
Y41812*
X251232*
G37*
X259770Y47063D02*
G36*
X254959D01*
Y44209*
X257356Y41812*
X263623*
X260404Y45031*
G75*
G02X259770Y46562I1532J1531*
G01*
Y47063*
G37*
X333106D02*
G36*
X331324Y45281D01*
G75*
G02X329791Y44646I-1532J1533*
G01*
X326959*
X328144Y43461*
Y41812*
X330175*
Y43461*
X332510Y45796*
X335809*
X338144Y43461*
Y41812*
X339713*
Y47063*
X333106*
G37*
X51974Y52063D02*
G36*
X46855D01*
G75*
G02X40850I-3002J3389*
G01*
X27170*
G75*
G02X21165I-3002J3389*
G01*
X6287*
Y47063*
X38953*
G75*
G02X42730Y48869I4899J-5391*
G01*
G75*
G02X43852Y48956I1119J-7152*
G01*
X50300*
X51974Y50630*
Y52063*
G37*
X67573D02*
G36*
X66541D01*
Y47613*
G75*
G02Y47612I-8459J0*
G01*
G75*
G02X66520Y47063I-7281J2*
G01*
X67941*
G75*
G02X70348Y48600I4309J-4096*
G01*
G75*
G02X67573Y52063I1902J4367*
G01*
G37*
X79573D02*
G36*
X76927D01*
G75*
G02X74152Y48600I-4677J904*
G01*
G75*
G02X76559Y47063I-1902J-5633*
G01*
X79573*
Y52063*
G37*
X94652D02*
G36*
X87841D01*
Y47063*
X94652*
Y52063*
G37*
X193781D02*
G36*
X148721D01*
X143721Y47063*
X193392*
Y50400*
G75*
G02X193781Y52063I3740J0*
G01*
G37*
X221296D02*
G36*
X204083D01*
X200872Y48851*
Y47063*
X222128*
Y48550*
G75*
G02X221085Y50918I2166J2368*
G01*
G75*
G02X221296Y52063I3209*
G01*
G37*
X250628D02*
G36*
X247933D01*
Y49996*
X234154*
Y52063*
X227291*
G75*
G02X227502Y50918I-2998J-1144*
G01*
G75*
G02X226459Y48550I-3209J0*
G01*
Y47063*
X234154*
Y49130*
X247933*
Y47063*
X250628*
Y52063*
G37*
X259770Y47063D02*
G36*
Y52063D01*
X254959*
Y47063*
X259770*
G37*
X314232Y52063D02*
G36*
X311400D01*
Y49230*
X314232Y52063*
G37*
X330175D02*
G36*
X328144D01*
Y50162*
X326959Y48977*
X328896*
X330175Y50256*
Y52063*
G37*
X338144D02*
G36*
Y50162D01*
X335809Y47828*
X333871*
X333106Y47063*
X339713*
Y52063*
X338144*
G37*
X51974D02*
G36*
Y56415D01*
X46578Y61812*
X45511*
G75*
G02X42194I-1658J7419*
G01*
X6287*
Y52063*
X21165*
G75*
G02X19640Y55452I3002J3389*
G01*
G75*
G02X28695I4528*
G01*
G75*
G02X27170Y52063I-4528*
G01*
X40850*
G75*
G02X39325Y55452I3002J3389*
G01*
G75*
G02X48380I4528*
G01*
G75*
G02X46855Y52063I-4528*
G01*
X51974*
G37*
X94652Y61812D02*
G36*
X66142D01*
G75*
G02X66541Y59432I-6883J-2379*
G01*
Y59432*
Y52063*
X67573*
G75*
G02X67486Y52967I4677J904*
G01*
Y52967*
G75*
G02X77014I4764*
G01*
Y52967*
G75*
G02X76927Y52063I-4763*
G01*
X79573*
Y53165*
X87841*
Y52063*
X94652*
Y61812*
G37*
X203254D02*
G36*
X198077D01*
Y59523*
X171694*
X166236Y54066*
G75*
G02X163589Y52967I-2648J2642*
G01*
X149626*
X148721Y52063*
X193781*
G75*
G02X194490Y53048I3350J-1662*
G01*
X203254Y61812*
G37*
X234154D02*
G36*
X228732D01*
X225091Y58170*
G75*
G02X222443Y57072I-2648J2642*
G01*
X209093*
X204083Y52063*
X221296*
G75*
G02X227291I2998J-1144*
G01*
X234154*
Y54130*
X247933*
Y52063*
X250628*
Y56084*
X250074Y55531*
G75*
G02X248541Y54896I-1532J1533*
G01*
X241043*
G75*
G02X240395Y54996I-2J2152*
G01*
X234154*
Y59130*
X240400*
G75*
G02X241043Y59227I641J-2056*
G01*
X247628*
Y59996*
X241691*
G75*
G02X240395I-648J2067*
G01*
X234154*
Y61812*
G37*
X259770Y52063D02*
G36*
Y61812D01*
X254959*
Y52063*
X259770*
G37*
X320175Y61812D02*
G36*
X310110D01*
G75*
G02X310219Y60812I-4567J-1000*
G01*
Y60811*
G75*
G02X307710Y56669I-4675*
G01*
X311400*
Y52063*
X314232*
X321253Y59084*
X320175Y60162*
Y61812*
G37*
X338144D02*
G36*
Y60162D01*
X335809Y57828*
X332510*
X330175Y60162*
Y61812*
X328144*
Y60162*
X326592Y58610*
G75*
G02X326074Y57781I-2051J703*
G01*
X324090Y55796*
X325809*
X328144Y53461*
Y52063*
X330175*
Y53461*
X332510Y55796*
X335809*
X338144Y53461*
Y52063*
X339713*
Y61812*
X338144*
G37*
X17356Y71812D02*
G36*
X6287D01*
Y61812*
X42194*
G75*
G02X41674Y61948I1659J7421*
G01*
X24274*
X24167Y61947*
G75*
G02X16883Y69231J7284*
G01*
G75*
G02X17356Y71812I7285*
G01*
G37*
X46578Y61812D02*
G36*
X46442Y61948D01*
X46031*
G75*
G02X45511Y61812I-2179J7285*
G01*
X46578*
G37*
X68687Y71812D02*
G36*
X62340D01*
X59759Y69231*
X64404Y64587*
G75*
G02X66142Y61812I-5145J-5155*
G01*
X94652*
Y62779*
X87652Y69778*
X77230*
Y67673*
X68687*
Y71812*
G37*
X200895D02*
G36*
X198077D01*
Y61812*
X203254*
X204896Y63454*
G75*
G02X207543Y64552I2648J-2642*
G01*
X220894*
X222245Y65903*
G75*
G02X221219Y65664I-1028J2089*
G01*
X219809*
Y65626*
X211738*
Y70350*
X219691*
Y70626*
X211738*
Y70822*
X210557*
Y68874*
X204652*
Y69779*
X203825*
G75*
G02X202292Y70415I1J2167*
G01*
X200895Y71812*
G37*
X234154Y61812D02*
G36*
Y64130D01*
X235913*
X235699Y64344*
G75*
G02X235080Y65626I1533J1532*
G01*
X233195*
Y69444*
X232014*
Y71812*
X230533*
Y65162*
G75*
G02X229435Y62515I-3740*
G01*
X228732Y61812*
X234154*
G37*
X259770D02*
G36*
Y71812D01*
X247959*
Y70477*
X251041*
G75*
G02X252574Y69843I2J-2167*
G01*
X254324Y68093*
G75*
G02X254959Y66562I-1532J-1531*
G01*
Y61812*
X259770*
G37*
X338144Y71812D02*
G36*
Y70162D01*
X335809Y67828*
X332510*
X330175Y70162*
Y71812*
X328144*
Y70162*
X325809Y67828*
X322510*
X320175Y70162*
Y71812*
X310110*
G75*
G02X310219Y70812I-4567J-1000*
G01*
G75*
G02X300868I-4675*
G01*
G75*
G02X300976Y71812I4676J0*
G01*
X293589*
Y64552*
X302738*
G75*
G02X310110Y61812I2805J-3740*
G01*
X320175*
Y63461*
X322510Y65796*
X325809*
X328144Y63461*
Y61812*
X330175*
Y63461*
X332510Y65796*
X335809*
X338144Y63461*
Y61812*
X339713*
Y71812*
X338144*
G37*
X51739Y81812D02*
G36*
X49434D01*
G75*
G02X38271I-5581J1199*
G01*
X29749*
G75*
G02X18586I-5581J1199*
G01*
X6287*
Y71812*
X17356*
G75*
G02X24167Y76515I6812J-2581*
G01*
G75*
G02X24274Y76515I27J-3641*
G01*
X41674*
G75*
G02X46031I2179J-7283*
G01*
X46442*
X51739Y81812*
G37*
X68687Y71812D02*
G36*
Y75211D01*
X65739*
X62340Y71812*
X68687*
G37*
X198128Y81812D02*
G36*
X198077D01*
Y71812*
X200895*
X198764Y73942*
G75*
G02X198128Y75475I1529J1533*
G01*
Y81812*
G37*
X232014Y71812D02*
G36*
Y74163D01*
X230533Y72683*
Y71812*
X232014*
G37*
X257152Y81812D02*
G36*
X256285D01*
Y78756*
X252152*
Y81812*
X251285*
Y78756*
X247959*
Y71812*
X259770*
Y76668*
G75*
G02X260404Y78199I2166J0*
G01*
X260960Y78756*
X257152*
Y81812*
G37*
X338144D02*
G36*
Y80162D01*
X335809Y77828*
X332510*
X330175Y80162*
Y81812*
X328144*
Y80162*
X325809Y77828*
X322510*
X320175Y80162*
Y81812*
X310110*
G75*
G02X310219Y80812I-4567J-1000*
G01*
G75*
G02X300868I-4675*
G01*
G75*
G02X300976Y81812I4676J0*
G01*
X295990*
Y77141*
G75*
G02X295356Y75609I-2166J0*
G01*
X292521Y72775*
G75*
G02X292407Y72669I-1536J1536*
G01*
Y71944*
X293589*
Y71812*
X300976*
G75*
G02X310110I4567J-1000*
G01*
X320175*
Y73461*
X322510Y75796*
X325809*
X328144Y73461*
Y71812*
X330175*
Y73461*
X332510Y75796*
X335809*
X338144Y73461*
Y71812*
X339713*
Y81812*
X338144*
G37*
X83156Y91812D02*
G36*
X75676D01*
X75367Y91504*
G75*
G02X72718Y90408I-2646J2647*
G01*
X38470*
G75*
G02X35823Y91507J3740*
G01*
X35518Y91812*
X6287*
Y81812*
X18586*
G75*
G02X18459Y83011I5581J1198*
G01*
G75*
G02X29876I5709*
G01*
G75*
G02X29749Y81812I-5709J-1*
G01*
X38271*
G75*
G02X38144Y83011I5581J1198*
G01*
G75*
G02X49561I5709*
G01*
G75*
G02X49434Y81812I-5709J-1*
G01*
X51739*
X56943Y87015*
G75*
G02X65056Y88519I5150J-5150*
G01*
X72959*
G75*
G02X78407Y85684I0J-6654*
G01*
X79047*
X83156Y89792*
Y91812*
G37*
X198128D02*
G36*
X198077D01*
Y81812*
X198128*
Y91812*
G37*
X252152D02*
G36*
X251285D01*
Y81812*
X252152*
Y91812*
G37*
X257152Y81812D02*
G36*
Y84999D01*
G75*
G02X257053Y85644I2071J646*
G01*
Y91812*
X256285*
Y81812*
X257152*
G37*
X338144Y91812D02*
G36*
Y90162D01*
X335809Y87828*
X332510*
X330175Y90162*
Y91812*
X328144*
Y90162*
X325809Y87828*
X322510*
X320175Y90162*
Y91812*
X310110*
G75*
G02X310219Y90812I-4567J-1000*
G01*
G75*
G02X300868I-4675*
G01*
G75*
G02X300976Y91812I4676J0*
G01*
X295931*
G75*
G02X295990Y91308I-2107J-504*
G01*
Y81812*
X300976*
G75*
G02X310110I4567J-1000*
G01*
X320175*
Y83461*
X322510Y85796*
X325809*
X328144Y83461*
Y81812*
X330175*
Y83461*
X332510Y85796*
X335809*
X338144Y83461*
Y81812*
X339713*
Y91812*
X338144*
G37*
X35518D02*
G36*
X30632Y96698D01*
G75*
G02X29533Y99345I2642J2648*
G01*
Y101812*
X6287*
Y91812*
X35518*
G37*
X61187Y101812D02*
G36*
X37014D01*
Y100894*
X40020Y97889*
X62309*
Y100690*
X61187Y101812*
G37*
X72310D02*
G36*
X70852D01*
Y97889*
X71173*
X72841Y99556*
Y99644*
G75*
G02X72309Y101707I3740J2063*
G01*
G75*
G02X72310Y101812I4273J4*
G01*
G37*
X83383D02*
G36*
X80851D01*
G75*
G02X80852Y101707I-4272J-100*
G01*
G75*
G02X80321Y99644I-4272*
G01*
Y98011*
Y98008*
Y98007*
Y98006*
G75*
G02X79226Y95362I-3740*
G01*
X75676Y91812*
X83156*
Y100522*
Y100525*
Y100526*
Y100527*
G75*
G02X83383Y101812I3740J0*
G01*
G37*
X198128Y91812D02*
G36*
Y98312D01*
G75*
G02X198762Y99843I2166J0*
G01*
X200731Y101812*
X198077*
Y91812*
X198128*
G37*
X220731Y101812D02*
G36*
X216776D01*
Y95078*
X208311*
Y95238*
X207270Y94196*
X212331*
Y93015*
X216665*
Y94578*
X223122*
Y92697*
G75*
G02X226193Y94302I3071J-2135*
G01*
X226793*
G75*
G02X228871Y93672I0J-3739*
G01*
X220731Y101812*
G37*
X252152Y91812D02*
G36*
Y92146D01*
X251285*
Y91812*
X252152*
G37*
X257053D02*
G36*
Y94009D01*
X255824Y92781*
G75*
G02X255531Y92535I-1570J1576*
G01*
X256285*
Y91812*
X257053*
G37*
X338144Y101812D02*
G36*
Y100162D01*
X335809Y97828*
X332510*
X330175Y100162*
Y101812*
X328144*
Y100162*
X325809Y97828*
X322510*
X320175Y100162*
Y101812*
X310110*
G75*
G02X310219Y100812I-4567J-1000*
G01*
G75*
G02X300868I-4675*
G01*
G75*
G02X300976Y101812I4676J0*
G01*
X299606*
X292994Y95201*
X295356Y92839*
G75*
G02X295931Y91812I-1532J-1531*
G01*
X300976*
G75*
G02X310110I4567J-1000*
G01*
X320175*
Y93461*
X322510Y95796*
X325809*
X328144Y93461*
Y91812*
X330175*
Y93461*
X332510Y95796*
X335809*
X338144Y93461*
Y91812*
X339713*
Y101812*
X338144*
G37*
X29533D02*
G36*
Y105230D01*
G75*
G02X26701Y107837I1534J4508*
G01*
G75*
G02X15124Y109739I-5632J1902*
G01*
G75*
G02X15173Y110500I5946J1*
G01*
X6287*
Y101812*
X29533*
G37*
X36305Y110500D02*
G36*
X35772D01*
G75*
G02X35800Y110297I-4706J-761*
G01*
X35915Y110182*
G75*
G02X36305Y109725I-2692J-2690*
G01*
Y110500*
G37*
X61187Y101812D02*
G36*
X53624Y109375D01*
G75*
G02X52850Y110500I2642J2647*
G01*
X45833*
Y104976*
X37014*
Y101812*
X61187*
G37*
X83383D02*
G36*
G75*
G02X84251Y103171I3513J-1285D01*
G01*
X87250Y106170*
Y110500*
X63078*
X67598Y105980*
X70852*
Y101812*
X72310*
G75*
G02X76581Y105979I4270J-104*
G01*
G75*
G02X80851Y101812J-4272*
G01*
X83383*
G37*
X200731D02*
G36*
X208312Y109393D01*
G75*
G02X208481Y110500I4231J-81*
G01*
X174219*
Y101846*
X198077*
Y101812*
X200731*
G37*
X218878Y110500D02*
G36*
X216606D01*
G75*
G02X216776Y109312I-4062J-1188*
G01*
G75*
G02X210597Y105554I-4232*
G01*
X208587Y103543*
X216776*
Y101812*
X220731*
X219512Y103031*
G75*
G02X218878Y104562I1532J1531*
G01*
Y110500*
G37*
X338144D02*
G36*
Y110162D01*
X335809Y107828*
X332510*
X330175Y110162*
Y110500*
X328144*
Y110162*
X325809Y107828*
X322510*
X320175Y110162*
Y110500*
X310208*
G75*
G02X301209Y109060I-4665J312*
G01*
Y104312*
G75*
G02X300574Y102781I-2166J0*
G01*
X299606Y101812*
X300976*
G75*
G02X310110I4567J-1000*
G01*
X320175*
Y103461*
X322510Y105796*
X325809*
X328144Y103461*
Y101812*
X330175*
Y103461*
X332510Y105796*
X335809*
X338144Y103461*
Y101812*
X339713*
Y110500*
X338144*
G37*
X15173D02*
G36*
G75*
G02X21633Y115657I5896J-761D01*
G01*
X15478Y121812*
X6287*
Y110500*
X15173*
G37*
X46738Y121812D02*
G36*
X41541D01*
Y121358*
X36423*
Y120177*
X28549*
Y121812*
X26057*
X33711Y114158*
G75*
G02X34463Y113081I-2643J-2649*
G01*
G75*
G02X35772Y110500I-3397J-3344*
G01*
X36305*
Y114504*
X45833*
Y110500*
X52850*
G75*
G02X52526Y112022I3416J1523*
G01*
Y120547*
X46738*
Y121812*
G37*
X87250Y110500D02*
G36*
Y113598D01*
X88431*
Y116953*
X88192Y116714*
G75*
G02X86896Y116091I-1531J1528*
G01*
Y115527*
X81778*
Y114346*
X73904*
Y121812*
X72250*
Y114346*
X64376*
Y115527*
X60006*
Y113572*
X63078Y110500*
X87250*
G37*
X64376Y121812D02*
G36*
X64337D01*
Y121433*
X64376*
Y121812*
G37*
X86896D02*
G36*
X81778D01*
Y121433*
X86787*
X86896Y121542*
Y121812*
G37*
X218878Y110500D02*
G36*
Y120165D01*
X217455Y121588*
G75*
G02X217957Y119313I-4908J-2275*
G01*
G75*
G02Y119312I-6152J0*
G01*
G75*
G02X207130I-5413*
G01*
Y119312*
G75*
G02X207742Y121812I5412*
G01*
X205968*
X200868Y116712*
G75*
G02X199334Y116078I-1532J1533*
G01*
X174219*
Y110500*
X208481*
G75*
G02X216606I4062J-1189*
G01*
X218878*
G37*
X338144Y121812D02*
G36*
Y120162D01*
X335809Y117828*
X332510*
X330175Y120162*
Y121812*
X328144*
Y120162*
X325809Y117828*
X322510*
X320175Y120162*
Y121812*
X310110*
G75*
G02X310219Y120812I-4568J-1000*
G01*
G75*
G02X301209Y119060I-4675*
G01*
Y112563*
G75*
G02X310219Y110812I4335J-1752*
G01*
G75*
G02X310208Y110500I-4678J-2*
G01*
X320175*
Y113461*
X322510Y115796*
X325809*
X328144Y113461*
Y110500*
X330175*
Y113461*
X332510Y115796*
X335809*
X338144Y113461*
Y110500*
X339713*
Y121812*
X338144*
G37*
X15478D02*
G36*
X14243Y123047D01*
X11463*
Y125950*
G75*
G02X10872Y127967I3149J2017*
G01*
G75*
G02X11463Y129984I3740*
G01*
Y131708*
X10872*
Y131812*
X6287*
Y121812*
X15478*
G37*
X22565Y131812D02*
G36*
X18352D01*
Y131708*
X17762*
Y130107*
X26057Y121812*
X28549*
Y126590*
X22565*
Y131812*
G37*
X46738Y121812D02*
G36*
Y125338D01*
X44017Y122618*
G75*
G02X42483Y121984I-1531J1530*
G01*
X41541*
Y121812*
X46738*
G37*
X65321Y131812D02*
G36*
X64337D01*
Y121812*
X64376*
Y122614*
X72250*
Y121812*
X73904*
Y122614*
X81778*
Y121812*
X86896*
Y127771*
X72801*
Y126590*
X65321*
Y131812*
G37*
X207742Y121812D02*
G36*
G75*
G02X208095Y122396I4800J-2501D01*
G01*
X206552*
X205968Y121812*
X207742*
G37*
X338144Y131812D02*
G36*
Y130162D01*
X335809Y127828*
X332510*
X330175Y130162*
Y131812*
X328144*
Y130162*
X325809Y127828*
X322510*
X320175Y130162*
Y131812*
X310110*
G75*
G02X310219Y130812I-4568J-1000*
G01*
G75*
G02X301209Y129060I-4675*
G01*
Y122563*
G75*
G02X310110Y121812I4335J-1752*
G01*
X320175*
Y123461*
X322510Y125796*
X325809*
X328144Y123461*
Y121812*
X330175*
Y123461*
X332510Y125796*
X335809*
X338144Y123461*
Y121812*
X339713*
Y131812*
X338144*
G37*
X22565Y141812D02*
G36*
X6287D01*
Y131812*
X10872*
Y139189*
X18352*
Y131812*
X22565*
Y141812*
G37*
X65321D02*
G36*
X64337D01*
Y131812*
X65321*
Y141812*
G37*
X320175Y131812D02*
G36*
Y132959D01*
X319089Y134146*
X308820*
G75*
G02X310110Y131812I-3278J-3335*
G01*
X320175*
G37*
X338144Y141812D02*
G36*
Y140162D01*
X335809Y137828*
X332510*
X330175Y140162*
Y141812*
X328144*
Y140162*
X325809Y137828*
X322510*
X320175Y140162*
Y141812*
X319574*
G75*
G02X319074Y141031I-2032J750*
G01*
X316521Y138477*
X320041*
G75*
G02X321641Y137773I2J-2166*
G01*
X323450Y135796*
X325809*
X328144Y133461*
Y131812*
X330175*
Y133461*
X332510Y135796*
X335809*
X338144Y133461*
Y131812*
X339713*
Y141812*
X338144*
G37*
X22565D02*
G36*
Y145488D01*
X29061*
Y151432*
Y151432*
G75*
G02X29092Y151812I2322J1*
G01*
X6287*
Y141812*
X22565*
G37*
X72167Y151812D02*
G36*
X35049D01*
X33707Y150470*
Y148221*
G75*
G02X39329Y146826I2638J-1396*
G01*
G75*
G02X38628Y144904I-2985J0*
G01*
Y144307*
X48982*
Y144542*
Y144543*
G75*
G02X49663Y146185I2322*
G01*
X51946Y148468*
G75*
G02X53589Y149148I1642J-1642*
G01*
X59494*
G75*
G02X61163Y148441I1J-2321*
G01*
X63680Y145846*
G75*
G02X64337Y144227I-1667J-1619*
G01*
Y141812*
X65321*
Y145488*
X71896*
Y150763*
G75*
G02X72167Y151812I2166J0*
G01*
G37*
X338144D02*
G36*
Y150162D01*
X335809Y147828*
X332510*
X330175Y150162*
Y151812*
X328144*
Y150162*
X325809Y147828*
X322510*
X320175Y150162*
Y151812*
X319709*
Y142562*
G75*
G02X319574Y141812I-2166J1*
G01*
X320175*
Y143461*
X322510Y145796*
X325809*
X328144Y143461*
Y141812*
X330175*
Y143461*
X332510Y145796*
X335809*
X338144Y143461*
Y141812*
X339713*
Y151812*
X338144*
G37*
X20144Y161812D02*
G36*
X6287D01*
Y151812*
X29092*
G75*
G02X29741Y153074I2291J-380*
G01*
X34230Y157563*
G75*
G02X34371Y157693I1561J-1556*
G01*
X20144*
Y161812*
G37*
X72167Y151812D02*
G36*
G75*
G02X72530Y152294I1895J-1050D01*
G01*
X73833Y153597*
X36834*
X35049Y151812*
X72167*
G37*
X62900Y161812D02*
G36*
X62467D01*
Y158243*
X62900*
Y161812*
G37*
X106634D02*
G36*
X105222D01*
Y160402*
X106634Y161812*
G37*
X338144D02*
G36*
Y160162D01*
X335809Y157828*
X332510*
X330175Y160162*
Y161812*
X328144*
Y160162*
X325809Y157828*
X322510*
X320175Y160162*
Y161812*
X319709*
Y151812*
X320175*
Y153461*
X322510Y155796*
X325809*
X328144Y153461*
Y151812*
X330175*
Y153461*
X332510Y155796*
X335809*
X338144Y153461*
Y151812*
X339713*
Y161812*
X338144*
G37*
X20144Y171812D02*
G36*
X6287D01*
Y161812*
X20144*
Y171812*
G37*
X62900D02*
G36*
X62467D01*
Y161812*
X62900*
Y171812*
G37*
X106634Y161812D02*
G36*
X116647Y171812D01*
X105222*
Y161812*
X106634*
G37*
X131994Y171812D02*
G36*
X129100D01*
G75*
G02X129656Y169639I-3972J-2174*
G01*
G75*
G02X129167Y167592I-4528*
G01*
X131994Y170419*
Y171812*
G37*
X140841D02*
G36*
X139848D01*
Y164559*
X140293Y165004*
G75*
G02X141935Y165684I1642J-1642*
G01*
X142609*
G75*
G02X140285Y169639I2205J3955*
G01*
G75*
G02X140841Y171812I4528J0*
G01*
G37*
X153479D02*
G36*
X148785D01*
G75*
G02X149341Y169639I-3972J-2174*
G01*
G75*
G02X147017Y165684I-4528*
G01*
X147351*
X153479Y171812*
G37*
X202499D02*
G36*
X198539D01*
X197686Y170959*
X201646*
X202499Y171812*
G37*
X211570D02*
G36*
X208623D01*
X204700Y167889*
X207646*
X211570Y171812*
G37*
X338144D02*
G36*
Y170162D01*
X335809Y167828*
X332510*
X330175Y170162*
Y171812*
X328144*
Y170162*
X325809Y167828*
X322510*
X320175Y170162*
Y171812*
X319709*
Y161812*
X320175*
Y163461*
X322510Y165796*
X325809*
X328144Y163461*
Y161812*
X330175*
Y163461*
X332510Y165796*
X335809*
X338144Y163461*
Y161812*
X339713*
Y171812*
X338144*
G37*
X20144Y183418D02*
G36*
X6287D01*
Y171812*
X20144*
Y183418*
G37*
X62900D02*
G36*
X62467D01*
Y171812*
X62900*
Y183418*
G37*
X116837D02*
G36*
X105222D01*
Y171812*
X116647*
X116837Y172001*
Y183418*
G37*
X131994D02*
G36*
X129656D01*
Y183418*
G75*
G02X121482Y180733I-4528*
G01*
Y172323*
G75*
G02X129100Y171812I3646J-2685*
G01*
X131994*
Y183418*
G37*
X211570Y171812D02*
G36*
X215869Y176111D01*
G75*
G02X215811Y176811I4170J700*
G01*
G75*
G02Y176812I3759J0*
G01*
G75*
G02X215941Y177852I4240J-2*
G01*
X211747Y182046*
X174293*
G75*
G02X173586Y182165J2164*
G01*
X171459*
Y183418*
X166496*
Y180956*
X160591*
Y183418*
X149341*
G75*
G02X140285I-4528*
G01*
X139848*
Y171812*
X140841*
G75*
G02X144813Y174166I3972J-2173*
G01*
G75*
G02X148785Y171812J-4528*
G01*
X153479*
X160591Y178924*
Y180169*
X166496*
Y174975*
X168294*
X171459Y178140*
Y179960*
X173590*
G75*
G02X174293Y180078I704J-2050*
G01*
X187351*
G75*
G02X194275Y176812I2692J-3266*
G01*
G75*
G02X193011Y173794I-4232J0*
G01*
X194396*
X196040Y175438*
G75*
G02X195811Y176812I4003J1374*
G01*
G75*
G02X200043Y181044I4232*
G01*
G75*
G02X204276Y176812J-4232*
G01*
Y176811*
G75*
G02X199362Y172635I-4232*
G01*
X198539Y171812*
X202499*
X206062Y175375*
G75*
G02X205811Y176812I3981J1436*
G01*
G75*
G02X210043Y181044I4232*
G01*
G75*
G02X214276Y176812J-4232*
G01*
G75*
G02X210043Y172580I-4232*
G01*
G75*
G02X209435Y172624I-1J4207*
G01*
X208623Y171812*
X211570*
G37*
X221837Y183418D02*
G36*
X216499D01*
X219003Y180914*
G75*
G02X219417Y180998I1044J-4107*
G01*
X221837Y183418*
G37*
X338144D02*
G36*
Y180162D01*
X335809Y177828*
X332510*
X330175Y180162*
Y183418*
X328144*
Y180162*
X325809Y177828*
X322510*
X320175Y180162*
Y183418*
X319709*
Y171812*
X320175*
Y173461*
X322510Y175796*
X325809*
X328144Y173461*
Y171812*
X330175*
Y173461*
X332510Y175796*
X335809*
X338144Y173461*
Y171812*
X339713*
Y183418*
X338144*
G37*
X116837D02*
G36*
Y191812D01*
X6287*
Y183418*
X20144*
Y191157*
X62467*
Y183418*
X62900*
Y191157*
X105222*
Y183418*
X116837*
G37*
X131994Y191812D02*
G36*
X121482D01*
Y186103*
G75*
G02X129656Y183419I3646J-2684*
G01*
Y183418*
X131994*
Y191812*
G37*
X160591Y183418D02*
G36*
Y186468D01*
X161994*
Y191812*
X139848*
Y183418*
X140285*
G75*
G02X149341I4528*
G01*
X160591*
G37*
X221837D02*
G36*
X228012Y189593D01*
G75*
G02X229546Y190227I1532J-1533*
G01*
X266316*
X264731Y191812*
X166325*
Y186468*
X166496*
Y183418*
X171459*
Y186259*
X173590*
G75*
G02X174293Y186377I704J-2050*
G01*
X212641*
G75*
G02X214175Y185743I2J-2167*
G01*
X216499Y183418*
X221837*
G37*
X338144Y191812D02*
G36*
Y190162D01*
X335809Y187828*
X332510*
X330175Y190162*
Y191812*
X328144*
Y190162*
X325809Y187828*
X322510*
X320175Y190162*
Y191812*
X317856*
X319074Y190593*
G75*
G02X319709Y189062I-1532J-1531*
G01*
Y183418*
X320175*
Y183461*
X322510Y185796*
X325809*
X328144Y183461*
Y183418*
X330175*
Y183461*
X332510Y185796*
X335809*
X338144Y183461*
Y183418*
X339713*
Y191812*
X338144*
G37*
X115175Y201812D02*
G36*
X113144D01*
Y200162*
X110809Y197828*
X107510*
X105175Y200162*
Y201812*
X103144*
Y200162*
X100809Y197828*
X97510*
X95175Y200162*
Y201812*
X93144*
Y200162*
X90809Y197828*
X87510*
X85175Y200162*
Y201812*
X83144*
Y200162*
X80809Y197828*
X77510*
X75175Y200162*
Y201812*
X73144*
Y200162*
X70809Y197828*
X67510*
X65175Y200162*
Y201812*
X63144*
Y200162*
X60809Y197828*
X57510*
X55175Y200162*
Y201812*
X53144*
Y200162*
X50809Y197828*
X47510*
X45175Y200162*
Y201812*
X43144*
Y200162*
X40809Y197828*
X37510*
X35175Y200162*
Y201812*
X33144*
Y200162*
X30809Y197828*
X27510*
X25175Y200162*
Y201812*
X6287*
Y191812*
X116837*
Y198501*
X115175Y200162*
Y201812*
G37*
X131994Y191812D02*
G36*
Y198343D01*
X130175Y200162*
Y201812*
X123144*
Y200162*
X121482Y198501*
Y191812*
X131994*
G37*
X140175Y201812D02*
G36*
X138144D01*
Y200162*
X136325Y198343*
Y197039*
X140175Y200890*
Y201812*
G37*
X160175D02*
G36*
X158144D01*
Y200162*
X155809Y197828*
X152510*
X150175Y200162*
Y201812*
X148144*
Y200162*
X145809Y197828*
X143237*
X139848Y194439*
Y191812*
X161994*
Y198343*
X160175Y200162*
Y201812*
G37*
X264731Y191812D02*
G36*
X263012Y193531D01*
G75*
G02X262381Y194941I1532J1531*
G01*
X262200Y198138*
X260175Y200162*
Y201812*
X258144*
Y200162*
X255809Y197828*
X252510*
X250175Y200162*
Y201812*
X248144*
Y200162*
X245809Y197828*
X242510*
X240175Y200162*
Y201812*
X238144*
Y200162*
X235809Y197828*
X232510*
X230175Y200162*
Y201812*
X228144*
Y200162*
X225809Y197828*
X222510*
X220175Y200162*
Y201812*
X208144*
Y200162*
X205809Y197828*
X202510*
X200175Y200162*
Y201812*
X198144*
Y200162*
X195809Y197828*
X192510*
X190175Y200162*
Y201812*
X188144*
Y200162*
X185809Y197828*
X182510*
X180175Y200162*
Y201812*
X178144*
Y200162*
X175809Y197828*
X172510*
X170175Y200162*
Y201812*
X168144*
Y200162*
X166325Y198343*
Y191812*
X264731*
G37*
X270175Y201812D02*
G36*
X268144D01*
Y200162*
X266515Y198533*
X266658Y196009*
X269690Y192977*
X274316*
X273012Y194281*
G75*
G02X272382Y195676I1528J1530*
G01*
X272226Y198111*
X270175Y200162*
Y201812*
G37*
X338144D02*
G36*
Y200162D01*
X335809Y197828*
X332510*
X330175Y200162*
Y201812*
X328144*
Y200162*
X325809Y197828*
X322510*
X320175Y200162*
Y201812*
X298144*
Y200162*
X295809Y197828*
X292510*
X290175Y200162*
Y201812*
X288144*
Y200162*
X285809Y197828*
X282510*
X280175Y200162*
Y201812*
X278144*
Y200162*
X276537Y198556*
X276652Y196765*
X277440Y195977*
X312791*
G75*
G02X314324Y195343I2J-2167*
G01*
X317856Y191812*
X320175*
Y193461*
X322510Y195796*
X325809*
X328144Y193461*
Y191812*
X330175*
Y193461*
X332510Y195796*
X335809*
X338144Y193461*
Y191812*
X339713*
Y201812*
X338144*
G37*
X278144D02*
G36*
X280175D01*
Y203461*
X282510Y205796*
X285809*
X288144Y203461*
Y201812*
X290175*
Y203461*
X292510Y205796*
X295809*
X298144Y203461*
Y201812*
X320175*
Y203461*
X322510Y205796*
X325809*
X328144Y203461*
Y201812*
X330175*
Y203461*
X332510Y205796*
X335809*
X338144Y203461*
Y201812*
X339713*
Y210106*
X6287*
Y201812*
X25175*
Y203461*
X27510Y205796*
X30809*
X33144Y203461*
Y201812*
X35175*
Y203461*
X37510Y205796*
X40809*
X43144Y203461*
Y201812*
X45175*
Y203461*
X47510Y205796*
X50809*
X53144Y203461*
Y201812*
X55175*
Y203461*
X57510Y205796*
X60809*
X63144Y203461*
Y201812*
X65175*
Y203461*
X67510Y205796*
X70809*
X73144Y203461*
Y201812*
X75175*
Y203461*
X77510Y205796*
X80809*
X83144Y203461*
Y201812*
X85175*
Y203461*
X87510Y205796*
X90809*
X93144Y203461*
Y201812*
X95175*
Y203461*
X97510Y205796*
X100809*
X103144Y203461*
Y201812*
X105175*
Y203461*
X107510Y205796*
X110809*
X113144Y203461*
Y201812*
X115175*
Y203461*
X117510Y205796*
X120809*
X123144Y203461*
Y201812*
X130175*
Y203461*
X132510Y205796*
X135809*
X138144Y203461*
Y201812*
X140175*
Y203461*
X142510Y205796*
X145809*
X148144Y203461*
Y201812*
X150175*
Y203461*
X152510Y205796*
X155809*
X158144Y203461*
Y201812*
X160175*
Y203461*
X162510Y205796*
X165809*
X168144Y203461*
Y201812*
X170175*
Y203461*
X172510Y205796*
X175809*
X178144Y203461*
Y201812*
X180175*
Y203461*
X182510Y205796*
X185809*
X188144Y203461*
Y201812*
X190175*
Y203461*
X192510Y205796*
X195809*
X198144Y203461*
Y201812*
X200175*
Y203461*
X202510Y205796*
X205809*
X208144Y203461*
Y201812*
X220175*
Y203461*
X222510Y205796*
X225809*
X228144Y203461*
Y201812*
X230175*
Y203461*
X232510Y205796*
X235809*
X238144Y203461*
Y201812*
X240175*
Y203461*
X242510Y205796*
X245809*
X248144Y203461*
Y201812*
X250175*
Y203461*
X252510Y205796*
X255809*
X258144Y203461*
Y201812*
X260175*
Y203461*
X262510Y205796*
X265809*
X268144Y203461*
Y201812*
X270175*
Y203461*
X272510Y205796*
X275809*
X278144Y203461*
Y201812*
G37*
X101703Y105202D02*
X98292Y101791D01*
X98783*
Y94959*
X100644*
G75*
G02X103077Y94107J-3898*
G01*
Y97928*
G75*
G02X104219Y100684I3898J0*
G01*
X112801Y109267*
G75*
G02X115096Y110381I2757J-2756*
G01*
G75*
G02X117604Y119109I2508J4004*
G01*
G75*
G02X119891Y110251J-4724*
G01*
X135150*
X136344Y111446*
Y119804*
X130393Y125756*
G75*
G02X129967Y126265I2646J2644*
G01*
Y124385*
X123510*
Y129795*
X117715*
Y131677*
G75*
G02X111999Y131167I-3071J2135*
G01*
X110868Y132298*
X102801*
Y107849*
G75*
G02X101703Y105202I-3740*
G01*
G36*
X98292Y101791*
X98783*
Y94959*
X100644*
G75*
G02X103077Y94107J-3898*
G01*
Y97928*
G75*
G02X104219Y100684I3898J0*
G01*
X112801Y109267*
G75*
G02X115096Y110381I2757J-2756*
G01*
G75*
G02X117604Y119109I2508J4004*
G01*
G75*
G02X119891Y110251J-4724*
G01*
X135150*
X136344Y111446*
Y119804*
X130393Y125756*
G75*
G02X129967Y126265I2646J2644*
G01*
Y124385*
X123510*
Y129795*
X117715*
Y131677*
G75*
G02X111999Y131167I-3071J2135*
G01*
X110868Y132298*
X102801*
Y107849*
G75*
G02X101703Y105202I-3740*
G01*
G37*
X110872Y96313D02*
Y94944D01*
X116581*
Y93763*
X120707*
Y94944*
X128581*
Y93763*
X133510*
Y99425*
X144587*
X143002Y101009*
G75*
G02X142368Y102540I1531J1531*
G01*
Y103007*
X138009*
G75*
G02X136699Y102770I-1310J3503*
G01*
X118701*
G75*
G02X117604Y102613I-1097J3741*
G01*
X117172*
X110872Y96313*
G36*
Y94944*
X116581*
Y93763*
X120707*
Y94944*
X128581*
Y93763*
X133510*
Y99425*
X144587*
X143002Y101009*
G75*
G02X142368Y102540I1531J1531*
G01*
Y103007*
X138009*
G75*
G02X136699Y102770I-1310J3503*
G01*
X118701*
G75*
G02X117604Y102613I-1097J3741*
G01*
X117172*
X110872Y96313*
G37*
X112169Y79148D02*
G75*
G02X109025Y70458I-3463J-3661D01*
G01*
X110059Y69424*
X131944*
X126467Y74901*
G75*
G02X125833Y76432I1531J1531*
G01*
Y83330*
X124975Y84188*
X121386*
G75*
G02X119853Y84822I-2J2165*
G01*
X117412Y87263*
G75*
G02X116991Y87858I1531J1531*
G01*
X116581*
Y86677*
X115951*
G75*
G02X117289Y85802I-1418J-3630*
G01*
X121463Y81629*
G75*
G02X122604Y78873I-2756J-2756*
G01*
Y75487*
G75*
G02X114809I-3898*
G01*
Y77258*
X112919Y79148*
X112169*
G36*
G75*
G02X109025Y70458I-3463J-3661*
G01*
X110059Y69424*
X131944*
X126467Y74901*
G75*
G02X125833Y76432I1531J1531*
G01*
Y83330*
X124975Y84188*
X121386*
G75*
G02X119853Y84822I-2J2165*
G01*
X117412Y87263*
G75*
G02X116991Y87858I1531J1531*
G01*
X116581*
Y86677*
X115951*
G75*
G02X117289Y85802I-1418J-3630*
G01*
X121463Y81629*
G75*
G02X122604Y78873I-2756J-2756*
G01*
Y75487*
G75*
G02X114809I-3898*
G01*
Y77258*
X112919Y79148*
X112169*
G37*
X117602Y150802D02*
X80518D01*
G75*
G02X81384Y146471I-1536J-2559*
G01*
Y144307*
X101620*
Y139778*
X112417*
G75*
G02X115065Y138680J-3740*
G01*
X117289Y136457*
G75*
G02X117715Y135947I-2646J-2644*
G01*
Y137826*
X124171*
Y132417*
X129967*
Y130535*
G75*
G02X134950Y131615I3071J-2135*
G01*
X131664Y134901*
G75*
G02X131030Y136432I1531J1531*
G01*
Y159109*
G75*
G02X131664Y160640I2165*
G01*
X135518Y164494*
Y167819*
X119135Y151436*
G75*
G02X117602Y150802I-1531J1531*
G01*
G36*
X80518*
G75*
G02X81384Y146471I-1536J-2559*
G01*
Y144307*
X101620*
Y139778*
X112417*
G75*
G02X115065Y138680J-3740*
G01*
X117289Y136457*
G75*
G02X117715Y135947I-2646J-2644*
G01*
Y137826*
X124171*
Y132417*
X129967*
Y130535*
G75*
G02X134950Y131615I3071J-2135*
G01*
X131664Y134901*
G75*
G02X131030Y136432I1531J1531*
G01*
Y159109*
G75*
G02X131664Y160640I2165*
G01*
X135518Y164494*
Y167819*
X119135Y151436*
G75*
G02X117602Y150802I-1531J1531*
G01*
G37*
X271480Y152700D02*
Y152425D01*
X273350*
Y147700*
X265280*
Y152425*
X267150*
Y152700*
X265280*
Y152958*
G75*
G02X264262Y153531I514J2104*
G01*
X263698Y154095*
G75*
G02X263074Y152781I-2154J217*
G01*
X261824Y151531*
G75*
G02X260291Y150896I-1531J1531*
G01*
X226440*
X226020Y150476*
X260293*
G75*
G02X261826Y149841J-2165*
G01*
X264440Y147228*
X265280*
Y147425*
X273350*
Y142700*
X265280*
Y142897*
X263543*
G75*
G02X262011Y143533J2165*
G01*
X259397Y146145*
X183273*
X181209Y144083*
G75*
G02X180467Y143341I-1971J1229*
G01*
X177157Y140031*
G75*
G02X175623Y139397I-1531J1531*
G01*
X144043*
G75*
G02X142511Y140033J2165*
G01*
X139535Y143007*
X138589*
Y138782*
X142220Y135192*
X176974*
Y137496*
X180793*
Y138677*
X187683*
Y137496*
X191502*
Y128244*
X187683*
Y127063*
X180793*
Y128244*
X176974*
Y130546*
X142143*
X146065Y126624*
G75*
G02X146699Y125093I-1531J-1531*
G01*
Y103437*
X147680Y102456*
X151854*
G75*
G02X153387Y101821I2J-2165*
G01*
X154805Y100404*
G75*
G02X155439Y98873I-1531J-1531*
G01*
Y93912*
G75*
G02X154805Y92381I-2165*
G01*
X151576Y89153*
G75*
G02X151226Y88869I-1532J1531*
G01*
Y87849*
X154070*
X154070Y87850*
G75*
G02X160037Y87770I2983J-79*
G01*
G75*
G02X157132Y84787I-2984*
G01*
X156498Y84153*
G75*
G02X154964Y83519I-1531J1531*
G01*
X151226*
Y63126*
X145687*
G75*
G02X145604Y63039I-2734J2551*
G01*
X143156Y60591*
Y59070*
G75*
G02X136344Y56935I-3740*
G01*
Y55055*
X129888*
Y61944*
X108510*
G75*
G02X105862Y63042J3740*
G01*
X96732Y72172*
G75*
G02X98707Y79345I1975J3315*
G01*
G75*
G02X102021Y77462J-3858*
G01*
X103678Y75806*
G75*
G02X107837Y80451I5029J-319*
G01*
X104219Y84070*
G75*
G02X103077Y86826I2756J2756*
G01*
Y88017*
G75*
G02X100644Y87164I-2433J3045*
G01*
X95140*
G75*
G02X92713Y88011J3898*
G01*
X92484*
Y88209*
G75*
G02X92118Y93523I2656J2853*
G01*
X91303*
Y99644*
X90636Y98977*
Y88243*
G75*
G02X89537Y85595I-3740*
G01*
X83244Y79302*
G75*
G02X80596Y78204I-2648J2642*
G01*
X78514*
G75*
G02X76474Y76216I-5556J3661*
G01*
X77230*
Y74109*
X88547*
G75*
G02X90080Y73475I2J-2165*
G01*
X98348Y65207*
G75*
G02X98982Y63676I-1531J-1531*
G01*
Y43785*
X102202Y40566*
X107919*
G75*
G02X108648Y49562I729J4469*
G01*
G75*
G02X111199Y48774J-4528*
G01*
X125781*
G75*
G02X130884I2552J-3740*
G01*
X134854*
X145429Y59349*
G75*
G02X148077Y60448I2648J-2642*
G01*
X162039*
X164612Y63020*
Y101846*
X165951*
Y116078*
X163707*
Y110550*
G75*
G02X163072Y109019I-2165*
G01*
X163037Y108984*
Y103007*
X157132*
Y116787*
X159376*
Y117062*
G75*
G02X160010Y118593I2165*
G01*
X160566Y119148*
X155275*
X152913Y116787*
X153037*
Y103007*
X147132*
Y116787*
X147919*
Y117020*
G75*
G02X148554Y118552I2165*
G01*
X152847Y122845*
G75*
G02X154380Y123479I1531J-1531*
G01*
X195841*
X200606Y128244*
X196974*
Y137496*
X201502*
Y129091*
G75*
G02X201974Y129339I1234J-1779*
G01*
Y137496*
X206502*
Y129477*
X206974*
Y137496*
X207237*
G75*
G02X207329Y137689I2002J-826*
G01*
Y138258*
G75*
G02X206510Y140312I2165J2054*
G01*
G75*
G02X212478I2984*
G01*
G75*
G02X211991Y138677I-2984*
G01*
X217683*
Y129477*
X219041*
G75*
G02X220574Y128843I2J-2165*
G01*
X225824Y123593*
G75*
G02X226459Y122062I-1531J-1531*
G01*
Y106209*
X234359Y98308*
G75*
G02X234335Y98706I3185J398*
G01*
G75*
G02X239546Y101212I3209*
G01*
X249369Y111034*
G75*
G02X249456Y111117I1532J-1531*
G01*
X245546*
G75*
G02X244012Y111751I-2J2165*
G01*
X240011Y115753*
X239911*
G75*
G02X234335Y117918I-2368J2165*
G01*
G75*
G02X239911Y120083I3209*
G01*
X240905*
G75*
G02X242439Y119449I2J-2165*
G01*
X245970Y115917*
Y129200*
X244848*
Y130381*
X241738*
Y129200*
X234848*
Y130381*
X231738*
Y129200*
X224848*
Y130381*
X221030*
Y139633*
X221128*
Y140258*
G75*
G02X220309Y142312I2165J2054*
G01*
G75*
G02X226278I2984*
G01*
G75*
G02X225875Y140815I-2984*
G01*
X230481*
G75*
G02X230309Y141812I2813J998*
G01*
G75*
G02X236278I2984*
G01*
G75*
G02X236106Y140815I-2984J0*
G01*
X240481*
G75*
G02X240309Y141812I2813J998*
G01*
G75*
G02X246278I2984*
G01*
G75*
G02X246106Y140815I-2984J0*
G01*
X250481*
G75*
G02X250309Y141812I2813J998*
G01*
G75*
G02X256278I2984*
G01*
G75*
G02X256106Y140815I-2984J0*
G01*
X261738*
Y129200*
X261285*
Y124085*
G75*
G02X261384Y123440I-2067J-645*
G01*
Y113678*
G75*
G02X260750Y112147I-2165*
G01*
X259757Y111155*
G75*
G02X260315Y111227I556J-2093*
G01*
X279936*
X282053Y113344*
Y123440*
G75*
G02X282152Y124085I2165*
G01*
Y130330*
X286285*
Y124085*
G75*
G02X286384Y123440I-2067J-645*
G01*
Y112448*
G75*
G02X285750Y110917I-2165*
G01*
X283060Y108227*
X283227*
X287053Y112053*
Y123440*
G75*
G02X287152Y124085I2165*
G01*
Y130330*
X291285*
Y124085*
G75*
G02X291378Y123600I-2066J-645*
G01*
Y136062*
G75*
G02X292012Y137593I2165*
G01*
X293816Y139396*
X284796*
G75*
G02X283262Y140031I-2J2165*
G01*
X274012Y149281*
G75*
G02X273378Y150812I1531J1531*
G01*
Y155665*
X273350Y155693*
Y152700*
X271480*
X277152Y130330D02*
X281285D01*
Y116551*
X277152*
Y130330*
X267152D02*
X271285D01*
Y116551*
X267152*
Y130330*
X272152D02*
X276285D01*
Y116551*
X272152*
Y130330*
X262152D02*
X266285D01*
Y116551*
X262152*
Y130330*
X191974Y137496D02*
X196502D01*
Y128244*
X191974*
Y137496*
X107147Y40763D02*
G36*
G75*
G02X104120Y45034I1500J4272D01*
G01*
G75*
G02X108648Y49562I4528*
G01*
G75*
G02X111199Y48774I1J-4526*
G01*
X125781*
G75*
G02X130884I2552J-3741*
G01*
X134854*
X145429Y59349*
G75*
G02X148077Y60448I2648J-2642*
G01*
X162039*
X164612Y63020*
Y101846*
X165951*
Y116078*
X163707*
Y110550*
G75*
G02X163072Y109019I-2166J0*
G01*
X163037Y108984*
Y103007*
X157132*
Y116787*
X159376*
Y117062*
G75*
G02X160010Y118593I2166J0*
G01*
X160566Y119148*
X155275*
X152913Y116787*
X153037*
Y103007*
X147132*
Y116787*
X147919*
Y117020*
G75*
G02X148554Y118552I2166J0*
G01*
X152847Y122845*
G75*
G02X153972Y123441I1532J-1533*
G01*
X146699*
Y103437*
X147680Y102456*
X151854*
G75*
G02X153387Y101821I2J-2167*
G01*
X154805Y100404*
G75*
G02X155439Y98873I-1532J-1531*
G01*
Y93912*
G75*
G02X154805Y92381I-2166J0*
G01*
X151576Y89153*
G75*
G02X151226Y88869I-1530J1528*
G01*
Y87849*
X154070*
X154070Y87850*
G75*
G02X160037Y87770I2983J-79*
G01*
G75*
G02X157132Y84787I-2985J0*
G01*
X156498Y84153*
G75*
G02X154964Y83519I-1532J1533*
G01*
X151226*
Y63126*
X145687*
G75*
G02X145604Y63039I-2381J2211*
G01*
X143156Y60591*
Y59070*
G75*
G02X136344Y56935I-3740*
G01*
Y55055*
X129888*
Y61944*
X108510*
G75*
G02X105862Y63042J3740*
G01*
X96732Y72172*
G75*
G02X94848Y75487I1975J3315*
G01*
G75*
G02X98707Y79345I3858*
G01*
G75*
G02X102021Y77462I0J-3859*
G01*
X103678Y75806*
G75*
G02X107837Y80451I5028J-318*
G01*
X104219Y84070*
G75*
G02X103077Y86826I2757J2757*
G01*
Y88017*
G75*
G02X100644Y87164I-2433J3044*
G01*
X95140*
G75*
G02X92713Y88011I-1J3895*
G01*
X92484*
Y88209*
G75*
G02X91242Y91062I2655J2853*
G01*
G75*
G02X92118Y93523I3897*
G01*
X91303*
Y99644*
X90636Y98977*
Y88243*
G75*
G02X89537Y85595I-3740*
G01*
X83244Y79302*
G75*
G02X80596Y78204I-2648J2642*
G01*
X78514*
G75*
G02X76671Y76344I-5557J3663*
G01*
Y76216*
X77230*
Y74109*
X88547*
G75*
G02X90080Y73475I2J-2167*
G01*
X98348Y65207*
G75*
G02X98982Y63676I-1532J-1531*
G01*
Y43785*
X102005Y40763*
X107147*
G37*
X245970Y123441D02*
G36*
X225963D01*
G75*
G02X226459Y122062I-1670J-1379*
G01*
Y106209*
X234359Y98308*
G75*
G02X234335Y98706I3223J401*
G01*
G75*
G02X239546Y101212I3209J0*
G01*
X249369Y111034*
G75*
G02X249456Y111117I1547J-1547*
G01*
X245546*
G75*
G02X244012Y111751I-2J2167*
G01*
X240011Y115753*
X239911*
G75*
G02X234335Y117918I-2368J2165*
G01*
G75*
G02X239911Y120083I3209*
G01*
X240905*
G75*
G02X242439Y119449I2J-2167*
G01*
X245970Y115917*
Y123441*
G37*
X282053D02*
G36*
X281285D01*
Y116551*
X277152*
Y123441*
X276285*
Y116551*
X272152*
Y123441*
X271285*
Y116551*
X267152*
Y123441*
X266285*
Y116551*
X262152*
Y123441*
X261384*
G75*
G02Y123440I-2256J0*
G01*
Y113678*
G75*
G02X260750Y112147I-2166J0*
G01*
X259757Y111155*
G75*
G02X260315Y111227I556J-2100*
G01*
X279936*
X282053Y113344*
Y123440*
G75*
G02Y123441I2256J0*
G01*
G37*
X287053D02*
G36*
X286384D01*
G75*
G02Y123440I-2256J0*
G01*
Y112448*
G75*
G02X285750Y110917I-2166J0*
G01*
X283060Y108227*
X283227*
X287053Y112053*
Y123440*
G75*
G02Y123441I2256J0*
G01*
G37*
X153972D02*
G36*
G75*
G02X154380Y123479I407J-2129D01*
G01*
X195841*
X200606Y128244*
X196974*
Y132870*
X196502*
Y128244*
X191974*
Y132870*
X191502*
Y128244*
X187683*
Y127063*
X180793*
Y128244*
X176974*
Y130546*
X142143*
X146065Y126624*
G75*
G02X146699Y125093I-1532J-1531*
G01*
Y123441*
X153972*
G37*
X201974Y132870D02*
G36*
X201502D01*
Y129091*
G75*
G02X201974Y129339I1230J-1772*
G01*
Y132870*
G37*
X206974D02*
G36*
X206502D01*
Y129477*
X206974*
Y132870*
G37*
X221030D02*
G36*
X217683D01*
Y129477*
X219041*
G75*
G02X220574Y128843I2J-2167*
G01*
X225824Y123593*
G75*
G02X225963Y123441I-1532J-1533*
G01*
X245970*
Y129200*
X244848*
Y130381*
X241738*
Y129200*
X234848*
Y130381*
X231738*
Y129200*
X224848*
Y130381*
X221030*
Y132870*
G37*
X291378D02*
G36*
X261738D01*
Y129200*
X261285*
Y124085*
G75*
G02X261384Y123441I-2070J-646*
G01*
X262152*
Y130330*
X266285*
Y123441*
X267152*
Y130330*
X271285*
Y123441*
X272152*
Y130330*
X276285*
Y123441*
X277152*
Y130330*
X281285*
Y123441*
X282053*
G75*
G02X282152Y124085I2169J-2*
G01*
Y130330*
X286285*
Y124085*
G75*
G02X286384Y123441I-2070J-646*
G01*
X287053*
G75*
G02X287152Y124085I2169J-2*
G01*
Y130330*
X291285*
Y124085*
G75*
G02X291378Y123600I-2057J-644*
G01*
Y132870*
G37*
X293619Y139396D02*
G36*
X284796D01*
G75*
G02X283262Y140031I-2J2167*
G01*
X274012Y149281*
G75*
G02X273378Y150812I1532J1531*
G01*
Y155496*
X273350*
Y152700*
X271480*
Y152425*
X273350*
Y147700*
X265280*
Y152425*
X267150*
Y152700*
X265280*
Y152958*
G75*
G02X264262Y153531I515J2106*
G01*
X263698Y154095*
G75*
G02X263074Y152781I-2155J217*
G01*
X261824Y151531*
G75*
G02X260291Y150896I-1532J1533*
G01*
X226440*
X226020Y150476*
X260293*
G75*
G02X261826Y149841I-1J-2167*
G01*
X264440Y147228*
X265280*
Y147425*
X273350*
Y142700*
X265280*
Y142897*
X263543*
G75*
G02X262011Y143533I1J2167*
G01*
X259397Y146145*
X183273*
X181209Y144083*
G75*
G02X180467Y143341I-1977J1235*
G01*
X177157Y140031*
G75*
G02X175623Y139397I-1531J1530*
G01*
X144043*
G75*
G02X142511Y140033I1J2167*
G01*
X139535Y143007*
X138589*
Y138782*
X142220Y135192*
X176974*
Y137496*
X180793*
Y138677*
X187683*
Y137496*
X191502*
Y132870*
X191974*
Y137496*
X196502*
Y132870*
X196974*
Y137496*
X201502*
Y132870*
X201974*
Y137496*
X206502*
Y132870*
X206974*
Y137496*
X207237*
G75*
G02X207329Y137689I2008J-829*
G01*
Y138258*
G75*
G02X206510Y140311I2164J2053*
G01*
Y140312*
G75*
G02X212478I2984*
G01*
G75*
G02Y140311I-2506J0*
G01*
G75*
G02X211991Y138677I-2981*
G01*
X217683*
Y132870*
X221030*
Y139633*
X221128*
Y140258*
G75*
G02X220309Y142311I2164J2053*
G01*
Y142312*
G75*
G02X226278I2984*
G01*
Y142311*
G75*
G02X225875Y140815I-2983*
G01*
X230481*
G75*
G02X230309Y141812I2817J998*
G01*
G75*
G02X236278I2984*
G01*
G75*
G02X236106Y140815I-2989J1*
G01*
X240481*
G75*
G02X240309Y141812I2817J998*
G01*
G75*
G02X246278I2984*
G01*
G75*
G02X246106Y140815I-2989J1*
G01*
X250481*
G75*
G02X250309Y141812I2817J998*
G01*
G75*
G02X256278I2984*
G01*
G75*
G02X256106Y140815I-2989J1*
G01*
X261738*
Y132870*
X291378*
Y136062*
G75*
G02X292012Y137593I2166J0*
G01*
X293619Y139200*
Y139396*
G37*
X293589Y52574D02*
X285981D01*
X291078Y47477*
X299687*
Y56669*
X303377*
G75*
G02X302738Y57072I2167J4143*
G01*
X293589*
Y52574*
G36*
X285981*
X291078Y47477*
X299687*
Y56669*
X303377*
G75*
G02X302738Y57072I2167J4143*
G01*
X293589*
Y52574*
G37*
D02*
D14*
X13431Y135448D02*
X10675D01*
X14612Y136629D02*
Y139385D01*
X15793Y135448D02*
X18549D01*
X17683Y109739D02*
X14927D01*
X21018Y83011D02*
X18262D01*
X21069Y106353D02*
Y103597D01*
Y113125D02*
Y115881D01*
X24167Y79861D02*
Y77105D01*
Y86160D02*
Y88916D01*
X25124Y136038D02*
X22368D01*
X26305Y129148D02*
Y126393D01*
Y142928D02*
Y145685D01*
X27317Y83011D02*
X30073D01*
X31108Y124312D02*
X28352D01*
X32486Y122737D02*
Y119980D01*
X40703Y83011D02*
X37947D01*
X43852Y79861D02*
Y77105D01*
Y86160D02*
Y88916D01*
X47002Y83011D02*
X49758D01*
X49297Y124562D02*
X46541D01*
X49967Y123105D02*
Y120350D01*
X67880Y136038D02*
X65124D01*
X68313Y116904D02*
Y114149D01*
Y120054D02*
Y122811D01*
X69061Y129148D02*
Y126393D01*
Y142928D02*
Y145685D01*
X69691Y118479D02*
X72447D01*
X69856Y40573D02*
X67907Y38624D01*
X69856Y45361D02*
X67907Y47310D01*
X74644Y45361D02*
X76593Y47310D01*
X76347Y116986D02*
X73707Y114345D01*
X76347Y119972D02*
X73707Y122613D01*
X79334Y116986D02*
X81974Y114345D01*
X79334Y119972D02*
X81974Y122613D01*
X82213Y47734D02*
X79574Y45094D01*
X82213Y50720D02*
X79572Y53362D01*
X85200Y47734D02*
X87840Y45094D01*
X85200Y50720D02*
X87841Y53362D01*
X89809Y109660D02*
X87053D01*
X93862Y97658D02*
X91106D01*
X96224D02*
X98980D01*
X106420Y29028D02*
X104472Y27079D01*
X106420Y33482D02*
X104472Y35431D01*
X106953Y77241D02*
X105004Y79190D01*
X110461Y73733D02*
X112409Y71784D01*
X110875Y29028D02*
X112824Y27079D01*
X110875Y33482D02*
X112824Y35431D01*
X112317Y9969D02*
X110369Y8021D01*
X112317Y13655D02*
X110369Y15603D01*
X114137Y89319D02*
X116778Y86678D01*
X114137Y92305D02*
X116778Y94946D01*
X116002Y9969D02*
X117951Y8021D01*
X116002Y13655D02*
X117951Y15603D01*
X116073Y112854D02*
X114124Y110905D01*
X116073Y115916D02*
X114124Y117865D01*
X119135Y112854D02*
X121084Y110905D01*
X119135Y115916D02*
X121084Y117865D01*
X120943Y132355D02*
Y129598D01*
Y135269D02*
Y138023D01*
X121612Y133812D02*
X124368D01*
X122317Y9969D02*
X120369Y8021D01*
X122317Y13655D02*
X120369Y15603D01*
X123150Y92305D02*
X120510Y94946D01*
X126002Y9969D02*
X127951Y8021D01*
X126002Y13655D02*
X127951Y15603D01*
X126069Y128400D02*
X123313D01*
X126106Y29028D02*
X124157Y27079D01*
X126106Y33482D02*
X124157Y35431D01*
X126137Y92305D02*
X128778Y94946D01*
X126738Y126944D02*
Y124189D01*
Y129857D02*
Y132614D01*
X130560Y29028D02*
X132509Y27079D01*
X130560Y33482D02*
X132509Y35431D01*
X132447Y59070D02*
X129691D01*
X133116Y57613D02*
Y54858D01*
X136069Y95684D02*
X133313D01*
X142959Y96865D02*
Y99622D01*
X168394Y108206D02*
X165754Y105566D01*
X168394Y111587D02*
X165754Y114227D01*
X171775Y108206D02*
X174415Y105566D01*
X171775Y111587D02*
X174415Y114227D01*
X184238Y129621D02*
Y126866D01*
Y136117D02*
Y138874D01*
X203719Y37350D02*
X201079Y34709D01*
X203719Y44175D02*
X201080Y46815D01*
X208394Y91637D02*
Y94393D01*
X209689Y119312D02*
X206933D01*
X210544Y37350D02*
X213185Y34709D01*
X210544Y44175D02*
X213184Y46815D01*
X214238Y136117D02*
Y138874D01*
X215124Y132869D02*
X217880D01*
X215398Y119312D02*
X218154D01*
X219109Y91346D02*
X216469Y93987D01*
X220678Y91346D02*
X223319Y93987D01*
X228293Y131761D02*
Y129004D01*
Y138257D02*
Y141011D01*
X234573Y72987D02*
X231817D01*
X235531Y22062D02*
X232776D01*
X238293Y131761D02*
Y129004D01*
Y138257D02*
Y141011D01*
X241043Y21373D02*
Y18618D01*
X246555Y22062D02*
X249311D01*
X248293Y138257D02*
Y141011D01*
X248414Y122635D02*
X245774Y119995D01*
X248414Y124244D02*
X245774Y126885D01*
X258293Y138257D02*
Y141011D01*
X259179Y135009D02*
X261935D01*
X289573Y55133D02*
Y52378D01*
X291030Y55802D02*
X293785D01*
X291030Y67928D02*
X293785D01*
X302246Y50812D02*
X299490D01*
X308841D02*
X311596D01*
X315898Y31562D02*
X318654D01*
X321553Y31812D02*
X318797D01*
X324159Y29206D02*
Y26450D01*
Y34418D02*
Y37174D01*
X332317Y29969D02*
X330369Y28021D01*
X332317Y33655D02*
X330369Y35603D01*
X334101Y9433D02*
X331459Y6791D01*
X334101Y11317D02*
X331462Y13956D01*
X335985Y9433D02*
X338627Y6791D01*
X335985Y11317D02*
X338625Y13956D01*
X336002Y29969D02*
X337951Y28021D01*
X336002Y33655D02*
X337951Y35603D01*
D02*
D15*
X29159Y201812D03*
X39159D03*
X49159D03*
X59159D03*
X69159D03*
X74159Y11812D03*
X79159Y201812D03*
X84159Y11812D03*
X89159Y201812D03*
X94159Y11812D03*
X99159Y201812D03*
X104159Y11812D03*
X109159Y201812D03*
X114159Y11812D03*
X119159Y201812D03*
X124159Y11812D03*
X134159D03*
Y201812D03*
X144159D03*
X154159Y11812D03*
Y201812D03*
X164159Y11812D03*
Y201812D03*
X174159Y11812D03*
Y201812D03*
X184159Y11812D03*
Y201812D03*
X194159Y11812D03*
Y201812D03*
X204159Y11812D03*
Y201812D03*
X214159Y11812D03*
X224159D03*
Y201812D03*
X234159D03*
X244159Y11812D03*
Y201812D03*
X254159Y11812D03*
Y201812D03*
X264159Y11812D03*
Y201812D03*
X274159Y11812D03*
Y201812D03*
X284159Y11812D03*
Y201812D03*
X294159Y11812D03*
Y201812D03*
X304159Y11812D03*
X314159D03*
X324159Y31812D03*
Y41812D03*
Y51812D03*
Y61812D03*
Y71812D03*
Y81812D03*
Y91812D03*
Y101812D03*
Y111812D03*
Y121812D03*
Y131812D03*
Y141812D03*
Y151812D03*
Y161812D03*
Y171812D03*
Y181812D03*
Y191812D03*
Y201812D03*
X334159Y31812D03*
Y41812D03*
Y51812D03*
Y61812D03*
Y71812D03*
Y81812D03*
Y91812D03*
Y101812D03*
Y111812D03*
Y121812D03*
Y131812D03*
Y141812D03*
Y151812D03*
Y161812D03*
Y171812D03*
Y181812D03*
Y191812D03*
Y201812D03*
D02*
D16*
X207132Y40763D03*
X305543Y50812D03*
D02*
D17*
X147132Y40763D03*
X157132D03*
X167132D03*
X177132D03*
X187132D03*
X197132D03*
X305543Y60812D03*
Y70812D03*
Y80812D03*
Y90812D03*
Y100812D03*
Y110812D03*
Y120812D03*
Y130812D03*
D02*
D18*
X212543Y99312D03*
X290043Y176812D03*
X293043Y31562D03*
D02*
D19*
X190043Y176812D03*
X200043D03*
X210043D03*
X212543Y109312D03*
Y119312D03*
X220043Y176812D03*
X230043D03*
X240043D03*
X250043D03*
X260043D03*
X270043D03*
X280043D03*
X303043Y31562D03*
X313043D03*
D02*
D70*
X66581Y101707D03*
X72959Y71944D03*
D02*
D71*
Y81944D03*
X76581Y101707D03*
D02*
D20*
X32486Y124312D03*
X38785D03*
X61069Y17731D03*
X62014Y118479D03*
X67368Y17731D03*
X68313Y118479D03*
X77841D03*
X84140D03*
X100644Y91062D03*
X106943D03*
X112644Y90812D03*
X118943D03*
X124644D03*
X130943D03*
X147880Y22456D03*
X154179D03*
X161935Y164778D03*
X168234D03*
X208394Y90062D03*
X214693D03*
X272486Y67692D03*
X278785D03*
X283352Y74306D03*
X289652D03*
X299144Y149312D03*
X305443D03*
D02*
D21*
X83707Y42928D03*
Y49227D03*
X91384Y109660D03*
Y115959D03*
X163543Y177412D03*
Y183711D03*
X207604Y71629D03*
Y77928D03*
X300043Y157912D03*
Y164211D03*
X326293Y11662D03*
Y17961D03*
D02*
D22*
X224293Y31706D03*
Y50918D03*
X237543Y98706D03*
Y117918D03*
D02*
D25*
X41069Y109739D03*
X72250Y32967D03*
D02*
D26*
X21069Y109739D03*
X31069D03*
X72250Y42967D03*
Y52967D03*
D02*
D27*
X98707Y75487D03*
X108707D03*
X118707D03*
D02*
D28*
X117604Y106511D03*
Y114385D03*
D02*
D29*
X181345Y80684D03*
D02*
D73*
X41305Y174424D03*
X84061D03*
D02*
D74*
X14612Y127967D03*
X88431Y30330D03*
D02*
D75*
X14612Y135448D03*
X88431Y22849D03*
D02*
D76*
X308293Y157625D03*
Y165499D03*
X335043Y10375D03*
Y18249D03*
D02*
D77*
X24167Y14113D03*
Y27893D03*
Y41672D03*
Y55452D03*
Y69231D03*
Y83011D03*
X43852Y14113D03*
Y27893D03*
Y41672D03*
Y55452D03*
Y69231D03*
Y83011D03*
X108648Y31255D03*
Y45034D03*
X125128Y169639D03*
Y183418D03*
X128333Y31255D03*
Y45034D03*
X144813Y169639D03*
Y183418D03*
D02*
D78*
X31069Y109739D02*
Y111511D01*
X14612Y127967*
X31069Y109739D02*
X33274Y107534D01*
Y99345*
X38470Y94148*
X72722*
X76581Y98007*
Y101707*
X43852Y27893D02*
X24167D01*
X56266Y124562D02*
Y112022D01*
X66581Y101707*
X56305Y136038D02*
Y124601D01*
X56266Y124562*
X61069Y17731D02*
X54014D01*
X43852Y27893*
X72250Y32967D02*
X85793D01*
X88431Y30330*
X72250Y32967D02*
X73746D01*
X83707Y42928*
X72959Y81944D02*
X80596D01*
X86896Y88243*
Y99109*
Y100526*
X90203Y103833*
X95045*
X99061Y107849*
Y136038*
X88431Y22849D02*
X72486D01*
X67368Y17731*
X99061Y136038D02*
X112417D01*
X114644Y133812*
X100644Y91062D02*
X95140D01*
X95043Y90965*
X108648Y45034D02*
X128333D01*
X117604Y106511D02*
X136699D01*
X140085Y109896*
X117604Y106511D02*
X115557D01*
X106974Y97928*
Y91093*
X106943Y91062*
X118707Y75487D02*
Y78873D01*
X114533Y83046*
X110754*
X106974Y86826*
Y90385*
X106943Y90416*
Y91062*
X128333Y45034D02*
X136404D01*
X148077Y56707*
X163589*
X171974Y65093*
Y65684*
X139415Y59070D02*
Y62141D01*
X142959Y65684*
X140085Y109896D02*
Y121353D01*
X133037Y128400*
X142959Y65684D02*
X108510D01*
X98707Y75487*
X197132Y40763D02*
Y50400D01*
X207543Y60812*
X222443*
X226793Y65162*
Y72562*
X226193Y90562D02*
X226793D01*
Y72562*
X278785Y67692D02*
X283825D01*
X284061Y67928*
X278839Y62062D02*
X286266D01*
X283352Y74306D02*
Y68637D01*
X284061Y67928*
Y64267*
X286266Y62062*
X289533*
X289573Y62101*
X290862Y60812*
X305543*
D02*
D79*
X36305Y136038D02*
Y146786D01*
X36344Y146826*
X46305Y136038D02*
Y127967D01*
X42486Y124148*
X38949*
X38785Y124312*
X62014Y118479D02*
Y132180D01*
X62093Y132259*
Y144227*
X59494Y146826*
X53589*
X51305Y144542*
Y136038*
X72959Y71944D02*
X88549D01*
X96817Y63676*
Y42889*
X101305Y38400*
X133732*
X147880Y24253*
Y22456*
X74061Y136038D02*
Y150763D01*
X76266Y152967*
X117604*
X134159Y169522*
Y201812*
X79061Y136038D02*
Y148164D01*
X78982Y148243*
X89061Y136038D02*
Y120644D01*
X86659Y118243*
X84376*
X84140Y118479*
X91384Y115959D02*
Y117331D01*
X94061Y120009*
Y136038*
X118943Y90812D02*
Y88794D01*
X121384Y86353*
X125872*
X127998Y84227*
Y76432*
X133746Y70684*
X142959*
X119159Y201812D02*
Y187239D01*
X119140Y187219*
Y171038*
X104022Y155920*
X35872*
X31384Y151432*
Y136668*
X31305Y136589*
Y136038*
X137683Y193446D02*
Y195335D01*
X144159Y201812*
X142959Y75684D02*
X134652D01*
X131069Y79267*
Y90686*
X130943Y90812*
X142959Y85684D02*
X154967D01*
X157053Y87770*
X142959Y90684D02*
X150045D01*
X153274Y93912*
Y98873*
X151856Y100290*
X146783*
X144533Y102540*
Y125093*
X133195Y136432*
Y159109*
X137683Y163597*
Y193446*
X150085Y109896D02*
Y117020D01*
X154378Y121314*
X196738*
X202736Y127312*
X219043*
X224293Y122062*
Y105312*
X235543Y94062*
X239293*
X245758Y100526*
X251778*
X260313Y109062*
X280833*
X284219Y112448*
Y123440*
X150085Y149896D02*
Y152928D01*
X161935Y164778*
X154159Y11812D02*
X154179Y22456D01*
X160085Y149896D02*
Y156629D01*
X168234Y164778*
X161935D02*
Y165009D01*
X166738Y169812*
X172226*
X174043Y171629*
X195293*
X200043Y176379*
Y176812*
X164159Y201812D02*
Y184328D01*
X163543Y183711*
X174293Y177912D02*
X169191Y172810D01*
X162722*
X149494Y159581*
X146423*
X140085Y153243*
Y149896*
X174293Y177912D02*
X188943D01*
X190043Y176812*
X174293Y184211D02*
X212644D01*
X220043Y176812*
X179238Y132869D02*
X180291Y132812D01*
X141266*
X136266Y137812*
Y157692*
X141935Y163361*
X148313*
X162364Y177412*
X163543*
X179238Y157475D02*
Y151550D01*
X179376*
Y145312*
X175626Y141562*
X144043*
X140085Y145520*
Y149896*
X184238Y157475D02*
Y161570D01*
X185793Y163125*
X211793*
X218230Y169562*
X221043*
X225043Y173562*
X200293Y80062D02*
Y75475D01*
X203825Y71944*
X207289*
X207604Y71629*
Y77928D02*
Y78251D01*
X203293Y82562*
Y93282*
X209323Y99312*
X212543*
X209494Y140312D02*
Y136668D01*
X209238*
Y132869*
X210043Y176812D02*
Y176294D01*
X202543Y168794*
X177043*
X173028Y164778*
X168234*
X212543Y109312D02*
X211293D01*
X200293Y98312*
Y80062*
X214693Y90062D02*
Y87103D01*
X215443Y86353*
X220833*
X222014Y85172*
Y82410*
X222043Y82381*
Y68812*
X221219Y67987*
X215774*
Y72987D02*
X208963D01*
X207604Y71629*
X215774Y77987D02*
X207663D01*
X207604Y77928*
X220043Y176812D02*
X219632D01*
X208543Y165723*
X178543*
X170085Y157265*
Y149896*
X223293Y142312D02*
Y135009D01*
X225043Y179562D02*
X230793Y185312D01*
X296793*
X299543Y182562*
Y172312*
X295293Y168062*
X290793*
X284793Y162062*
Y158062*
X287793Y155062*
X290772*
X226543Y153062D02*
X225793D01*
X223293Y155562*
Y159615*
X226543Y153062D02*
X225543D01*
X223543Y151062*
X211293*
X209238Y153117*
Y157475*
X228293Y159615D02*
Y163562D01*
X233543Y168812*
X240043*
X248043Y176812*
X250043*
X230043D02*
X230793D01*
X236293Y182312*
X293793*
X295793Y180312*
Y173312*
X293793Y171312*
X289043*
X281043Y163312*
X265293*
X264293Y162312*
Y156562*
X265793Y155062*
X269315*
X233293Y141812D02*
Y135009D01*
Y159615D02*
Y154062D01*
X234293Y153062*
X226543*
X237230Y67987D02*
Y65875D01*
X241043Y62062*
X237230Y82987D02*
X239626D01*
X242801Y79812*
Y66812*
X244551Y65062*
X248793*
X249793Y64062*
Y58312*
X248543Y57062*
X241043*
X237543Y117918D02*
X240907D01*
X245543Y113282*
X252543*
X254219Y114957*
Y123440*
X240043Y176812D02*
X235543Y171562D01*
X231043*
X225043Y165562*
X220043*
X214238Y159757*
Y157475*
X241043Y27062D02*
X228937D01*
X224293Y31706*
X241043Y32062D02*
X234293D01*
X224293Y42062*
Y50918*
X243293Y141812D02*
Y135009D01*
Y159615D02*
Y153812D01*
X244043Y153062*
X234293*
X245293Y168562D02*
X245043D01*
X242043Y165562*
X239293*
X238293Y164562*
Y159615*
X245293Y168562D02*
X251793D01*
X260043Y176812*
X253293Y141812D02*
Y135009D01*
Y159615D02*
Y154062D01*
X254293Y153062*
X260293*
X261543Y154312*
Y164062*
X263543Y166062*
X278793*
X289543Y176812*
X290043*
X254293Y153062D02*
X244043D01*
X259219Y85644D02*
Y95237D01*
X263293Y99312*
X287293*
X296293Y108312*
Y134562*
X300793Y139062*
X314043*
X317543Y142562*
Y189062*
X312793Y193812*
X276543*
X274543Y195812*
X274159Y201812*
X259219Y123440D02*
Y113678D01*
X255043Y109503*
X250900*
X240102Y98706*
X237543*
X269315Y145062D02*
X263543D01*
X260293Y148312*
X182376*
X179376Y145312*
X269315Y155062D02*
Y150062D01*
Y160062D02*
X272043D01*
X275543Y156562*
Y150812*
X284793Y141562*
X294543*
X297543Y144562*
X302293*
X306033Y148302*
X305443Y149312*
X270043Y176812D02*
X267793D01*
X262543Y171562*
X260293*
X254293Y165562*
X250543*
X248293Y163312*
Y159615*
X278839Y32062D02*
X264043D01*
X252793Y43312*
Y66562*
X251043Y68312*
X246793*
X245793Y69312*
Y92562*
X247543Y94312*
X254293*
X262043Y102062*
X285043*
X293543Y110562*
Y136062*
X299293Y141812*
X312043*
X314793Y144562*
Y186312*
X310293Y190812*
X268793*
X264543Y195062*
X264159Y201812*
X278839Y37062D02*
X271435D01*
X261935Y46562*
Y76668*
X264219Y78952*
Y85644*
X278839Y37062D02*
X319043D01*
X323793Y41812*
X324159*
X278839Y42062D02*
X272506D01*
X265006Y49562*
Y75015*
X269219Y79227*
Y85644*
X278839Y42062D02*
X284543D01*
X286793Y39812*
X314543*
X321543Y46812*
X329793*
X334543Y51562*
X334159Y51812*
X278839Y47062D02*
X272827D01*
X268077Y51812*
Y73597*
X274219Y79739*
Y85644*
X278839Y52062D02*
X283431D01*
X290181Y45312*
X310543*
X324543Y59312*
Y61428*
X324159Y61812*
X278839Y57062D02*
X272329D01*
X270911Y58479*
Y66117*
X272486Y67692*
X279219Y85644D02*
Y94237D01*
X281543Y96562*
X291293*
X299043Y104312*
Y133062*
X302293Y136312*
X320043*
X324159Y131812*
X280043Y176812D02*
Y176062D01*
X272793Y168812*
X262543*
X258293Y164562*
Y159615*
X284219Y85644D02*
Y92987D01*
X285043Y93812*
X291321*
X293825Y91308*
Y77141*
X290990Y74306*
X289652*
X289219Y85644D02*
Y80172D01*
X283352Y74306*
X289219Y123440D02*
Y111156D01*
X284124Y106062*
X261565*
X252959Y97456*
X246687*
X239793Y90562*
X235043*
X221043Y104562*
Y121062*
X217543Y124562*
X205656*
X199337Y118243*
X162722*
X161541Y117062*
Y110550*
X160888Y109896*
X160085*
X290772Y150062D02*
X297803D01*
X299144Y149312*
X290772Y150062D02*
Y145062D01*
Y155062D02*
X297783D01*
X300043Y157912*
X290772Y160062D02*
Y160290D01*
X294293Y163812*
X299053*
X300043Y164211*
X303043Y31562D02*
X310543Y24062D01*
X314293*
X320394Y17961*
X326293*
X308293Y157625D02*
Y151572D01*
X305443Y149312*
X308293Y165499D02*
Y187062D01*
X307293Y188062*
X229543*
X220043Y178562*
Y176812*
X308293Y165499D02*
X300071Y164830D01*
X300043Y164211*
X324159Y51812D02*
X321543D01*
X312293Y42562*
X288156*
X283656Y47062*
X278839*
X326293Y11662D02*
X314693D01*
X314159Y11812*
X326293Y17961D02*
X334661D01*
X335043Y18249*
D02*
D80*
X36344Y146826D03*
X78982Y148243D03*
X157053Y87770D03*
X209494Y140312D03*
X223293Y142312D03*
X233293Y141812D03*
X243293D03*
X253293D03*
D02*
D81*
X24167Y69231D02*
X43852D01*
Y41672D02*
X53317D01*
X59258Y47613*
Y59432*
X49459Y69231*
X43852D02*
X49459D01*
X62093Y81865*
D02*
D119*
X241043Y22062D03*
Y27062D03*
Y32062D03*
Y37062D03*
Y42062D03*
Y47062D03*
Y52062D03*
Y57062D03*
Y62062D03*
X278839Y22062D03*
Y27062D03*
Y32062D03*
Y37062D03*
Y42062D03*
Y47062D03*
Y52062D03*
Y57062D03*
Y62062D03*
D02*
D120*
X249219Y85644D03*
Y123440D03*
X254219Y85644D03*
Y123440D03*
X259219Y85644D03*
Y123440D03*
X264219Y85644D03*
Y123440D03*
X269219Y85644D03*
Y123440D03*
X274219Y85644D03*
Y123440D03*
X279219Y85644D03*
Y123440D03*
X284219Y85644D03*
Y123440D03*
X289219Y85644D03*
Y123440D03*
D02*
D121*
X174293Y177912D03*
Y184211D03*
X289573Y55802D03*
Y62101D03*
D02*
D122*
X179238Y132869D03*
Y157475D03*
X184238Y132869D03*
Y157475D03*
X189238Y132869D03*
Y157475D03*
X194238Y132869D03*
Y157475D03*
X199238Y132869D03*
Y157475D03*
X204238Y132869D03*
Y157475D03*
X209238Y132869D03*
Y157475D03*
X214238Y132869D03*
Y157475D03*
X223293Y135009D03*
Y159615D03*
X228293Y135009D03*
Y159615D03*
X233293Y135009D03*
Y159615D03*
X238293Y135009D03*
Y159615D03*
X243293Y135009D03*
Y159615D03*
X248293Y135009D03*
Y159615D03*
X253293Y135009D03*
Y159615D03*
X258293Y135009D03*
Y159615D03*
D02*
D123*
X215774Y67987D03*
Y72987D03*
Y77987D03*
Y82987D03*
X237230Y67987D03*
Y72987D03*
Y77987D03*
Y82987D03*
X269315Y145062D03*
Y150062D03*
Y155062D03*
Y160062D03*
X290772Y145062D03*
Y150062D03*
Y155062D03*
Y160062D03*
D02*
D124*
X142959Y65684D03*
Y70684D03*
Y75684D03*
Y80684D03*
Y85684D03*
Y90684D03*
Y95684D03*
D02*
D125*
X26305Y136038D03*
X31305D03*
X36305D03*
X41305D03*
X46305D03*
X51305D03*
X56305D03*
X69061D03*
X74061D03*
X79061D03*
X84061D03*
X89061D03*
X94061D03*
X99061D03*
D02*
D126*
X140085Y109896D03*
Y149896D03*
X150085Y109896D03*
Y149896D03*
X160085Y109896D03*
Y149896D03*
X170085Y109896D03*
Y149896D03*
D02*
D127*
X49967Y124562D03*
X56266D03*
X114644Y133812D03*
X120943D03*
X126738Y128400D03*
X133037D03*
X133116Y59070D03*
X139415D03*
X219894Y90562D03*
X226193D03*
X284061Y67928D03*
X290360D03*
D02*
D128*
X95043Y90965D03*
Y97658D03*
D02*
D129*
X237230Y77987D02*
X232219D01*
X226793Y72562*
D02*
D130*
X62093Y81865D02*
X72407D01*
X72486Y81944*
X72959*
D02*
D131*
X225043Y173562D02*
Y179562D01*
D02*
D132*
X4293Y600D02*
X341707D01*
Y212100*
X4293*
Y600*
X0Y0D02*
M02*
