G04 EasyPC Gerber Version 21.0.3 Build 4286 *
G04 #@! TF.Part,Single*
G04 #@! TF.FileFunction,Paste,Top *
G04 #@! TF.FilePolarity,Positive *
%FSLAX35Y35*%
%MOIN*%
G04 #@! TA.AperFunction,SMDPad*
%ADD157R,0.01726X0.03301*%
%ADD144R,0.01765X0.11411*%
%ADD151R,0.02159X0.06883*%
%ADD158R,0.02750X0.03537*%
%ADD154R,0.02750X0.14167*%
%ADD107R,0.03143X0.03537*%
%ADD156R,0.03537X0.11411*%
%ADD114R,0.03931X0.07474*%
%ADD111R,0.31096X0.39954*%
%ADD115R,0.02750X0.02750*%
%ADD150R,0.03301X0.01726*%
%ADD143R,0.11411X0.01765*%
%ADD116R,0.05387X0.02041*%
%ADD152R,0.05702X0.02356*%
%ADD153R,0.14167X0.02750*%
%ADD108R,0.03537X0.03143*%
%ADD113R,0.39954X0.31096*%
X0Y0D02*
D02*
D107*
X32486Y124312D03*
X38785D03*
X61069Y17731D03*
X62014Y118479D03*
X67368Y17731D03*
X68313Y118479D03*
X77841D03*
X84140D03*
X100644Y91062D03*
X106943D03*
X112644Y90812D03*
X118943D03*
X124644D03*
X130943D03*
X147880Y22456D03*
X154179D03*
X161935Y164778D03*
X168234D03*
X208394Y90062D03*
X214693D03*
X272486Y67692D03*
X278785D03*
X283352Y74306D03*
X289652D03*
X299144Y149312D03*
X305443D03*
D02*
D108*
X83707Y42928D03*
Y49227D03*
X91384Y109660D03*
Y115959D03*
X163543Y177412D03*
Y183711D03*
X207604Y71629D03*
Y77928D03*
X300043Y157912D03*
Y164211D03*
X326293Y11662D03*
Y17961D03*
D02*
D111*
X181345Y80684D03*
D02*
D113*
X41305Y174424D03*
X84061D03*
D02*
D114*
X14612Y127967D03*
X88431Y30330D03*
D02*
D115*
X14612Y135448D03*
X88431Y22849D03*
D02*
D116*
X308293Y157625D03*
Y165499D03*
X335043Y10375D03*
Y18249D03*
D02*
D143*
X241043Y22062D03*
Y27062D03*
Y32062D03*
Y37062D03*
Y42062D03*
Y47062D03*
Y52062D03*
Y57062D03*
Y62062D03*
X278839Y22062D03*
Y27062D03*
Y32062D03*
Y37062D03*
Y42062D03*
Y47062D03*
Y52062D03*
Y57062D03*
Y62062D03*
D02*
D144*
X249219Y85644D03*
Y123440D03*
X254219Y85644D03*
Y123440D03*
X259219Y85644D03*
Y123440D03*
X264219Y85644D03*
Y123440D03*
X269219Y85644D03*
Y123440D03*
X274219Y85644D03*
Y123440D03*
X279219Y85644D03*
Y123440D03*
X284219Y85644D03*
Y123440D03*
X289219Y85644D03*
Y123440D03*
D02*
D150*
X174293Y177912D03*
Y184211D03*
X289573Y55802D03*
Y62101D03*
D02*
D151*
X179238Y132869D03*
Y157475D03*
X184238Y132869D03*
Y157475D03*
X189238Y132869D03*
Y157475D03*
X194238Y132869D03*
Y157475D03*
X199238Y132869D03*
Y157475D03*
X204238Y132869D03*
Y157475D03*
X209238Y132869D03*
Y157475D03*
X214238Y132869D03*
Y157475D03*
X223293Y135009D03*
Y159615D03*
X228293Y135009D03*
Y159615D03*
X233293Y135009D03*
Y159615D03*
X238293Y135009D03*
Y159615D03*
X243293Y135009D03*
Y159615D03*
X248293Y135009D03*
Y159615D03*
X253293Y135009D03*
Y159615D03*
X258293Y135009D03*
Y159615D03*
D02*
D152*
X215774Y67987D03*
Y72987D03*
Y77987D03*
Y82987D03*
X237230Y67987D03*
Y72987D03*
Y77987D03*
Y82987D03*
X269315Y145062D03*
Y150062D03*
Y155062D03*
Y160062D03*
X290772Y145062D03*
Y150062D03*
Y155062D03*
Y160062D03*
D02*
D153*
X142959Y65684D03*
Y70684D03*
Y75684D03*
Y80684D03*
Y85684D03*
Y90684D03*
Y95684D03*
D02*
D154*
X26305Y136038D03*
X31305D03*
X36305D03*
X41305D03*
X46305D03*
X51305D03*
X56305D03*
X69061D03*
X74061D03*
X79061D03*
X84061D03*
X89061D03*
X94061D03*
X99061D03*
D02*
D156*
X140085Y109896D03*
Y149896D03*
X150085Y109896D03*
Y149896D03*
X160085Y109896D03*
Y149896D03*
X170085Y109896D03*
Y149896D03*
D02*
D157*
X49967Y124562D03*
X56266D03*
X114644Y133812D03*
X120943D03*
X126738Y128400D03*
X133037D03*
X133116Y59070D03*
X139415D03*
X219894Y90562D03*
X226193D03*
X284061Y67928D03*
X290360D03*
D02*
D158*
X95043Y90965D03*
Y97658D03*
X0Y0D02*
M02*
