G04 EasyPC Gerber Version 21.0.3 Build 4286 *
G04 #@! TF.Part,Single*
G04 #@! TF.FileFunction,Legend,Bot *
G04 #@! TF.FilePolarity,Positive *
%FSLAX35Y35*%
%MOIN*%
%ADD85C,0.00394*%
%ADD84C,0.00669*%
%ADD83C,0.00787*%
%ADD73C,0.01200*%
X0Y0D02*
D02*
D73*
X600Y600D02*
X338013D01*
Y212100*
X600*
Y600*
D02*
D83*
X48242Y108085D02*
X50604D01*
X54305Y80723D02*
G75*
G03X55092I394D01*
G01*
X54305D02*
G75*
G02X55092I394D01*
G01*
X55761Y95487D02*
G75*
G03Y96274J394D01*
G01*
Y95487D02*
G75*
G02Y96274J394D01*
G01*
X148783Y26562D02*
X152917D01*
X162917D02*
X158783D01*
X172917D02*
X168783D01*
X182917D02*
X178783D01*
X192917D02*
X188783D01*
X202917D02*
X198783D01*
X286350Y20745D02*
Y24879D01*
X287600Y91993D02*
Y89631D01*
Y101993D02*
Y99631D01*
Y111993D02*
Y109631D01*
Y121993D02*
Y119631D01*
Y131993D02*
Y129631D01*
X294763Y150669D02*
Y153031D01*
X294850Y160669D02*
Y163031D01*
X308263Y145669D02*
Y148031D01*
X308513Y155669D02*
Y158031D01*
Y165669D02*
Y168031D01*
X311281Y66812D02*
X308919D01*
X314031Y51812D02*
X311669D01*
X325167Y13562D02*
X321033D01*
D02*
D84*
X50502Y92024D02*
X53454D01*
Y93501*
X53208Y93993*
X52962Y94239*
X52470Y94485*
X51486*
X50994Y94239*
X50748Y93993*
X50502Y93501*
Y92024*
Y97930D02*
Y95961D01*
X52224Y97684*
X52716Y97930*
X53208Y97684*
X53454Y97192*
Y96454*
X53208Y95961*
X57423Y97324D02*
Y100276D01*
X55700*
X55208Y100030*
X54962Y99538*
X55208Y99046*
X55700Y98800*
X57423*
X55700D02*
X54962Y97324D01*
X52994D02*
X52009D01*
X52502D02*
Y100276D01*
X52994Y99784*
X49303Y97570D02*
X48811Y97324D01*
X48319*
X47826Y97570*
X47580Y98062*
Y99538*
X47826Y100030*
X48319Y100276*
X48811*
X49303Y100030*
X49549Y99538*
Y98062*
X49303Y97570*
X47826Y100030*
X61854Y75471D02*
X58901D01*
Y73995*
X59147Y73503*
X59393Y73257*
X59885Y73011*
X60870*
X61362Y73257*
X61608Y73503*
X61854Y73995*
Y75471*
Y71042D02*
Y70058D01*
Y70550D02*
X58901D01*
X59393Y71042*
X149830Y34522D02*
X149584Y34276D01*
X149338Y33784*
Y33046*
X149584Y32554*
X149830Y32308*
X150322Y32062*
X151307*
X151799Y32308*
X152045Y32554*
X152291Y33046*
Y33784*
X152045Y34276*
X151799Y34522*
X149338Y36491D02*
Y37475D01*
Y36983D02*
X152291D01*
X151799Y36491*
X149584Y39936D02*
X149338Y40428D01*
Y41166*
X149584Y41658*
X150076Y41904*
X150322*
X150815Y41658*
X151061Y41166*
Y39936*
X152291*
Y41904*
X160330Y34772D02*
X160084Y34526D01*
X159838Y34034*
Y33296*
X160084Y32804*
X160330Y32558*
X160822Y32312*
X161807*
X162299Y32558*
X162545Y32804*
X162791Y33296*
Y34034*
X162545Y34526*
X162299Y34772*
X159838Y36741D02*
Y37725D01*
Y37233D02*
X162791D01*
X162299Y36741*
X160576Y40186D02*
X161069Y40432D01*
X161315Y40924*
Y41416*
X161069Y41908*
X160576Y42154*
X160084Y41908*
X159838Y41416*
Y40924*
X160084Y40432*
X160576Y40186*
X161315*
X162053Y40432*
X162545Y40924*
X162791Y41416*
X170580Y34772D02*
X170334Y34526D01*
X170088Y34034*
Y33296*
X170334Y32804*
X170580Y32558*
X171072Y32312*
X172057*
X172549Y32558*
X172795Y32804*
X173041Y33296*
Y34034*
X172795Y34526*
X172549Y34772*
X170088Y36741D02*
Y37725D01*
Y37233D02*
X173041D01*
X172549Y36741*
X170088Y40186D02*
X173041Y42154D01*
Y40186*
X180080Y34522D02*
X179834Y34276D01*
X179588Y33784*
Y33046*
X179834Y32554*
X180080Y32308*
X180572Y32062*
X181557*
X182049Y32308*
X182295Y32554*
X182541Y33046*
Y33784*
X182295Y34276*
X182049Y34522*
X179588Y36491D02*
Y37475D01*
Y36983D02*
X182541D01*
X182049Y36491*
X181065Y40674D02*
Y41166D01*
X181311Y41658*
X181803Y41904*
X182295Y41658*
X182541Y41166*
Y40674*
X182295Y40182*
X181803Y39936*
X181311Y40182*
X181065Y40674*
X180819Y40182*
X180326Y39936*
X179834Y40182*
X179588Y40674*
Y41166*
X179834Y41658*
X180326Y41904*
X180819Y41658*
X181065Y41166*
X190330Y34772D02*
X190084Y34526D01*
X189838Y34034*
Y33296*
X190084Y32804*
X190330Y32558*
X190822Y32312*
X191807*
X192299Y32558*
X192545Y32804*
X192791Y33296*
Y34034*
X192545Y34526*
X192299Y34772*
X189838Y36741D02*
Y37725D01*
Y37233D02*
X192791D01*
X192299Y36741*
X189838Y40924D02*
X190084Y41416D01*
X190576Y41908*
X191315Y42154*
X192053*
X192545Y41908*
X192791Y41416*
Y40924*
X192545Y40432*
X192053Y40186*
X191561Y40432*
X191315Y40924*
Y41416*
X191561Y41908*
X192053Y42154*
X200080Y34772D02*
X199834Y34526D01*
X199588Y34034*
Y33296*
X199834Y32804*
X200080Y32558*
X200572Y32312*
X201557*
X202049Y32558*
X202295Y32804*
X202541Y33296*
Y34034*
X202295Y34526*
X202049Y34772*
X199588Y38217D02*
Y36249D01*
X201311Y37971*
X201803Y38217*
X202295Y37971*
X202541Y37479*
Y36741*
X202295Y36249*
X199834Y40432D02*
X199588Y40924D01*
Y41416*
X199834Y41908*
X200326Y42154*
X201803*
X202295Y41908*
X202541Y41416*
Y40924*
X202295Y40432*
X201803Y40186*
X200326*
X199834Y40432*
X202295Y41908*
X220139Y105792D02*
X220385Y105546D01*
X220878Y105300*
X221616*
X222108Y105546*
X222354Y105792*
X222600Y106284*
Y107269*
X222354Y107761*
X222108Y108007*
X221616Y108253*
X220878*
X220385Y108007*
X220139Y107761*
X217925Y106776D02*
X217433D01*
X216941Y107022*
X216694Y107515*
X216941Y108007*
X217433Y108253*
X217925*
X218417Y108007*
X218663Y107515*
X218417Y107022*
X217925Y106776*
X218417Y106530*
X218663Y106038*
X218417Y105546*
X217925Y105300*
X217433*
X216941Y105546*
X216694Y106038*
X216941Y106530*
X217433Y106776*
X220389Y86792D02*
X220635Y86546D01*
X221128Y86300*
X221866*
X222358Y86546*
X222604Y86792*
X222850Y87284*
Y88269*
X222604Y88761*
X222358Y89007*
X221866Y89253*
X221128*
X220635Y89007*
X220389Y88761*
X218175Y86300D02*
X217683Y86546D01*
X217191Y87038*
X216944Y87776*
Y88515*
X217191Y89007*
X217683Y89253*
X218175*
X218667Y89007*
X218913Y88515*
X218667Y88022*
X218175Y87776*
X217683*
X217191Y88022*
X216944Y88515*
X233889Y25042D02*
X234135Y24796D01*
X234628Y24550*
X235366*
X235858Y24796*
X236104Y25042*
X236350Y25534*
Y26519*
X236104Y27011*
X235858Y27257*
X235366Y27503*
X234628*
X234135Y27257*
X233889Y27011*
X232413Y25288D02*
X232167Y25780D01*
X231675Y26026*
X231183*
X230691Y25780*
X230444Y25288*
X230691Y24796*
X231183Y24550*
X231675*
X232167Y24796*
X232413Y25288*
Y26026*
X232167Y26765*
X231675Y27257*
X231183Y27503*
X235139Y44042D02*
X235385Y43796D01*
X235878Y43550*
X236616*
X237108Y43796*
X237354Y44042*
X237600Y44534*
Y45519*
X237354Y46011*
X237108Y46257*
X236616Y46503*
X235878*
X235385Y46257*
X235139Y46011*
X233663Y43796D02*
X233171Y43550D01*
X232433*
X231941Y43796*
X231694Y44288*
Y44534*
X231941Y45026*
X232433Y45272*
X233663*
Y46503*
X231694*
X288100Y150800D02*
Y153753D01*
X286378*
X285885Y153507*
X285639Y153015*
X285885Y152522*
X286378Y152276*
X288100*
X286378D02*
X285639Y150800D01*
X282194D02*
X284163D01*
X282441Y152522*
X282194Y153015*
X282441Y153507*
X282933Y153753*
X283671*
X284163Y153507*
X279980Y151046D02*
X279488Y150800D01*
X278996*
X278504Y151046*
X278257Y151538*
Y153015*
X278504Y153507*
X278996Y153753*
X279488*
X279980Y153507*
X280226Y153015*
Y151538*
X279980Y151046*
X278504Y153507*
X288600Y160800D02*
Y163753D01*
X286878*
X286385Y163507*
X286139Y163015*
X286385Y162522*
X286878Y162276*
X288600*
X286878D02*
X286139Y160800D01*
X284171D02*
X283187D01*
X283679D02*
Y163753D01*
X284171Y163261*
X279988Y162276D02*
X279496D01*
X279004Y162522*
X278757Y163015*
X279004Y163507*
X279496Y163753*
X279988*
X280480Y163507*
X280726Y163015*
X280480Y162522*
X279988Y162276*
X280480Y162030*
X280726Y161538*
X280480Y161046*
X279988Y160800*
X279496*
X279004Y161046*
X278757Y161538*
X279004Y162030*
X279496Y162276*
X288139Y26542D02*
X288385Y26296D01*
X288878Y26050*
X289616*
X290108Y26296*
X290354Y26542*
X290600Y27034*
Y28019*
X290354Y28511*
X290108Y28757*
X289616Y29003*
X288878*
X288385Y28757*
X288139Y28511*
X284694Y26050D02*
X286663D01*
X284941Y27772*
X284694Y28265*
X284941Y28757*
X285433Y29003*
X286171*
X286663Y28757*
X280757Y26050D02*
X282726D01*
X281004Y27772*
X280757Y28265*
X281004Y28757*
X281496Y29003*
X282234*
X282726Y28757*
X291850Y103050D02*
Y106003D01*
X290128*
X289635Y105757*
X289389Y105265*
X289635Y104772*
X290128Y104526*
X291850*
X290128D02*
X289389Y103050D01*
X287667Y103296D02*
X287175Y103050D01*
X286683*
X286191Y103296*
X285944Y103788*
X286191Y104280*
X286683Y104526*
X287175*
X286683D02*
X286191Y104772D01*
X285944Y105265*
X286191Y105757*
X286683Y106003*
X287175*
X287667Y105757*
X283976Y103296D02*
X283484Y103050D01*
X282746*
X282254Y103296*
X282007Y103788*
Y104034*
X282254Y104526*
X282746Y104772*
X283976*
Y106003*
X282007*
X291850Y133300D02*
Y136253D01*
X290128*
X289635Y136007*
X289389Y135515*
X289635Y135022*
X290128Y134776*
X291850*
X290128D02*
X289389Y133300D01*
X287667Y133546D02*
X287175Y133300D01*
X286683*
X286191Y133546*
X285944Y134038*
X286191Y134530*
X286683Y134776*
X287175*
X286683D02*
X286191Y135022D01*
X285944Y135515*
X286191Y136007*
X286683Y136253*
X287175*
X287667Y136007*
X283238Y134776D02*
X282746D01*
X282254Y135022*
X282007Y135515*
X282254Y136007*
X282746Y136253*
X283238*
X283730Y136007*
X283976Y135515*
X283730Y135022*
X283238Y134776*
X283730Y134530*
X283976Y134038*
X283730Y133546*
X283238Y133300*
X282746*
X282254Y133546*
X282007Y134038*
X282254Y134530*
X282746Y134776*
X292100Y93050D02*
Y96003D01*
X290378*
X289885Y95757*
X289639Y95265*
X289885Y94772*
X290378Y94526*
X292100*
X290378D02*
X289639Y93050D01*
X287917Y93296D02*
X287425Y93050D01*
X286933*
X286441Y93296*
X286194Y93788*
X286441Y94280*
X286933Y94526*
X287425*
X286933D02*
X286441Y94772D01*
X286194Y95265*
X286441Y95757*
X286933Y96003*
X287425*
X287917Y95757*
X282996Y93050D02*
Y96003D01*
X284226Y94034*
X282257*
X292100Y113550D02*
Y116503D01*
X290378*
X289885Y116257*
X289639Y115765*
X289885Y115272*
X290378Y115026*
X292100*
X290378D02*
X289639Y113550D01*
X287917Y113796D02*
X287425Y113550D01*
X286933*
X286441Y113796*
X286194Y114288*
X286441Y114780*
X286933Y115026*
X287425*
X286933D02*
X286441Y115272D01*
X286194Y115765*
X286441Y116257*
X286933Y116503*
X287425*
X287917Y116257*
X284226Y114288D02*
X283980Y114780D01*
X283488Y115026*
X282996*
X282504Y114780*
X282257Y114288*
X282504Y113796*
X282996Y113550*
X283488*
X283980Y113796*
X284226Y114288*
Y115026*
X283980Y115765*
X283488Y116257*
X282996Y116503*
X292100Y123550D02*
Y126503D01*
X290378*
X289885Y126257*
X289639Y125765*
X289885Y125272*
X290378Y125026*
X292100*
X290378D02*
X289639Y123550D01*
X287917Y123796D02*
X287425Y123550D01*
X286933*
X286441Y123796*
X286194Y124288*
X286441Y124780*
X286933Y125026*
X287425*
X286933D02*
X286441Y125272D01*
X286194Y125765*
X286441Y126257*
X286933Y126503*
X287425*
X287917Y126257*
X284226Y123550D02*
X282257Y126503D01*
X284226*
X301350Y145800D02*
Y148753D01*
X299628*
X299135Y148507*
X298889Y148015*
X299135Y147522*
X299628Y147276*
X301350*
X299628D02*
X298889Y145800D01*
X295444D02*
X297413D01*
X295691Y147522*
X295444Y148015*
X295691Y148507*
X296183Y148753*
X296921*
X297413Y148507*
X292984Y145800D02*
X292000D01*
X292492D02*
Y148753D01*
X292984Y148261*
X301850Y155550D02*
Y158503D01*
X300128*
X299635Y158257*
X299389Y157765*
X299635Y157272*
X300128Y157026*
X301850*
X300128D02*
X299389Y155550D01*
X297421D02*
X296437D01*
X296929D02*
Y158503D01*
X297421Y158011*
X293238Y155550D02*
X292746Y155796D01*
X292254Y156288*
X292007Y157026*
Y157765*
X292254Y158257*
X292746Y158503*
X293238*
X293730Y158257*
X293976Y157765*
X293730Y157272*
X293238Y157026*
X292746*
X292254Y157272*
X292007Y157765*
X302600Y165800D02*
Y168753D01*
X300878*
X300385Y168507*
X300139Y168015*
X300385Y167522*
X300878Y167276*
X302600*
X300878D02*
X300139Y165800D01*
X298171D02*
X297187D01*
X297679D02*
Y168753D01*
X298171Y168261*
X294726Y165800D02*
X292757Y168753D01*
X294726*
X314850Y59050D02*
Y62003D01*
X313128*
X312635Y61757*
X312389Y61265*
X312635Y60772*
X313128Y60526*
X314850*
X313128D02*
X312389Y59050D01*
X308944D02*
X310913D01*
X309191Y60772*
X308944Y61265*
X309191Y61757*
X309683Y62003*
X310421*
X310913Y61757*
X306976Y59788D02*
X306730Y60280D01*
X306238Y60526*
X305746*
X305254Y60280*
X305007Y59788*
X305254Y59296*
X305746Y59050*
X306238*
X306730Y59296*
X306976Y59788*
Y60526*
X306730Y61265*
X306238Y61757*
X305746Y62003*
X316600Y44050D02*
Y47003D01*
X314878*
X314385Y46757*
X314139Y46265*
X314385Y45772*
X314878Y45526*
X316600*
X314878D02*
X314139Y44050D01*
X310694D02*
X312663D01*
X310941Y45772*
X310694Y46265*
X310941Y46757*
X311433Y47003*
X312171*
X312663Y46757*
X308726Y44296D02*
X308234Y44050D01*
X307496*
X307004Y44296*
X306757Y44788*
Y45034*
X307004Y45526*
X307496Y45772*
X308726*
Y47003*
X306757*
X324889Y5542D02*
X325135Y5296D01*
X325628Y5050*
X326366*
X326858Y5296*
X327104Y5542*
X327350Y6034*
Y7019*
X327104Y7511*
X326858Y7757*
X326366Y8003*
X325628*
X325135Y7757*
X324889Y7511*
X321444Y5050D02*
X323413D01*
X321691Y6772*
X321444Y7265*
X321691Y7757*
X322183Y8003*
X322921*
X323413Y7757*
X318984Y5050D02*
X318000D01*
X318492D02*
Y8003D01*
X318984Y7511*
D02*
D85*
X52533Y68912D02*
Y66156D01*
X57651Y68912D02*
Y66156D01*
X67572Y93715D02*
X70328D01*
X67572Y98833D02*
X70328D01*
X0Y0D02*
M02*
