G04 EasyPC Gerber Version 21.0.3 Build 4286 *
G04 #@! TF.Part,Single*
G04 #@! TF.FileFunction,Soldermask,Top *
G04 #@! TF.FilePolarity,Negative *
%FSLAX35Y35*%
%MOIN*%
G04 #@! TA.AperFunction,SMDPad*
%ADD141R,0.03126X0.04701*%
%ADD134R,0.03165X0.12811*%
%ADD136R,0.03559X0.08283*%
%ADD142R,0.04150X0.04937*%
%ADD139R,0.04150X0.15567*%
%ADD90R,0.04543X0.04937*%
%ADD140R,0.04937X0.12811*%
%ADD103R,0.05331X0.08874*%
%ADD100R,0.32496X0.41354*%
%ADD104R,0.04150X0.04150*%
G04 #@! TA.AperFunction,ComponentPad*
%ADD86R,0.07496X0.07496*%
%ADD88R,0.07575X0.07575*%
%ADD84R,0.08382X0.08382*%
%ADD95R,0.08559X0.08559*%
%ADD99C,0.02600*%
%ADD92C,0.05449*%
%ADD98C,0.06118*%
%ADD97C,0.06748*%
G04 #@! TA.AperFunction,SMDPad*
%ADD135R,0.04701X0.03126*%
%ADD133R,0.12811X0.03165*%
%ADD105R,0.06787X0.03441*%
%ADD137R,0.07102X0.03756*%
G04 #@! TA.AperFunction,ComponentPad*
%ADD87C,0.07496*%
G04 #@! TA.AperFunction,SMDPad*
%ADD138R,0.15567X0.04150*%
%ADD91R,0.04937X0.04543*%
G04 #@! TA.AperFunction,ComponentPad*
%ADD89C,0.07575*%
%ADD106C,0.08087*%
%ADD85C,0.08382*%
%ADD96C,0.08559*%
%AMT83*0 Octagon Pad at angle 0*4,1,8,-0.01449,-0.03500,0.01449,-0.03500,0.03500,-0.01449,0.03500,0.01449,0.01449,0.03500,-0.01449,0.03500,-0.03500,0.01449,-0.03500,-0.01449,-0.01449,-0.03500,0*%
%ADD83T83*%
G04 #@! TA.AperFunction,SMDPad*
%ADD102R,0.41354X0.32496*%
X0Y0D02*
D02*
D83*
X29159Y201812D03*
X39159D03*
X49159D03*
X59159D03*
X69159D03*
X74159Y11812D03*
X79159Y201812D03*
X84159Y11812D03*
X89159Y201812D03*
X94159Y11812D03*
X99159Y201812D03*
X104159Y11812D03*
X109159Y201812D03*
X114159Y11812D03*
X119159Y201812D03*
X124159Y11812D03*
X134159D03*
Y201812D03*
X144159D03*
X154159Y11812D03*
Y201812D03*
X164159Y11812D03*
Y201812D03*
X174159Y11812D03*
Y201812D03*
X184159Y11812D03*
Y201812D03*
X194159Y11812D03*
Y201812D03*
X204159Y11812D03*
Y201812D03*
X214159Y11812D03*
X224159D03*
Y201812D03*
X234159D03*
X244159Y11812D03*
Y201812D03*
X254159Y11812D03*
Y201812D03*
X264159Y11812D03*
Y201812D03*
X274159Y11812D03*
Y201812D03*
X284159Y11812D03*
Y201812D03*
X294159Y11812D03*
Y201812D03*
X304159Y11812D03*
X314159D03*
X324159Y31812D03*
Y41812D03*
Y51812D03*
Y61812D03*
Y71812D03*
Y81812D03*
Y91812D03*
Y101812D03*
Y111812D03*
Y121812D03*
Y131812D03*
Y141812D03*
Y151812D03*
Y161812D03*
Y171812D03*
Y181812D03*
Y191812D03*
Y201812D03*
X334159Y31812D03*
Y41812D03*
Y51812D03*
Y61812D03*
Y71812D03*
Y81812D03*
Y91812D03*
Y101812D03*
Y111812D03*
Y121812D03*
Y131812D03*
Y141812D03*
Y151812D03*
Y161812D03*
Y171812D03*
Y181812D03*
Y191812D03*
Y201812D03*
D02*
D84*
X207132Y40763D03*
X305543Y50812D03*
D02*
D85*
X147132Y40763D03*
X157132D03*
X167132D03*
X177132D03*
X187132D03*
X197132D03*
X305543Y60812D03*
Y70812D03*
Y80812D03*
Y90812D03*
Y100812D03*
Y110812D03*
Y120812D03*
Y130812D03*
D02*
D86*
X212543Y99312D03*
X290043Y176812D03*
X293043Y31562D03*
D02*
D87*
X190043Y176812D03*
X200043D03*
X210043D03*
X212543Y109312D03*
Y119312D03*
X220043Y176812D03*
X230043D03*
X240043D03*
X250043D03*
X260043D03*
X270043D03*
X280043D03*
X303043Y31562D03*
X313043D03*
D02*
D88*
X66581Y101707D03*
X72959Y71944D03*
D02*
D89*
Y81944D03*
X76581Y101707D03*
D02*
D90*
X32486Y124312D03*
X38785D03*
X61069Y17731D03*
X62014Y118479D03*
X67368Y17731D03*
X68313Y118479D03*
X77841D03*
X84140D03*
X100644Y91062D03*
X106943D03*
X112644Y90812D03*
X118943D03*
X124644D03*
X130943D03*
X147880Y22456D03*
X154179D03*
X161935Y164778D03*
X168234D03*
X208394Y90062D03*
X214693D03*
X272486Y67692D03*
X278785D03*
X283352Y74306D03*
X289652D03*
X299144Y149312D03*
X305443D03*
D02*
D91*
X83707Y42928D03*
Y49227D03*
X91384Y109660D03*
Y115959D03*
X163543Y177412D03*
Y183711D03*
X207604Y71629D03*
Y77928D03*
X300043Y157912D03*
Y164211D03*
X326293Y11662D03*
Y17961D03*
D02*
D92*
X224293Y31706D03*
Y50918D03*
X237543Y98706D03*
Y117918D03*
D02*
D95*
X41069Y109739D03*
X72250Y32967D03*
D02*
D96*
X21069Y109739D03*
X31069D03*
X72250Y42967D03*
Y52967D03*
D02*
D97*
X98707Y75487D03*
X108707D03*
X118707D03*
D02*
D98*
X117604Y106511D03*
Y114385D03*
D02*
D99*
X26305Y165054D03*
Y170054D03*
Y175054D03*
Y180054D03*
Y185054D03*
X31305Y165054D03*
Y170054D03*
Y175054D03*
Y180054D03*
Y185054D03*
X36305Y165054D03*
Y170054D03*
Y175054D03*
Y180054D03*
Y185054D03*
X41305Y165054D03*
Y170054D03*
Y175054D03*
Y180054D03*
Y185054D03*
X46305Y165054D03*
Y170054D03*
Y175054D03*
Y180054D03*
Y185054D03*
X51305Y165054D03*
Y170054D03*
Y175054D03*
Y180054D03*
Y185054D03*
X56305Y165054D03*
Y170054D03*
Y175054D03*
Y180054D03*
Y185054D03*
X69061Y165054D03*
Y170054D03*
Y175054D03*
Y180054D03*
Y185054D03*
X74061Y165054D03*
Y170054D03*
Y175054D03*
Y180054D03*
Y185054D03*
X79061Y165054D03*
Y170054D03*
Y175054D03*
Y180054D03*
Y185054D03*
X84061Y165054D03*
Y170054D03*
Y175054D03*
Y180054D03*
Y185054D03*
X89061Y165054D03*
Y170054D03*
Y175054D03*
Y180054D03*
Y185054D03*
X94061Y165054D03*
Y170054D03*
Y175054D03*
Y180054D03*
Y185054D03*
X99061Y165054D03*
Y170054D03*
Y175054D03*
Y180054D03*
Y185054D03*
X171974Y65684D03*
Y70684D03*
Y75684D03*
Y80684D03*
Y85684D03*
Y90684D03*
Y95684D03*
X176974Y65684D03*
Y70684D03*
Y75684D03*
Y80684D03*
Y85684D03*
Y90684D03*
Y95684D03*
X181974Y65684D03*
Y70684D03*
Y75684D03*
Y80684D03*
Y85684D03*
Y90684D03*
Y95684D03*
X186974Y65684D03*
Y70684D03*
Y75684D03*
Y80684D03*
Y85684D03*
Y90684D03*
Y95684D03*
X191974Y65684D03*
Y70684D03*
Y75684D03*
Y80684D03*
Y85684D03*
Y90684D03*
Y95684D03*
D02*
D100*
X181345Y80684D03*
D02*
D102*
X41305Y174424D03*
X84061D03*
D02*
D103*
X14612Y127967D03*
X88431Y30330D03*
D02*
D104*
X14612Y135448D03*
X88431Y22849D03*
D02*
D105*
X308293Y157625D03*
Y165499D03*
X335043Y10375D03*
Y18249D03*
D02*
D106*
X24167Y14113D03*
Y27893D03*
Y41672D03*
Y55452D03*
Y69231D03*
Y83011D03*
X43852Y14113D03*
Y27893D03*
Y41672D03*
Y55452D03*
Y69231D03*
Y83011D03*
X108648Y31255D03*
Y45034D03*
X125128Y169639D03*
Y183418D03*
X128333Y31255D03*
Y45034D03*
X144813Y169639D03*
Y183418D03*
D02*
D133*
X241043Y22062D03*
Y27062D03*
Y32062D03*
Y37062D03*
Y42062D03*
Y47062D03*
Y52062D03*
Y57062D03*
Y62062D03*
X278839Y22062D03*
Y27062D03*
Y32062D03*
Y37062D03*
Y42062D03*
Y47062D03*
Y52062D03*
Y57062D03*
Y62062D03*
D02*
D134*
X249219Y85644D03*
Y123440D03*
X254219Y85644D03*
Y123440D03*
X259219Y85644D03*
Y123440D03*
X264219Y85644D03*
Y123440D03*
X269219Y85644D03*
Y123440D03*
X274219Y85644D03*
Y123440D03*
X279219Y85644D03*
Y123440D03*
X284219Y85644D03*
Y123440D03*
X289219Y85644D03*
Y123440D03*
D02*
D135*
X174293Y177912D03*
Y184211D03*
X289573Y55802D03*
Y62101D03*
D02*
D136*
X179238Y132869D03*
Y157475D03*
X184238Y132869D03*
Y157475D03*
X189238Y132869D03*
Y157475D03*
X194238Y132869D03*
Y157475D03*
X199238Y132869D03*
Y157475D03*
X204238Y132869D03*
Y157475D03*
X209238Y132869D03*
Y157475D03*
X214238Y132869D03*
Y157475D03*
X223293Y135009D03*
Y159615D03*
X228293Y135009D03*
Y159615D03*
X233293Y135009D03*
Y159615D03*
X238293Y135009D03*
Y159615D03*
X243293Y135009D03*
Y159615D03*
X248293Y135009D03*
Y159615D03*
X253293Y135009D03*
Y159615D03*
X258293Y135009D03*
Y159615D03*
D02*
D137*
X215774Y67987D03*
Y72987D03*
Y77987D03*
Y82987D03*
X237230Y67987D03*
Y72987D03*
Y77987D03*
Y82987D03*
X269315Y145062D03*
Y150062D03*
Y155062D03*
Y160062D03*
X290772Y145062D03*
Y150062D03*
Y155062D03*
Y160062D03*
D02*
D138*
X142959Y65684D03*
Y70684D03*
Y75684D03*
Y80684D03*
Y85684D03*
Y90684D03*
Y95684D03*
D02*
D139*
X26305Y136038D03*
X31305D03*
X36305D03*
X41305D03*
X46305D03*
X51305D03*
X56305D03*
X69061D03*
X74061D03*
X79061D03*
X84061D03*
X89061D03*
X94061D03*
X99061D03*
D02*
D140*
X140085Y109896D03*
Y149896D03*
X150085Y109896D03*
Y149896D03*
X160085Y109896D03*
Y149896D03*
X170085Y109896D03*
Y149896D03*
D02*
D141*
X49967Y124562D03*
X56266D03*
X114644Y133812D03*
X120943D03*
X126738Y128400D03*
X133037D03*
X133116Y59070D03*
X139415D03*
X219894Y90562D03*
X226193D03*
X284061Y67928D03*
X290360D03*
D02*
D142*
X95043Y90965D03*
Y97658D03*
X0Y0D02*
M02*
